<?xml version="1.0" encoding="UTF-8" standalone="no"?>
<!DOCTYPE svg PUBLIC "-//W3C//DTD SVG 1.1//EN"
 "http://www.w3.org/Graphics/SVG/1.1/DTD/svg11.dtd">
<!-- Generated by graphviz version 7.1.0 (0)
 -->
<!-- Pages: 1 -->
<svg width="498pt" height="588pt"
 viewBox="0.00 0.00 498.00 587.77" xmlns="http://www.w3.org/2000/svg" xmlns:xlink="http://www.w3.org/1999/xlink">
<g id="graph0" class="graph" transform="scale(1 1) rotate(0) translate(4 583.77)">
<polygon fill="white" stroke="none" points="-4,4 -4,-583.77 494,-583.77 494,4 -4,4"/>
<g id="clust1" class="cluster">
<title>cluster500</title>
<path fill="none" stroke="black" d="M20,-8C20,-8 276,-8 276,-8 282,-8 288,-14 288,-20 288,-20 288,-548.79 288,-548.79 288,-554.79 282,-560.79 276,-560.79 276,-560.79 20,-560.79 20,-560.79 14,-560.79 8,-554.79 8,-548.79 8,-548.79 8,-20 8,-20 8,-14 14,-8 20,-8"/>
<text text-anchor="middle" x="269.5" y="-15.8" font-family="Times,serif" font-size="14.00">500</text>
</g>
<g id="clust2" class="cluster">
<title>clustersales_predictors (5)</title>
<path fill="none" stroke="black" d="M308,-232.91C308,-232.91 407,-232.91 407,-232.91 413,-232.91 419,-238.91 419,-244.91 419,-244.91 419,-334.86 419,-334.86 419,-340.86 413,-346.86 407,-346.86 407,-346.86 308,-346.86 308,-346.86 302,-346.86 296,-340.86 296,-334.86 296,-334.86 296,-244.91 296,-244.91 296,-238.91 302,-232.91 308,-232.91"/>
<text text-anchor="middle" x="357.5" y="-240.71" font-family="Times,serif" font-size="14.00">sales_predictors (5)</text>
</g>
<g id="clust3" class="cluster">
<title>clustersearch_traffic_predictors (3)</title>
<path fill="none" stroke="black" d="M308,-457.81C308,-457.81 470,-457.81 470,-457.81 476,-457.81 482,-463.81 482,-469.81 482,-469.81 482,-559.77 482,-559.77 482,-565.77 476,-571.77 470,-571.77 470,-571.77 308,-571.77 308,-571.77 302,-571.77 296,-565.77 296,-559.77 296,-559.77 296,-469.81 296,-469.81 296,-463.81 302,-457.81 308,-457.81"/>
<text text-anchor="middle" x="396.5" y="-465.61" font-family="Times,serif" font-size="14.00">search_traffic_predictors (3)</text>
</g>
<!-- sales -->
<g id="node1" class="node">
<title>sales</title>
<ellipse fill="lightgrey" stroke="black" cx="208" cy="-76.48" rx="41.94" ry="37.45"/>
<text text-anchor="middle" x="208" y="-87.78" font-family="Times,serif" font-size="14.00">sales</text>
<text text-anchor="middle" x="208" y="-72.78" font-family="Times,serif" font-size="14.00">~</text>
<text text-anchor="middle" x="208" y="-57.78" font-family="Times,serif" font-size="14.00">Normal</text>
</g>
<!-- season -->
<g id="node2" class="node">
<title>season</title>
<path fill="lightgrey" stroke="black" d="M162,-552.79C162,-552.79 132,-552.79 132,-552.79 126,-552.79 120,-546.79 120,-540.79 120,-540.79 120,-511.79 120,-511.79 120,-505.79 126,-499.79 132,-499.79 132,-499.79 162,-499.79 162,-499.79 168,-499.79 174,-505.79 174,-511.79 174,-511.79 174,-540.79 174,-540.79 174,-546.79 168,-552.79 162,-552.79"/>
<text text-anchor="middle" x="147" y="-537.59" font-family="Times,serif" font-size="14.00">season</text>
<text text-anchor="middle" x="147" y="-522.59" font-family="Times,serif" font-size="14.00">~</text>
<text text-anchor="middle" x="147" y="-507.59" font-family="Times,serif" font-size="14.00">Data</text>
</g>
<!-- mu_sales -->
<g id="node5" class="node">
<title>mu_sales</title>
<polygon fill="none" stroke="black" points="194.5,-213.93 103.5,-213.93 103.5,-160.93 194.5,-160.93 194.5,-213.93"/>
<text text-anchor="middle" x="149" y="-198.73" font-family="Times,serif" font-size="14.00">mu_sales</text>
<text text-anchor="middle" x="149" y="-183.73" font-family="Times,serif" font-size="14.00">~</text>
<text text-anchor="middle" x="149" y="-168.73" font-family="Times,serif" font-size="14.00">Deterministic</text>
</g>
<!-- season&#45;&gt;mu_sales -->
<g id="edge4" class="edge">
<title>season&#45;&gt;mu_sales</title>
<path fill="none" stroke="black" d="M139.44,-499.38C133.89,-484.94 124.86,-467.88 111,-457.81 94.57,-445.87 80.41,-464.13 66,-449.81 31.67,-415.71 20.49,-273.38 47,-232.91 57.39,-217.05 74.8,-206.81 92.32,-200.22"/>
<polygon fill="black" stroke="black" points="93.39,-203.55 101.75,-197.05 91.16,-196.92 93.39,-203.55"/>
</g>
<!-- mu_search_traffic -->
<g id="node6" class="node">
<title>mu_search_traffic</title>
<polygon fill="none" stroke="black" points="191,-438.84 75,-438.84 75,-385.84 191,-385.84 191,-438.84"/>
<text text-anchor="middle" x="133" y="-423.64" font-family="Times,serif" font-size="14.00">mu_search_traffic</text>
<text text-anchor="middle" x="133" y="-408.64" font-family="Times,serif" font-size="14.00">~</text>
<text text-anchor="middle" x="133" y="-393.64" font-family="Times,serif" font-size="14.00">Deterministic</text>
</g>
<!-- season&#45;&gt;mu_search_traffic -->
<g id="edge9" class="edge">
<title>season&#45;&gt;mu_search_traffic</title>
<path fill="none" stroke="black" d="M143.75,-499.32C141.93,-484.77 139.63,-466.37 137.63,-450.33"/>
<polygon fill="black" stroke="black" points="141.13,-450.15 136.42,-440.66 134.19,-451.02 141.13,-450.15"/>
</g>
<!-- brand_spend -->
<g id="node3" class="node">
<title>brand_spend</title>
<path fill="lightgrey" stroke="black" d="M90,-552.79C90,-552.79 28,-552.79 28,-552.79 22,-552.79 16,-546.79 16,-540.79 16,-540.79 16,-511.79 16,-511.79 16,-505.79 22,-499.79 28,-499.79 28,-499.79 90,-499.79 90,-499.79 96,-499.79 102,-505.79 102,-511.79 102,-511.79 102,-540.79 102,-540.79 102,-546.79 96,-552.79 90,-552.79"/>
<text text-anchor="middle" x="59" y="-537.59" font-family="Times,serif" font-size="14.00">brand_spend</text>
<text text-anchor="middle" x="59" y="-522.59" font-family="Times,serif" font-size="14.00">~</text>
<text text-anchor="middle" x="59" y="-507.59" font-family="Times,serif" font-size="14.00">Data</text>
</g>
<!-- brand_spend&#45;&gt;mu_sales -->
<g id="edge5" class="edge">
<title>brand_spend&#45;&gt;mu_sales</title>
<path fill="none" stroke="black" d="M46,-499.42C20.55,-444.74 -28.56,-315.63 29,-232.91 43.41,-212.2 68.63,-201.12 92.25,-195.19"/>
<polygon fill="black" stroke="black" points="92.82,-198.65 101.82,-193.07 91.3,-191.81 92.82,-198.65"/>
</g>
<!-- brand_spend&#45;&gt;mu_search_traffic -->
<g id="edge10" class="edge">
<title>brand_spend&#45;&gt;mu_search_traffic</title>
<path fill="none" stroke="black" d="M76.16,-499.32C86.16,-484.21 98.89,-464.94 109.77,-448.48"/>
<polygon fill="black" stroke="black" points="112.5,-450.7 115.1,-440.42 106.66,-446.84 112.5,-450.7"/>
</g>
<!-- perf_spend -->
<g id="node4" class="node">
<title>perf_spend</title>
<path fill="lightgrey" stroke="black" d="M267.5,-327.88C267.5,-327.88 214.5,-327.88 214.5,-327.88 208.5,-327.88 202.5,-321.88 202.5,-315.88 202.5,-315.88 202.5,-286.88 202.5,-286.88 202.5,-280.88 208.5,-274.88 214.5,-274.88 214.5,-274.88 267.5,-274.88 267.5,-274.88 273.5,-274.88 279.5,-280.88 279.5,-286.88 279.5,-286.88 279.5,-315.88 279.5,-315.88 279.5,-321.88 273.5,-327.88 267.5,-327.88"/>
<text text-anchor="middle" x="241" y="-312.68" font-family="Times,serif" font-size="14.00">perf_spend</text>
<text text-anchor="middle" x="241" y="-297.68" font-family="Times,serif" font-size="14.00">~</text>
<text text-anchor="middle" x="241" y="-282.68" font-family="Times,serif" font-size="14.00">Data</text>
</g>
<!-- perf_spend&#45;&gt;mu_sales -->
<g id="edge3" class="edge">
<title>perf_spend&#45;&gt;mu_sales</title>
<path fill="none" stroke="black" d="M224.15,-274.67C215.34,-261.76 204.1,-246.11 193,-232.91 190.01,-229.35 186.79,-225.75 183.51,-222.2"/>
<polygon fill="black" stroke="black" points="186.27,-220.02 176.83,-215.2 181.2,-224.85 186.27,-220.02"/>
</g>
<!-- mu_sales&#45;&gt;sales -->
<g id="edge12" class="edge">
<title>mu_sales&#45;&gt;sales</title>
<path fill="none" stroke="black" d="M162.98,-160.61C169.44,-148.67 177.3,-134.18 184.62,-120.65"/>
<polygon fill="black" stroke="black" points="187.68,-122.34 189.37,-111.88 181.53,-119.01 187.68,-122.34"/>
</g>
<!-- search_traffic -->
<g id="node7" class="node">
<title>search_traffic</title>
<ellipse fill="lightgrey" stroke="black" cx="120" cy="-301.38" rx="64.19" ry="37.45"/>
<text text-anchor="middle" x="120" y="-312.68" font-family="Times,serif" font-size="14.00">search_traffic</text>
<text text-anchor="middle" x="120" y="-297.68" font-family="Times,serif" font-size="14.00">~</text>
<text text-anchor="middle" x="120" y="-282.68" font-family="Times,serif" font-size="14.00">Normal</text>
</g>
<!-- mu_search_traffic&#45;&gt;search_traffic -->
<g id="edge2" class="edge">
<title>mu_search_traffic&#45;&gt;search_traffic</title>
<path fill="none" stroke="black" d="M129.92,-385.52C128.67,-375.02 127.18,-362.55 125.74,-350.5"/>
<polygon fill="black" stroke="black" points="129.23,-350.17 124.57,-340.65 122.28,-351 129.23,-350.17"/>
</g>
<!-- search_traffic&#45;&gt;mu_sales -->
<g id="edge6" class="edge">
<title>search_traffic&#45;&gt;mu_sales</title>
<path fill="none" stroke="black" d="M129.42,-264.04C132.63,-251.62 136.23,-237.73 139.46,-225.27"/>
<polygon fill="black" stroke="black" points="142.79,-226.35 141.91,-215.79 136.02,-224.59 142.79,-226.35"/>
</g>
<!-- beta_sales -->
<g id="node8" class="node">
<title>beta_sales</title>
<ellipse fill="none" stroke="black" cx="355" cy="-301.38" rx="50.82" ry="37.45"/>
<text text-anchor="middle" x="355" y="-312.68" font-family="Times,serif" font-size="14.00">beta_sales</text>
<text text-anchor="middle" x="355" y="-297.68" font-family="Times,serif" font-size="14.00">~</text>
<text text-anchor="middle" x="355" y="-282.68" font-family="Times,serif" font-size="14.00">Normal</text>
</g>
<!-- beta_sales&#45;&gt;mu_sales -->
<g id="edge7" class="edge">
<title>beta_sales&#45;&gt;mu_sales</title>
<path fill="none" stroke="black" d="M330.88,-268.03C320.16,-255.56 306.66,-242.11 292,-232.91 265.87,-216.5 233.25,-205.75 205.76,-198.94"/>
<polygon fill="black" stroke="black" points="206.73,-195.57 196.19,-196.68 205.12,-202.38 206.73,-195.57"/>
</g>
<!-- sigma_sales -->
<g id="node9" class="node">
<title>sigma_sales</title>
<ellipse fill="none" stroke="black" cx="355" cy="-187.43" rx="58.88" ry="37.45"/>
<text text-anchor="middle" x="355" y="-198.73" font-family="Times,serif" font-size="14.00">sigma_sales</text>
<text text-anchor="middle" x="355" y="-183.73" font-family="Times,serif" font-size="14.00">~</text>
<text text-anchor="middle" x="355" y="-168.73" font-family="Times,serif" font-size="14.00">Halfnormal</text>
</g>
<!-- sigma_sales&#45;&gt;sales -->
<g id="edge11" class="edge">
<title>sigma_sales&#45;&gt;sales</title>
<path fill="none" stroke="black" d="M317.14,-158.37C296.25,-142.88 270.28,-123.64 248.91,-107.8"/>
<polygon fill="black" stroke="black" points="251.1,-105.06 240.98,-101.92 246.93,-110.69 251.1,-105.06"/>
</g>
<!-- sigma_search_traffic -->
<g id="node10" class="node">
<title>sigma_search_traffic</title>
<ellipse fill="none" stroke="black" cx="389" cy="-412.34" rx="92.76" ry="37.45"/>
<text text-anchor="middle" x="389" y="-423.64" font-family="Times,serif" font-size="14.00">sigma_search_traffic</text>
<text text-anchor="middle" x="389" y="-408.64" font-family="Times,serif" font-size="14.00">~</text>
<text text-anchor="middle" x="389" y="-393.64" font-family="Times,serif" font-size="14.00">Halfnormal</text>
</g>
<!-- sigma_search_traffic&#45;&gt;search_traffic -->
<g id="edge1" class="edge">
<title>sigma_search_traffic&#45;&gt;search_traffic</title>
<path fill="none" stroke="black" d="M322.99,-385.69C312.67,-381.92 302.08,-378.19 292,-374.86 248.99,-360.65 235.55,-364.91 194,-346.86 186.63,-343.66 179.1,-339.85 171.8,-335.82"/>
<polygon fill="black" stroke="black" points="173.76,-332.91 163.34,-330.98 170.28,-338.99 173.76,-332.91"/>
</g>
<!-- beta_search_traffic -->
<g id="node11" class="node">
<title>beta_search_traffic</title>
<ellipse fill="none" stroke="black" cx="389" cy="-526.29" rx="84.71" ry="37.45"/>
<text text-anchor="middle" x="389" y="-537.59" font-family="Times,serif" font-size="14.00">beta_search_traffic</text>
<text text-anchor="middle" x="389" y="-522.59" font-family="Times,serif" font-size="14.00">~</text>
<text text-anchor="middle" x="389" y="-507.59" font-family="Times,serif" font-size="14.00">Normal</text>
</g>
<!-- beta_search_traffic&#45;&gt;mu_search_traffic -->
<g id="edge8" class="edge">
<title>beta_search_traffic&#45;&gt;mu_search_traffic</title>
<path fill="none" stroke="black" d="M348.85,-492.83C332.06,-480.49 311.86,-467.17 292,-457.81 263.84,-444.55 230.97,-434.53 202.44,-427.4"/>
<polygon fill="black" stroke="black" points="203.34,-424.02 192.8,-425.07 201.7,-430.82 203.34,-424.02"/>
</g>
</g>
</svg>
