<?xml version="1.0" encoding="UTF-8" standalone="no"?>
<!DOCTYPE svg PUBLIC "-//W3C//DTD SVG 1.1//EN"
 "http://www.w3.org/Graphics/SVG/1.1/DTD/svg11.dtd">
<!-- Generated by graphviz version 7.1.0 (0)
 -->
<!-- Pages: 1 -->
<svg width="960pt" height="458pt"
 viewBox="0.00 0.00 960.38 457.81" xmlns="http://www.w3.org/2000/svg" xmlns:xlink="http://www.w3.org/1999/xlink">
<g id="graph0" class="graph" transform="scale(1 1) rotate(0) translate(4 453.81)">
<polygon fill="white" stroke="none" points="-4,4 -4,-453.81 956.38,-453.81 956.38,4 -4,4"/>
<g id="clust1" class="cluster">
<title>cluster30 x 4</title>
<path fill="none" stroke="black" d="M116.38,-8C116.38,-8 306.38,-8 306.38,-8 312.38,-8 318.38,-14 318.38,-20 318.38,-20 318.38,-323.88 318.38,-323.88 318.38,-329.88 312.38,-335.88 306.38,-335.88 306.38,-335.88 116.38,-335.88 116.38,-335.88 110.38,-335.88 104.38,-329.88 104.38,-323.88 104.38,-323.88 104.38,-20 104.38,-20 104.38,-14 110.38,-8 116.38,-8"/>
<text text-anchor="middle" x="292.88" y="-15.8" font-family="Times,serif" font-size="14.00">30 x 4</text>
</g>
<g id="clust2" class="cluster">
<title>clusterunit (4)</title>
<path fill="none" stroke="black" d="M697.38,-232.91C697.38,-232.91 801.38,-232.91 801.38,-232.91 807.38,-232.91 813.38,-238.91 813.38,-244.91 813.38,-244.91 813.38,-334.86 813.38,-334.86 813.38,-340.86 807.38,-346.86 801.38,-346.86 801.38,-346.86 697.38,-346.86 697.38,-346.86 691.38,-346.86 685.38,-340.86 685.38,-334.86 685.38,-334.86 685.38,-244.91 685.38,-244.91 685.38,-238.91 691.38,-232.91 697.38,-232.91"/>
<text text-anchor="middle" x="784.88" y="-240.71" font-family="Times,serif" font-size="14.00">unit (4)</text>
</g>
<g id="clust3" class="cluster">
<title>clustersales_predictors (4)</title>
<path fill="none" stroke="black" d="M833.38,-232.91C833.38,-232.91 932.38,-232.91 932.38,-232.91 938.38,-232.91 944.38,-238.91 944.38,-244.91 944.38,-244.91 944.38,-334.86 944.38,-334.86 944.38,-340.86 938.38,-346.86 932.38,-346.86 932.38,-346.86 833.38,-346.86 833.38,-346.86 827.38,-346.86 821.38,-340.86 821.38,-334.86 821.38,-334.86 821.38,-244.91 821.38,-244.91 821.38,-238.91 827.38,-232.91 833.38,-232.91"/>
<text text-anchor="middle" x="882.88" y="-240.71" font-family="Times,serif" font-size="14.00">sales_predictors (4)</text>
</g>
<!-- _use_observed_carry -->
<g id="node1" class="node">
<title>_use_observed_carry</title>
<path fill="lightgrey" stroke="black" d="M557.88,-438.84C557.88,-438.84 450.88,-438.84 450.88,-438.84 444.88,-438.84 438.88,-432.84 438.88,-426.84 438.88,-426.84 438.88,-397.84 438.88,-397.84 438.88,-391.84 444.88,-385.84 450.88,-385.84 450.88,-385.84 557.88,-385.84 557.88,-385.84 563.88,-385.84 569.88,-391.84 569.88,-397.84 569.88,-397.84 569.88,-426.84 569.88,-426.84 569.88,-432.84 563.88,-438.84 557.88,-438.84"/>
<text text-anchor="middle" x="504.38" y="-423.64" font-family="Times,serif" font-size="14.00">_use_observed_carry</text>
<text text-anchor="middle" x="504.38" y="-408.64" font-family="Times,serif" font-size="14.00">~</text>
<text text-anchor="middle" x="504.38" y="-393.64" font-family="Times,serif" font-size="14.00">Data</text>
</g>
<!-- theta_dig -->
<g id="node2" class="node">
<title>theta_dig</title>
<ellipse fill="none" stroke="black" cx="47.38" cy="-301.38" rx="47.25" ry="37.45"/>
<text text-anchor="middle" x="47.38" y="-312.68" font-family="Times,serif" font-size="14.00">theta_dig</text>
<text text-anchor="middle" x="47.38" y="-297.68" font-family="Times,serif" font-size="14.00">~</text>
<text text-anchor="middle" x="47.38" y="-282.68" font-family="Times,serif" font-size="14.00">Beta</text>
</g>
<!-- mu_sales -->
<g id="node12" class="node">
<title>mu_sales</title>
<polygon fill="none" stroke="black" points="309.88,-213.93 218.88,-213.93 218.88,-160.93 309.88,-160.93 309.88,-213.93"/>
<text text-anchor="middle" x="264.38" y="-198.73" font-family="Times,serif" font-size="14.00">mu_sales</text>
<text text-anchor="middle" x="264.38" y="-183.73" font-family="Times,serif" font-size="14.00">~</text>
<text text-anchor="middle" x="264.38" y="-168.73" font-family="Times,serif" font-size="14.00">Deterministic</text>
</g>
<!-- theta_dig&#45;&gt;mu_sales -->
<g id="edge5" class="edge">
<title>theta_dig&#45;&gt;mu_sales</title>
<path fill="none" stroke="black" d="M67.08,-267.01C75.86,-254.69 87.21,-241.62 100.38,-232.91 132.42,-211.69 174.32,-200.55 207.75,-194.72"/>
<polygon fill="black" stroke="black" points="207.93,-198.24 217.24,-193.19 206.81,-191.33 207.93,-198.24"/>
</g>
<!-- lam_tv -->
<g id="node3" class="node">
<title>lam_tv</title>
<ellipse fill="none" stroke="black" cx="385.38" cy="-301.38" rx="56.64" ry="37.45"/>
<text text-anchor="middle" x="385.38" y="-312.68" font-family="Times,serif" font-size="14.00">lam_tv</text>
<text text-anchor="middle" x="385.38" y="-297.68" font-family="Times,serif" font-size="14.00">~</text>
<text text-anchor="middle" x="385.38" y="-282.68" font-family="Times,serif" font-size="14.00">Halfnormal</text>
</g>
<!-- lam_tv&#45;&gt;mu_sales -->
<g id="edge4" class="edge">
<title>lam_tv&#45;&gt;mu_sales</title>
<path fill="none" stroke="black" d="M357.55,-268.43C346.94,-256.84 334.48,-243.89 322.38,-232.91 318.14,-229.06 313.59,-225.19 308.98,-221.42"/>
<polygon fill="black" stroke="black" points="311.28,-218.78 301.28,-215.28 306.92,-224.25 311.28,-218.78"/>
</g>
<!-- sigma_sales -->
<g id="node4" class="node">
<title>sigma_sales</title>
<ellipse fill="none" stroke="black" cx="386.38" cy="-187.43" rx="58.88" ry="37.45"/>
<text text-anchor="middle" x="386.38" y="-198.73" font-family="Times,serif" font-size="14.00">sigma_sales</text>
<text text-anchor="middle" x="386.38" y="-183.73" font-family="Times,serif" font-size="14.00">~</text>
<text text-anchor="middle" x="386.38" y="-168.73" font-family="Times,serif" font-size="14.00">Halfnormal</text>
</g>
<!-- sales -->
<g id="node13" class="node">
<title>sales</title>
<ellipse fill="lightgrey" stroke="black" cx="266.38" cy="-76.48" rx="41.94" ry="37.45"/>
<text text-anchor="middle" x="266.38" y="-87.78" font-family="Times,serif" font-size="14.00">sales</text>
<text text-anchor="middle" x="266.38" y="-72.78" font-family="Times,serif" font-size="14.00">~</text>
<text text-anchor="middle" x="266.38" y="-57.78" font-family="Times,serif" font-size="14.00">Normal</text>
</g>
<!-- sigma_sales&#45;&gt;sales -->
<g id="edge13" class="edge">
<title>sigma_sales&#45;&gt;sales</title>
<path fill="none" stroke="black" d="M352.95,-156.08C337.74,-142.27 319.67,-125.86 303.98,-111.62"/>
<polygon fill="black" stroke="black" points="306.42,-109.11 296.67,-104.98 301.72,-114.29 306.42,-109.11"/>
</g>
<!-- mu_alpha_sales -->
<g id="node5" class="node">
<title>mu_alpha_sales</title>
<ellipse fill="none" stroke="black" cx="661.38" cy="-412.34" rx="73.58" ry="37.45"/>
<text text-anchor="middle" x="661.38" y="-423.64" font-family="Times,serif" font-size="14.00">mu_alpha_sales</text>
<text text-anchor="middle" x="661.38" y="-408.64" font-family="Times,serif" font-size="14.00">~</text>
<text text-anchor="middle" x="661.38" y="-393.64" font-family="Times,serif" font-size="14.00">Normal</text>
</g>
<!-- alpha_sales -->
<g id="node14" class="node">
<title>alpha_sales</title>
<ellipse fill="none" stroke="black" cx="749.38" cy="-301.38" rx="55.72" ry="37.45"/>
<text text-anchor="middle" x="749.38" y="-312.68" font-family="Times,serif" font-size="14.00">alpha_sales</text>
<text text-anchor="middle" x="749.38" y="-297.68" font-family="Times,serif" font-size="14.00">~</text>
<text text-anchor="middle" x="749.38" y="-282.68" font-family="Times,serif" font-size="14.00">Normal</text>
</g>
<!-- mu_alpha_sales&#45;&gt;alpha_sales -->
<g id="edge1" class="edge">
<title>mu_alpha_sales&#45;&gt;alpha_sales</title>
<path fill="none" stroke="black" d="M688.98,-377.16C697.65,-366.43 707.31,-354.46 716.32,-343.31"/>
<polygon fill="black" stroke="black" points="718.86,-345.74 722.42,-335.76 713.42,-341.34 718.86,-345.74"/>
</g>
<!-- theta_tv -->
<g id="node6" class="node">
<title>theta_tv</title>
<ellipse fill="none" stroke="black" cx="502.38" cy="-301.38" rx="42.35" ry="37.45"/>
<text text-anchor="middle" x="502.38" y="-312.68" font-family="Times,serif" font-size="14.00">theta_tv</text>
<text text-anchor="middle" x="502.38" y="-297.68" font-family="Times,serif" font-size="14.00">~</text>
<text text-anchor="middle" x="502.38" y="-282.68" font-family="Times,serif" font-size="14.00">Beta</text>
</g>
<!-- theta_tv&#45;&gt;mu_sales -->
<g id="edge9" class="edge">
<title>theta_tv&#45;&gt;mu_sales</title>
<path fill="none" stroke="black" d="M485.2,-266.66C476.82,-253.82 465.48,-240.47 451.38,-232.91 425.28,-218.92 346.42,-234.42 318.38,-224.91 314.45,-223.57 310.54,-221.88 306.72,-219.94"/>
<polygon fill="black" stroke="black" points="308.63,-217 298.21,-215.12 305.18,-223.09 308.63,-217"/>
</g>
<!-- lam_dig -->
<g id="node7" class="node">
<title>lam_dig</title>
<ellipse fill="none" stroke="black" cx="619.38" cy="-301.38" rx="56.64" ry="37.45"/>
<text text-anchor="middle" x="619.38" y="-312.68" font-family="Times,serif" font-size="14.00">lam_dig</text>
<text text-anchor="middle" x="619.38" y="-297.68" font-family="Times,serif" font-size="14.00">~</text>
<text text-anchor="middle" x="619.38" y="-282.68" font-family="Times,serif" font-size="14.00">Halfnormal</text>
</g>
<!-- lam_dig&#45;&gt;mu_sales -->
<g id="edge10" class="edge">
<title>lam_dig&#45;&gt;mu_sales</title>
<path fill="none" stroke="black" d="M595.86,-267.03C584.64,-253.9 570.02,-240.24 553.38,-232.91 505.56,-211.83 368.07,-241.05 318.38,-224.91 314.37,-223.61 310.4,-221.92 306.52,-219.97"/>
<polygon fill="black" stroke="black" points="308.29,-216.95 297.86,-215.09 304.85,-223.05 308.29,-216.95"/>
</g>
<!-- sigma_alpha_sales -->
<g id="node8" class="node">
<title>sigma_alpha_sales</title>
<ellipse fill="none" stroke="black" cx="837.38" cy="-412.34" rx="84.29" ry="37.45"/>
<text text-anchor="middle" x="837.38" y="-423.64" font-family="Times,serif" font-size="14.00">sigma_alpha_sales</text>
<text text-anchor="middle" x="837.38" y="-408.64" font-family="Times,serif" font-size="14.00">~</text>
<text text-anchor="middle" x="837.38" y="-393.64" font-family="Times,serif" font-size="14.00">Halfnormal</text>
</g>
<!-- sigma_alpha_sales&#45;&gt;alpha_sales -->
<g id="edge2" class="edge">
<title>sigma_alpha_sales&#45;&gt;alpha_sales</title>
<path fill="none" stroke="black" d="M809.29,-376.56C800.8,-366.05 791.4,-354.41 782.61,-343.53"/>
<polygon fill="black" stroke="black" points="785.36,-341.37 776.35,-335.79 779.91,-345.76 785.36,-341.37"/>
</g>
<!-- digital -->
<g id="node9" class="node">
<title>digital</title>
<path fill="lightgrey" stroke="black" d="M298.38,-327.88C298.38,-327.88 268.38,-327.88 268.38,-327.88 262.38,-327.88 256.38,-321.88 256.38,-315.88 256.38,-315.88 256.38,-286.88 256.38,-286.88 256.38,-280.88 262.38,-274.88 268.38,-274.88 268.38,-274.88 298.38,-274.88 298.38,-274.88 304.38,-274.88 310.38,-280.88 310.38,-286.88 310.38,-286.88 310.38,-315.88 310.38,-315.88 310.38,-321.88 304.38,-327.88 298.38,-327.88"/>
<text text-anchor="middle" x="283.38" y="-312.68" font-family="Times,serif" font-size="14.00">digital</text>
<text text-anchor="middle" x="283.38" y="-297.68" font-family="Times,serif" font-size="14.00">~</text>
<text text-anchor="middle" x="283.38" y="-282.68" font-family="Times,serif" font-size="14.00">Data</text>
</g>
<!-- digital&#45;&gt;mu_sales -->
<g id="edge6" class="edge">
<title>digital&#45;&gt;mu_sales</title>
<path fill="none" stroke="black" d="M278.97,-274.42C276.5,-259.86 273.38,-241.47 270.66,-225.43"/>
<polygon fill="black" stroke="black" points="274.14,-225.02 269.01,-215.75 267.23,-226.19 274.14,-225.02"/>
</g>
<!-- tv -->
<g id="node10" class="node">
<title>tv</title>
<path fill="lightgrey" stroke="black" d="M226.38,-327.88C226.38,-327.88 196.38,-327.88 196.38,-327.88 190.38,-327.88 184.38,-321.88 184.38,-315.88 184.38,-315.88 184.38,-286.88 184.38,-286.88 184.38,-280.88 190.38,-274.88 196.38,-274.88 196.38,-274.88 226.38,-274.88 226.38,-274.88 232.38,-274.88 238.38,-280.88 238.38,-286.88 238.38,-286.88 238.38,-315.88 238.38,-315.88 238.38,-321.88 232.38,-327.88 226.38,-327.88"/>
<text text-anchor="middle" x="211.38" y="-312.68" font-family="Times,serif" font-size="14.00">tv</text>
<text text-anchor="middle" x="211.38" y="-297.68" font-family="Times,serif" font-size="14.00">~</text>
<text text-anchor="middle" x="211.38" y="-282.68" font-family="Times,serif" font-size="14.00">Data</text>
</g>
<!-- tv&#45;&gt;mu_sales -->
<g id="edge7" class="edge">
<title>tv&#45;&gt;mu_sales</title>
<path fill="none" stroke="black" d="M223.67,-274.42C230.69,-259.58 239.61,-240.75 247.3,-224.5"/>
<polygon fill="black" stroke="black" points="250.39,-226.16 251.5,-215.62 244.06,-223.16 250.39,-226.16"/>
</g>
<!-- trend -->
<g id="node11" class="node">
<title>trend</title>
<path fill="lightgrey" stroke="black" d="M154.38,-327.88C154.38,-327.88 124.38,-327.88 124.38,-327.88 118.38,-327.88 112.38,-321.88 112.38,-315.88 112.38,-315.88 112.38,-286.88 112.38,-286.88 112.38,-280.88 118.38,-274.88 124.38,-274.88 124.38,-274.88 154.38,-274.88 154.38,-274.88 160.38,-274.88 166.38,-280.88 166.38,-286.88 166.38,-286.88 166.38,-315.88 166.38,-315.88 166.38,-321.88 160.38,-327.88 154.38,-327.88"/>
<text text-anchor="middle" x="139.38" y="-312.68" font-family="Times,serif" font-size="14.00">trend</text>
<text text-anchor="middle" x="139.38" y="-297.68" font-family="Times,serif" font-size="14.00">~</text>
<text text-anchor="middle" x="139.38" y="-282.68" font-family="Times,serif" font-size="14.00">Data</text>
</g>
<!-- trend&#45;&gt;mu_sales -->
<g id="edge8" class="edge">
<title>trend&#45;&gt;mu_sales</title>
<path fill="none" stroke="black" d="M148.67,-274.55C154.62,-260.84 163.48,-244.49 175.38,-232.91 184.76,-223.77 196.38,-216.15 208.11,-209.94"/>
<polygon fill="black" stroke="black" points="209.62,-213.1 217.02,-205.52 206.51,-206.83 209.62,-213.1"/>
</g>
<!-- mu_sales&#45;&gt;sales -->
<g id="edge12" class="edge">
<title>mu_sales&#45;&gt;sales</title>
<path fill="none" stroke="black" d="M264.85,-160.61C265.04,-150.12 265.27,-137.64 265.49,-125.59"/>
<polygon fill="black" stroke="black" points="268.99,-125.82 265.67,-115.76 261.99,-125.69 268.99,-125.82"/>
</g>
<!-- alpha_sales&#45;&gt;mu_sales -->
<g id="edge3" class="edge">
<title>alpha_sales&#45;&gt;mu_sales</title>
<path fill="none" stroke="black" d="M726.81,-266.95C715.97,-253.81 701.76,-240.16 685.38,-232.91 648.08,-216.39 357.24,-237.27 318.38,-224.91 314.37,-223.63 310.38,-221.96 306.5,-220.03"/>
<polygon fill="black" stroke="black" points="308.27,-217.01 297.84,-215.16 304.84,-223.11 308.27,-217.01"/>
</g>
<!-- beta_sales -->
<g id="node15" class="node">
<title>beta_sales</title>
<ellipse fill="none" stroke="black" cx="880.38" cy="-301.38" rx="50.82" ry="37.45"/>
<text text-anchor="middle" x="880.38" y="-312.68" font-family="Times,serif" font-size="14.00">beta_sales</text>
<text text-anchor="middle" x="880.38" y="-297.68" font-family="Times,serif" font-size="14.00">~</text>
<text text-anchor="middle" x="880.38" y="-282.68" font-family="Times,serif" font-size="14.00">Normal</text>
</g>
<!-- beta_sales&#45;&gt;mu_sales -->
<g id="edge11" class="edge">
<title>beta_sales&#45;&gt;mu_sales</title>
<path fill="none" stroke="black" d="M858.57,-267.27C847.89,-254.02 833.78,-240.19 817.38,-232.91 792.04,-221.66 344.82,-233.23 318.38,-224.91 314.19,-223.59 310.02,-221.83 305.98,-219.8"/>
<polygon fill="black" stroke="black" points="307.96,-216.89 297.53,-215.01 304.51,-222.98 307.96,-216.89"/>
</g>
</g>
</svg>
