<?xml version="1.0" encoding="UTF-8" standalone="no"?>
<!DOCTYPE svg PUBLIC "-//W3C//DTD SVG 1.1//EN"
 "http://www.w3.org/Graphics/SVG/1.1/DTD/svg11.dtd">
<!-- Generated by graphviz version 7.1.0 (0)
 -->
<!-- Pages: 1 -->
<svg width="1202pt" height="458pt"
 viewBox="0.00 0.00 1202.28 457.81" xmlns="http://www.w3.org/2000/svg" xmlns:xlink="http://www.w3.org/1999/xlink">
<g id="graph0" class="graph" transform="scale(1 1) rotate(0) translate(4 453.81)">
<polygon fill="white" stroke="none" points="-4,4 -4,-453.81 1198.28,-453.81 1198.28,4 -4,4"/>
<g id="clust1" class="cluster">
<title>cluster240</title>
<path fill="none" stroke="black" d="M176.82,-8C176.82,-8 366.82,-8 366.82,-8 372.82,-8 378.82,-14 378.82,-20 378.82,-20 378.82,-323.88 378.82,-323.88 378.82,-329.88 372.82,-335.88 366.82,-335.88 366.82,-335.88 176.82,-335.88 176.82,-335.88 170.82,-335.88 164.82,-329.88 164.82,-323.88 164.82,-323.88 164.82,-20 164.82,-20 164.82,-14 170.82,-8 176.82,-8"/>
<text text-anchor="middle" x="360.32" y="-15.8" font-family="Times,serif" font-size="14.00">240</text>
</g>
<g id="clust2" class="cluster">
<title>clusterunit (6)</title>
<path fill="none" stroke="black" d="M398.82,-232.91C398.82,-232.91 840.82,-232.91 840.82,-232.91 846.82,-232.91 852.82,-238.91 852.82,-244.91 852.82,-244.91 852.82,-334.86 852.82,-334.86 852.82,-340.86 846.82,-346.86 840.82,-346.86 840.82,-346.86 398.82,-346.86 398.82,-346.86 392.82,-346.86 386.82,-340.86 386.82,-334.86 386.82,-334.86 386.82,-244.91 386.82,-244.91 386.82,-238.91 392.82,-232.91 398.82,-232.91"/>
<text text-anchor="middle" x="824.32" y="-240.71" font-family="Times,serif" font-size="14.00">unit (6)</text>
</g>
<g id="clust3" class="cluster">
<title>clustersales_predictors (4)</title>
<path fill="none" stroke="black" d="M872.82,-232.91C872.82,-232.91 971.82,-232.91 971.82,-232.91 977.82,-232.91 983.82,-238.91 983.82,-244.91 983.82,-244.91 983.82,-334.86 983.82,-334.86 983.82,-340.86 977.82,-346.86 971.82,-346.86 971.82,-346.86 872.82,-346.86 872.82,-346.86 866.82,-346.86 860.82,-340.86 860.82,-334.86 860.82,-334.86 860.82,-244.91 860.82,-244.91 860.82,-238.91 866.82,-232.91 872.82,-232.91"/>
<text text-anchor="middle" x="922.32" y="-240.71" font-family="Times,serif" font-size="14.00">sales_predictors (4)</text>
</g>
<!-- tv -->
<g id="node1" class="node">
<title>tv</title>
<path fill="lightgrey" stroke="black" d="M358.82,-327.88C358.82,-327.88 328.82,-327.88 328.82,-327.88 322.82,-327.88 316.82,-321.88 316.82,-315.88 316.82,-315.88 316.82,-286.88 316.82,-286.88 316.82,-280.88 322.82,-274.88 328.82,-274.88 328.82,-274.88 358.82,-274.88 358.82,-274.88 364.82,-274.88 370.82,-280.88 370.82,-286.88 370.82,-286.88 370.82,-315.88 370.82,-315.88 370.82,-321.88 364.82,-327.88 358.82,-327.88"/>
<text text-anchor="middle" x="343.82" y="-312.68" font-family="Times,serif" font-size="14.00">tv</text>
<text text-anchor="middle" x="343.82" y="-297.68" font-family="Times,serif" font-size="14.00">~</text>
<text text-anchor="middle" x="343.82" y="-282.68" font-family="Times,serif" font-size="14.00">Data</text>
</g>
<!-- mu_sales -->
<g id="node4" class="node">
<title>mu_sales</title>
<polygon fill="none" stroke="black" points="370.32,-213.93 279.32,-213.93 279.32,-160.93 370.32,-160.93 370.32,-213.93"/>
<text text-anchor="middle" x="324.82" y="-198.73" font-family="Times,serif" font-size="14.00">mu_sales</text>
<text text-anchor="middle" x="324.82" y="-183.73" font-family="Times,serif" font-size="14.00">~</text>
<text text-anchor="middle" x="324.82" y="-168.73" font-family="Times,serif" font-size="14.00">Deterministic</text>
</g>
<!-- tv&#45;&gt;mu_sales -->
<g id="edge7" class="edge">
<title>tv&#45;&gt;mu_sales</title>
<path fill="none" stroke="black" d="M339.42,-274.42C336.95,-259.86 333.82,-241.47 331.1,-225.43"/>
<polygon fill="black" stroke="black" points="334.58,-225.02 329.46,-215.75 327.68,-226.19 334.58,-225.02"/>
</g>
<!-- sales -->
<g id="node2" class="node">
<title>sales</title>
<ellipse fill="lightgrey" stroke="black" cx="326.82" cy="-76.48" rx="41.94" ry="37.45"/>
<text text-anchor="middle" x="326.82" y="-87.78" font-family="Times,serif" font-size="14.00">sales</text>
<text text-anchor="middle" x="326.82" y="-72.78" font-family="Times,serif" font-size="14.00">~</text>
<text text-anchor="middle" x="326.82" y="-57.78" font-family="Times,serif" font-size="14.00">Normal</text>
</g>
<!-- digital -->
<g id="node3" class="node">
<title>digital</title>
<path fill="lightgrey" stroke="black" d="M286.82,-327.88C286.82,-327.88 256.82,-327.88 256.82,-327.88 250.82,-327.88 244.82,-321.88 244.82,-315.88 244.82,-315.88 244.82,-286.88 244.82,-286.88 244.82,-280.88 250.82,-274.88 256.82,-274.88 256.82,-274.88 286.82,-274.88 286.82,-274.88 292.82,-274.88 298.82,-280.88 298.82,-286.88 298.82,-286.88 298.82,-315.88 298.82,-315.88 298.82,-321.88 292.82,-327.88 286.82,-327.88"/>
<text text-anchor="middle" x="271.82" y="-312.68" font-family="Times,serif" font-size="14.00">digital</text>
<text text-anchor="middle" x="271.82" y="-297.68" font-family="Times,serif" font-size="14.00">~</text>
<text text-anchor="middle" x="271.82" y="-282.68" font-family="Times,serif" font-size="14.00">Data</text>
</g>
<!-- digital&#45;&gt;mu_sales -->
<g id="edge10" class="edge">
<title>digital&#45;&gt;mu_sales</title>
<path fill="none" stroke="black" d="M284.12,-274.42C291.14,-259.58 300.05,-240.75 307.75,-224.5"/>
<polygon fill="black" stroke="black" points="310.83,-226.16 311.95,-215.62 304.51,-223.16 310.83,-226.16"/>
</g>
<!-- mu_sales&#45;&gt;sales -->
<g id="edge15" class="edge">
<title>mu_sales&#45;&gt;sales</title>
<path fill="none" stroke="black" d="M325.3,-160.61C325.49,-150.12 325.72,-137.64 325.94,-125.59"/>
<polygon fill="black" stroke="black" points="329.44,-125.82 326.12,-115.76 322.44,-125.69 329.44,-125.82"/>
</g>
<!-- trend -->
<g id="node5" class="node">
<title>trend</title>
<path fill="lightgrey" stroke="black" d="M214.82,-327.88C214.82,-327.88 184.82,-327.88 184.82,-327.88 178.82,-327.88 172.82,-321.88 172.82,-315.88 172.82,-315.88 172.82,-286.88 172.82,-286.88 172.82,-280.88 178.82,-274.88 184.82,-274.88 184.82,-274.88 214.82,-274.88 214.82,-274.88 220.82,-274.88 226.82,-280.88 226.82,-286.88 226.82,-286.88 226.82,-315.88 226.82,-315.88 226.82,-321.88 220.82,-327.88 214.82,-327.88"/>
<text text-anchor="middle" x="199.82" y="-312.68" font-family="Times,serif" font-size="14.00">trend</text>
<text text-anchor="middle" x="199.82" y="-297.68" font-family="Times,serif" font-size="14.00">~</text>
<text text-anchor="middle" x="199.82" y="-282.68" font-family="Times,serif" font-size="14.00">Data</text>
</g>
<!-- trend&#45;&gt;mu_sales -->
<g id="edge13" class="edge">
<title>trend&#45;&gt;mu_sales</title>
<path fill="none" stroke="black" d="M209.11,-274.55C215.07,-260.84 223.93,-244.49 235.82,-232.91 245.2,-223.77 256.83,-216.15 268.55,-209.94"/>
<polygon fill="black" stroke="black" points="270.06,-213.1 277.47,-205.52 266.96,-206.83 270.06,-213.1"/>
</g>
<!-- mu_slope_sales_digital -->
<g id="node6" class="node">
<title>mu_slope_sales_digital</title>
<ellipse fill="none" stroke="black" cx="101.82" cy="-412.34" rx="101.65" ry="37.45"/>
<text text-anchor="middle" x="101.82" y="-423.64" font-family="Times,serif" font-size="14.00">mu_slope_sales_digital</text>
<text text-anchor="middle" x="101.82" y="-408.64" font-family="Times,serif" font-size="14.00">~</text>
<text text-anchor="middle" x="101.82" y="-393.64" font-family="Times,serif" font-size="14.00">Normal</text>
</g>
<!-- slope_sales_digital -->
<g id="node15" class="node">
<title>slope_sales_digital</title>
<ellipse fill="none" stroke="black" cx="478.82" cy="-301.38" rx="84.29" ry="37.45"/>
<text text-anchor="middle" x="478.82" y="-312.68" font-family="Times,serif" font-size="14.00">slope_sales_digital</text>
<text text-anchor="middle" x="478.82" y="-297.68" font-family="Times,serif" font-size="14.00">~</text>
<text text-anchor="middle" x="478.82" y="-282.68" font-family="Times,serif" font-size="14.00">Normal</text>
</g>
<!-- mu_slope_sales_digital&#45;&gt;slope_sales_digital -->
<g id="edge2" class="edge">
<title>mu_slope_sales_digital&#45;&gt;slope_sales_digital</title>
<path fill="none" stroke="black" d="M174.5,-385.68C187.18,-381.72 200.31,-377.93 212.82,-374.86 287.2,-356.63 309.64,-369.38 382.82,-346.86 393.29,-343.64 404.09,-339.5 414.5,-335.06"/>
<polygon fill="black" stroke="black" points="415.63,-338.38 423.37,-331.14 412.8,-331.98 415.63,-338.38"/>
</g>
<!-- sigma_alpha_sales -->
<g id="node7" class="node">
<title>sigma_alpha_sales</title>
<ellipse fill="none" stroke="black" cx="548.82" cy="-412.34" rx="84.29" ry="37.45"/>
<text text-anchor="middle" x="548.82" y="-423.64" font-family="Times,serif" font-size="14.00">sigma_alpha_sales</text>
<text text-anchor="middle" x="548.82" y="-408.64" font-family="Times,serif" font-size="14.00">~</text>
<text text-anchor="middle" x="548.82" y="-393.64" font-family="Times,serif" font-size="14.00">Halfnormal</text>
</g>
<!-- alpha_sales -->
<g id="node13" class="node">
<title>alpha_sales</title>
<ellipse fill="none" stroke="black" cx="636.82" cy="-301.38" rx="55.72" ry="37.45"/>
<text text-anchor="middle" x="636.82" y="-312.68" font-family="Times,serif" font-size="14.00">alpha_sales</text>
<text text-anchor="middle" x="636.82" y="-297.68" font-family="Times,serif" font-size="14.00">~</text>
<text text-anchor="middle" x="636.82" y="-282.68" font-family="Times,serif" font-size="14.00">Normal</text>
</g>
<!-- sigma_alpha_sales&#45;&gt;alpha_sales -->
<g id="edge6" class="edge">
<title>sigma_alpha_sales&#45;&gt;alpha_sales</title>
<path fill="none" stroke="black" d="M576.91,-376.56C585.4,-366.05 594.8,-354.41 603.59,-343.53"/>
<polygon fill="black" stroke="black" points="606.28,-345.76 609.85,-335.79 600.84,-341.37 606.28,-345.76"/>
</g>
<!-- sigma_slope_sales_digital -->
<g id="node8" class="node">
<title>sigma_slope_sales_digital</title>
<ellipse fill="none" stroke="black" cx="333.82" cy="-412.34" rx="112.36" ry="37.45"/>
<text text-anchor="middle" x="333.82" y="-423.64" font-family="Times,serif" font-size="14.00">sigma_slope_sales_digital</text>
<text text-anchor="middle" x="333.82" y="-408.64" font-family="Times,serif" font-size="14.00">~</text>
<text text-anchor="middle" x="333.82" y="-393.64" font-family="Times,serif" font-size="14.00">Halfnormal</text>
</g>
<!-- sigma_slope_sales_digital&#45;&gt;slope_sales_digital -->
<g id="edge1" class="edge">
<title>sigma_slope_sales_digital&#45;&gt;slope_sales_digital</title>
<path fill="none" stroke="black" d="M378.51,-377.76C393.95,-366.15 411.38,-353.06 427.32,-341.08"/>
<polygon fill="black" stroke="black" points="429.41,-343.89 435.3,-335.08 425.21,-338.29 429.41,-343.89"/>
</g>
<!-- mu_slope_sales_tv -->
<g id="node9" class="node">
<title>mu_slope_sales_tv</title>
<ellipse fill="none" stroke="black" cx="900.82" cy="-412.34" rx="84.71" ry="37.45"/>
<text text-anchor="middle" x="900.82" y="-423.64" font-family="Times,serif" font-size="14.00">mu_slope_sales_tv</text>
<text text-anchor="middle" x="900.82" y="-408.64" font-family="Times,serif" font-size="14.00">~</text>
<text text-anchor="middle" x="900.82" y="-393.64" font-family="Times,serif" font-size="14.00">Normal</text>
</g>
<!-- slope_sales_tv -->
<g id="node14" class="node">
<title>slope_sales_tv</title>
<ellipse fill="none" stroke="black" cx="777.82" cy="-301.38" rx="67.35" ry="37.45"/>
<text text-anchor="middle" x="777.82" y="-312.68" font-family="Times,serif" font-size="14.00">slope_sales_tv</text>
<text text-anchor="middle" x="777.82" y="-297.68" font-family="Times,serif" font-size="14.00">~</text>
<text text-anchor="middle" x="777.82" y="-282.68" font-family="Times,serif" font-size="14.00">Normal</text>
</g>
<!-- mu_slope_sales_tv&#45;&gt;slope_sales_tv -->
<g id="edge3" class="edge">
<title>mu_slope_sales_tv&#45;&gt;slope_sales_tv</title>
<path fill="none" stroke="black" d="M863.59,-378.35C850.24,-366.53 835.07,-353.09 821.24,-340.84"/>
<polygon fill="black" stroke="black" points="823.77,-338.41 813.96,-334.4 819.13,-343.65 823.77,-338.41"/>
</g>
<!-- sigma_slope_sales_tv -->
<g id="node10" class="node">
<title>sigma_slope_sales_tv</title>
<ellipse fill="none" stroke="black" cx="1098.82" cy="-412.34" rx="95.42" ry="37.45"/>
<text text-anchor="middle" x="1098.82" y="-423.64" font-family="Times,serif" font-size="14.00">sigma_slope_sales_tv</text>
<text text-anchor="middle" x="1098.82" y="-408.64" font-family="Times,serif" font-size="14.00">~</text>
<text text-anchor="middle" x="1098.82" y="-393.64" font-family="Times,serif" font-size="14.00">Halfnormal</text>
</g>
<!-- sigma_slope_sales_tv&#45;&gt;slope_sales_tv -->
<g id="edge4" class="edge">
<title>sigma_slope_sales_tv&#45;&gt;slope_sales_tv</title>
<path fill="none" stroke="black" d="M1030.44,-385.86C1018.65,-381.9 1006.45,-378.06 994.82,-374.86 934.49,-358.24 915.47,-368.7 856.82,-346.86 848.33,-343.7 839.66,-339.71 831.32,-335.42"/>
<polygon fill="black" stroke="black" points="833.15,-332.43 822.69,-330.8 829.85,-338.6 833.15,-332.43"/>
</g>
<!-- sigma_sales -->
<g id="node11" class="node">
<title>sigma_sales</title>
<ellipse fill="none" stroke="black" cx="446.82" cy="-187.43" rx="58.88" ry="37.45"/>
<text text-anchor="middle" x="446.82" y="-198.73" font-family="Times,serif" font-size="14.00">sigma_sales</text>
<text text-anchor="middle" x="446.82" y="-183.73" font-family="Times,serif" font-size="14.00">~</text>
<text text-anchor="middle" x="446.82" y="-168.73" font-family="Times,serif" font-size="14.00">Halfnormal</text>
</g>
<!-- sigma_sales&#45;&gt;sales -->
<g id="edge14" class="edge">
<title>sigma_sales&#45;&gt;sales</title>
<path fill="none" stroke="black" d="M413.4,-156.08C398.18,-142.27 380.11,-125.86 364.43,-111.62"/>
<polygon fill="black" stroke="black" points="366.87,-109.11 357.11,-104.98 362.16,-114.29 366.87,-109.11"/>
</g>
<!-- mu_alpha_sales -->
<g id="node12" class="node">
<title>mu_alpha_sales</title>
<ellipse fill="none" stroke="black" cx="724.82" cy="-412.34" rx="73.58" ry="37.45"/>
<text text-anchor="middle" x="724.82" y="-423.64" font-family="Times,serif" font-size="14.00">mu_alpha_sales</text>
<text text-anchor="middle" x="724.82" y="-408.64" font-family="Times,serif" font-size="14.00">~</text>
<text text-anchor="middle" x="724.82" y="-393.64" font-family="Times,serif" font-size="14.00">Normal</text>
</g>
<!-- mu_alpha_sales&#45;&gt;alpha_sales -->
<g id="edge5" class="edge">
<title>mu_alpha_sales&#45;&gt;alpha_sales</title>
<path fill="none" stroke="black" d="M697.22,-377.16C688.55,-366.43 678.89,-354.46 669.88,-343.31"/>
<polygon fill="black" stroke="black" points="672.78,-341.34 663.78,-335.76 667.34,-345.74 672.78,-341.34"/>
</g>
<!-- alpha_sales&#45;&gt;mu_sales -->
<g id="edge8" class="edge">
<title>alpha_sales&#45;&gt;mu_sales</title>
<path fill="none" stroke="black" d="M613.73,-267.09C602.7,-253.98 588.29,-240.31 571.82,-232.91 532.68,-215.3 419.6,-238.32 378.82,-224.91 374.83,-223.59 370.85,-221.89 366.98,-219.94"/>
<polygon fill="black" stroke="black" points="368.75,-216.92 358.32,-215.04 365.3,-223.01 368.75,-216.92"/>
</g>
<!-- slope_sales_tv&#45;&gt;mu_sales -->
<g id="edge11" class="edge">
<title>slope_sales_tv&#45;&gt;mu_sales</title>
<path fill="none" stroke="black" d="M749.83,-266.87C736.75,-253.73 720.04,-240.09 701.82,-232.91 668.42,-219.74 413.02,-235.84 378.82,-224.91 374.82,-223.63 370.83,-221.95 366.95,-220.01"/>
<polygon fill="black" stroke="black" points="368.72,-216.99 358.29,-215.14 365.29,-223.09 368.72,-216.99"/>
</g>
<!-- slope_sales_digital&#45;&gt;mu_sales -->
<g id="edge9" class="edge">
<title>slope_sales_digital&#45;&gt;mu_sales</title>
<path fill="none" stroke="black" d="M435.52,-268.9C414.99,-253.98 390.5,-236.17 369.77,-221.1"/>
<polygon fill="black" stroke="black" points="371.91,-218.33 361.76,-215.28 367.79,-224 371.91,-218.33"/>
</g>
<!-- beta_sales -->
<g id="node16" class="node">
<title>beta_sales</title>
<ellipse fill="none" stroke="black" cx="919.82" cy="-301.38" rx="50.82" ry="37.45"/>
<text text-anchor="middle" x="919.82" y="-312.68" font-family="Times,serif" font-size="14.00">beta_sales</text>
<text text-anchor="middle" x="919.82" y="-297.68" font-family="Times,serif" font-size="14.00">~</text>
<text text-anchor="middle" x="919.82" y="-282.68" font-family="Times,serif" font-size="14.00">Normal</text>
</g>
<!-- beta_sales&#45;&gt;mu_sales -->
<g id="edge12" class="edge">
<title>beta_sales&#45;&gt;mu_sales</title>
<path fill="none" stroke="black" d="M898.02,-267.27C887.34,-254.02 873.23,-240.2 856.82,-232.91 832.55,-222.12 404.15,-232.89 378.82,-224.91 374.63,-223.59 370.47,-221.83 366.43,-219.79"/>
<polygon fill="black" stroke="black" points="368.41,-216.89 357.98,-215.01 364.96,-222.98 368.41,-216.89"/>
</g>
</g>
</svg>
