<?xml version="1.0" encoding="UTF-8" standalone="no"?>
<!DOCTYPE svg PUBLIC "-//W3C//DTD SVG 1.1//EN"
 "http://www.w3.org/Graphics/SVG/1.1/DTD/svg11.dtd">
<!-- Generated by graphviz version 7.1.0 (0)
 -->
<!-- Pages: 1 -->
<svg width="354pt" height="158pt"
 viewBox="0.00 0.00 354.18 157.85" xmlns="http://www.w3.org/2000/svg" xmlns:xlink="http://www.w3.org/1999/xlink">
<g id="graph0" class="graph" transform="scale(1 1) rotate(0) translate(4 153.85)">
<polygon fill="white" stroke="none" points="-4,4 -4,-153.85 350.18,-153.85 350.18,4 -4,4"/>
<!-- brand_spend -->
<g id="node1" class="node">
<title>brand_spend</title>
<polygon fill="none" stroke="black" points="86,-143.85 0,-143.85 0,-107.85 86,-107.85 86,-143.85"/>
<text text-anchor="middle" x="43" y="-122.15" font-family="Times,serif" font-size="14.00">brand_spend</text>
</g>
<!-- search_traffic -->
<g id="node4" class="node">
<title>search_traffic</title>
<ellipse fill="none" stroke="black" cx="188.14" cy="-91.85" rx="59.29" ry="18"/>
<text text-anchor="middle" x="188.14" y="-88.15" font-family="Times,serif" font-size="14.00">search_traffic</text>
</g>
<!-- brand_spend&#45;&gt;search_traffic -->
<g id="edge1" class="edge">
<title>brand_spend&#45;&gt;search_traffic</title>
<path fill="none" stroke="black" d="M86.17,-115.84C99.78,-112.61 115.1,-108.97 129.61,-105.52"/>
<polygon fill="black" stroke="black" points="130.12,-108.99 139.04,-103.28 128.5,-102.18 130.12,-108.99"/>
<text text-anchor="middle" x="107.5" y="-114.65" font-family="Times,serif" font-size="14.00">a</text>
</g>
<!-- sales -->
<g id="node5" class="node">
<title>sales</title>
<ellipse fill="none" stroke="black" cx="318.24" cy="-64.85" rx="27.9" ry="18"/>
<text text-anchor="middle" x="318.24" y="-61.15" font-family="Times,serif" font-size="14.00">sales</text>
</g>
<!-- brand_spend&#45;&gt;sales -->
<g id="edge4" class="edge">
<title>brand_spend&#45;&gt;sales</title>
<path fill="none" stroke="black" d="M86.49,-132.28C128.77,-136.89 194.75,-139.17 247.29,-118.85 264.96,-112.02 281.86,-99.21 294.62,-87.78"/>
<polygon fill="black" stroke="black" points="296.73,-90.6 301.65,-81.22 291.95,-85.49 296.73,-90.6"/>
<text text-anchor="middle" x="188.14" y="-138.65" font-family="Times,serif" font-size="14.00">c</text>
</g>
<!-- season -->
<g id="node2" class="node">
<title>season</title>
<polygon fill="none" stroke="black" points="70,-66.85 16,-66.85 16,-30.85 70,-30.85 70,-66.85"/>
<text text-anchor="middle" x="43" y="-45.15" font-family="Times,serif" font-size="14.00">season</text>
</g>
<!-- season&#45;&gt;search_traffic -->
<g id="edge2" class="edge">
<title>season&#45;&gt;search_traffic</title>
<path fill="none" stroke="black" d="M70.25,-56.74C88.14,-62.11 112.43,-69.41 134.24,-75.96"/>
<polygon fill="black" stroke="black" points="133.01,-79.24 143.59,-78.77 135.02,-72.54 133.01,-79.24"/>
</g>
<!-- season&#45;&gt;sales -->
<g id="edge6" class="edge">
<title>season&#45;&gt;sales</title>
<path fill="none" stroke="black" d="M70.19,-33.68C86.52,-25.12 108.29,-15.27 129,-10.85 180.42,0.12 197.53,6.12 247.29,-10.85 265.34,-17.01 282.35,-29.92 295.08,-41.57"/>
<polygon fill="black" stroke="black" points="292.44,-43.89 302.08,-48.29 297.29,-38.84 292.44,-43.89"/>
</g>
<!-- perf_spend -->
<g id="node3" class="node">
<title>perf_spend</title>
<polygon fill="none" stroke="black" points="226.64,-55.85 149.64,-55.85 149.64,-19.85 226.64,-19.85 226.64,-55.85"/>
<text text-anchor="middle" x="188.14" y="-34.15" font-family="Times,serif" font-size="14.00">perf_spend</text>
</g>
<!-- perf_spend&#45;&gt;sales -->
<g id="edge5" class="edge">
<title>perf_spend&#45;&gt;sales</title>
<path fill="none" stroke="black" d="M226.84,-45.42C241.09,-48.31 257.45,-51.69 272.29,-54.85 274.93,-55.42 277.65,-56.01 280.39,-56.6"/>
<polygon fill="black" stroke="black" points="279.59,-60.01 290.1,-58.74 281.09,-53.17 279.59,-60.01"/>
<text text-anchor="middle" x="268.79" y="-58.65" font-family="Times,serif" font-size="14.00">d</text>
</g>
<!-- search_traffic&#45;&gt;sales -->
<g id="edge3" class="edge">
<title>search_traffic&#45;&gt;sales</title>
<path fill="none" stroke="black" d="M237.57,-81.65C251.71,-78.67 266.93,-75.46 280.24,-72.65"/>
<polygon fill="black" stroke="black" points="280.82,-76.11 289.89,-70.62 279.38,-69.26 280.82,-76.11"/>
<text text-anchor="middle" x="268.79" y="-78.65" font-family="Times,serif" font-size="14.00">b</text>
</g>
</g>
</svg>
