<?xml version="1.0" encoding="UTF-8" standalone="no"?>
<!DOCTYPE svg PUBLIC "-//W3C//DTD SVG 1.1//EN"
 "http://www.w3.org/Graphics/SVG/1.1/DTD/svg11.dtd">
<!-- Generated by graphviz version 7.1.0 (0)
 -->
<!-- Pages: 1 -->
<svg width="1202pt" height="458pt"
 viewBox="0.00 0.00 1202.00 457.81" xmlns="http://www.w3.org/2000/svg" xmlns:xlink="http://www.w3.org/1999/xlink">
<g id="graph0" class="graph" transform="scale(1 1) rotate(0) translate(4 453.81)">
<polygon fill="white" stroke="none" points="-4,4 -4,-453.81 1198,-453.81 1198,4 -4,4"/>
<g id="clust1" class="cluster">
<title>cluster240</title>
<path fill="none" stroke="black" d="M159.85,-8C159.85,-8 349.85,-8 349.85,-8 355.85,-8 361.85,-14 361.85,-20 361.85,-20 361.85,-323.88 361.85,-323.88 361.85,-329.88 355.85,-335.88 349.85,-335.88 349.85,-335.88 159.85,-335.88 159.85,-335.88 153.85,-335.88 147.85,-329.88 147.85,-323.88 147.85,-323.88 147.85,-20 147.85,-20 147.85,-14 153.85,-8 159.85,-8"/>
<text text-anchor="middle" x="343.35" y="-15.8" font-family="Times,serif" font-size="14.00">240</text>
</g>
<g id="clust2" class="cluster">
<title>clusterunit (6)</title>
<path fill="none" stroke="black" d="M381.85,-232.91C381.85,-232.91 823.85,-232.91 823.85,-232.91 829.85,-232.91 835.85,-238.91 835.85,-244.91 835.85,-244.91 835.85,-334.86 835.85,-334.86 835.85,-340.86 829.85,-346.86 823.85,-346.86 823.85,-346.86 381.85,-346.86 381.85,-346.86 375.85,-346.86 369.85,-340.86 369.85,-334.86 369.85,-334.86 369.85,-244.91 369.85,-244.91 369.85,-238.91 375.85,-232.91 381.85,-232.91"/>
<text text-anchor="middle" x="807.35" y="-240.71" font-family="Times,serif" font-size="14.00">unit (6)</text>
</g>
<g id="clust3" class="cluster">
<title>clustersales_predictors (4)</title>
<path fill="none" stroke="black" d="M855.85,-232.91C855.85,-232.91 954.85,-232.91 954.85,-232.91 960.85,-232.91 966.85,-238.91 966.85,-244.91 966.85,-244.91 966.85,-334.86 966.85,-334.86 966.85,-340.86 960.85,-346.86 954.85,-346.86 954.85,-346.86 855.85,-346.86 855.85,-346.86 849.85,-346.86 843.85,-340.86 843.85,-334.86 843.85,-334.86 843.85,-244.91 843.85,-244.91 843.85,-238.91 849.85,-232.91 855.85,-232.91"/>
<text text-anchor="middle" x="905.35" y="-240.71" font-family="Times,serif" font-size="14.00">sales_predictors (4)</text>
</g>
<!-- digital -->
<g id="node1" class="node">
<title>digital</title>
<path fill="lightgrey" stroke="black" d="M341.85,-327.88C341.85,-327.88 311.85,-327.88 311.85,-327.88 305.85,-327.88 299.85,-321.88 299.85,-315.88 299.85,-315.88 299.85,-286.88 299.85,-286.88 299.85,-280.88 305.85,-274.88 311.85,-274.88 311.85,-274.88 341.85,-274.88 341.85,-274.88 347.85,-274.88 353.85,-280.88 353.85,-286.88 353.85,-286.88 353.85,-315.88 353.85,-315.88 353.85,-321.88 347.85,-327.88 341.85,-327.88"/>
<text text-anchor="middle" x="326.85" y="-312.68" font-family="Times,serif" font-size="14.00">digital</text>
<text text-anchor="middle" x="326.85" y="-297.68" font-family="Times,serif" font-size="14.00">~</text>
<text text-anchor="middle" x="326.85" y="-282.68" font-family="Times,serif" font-size="14.00">Data</text>
</g>
<!-- mu_sales -->
<g id="node4" class="node">
<title>mu_sales</title>
<polygon fill="none" stroke="black" points="353.35,-213.93 262.35,-213.93 262.35,-160.93 353.35,-160.93 353.35,-213.93"/>
<text text-anchor="middle" x="307.85" y="-198.73" font-family="Times,serif" font-size="14.00">mu_sales</text>
<text text-anchor="middle" x="307.85" y="-183.73" font-family="Times,serif" font-size="14.00">~</text>
<text text-anchor="middle" x="307.85" y="-168.73" font-family="Times,serif" font-size="14.00">Deterministic</text>
</g>
<!-- digital&#45;&gt;mu_sales -->
<g id="edge10" class="edge">
<title>digital&#45;&gt;mu_sales</title>
<path fill="none" stroke="black" d="M322.45,-274.42C319.98,-259.86 316.85,-241.47 314.13,-225.43"/>
<polygon fill="black" stroke="black" points="317.61,-225.02 312.49,-215.75 310.71,-226.19 317.61,-225.02"/>
</g>
<!-- tv -->
<g id="node2" class="node">
<title>tv</title>
<path fill="lightgrey" stroke="black" d="M269.85,-327.88C269.85,-327.88 239.85,-327.88 239.85,-327.88 233.85,-327.88 227.85,-321.88 227.85,-315.88 227.85,-315.88 227.85,-286.88 227.85,-286.88 227.85,-280.88 233.85,-274.88 239.85,-274.88 239.85,-274.88 269.85,-274.88 269.85,-274.88 275.85,-274.88 281.85,-280.88 281.85,-286.88 281.85,-286.88 281.85,-315.88 281.85,-315.88 281.85,-321.88 275.85,-327.88 269.85,-327.88"/>
<text text-anchor="middle" x="254.85" y="-312.68" font-family="Times,serif" font-size="14.00">tv</text>
<text text-anchor="middle" x="254.85" y="-297.68" font-family="Times,serif" font-size="14.00">~</text>
<text text-anchor="middle" x="254.85" y="-282.68" font-family="Times,serif" font-size="14.00">Data</text>
</g>
<!-- tv&#45;&gt;mu_sales -->
<g id="edge13" class="edge">
<title>tv&#45;&gt;mu_sales</title>
<path fill="none" stroke="black" d="M267.15,-274.42C274.17,-259.58 283.08,-240.75 290.78,-224.5"/>
<polygon fill="black" stroke="black" points="293.86,-226.16 294.98,-215.62 287.54,-223.16 293.86,-226.16"/>
</g>
<!-- trend -->
<g id="node3" class="node">
<title>trend</title>
<path fill="lightgrey" stroke="black" d="M197.85,-327.88C197.85,-327.88 167.85,-327.88 167.85,-327.88 161.85,-327.88 155.85,-321.88 155.85,-315.88 155.85,-315.88 155.85,-286.88 155.85,-286.88 155.85,-280.88 161.85,-274.88 167.85,-274.88 167.85,-274.88 197.85,-274.88 197.85,-274.88 203.85,-274.88 209.85,-280.88 209.85,-286.88 209.85,-286.88 209.85,-315.88 209.85,-315.88 209.85,-321.88 203.85,-327.88 197.85,-327.88"/>
<text text-anchor="middle" x="182.85" y="-312.68" font-family="Times,serif" font-size="14.00">trend</text>
<text text-anchor="middle" x="182.85" y="-297.68" font-family="Times,serif" font-size="14.00">~</text>
<text text-anchor="middle" x="182.85" y="-282.68" font-family="Times,serif" font-size="14.00">Data</text>
</g>
<!-- trend&#45;&gt;mu_sales -->
<g id="edge7" class="edge">
<title>trend&#45;&gt;mu_sales</title>
<path fill="none" stroke="black" d="M192.14,-274.55C198.1,-260.84 206.96,-244.49 218.85,-232.91 228.23,-223.77 239.86,-216.15 251.58,-209.94"/>
<polygon fill="black" stroke="black" points="253.09,-213.1 260.5,-205.52 249.98,-206.83 253.09,-213.1"/>
</g>
<!-- sales -->
<g id="node5" class="node">
<title>sales</title>
<ellipse fill="lightgrey" stroke="black" cx="309.85" cy="-76.48" rx="41.94" ry="37.45"/>
<text text-anchor="middle" x="309.85" y="-87.78" font-family="Times,serif" font-size="14.00">sales</text>
<text text-anchor="middle" x="309.85" y="-72.78" font-family="Times,serif" font-size="14.00">~</text>
<text text-anchor="middle" x="309.85" y="-57.78" font-family="Times,serif" font-size="14.00">Normal</text>
</g>
<!-- mu_sales&#45;&gt;sales -->
<g id="edge14" class="edge">
<title>mu_sales&#45;&gt;sales</title>
<path fill="none" stroke="black" d="M308.33,-160.61C308.52,-150.12 308.75,-137.64 308.97,-125.59"/>
<polygon fill="black" stroke="black" points="312.47,-125.82 309.15,-115.76 305.47,-125.69 312.47,-125.82"/>
</g>
<!-- mu_slope_sales_tv -->
<g id="node6" class="node">
<title>mu_slope_sales_tv</title>
<ellipse fill="none" stroke="black" cx="84.85" cy="-412.34" rx="84.71" ry="37.45"/>
<text text-anchor="middle" x="84.85" y="-423.64" font-family="Times,serif" font-size="14.00">mu_slope_sales_tv</text>
<text text-anchor="middle" x="84.85" y="-408.64" font-family="Times,serif" font-size="14.00">~</text>
<text text-anchor="middle" x="84.85" y="-393.64" font-family="Times,serif" font-size="14.00">Normal</text>
</g>
<!-- slope_sales_tv -->
<g id="node14" class="node">
<title>slope_sales_tv</title>
<ellipse fill="none" stroke="black" cx="444.85" cy="-301.38" rx="67.35" ry="37.45"/>
<text text-anchor="middle" x="444.85" y="-312.68" font-family="Times,serif" font-size="14.00">slope_sales_tv</text>
<text text-anchor="middle" x="444.85" y="-297.68" font-family="Times,serif" font-size="14.00">~</text>
<text text-anchor="middle" x="444.85" y="-282.68" font-family="Times,serif" font-size="14.00">Normal</text>
</g>
<!-- mu_slope_sales_tv&#45;&gt;slope_sales_tv -->
<g id="edge4" class="edge">
<title>mu_slope_sales_tv&#45;&gt;slope_sales_tv</title>
<path fill="none" stroke="black" d="M145.13,-385.69C156.21,-381.62 167.77,-377.8 178.85,-374.86 260.08,-353.3 286.37,-374.15 365.85,-346.86 374.43,-343.92 383.14,-340.05 391.5,-335.82"/>
<polygon fill="black" stroke="black" points="392.95,-339.01 400.14,-331.23 389.67,-332.82 392.95,-339.01"/>
</g>
<!-- mu_slope_sales_digital -->
<g id="node7" class="node">
<title>mu_slope_sales_digital</title>
<ellipse fill="none" stroke="black" cx="497.85" cy="-412.34" rx="101.65" ry="37.45"/>
<text text-anchor="middle" x="497.85" y="-423.64" font-family="Times,serif" font-size="14.00">mu_slope_sales_digital</text>
<text text-anchor="middle" x="497.85" y="-408.64" font-family="Times,serif" font-size="14.00">~</text>
<text text-anchor="middle" x="497.85" y="-393.64" font-family="Times,serif" font-size="14.00">Normal</text>
</g>
<!-- slope_sales_digital -->
<g id="node13" class="node">
<title>slope_sales_digital</title>
<ellipse fill="none" stroke="black" cx="613.85" cy="-301.38" rx="84.29" ry="37.45"/>
<text text-anchor="middle" x="613.85" y="-312.68" font-family="Times,serif" font-size="14.00">slope_sales_digital</text>
<text text-anchor="middle" x="613.85" y="-297.68" font-family="Times,serif" font-size="14.00">~</text>
<text text-anchor="middle" x="613.85" y="-282.68" font-family="Times,serif" font-size="14.00">Normal</text>
</g>
<!-- mu_slope_sales_digital&#45;&gt;slope_sales_digital -->
<g id="edge2" class="edge">
<title>mu_slope_sales_digital&#45;&gt;slope_sales_digital</title>
<path fill="none" stroke="black" d="M534.24,-377.16C545.68,-366.41 558.44,-354.43 570.33,-343.27"/>
<polygon fill="black" stroke="black" points="572.4,-346.12 577.29,-336.73 567.6,-341.02 572.4,-346.12"/>
</g>
<!-- sigma_sales -->
<g id="node8" class="node">
<title>sigma_sales</title>
<ellipse fill="none" stroke="black" cx="429.85" cy="-187.43" rx="58.88" ry="37.45"/>
<text text-anchor="middle" x="429.85" y="-198.73" font-family="Times,serif" font-size="14.00">sigma_sales</text>
<text text-anchor="middle" x="429.85" y="-183.73" font-family="Times,serif" font-size="14.00">~</text>
<text text-anchor="middle" x="429.85" y="-168.73" font-family="Times,serif" font-size="14.00">Halfnormal</text>
</g>
<!-- sigma_sales&#45;&gt;sales -->
<g id="edge15" class="edge">
<title>sigma_sales&#45;&gt;sales</title>
<path fill="none" stroke="black" d="M396.43,-156.08C381.21,-142.27 363.14,-125.86 347.46,-111.62"/>
<polygon fill="black" stroke="black" points="349.9,-109.11 340.14,-104.98 345.19,-114.29 349.9,-109.11"/>
</g>
<!-- sigma_slope_sales_tv -->
<g id="node9" class="node">
<title>sigma_slope_sales_tv</title>
<ellipse fill="none" stroke="black" cx="282.85" cy="-412.34" rx="95.42" ry="37.45"/>
<text text-anchor="middle" x="282.85" y="-423.64" font-family="Times,serif" font-size="14.00">sigma_slope_sales_tv</text>
<text text-anchor="middle" x="282.85" y="-408.64" font-family="Times,serif" font-size="14.00">~</text>
<text text-anchor="middle" x="282.85" y="-393.64" font-family="Times,serif" font-size="14.00">Halfnormal</text>
</g>
<!-- sigma_slope_sales_tv&#45;&gt;slope_sales_tv -->
<g id="edge3" class="edge">
<title>sigma_slope_sales_tv&#45;&gt;slope_sales_tv</title>
<path fill="none" stroke="black" d="M330.15,-379.53C349.9,-366.25 372.91,-350.77 393.11,-337.18"/>
<polygon fill="black" stroke="black" points="394.87,-340.22 401.22,-331.73 390.96,-334.41 394.87,-340.22"/>
</g>
<!-- mu_alpha_sales -->
<g id="node10" class="node">
<title>mu_alpha_sales</title>
<ellipse fill="none" stroke="black" cx="933.85" cy="-412.34" rx="73.58" ry="37.45"/>
<text text-anchor="middle" x="933.85" y="-423.64" font-family="Times,serif" font-size="14.00">mu_alpha_sales</text>
<text text-anchor="middle" x="933.85" y="-408.64" font-family="Times,serif" font-size="14.00">~</text>
<text text-anchor="middle" x="933.85" y="-393.64" font-family="Times,serif" font-size="14.00">Normal</text>
</g>
<!-- alpha_sales -->
<g id="node15" class="node">
<title>alpha_sales</title>
<ellipse fill="none" stroke="black" cx="771.85" cy="-301.38" rx="55.72" ry="37.45"/>
<text text-anchor="middle" x="771.85" y="-312.68" font-family="Times,serif" font-size="14.00">alpha_sales</text>
<text text-anchor="middle" x="771.85" y="-297.68" font-family="Times,serif" font-size="14.00">~</text>
<text text-anchor="middle" x="771.85" y="-282.68" font-family="Times,serif" font-size="14.00">Normal</text>
</g>
<!-- mu_alpha_sales&#45;&gt;alpha_sales -->
<g id="edge5" class="edge">
<title>mu_alpha_sales&#45;&gt;alpha_sales</title>
<path fill="none" stroke="black" d="M890.01,-381.85C868.46,-367.36 842.43,-349.85 820.3,-334.96"/>
<polygon fill="black" stroke="black" points="822.26,-332.07 812.01,-329.39 818.35,-337.88 822.26,-332.07"/>
</g>
<!-- sigma_alpha_sales -->
<g id="node11" class="node">
<title>sigma_alpha_sales</title>
<ellipse fill="none" stroke="black" cx="1109.85" cy="-412.34" rx="84.29" ry="37.45"/>
<text text-anchor="middle" x="1109.85" y="-423.64" font-family="Times,serif" font-size="14.00">sigma_alpha_sales</text>
<text text-anchor="middle" x="1109.85" y="-408.64" font-family="Times,serif" font-size="14.00">~</text>
<text text-anchor="middle" x="1109.85" y="-393.64" font-family="Times,serif" font-size="14.00">Halfnormal</text>
</g>
<!-- sigma_alpha_sales&#45;&gt;alpha_sales -->
<g id="edge6" class="edge">
<title>sigma_alpha_sales&#45;&gt;alpha_sales</title>
<path fill="none" stroke="black" d="M1049.96,-385.66C1039.08,-381.62 1027.73,-377.82 1016.85,-374.86 940,-353.97 914.16,-375.52 839.85,-346.86 832.34,-343.96 824.8,-340.15 817.62,-335.97"/>
<polygon fill="black" stroke="black" points="819.72,-333.15 809.37,-330.89 816.05,-339.11 819.72,-333.15"/>
</g>
<!-- sigma_slope_sales_digital -->
<g id="node12" class="node">
<title>sigma_slope_sales_digital</title>
<ellipse fill="none" stroke="black" cx="729.85" cy="-412.34" rx="112.36" ry="37.45"/>
<text text-anchor="middle" x="729.85" y="-423.64" font-family="Times,serif" font-size="14.00">sigma_slope_sales_digital</text>
<text text-anchor="middle" x="729.85" y="-408.64" font-family="Times,serif" font-size="14.00">~</text>
<text text-anchor="middle" x="729.85" y="-393.64" font-family="Times,serif" font-size="14.00">Halfnormal</text>
</g>
<!-- sigma_slope_sales_digital&#45;&gt;slope_sales_digital -->
<g id="edge1" class="edge">
<title>sigma_slope_sales_digital&#45;&gt;slope_sales_digital</title>
<path fill="none" stroke="black" d="M692.83,-376.56C681.63,-366.04 669.21,-354.38 657.61,-343.49"/>
<polygon fill="black" stroke="black" points="660.13,-341.04 650.44,-336.75 655.33,-346.15 660.13,-341.04"/>
</g>
<!-- slope_sales_digital&#45;&gt;mu_sales -->
<g id="edge8" class="edge">
<title>slope_sales_digital&#45;&gt;mu_sales</title>
<path fill="none" stroke="black" d="M578.24,-267.05C561.99,-253.93 541.74,-240.27 520.85,-232.91 487.49,-221.14 395.41,-236.11 361.85,-224.91 357.92,-223.59 354,-221.91 350.18,-219.99"/>
<polygon fill="black" stroke="black" points="352.09,-217.04 341.66,-215.17 348.65,-223.14 352.09,-217.04"/>
</g>
<!-- slope_sales_tv&#45;&gt;mu_sales -->
<g id="edge11" class="edge">
<title>slope_sales_tv&#45;&gt;mu_sales</title>
<path fill="none" stroke="black" d="M409.4,-269.41C395.9,-257.8 380.29,-244.6 365.85,-232.91 361.11,-229.06 356.09,-225.09 351.09,-221.18"/>
<polygon fill="black" stroke="black" points="353.37,-218.53 343.33,-215.17 349.08,-224.06 353.37,-218.53"/>
</g>
<!-- alpha_sales&#45;&gt;mu_sales -->
<g id="edge9" class="edge">
<title>alpha_sales&#45;&gt;mu_sales</title>
<path fill="none" stroke="black" d="M748.83,-266.95C737.8,-253.81 723.39,-240.16 706.85,-232.91 671.74,-217.49 398.38,-236.55 361.85,-224.91 357.84,-223.63 353.86,-221.95 349.98,-220.02"/>
<polygon fill="black" stroke="black" points="351.75,-217 341.32,-215.15 348.32,-223.1 351.75,-217"/>
</g>
<!-- beta_sales -->
<g id="node16" class="node">
<title>beta_sales</title>
<ellipse fill="none" stroke="black" cx="902.85" cy="-301.38" rx="50.82" ry="37.45"/>
<text text-anchor="middle" x="902.85" y="-312.68" font-family="Times,serif" font-size="14.00">beta_sales</text>
<text text-anchor="middle" x="902.85" y="-297.68" font-family="Times,serif" font-size="14.00">~</text>
<text text-anchor="middle" x="902.85" y="-282.68" font-family="Times,serif" font-size="14.00">Normal</text>
</g>
<!-- beta_sales&#45;&gt;mu_sales -->
<g id="edge12" class="edge">
<title>beta_sales&#45;&gt;mu_sales</title>
<path fill="none" stroke="black" d="M881.05,-267.27C870.36,-254.02 856.26,-240.2 839.85,-232.91 815.58,-222.12 387.18,-232.89 361.85,-224.91 357.66,-223.59 353.5,-221.83 349.46,-219.79"/>
<polygon fill="black" stroke="black" points="351.44,-216.89 341.01,-215.01 347.99,-222.98 351.44,-216.89"/>
</g>
</g>
</svg>
