<?xml version="1.0" encoding="UTF-8" standalone="no"?>
<!DOCTYPE svg PUBLIC "-//W3C//DTD SVG 1.1//EN"
 "http://www.w3.org/Graphics/SVG/1.1/DTD/svg11.dtd">
<!-- Generated by graphviz version 7.1.0 (0)
 -->
<!-- Pages: 1 -->
<svg width="1067pt" height="458pt"
 viewBox="0.00 0.00 1066.93 457.81" xmlns="http://www.w3.org/2000/svg" xmlns:xlink="http://www.w3.org/1999/xlink">
<g id="graph0" class="graph" transform="scale(1 1) rotate(0) translate(4 453.81)">
<polygon fill="white" stroke="none" points="-4,4 -4,-453.81 1062.93,-453.81 1062.93,4 -4,4"/>
<g id="clust1" class="cluster">
<title>cluster30 x 4</title>
<path fill="none" stroke="black" d="M106.43,-8C106.43,-8 296.43,-8 296.43,-8 302.43,-8 308.43,-14 308.43,-20 308.43,-20 308.43,-323.88 308.43,-323.88 308.43,-329.88 302.43,-335.88 296.43,-335.88 296.43,-335.88 106.43,-335.88 106.43,-335.88 100.43,-335.88 94.43,-329.88 94.43,-323.88 94.43,-323.88 94.43,-20 94.43,-20 94.43,-14 100.43,-8 106.43,-8"/>
<text text-anchor="middle" x="282.93" y="-15.8" font-family="Times,serif" font-size="14.00">30 x 4</text>
</g>
<g id="clust2" class="cluster">
<title>clusterunit (4)</title>
<path fill="none" stroke="black" d="M696.43,-232.91C696.43,-232.91 800.43,-232.91 800.43,-232.91 806.43,-232.91 812.43,-238.91 812.43,-244.91 812.43,-244.91 812.43,-334.86 812.43,-334.86 812.43,-340.86 806.43,-346.86 800.43,-346.86 800.43,-346.86 696.43,-346.86 696.43,-346.86 690.43,-346.86 684.43,-340.86 684.43,-334.86 684.43,-334.86 684.43,-244.91 684.43,-244.91 684.43,-238.91 690.43,-232.91 696.43,-232.91"/>
<text text-anchor="middle" x="783.93" y="-240.71" font-family="Times,serif" font-size="14.00">unit (4)</text>
</g>
<g id="clust3" class="cluster">
<title>clustersales_predictors (4)</title>
<path fill="none" stroke="black" d="M832.43,-232.91C832.43,-232.91 931.43,-232.91 931.43,-232.91 937.43,-232.91 943.43,-238.91 943.43,-244.91 943.43,-244.91 943.43,-334.86 943.43,-334.86 943.43,-340.86 937.43,-346.86 931.43,-346.86 931.43,-346.86 832.43,-346.86 832.43,-346.86 826.43,-346.86 820.43,-340.86 820.43,-334.86 820.43,-334.86 820.43,-244.91 820.43,-244.91 820.43,-238.91 826.43,-232.91 832.43,-232.91"/>
<text text-anchor="middle" x="881.93" y="-240.71" font-family="Times,serif" font-size="14.00">sales_predictors (4)</text>
</g>
<!-- theta_tv -->
<g id="node1" class="node">
<title>theta_tv</title>
<ellipse fill="none" stroke="black" cx="42.43" cy="-301.38" rx="42.35" ry="37.45"/>
<text text-anchor="middle" x="42.43" y="-312.68" font-family="Times,serif" font-size="14.00">theta_tv</text>
<text text-anchor="middle" x="42.43" y="-297.68" font-family="Times,serif" font-size="14.00">~</text>
<text text-anchor="middle" x="42.43" y="-282.68" font-family="Times,serif" font-size="14.00">Beta</text>
</g>
<!-- mu_sales -->
<g id="node12" class="node">
<title>mu_sales</title>
<polygon fill="none" stroke="black" points="299.93,-213.93 208.93,-213.93 208.93,-160.93 299.93,-160.93 299.93,-213.93"/>
<text text-anchor="middle" x="254.43" y="-198.73" font-family="Times,serif" font-size="14.00">mu_sales</text>
<text text-anchor="middle" x="254.43" y="-183.73" font-family="Times,serif" font-size="14.00">~</text>
<text text-anchor="middle" x="254.43" y="-168.73" font-family="Times,serif" font-size="14.00">Deterministic</text>
</g>
<!-- theta_tv&#45;&gt;mu_sales -->
<g id="edge4" class="edge">
<title>theta_tv&#45;&gt;mu_sales</title>
<path fill="none" stroke="black" d="M59.68,-267.01C67.55,-254.69 77.92,-241.62 90.43,-232.91 121.96,-210.93 163.87,-199.81 197.43,-194.18"/>
<polygon fill="black" stroke="black" points="197.62,-197.69 206.96,-192.7 196.55,-190.77 197.62,-197.69"/>
</g>
<!-- theta_dig -->
<g id="node2" class="node">
<title>theta_dig</title>
<ellipse fill="none" stroke="black" cx="365.43" cy="-301.38" rx="47.25" ry="37.45"/>
<text text-anchor="middle" x="365.43" y="-312.68" font-family="Times,serif" font-size="14.00">theta_dig</text>
<text text-anchor="middle" x="365.43" y="-297.68" font-family="Times,serif" font-size="14.00">~</text>
<text text-anchor="middle" x="365.43" y="-282.68" font-family="Times,serif" font-size="14.00">Beta</text>
</g>
<!-- theta_dig&#45;&gt;mu_sales -->
<g id="edge6" class="edge">
<title>theta_dig&#45;&gt;mu_sales</title>
<path fill="none" stroke="black" d="M342.69,-268.1C333.84,-256.47 323.23,-243.59 312.43,-232.91 308.57,-229.09 304.38,-225.31 300.08,-221.66"/>
<polygon fill="black" stroke="black" points="302.3,-218.95 292.34,-215.34 297.87,-224.37 302.3,-218.95"/>
</g>
<!-- sigma_alpha_sales -->
<g id="node3" class="node">
<title>sigma_alpha_sales</title>
<ellipse fill="none" stroke="black" cx="660.43" cy="-412.34" rx="84.29" ry="37.45"/>
<text text-anchor="middle" x="660.43" y="-423.64" font-family="Times,serif" font-size="14.00">sigma_alpha_sales</text>
<text text-anchor="middle" x="660.43" y="-408.64" font-family="Times,serif" font-size="14.00">~</text>
<text text-anchor="middle" x="660.43" y="-393.64" font-family="Times,serif" font-size="14.00">Halfnormal</text>
</g>
<!-- alpha_sales -->
<g id="node14" class="node">
<title>alpha_sales</title>
<ellipse fill="none" stroke="black" cx="748.43" cy="-301.38" rx="55.72" ry="37.45"/>
<text text-anchor="middle" x="748.43" y="-312.68" font-family="Times,serif" font-size="14.00">alpha_sales</text>
<text text-anchor="middle" x="748.43" y="-297.68" font-family="Times,serif" font-size="14.00">~</text>
<text text-anchor="middle" x="748.43" y="-282.68" font-family="Times,serif" font-size="14.00">Normal</text>
</g>
<!-- sigma_alpha_sales&#45;&gt;alpha_sales -->
<g id="edge2" class="edge">
<title>sigma_alpha_sales&#45;&gt;alpha_sales</title>
<path fill="none" stroke="black" d="M688.51,-376.56C697,-366.05 706.4,-354.41 715.19,-343.53"/>
<polygon fill="black" stroke="black" points="717.89,-345.76 721.45,-335.79 712.44,-341.37 717.89,-345.76"/>
</g>
<!-- lam_dig -->
<g id="node4" class="node">
<title>lam_dig</title>
<ellipse fill="none" stroke="black" cx="487.43" cy="-301.38" rx="56.64" ry="37.45"/>
<text text-anchor="middle" x="487.43" y="-312.68" font-family="Times,serif" font-size="14.00">lam_dig</text>
<text text-anchor="middle" x="487.43" y="-297.68" font-family="Times,serif" font-size="14.00">~</text>
<text text-anchor="middle" x="487.43" y="-282.68" font-family="Times,serif" font-size="14.00">Halfnormal</text>
</g>
<!-- lam_dig&#45;&gt;mu_sales -->
<g id="edge8" class="edge">
<title>lam_dig&#45;&gt;mu_sales</title>
<path fill="none" stroke="black" d="M463.47,-266.96C452.27,-254 437.78,-240.48 421.43,-232.91 375.74,-211.75 356.02,-241.34 308.43,-224.91 304.51,-223.55 300.6,-221.84 296.79,-219.9"/>
<polygon fill="black" stroke="black" points="298.7,-216.96 288.28,-215.06 295.24,-223.04 298.7,-216.96"/>
</g>
<!-- sigma_sales -->
<g id="node5" class="node">
<title>sigma_sales</title>
<ellipse fill="none" stroke="black" cx="376.43" cy="-187.43" rx="58.88" ry="37.45"/>
<text text-anchor="middle" x="376.43" y="-198.73" font-family="Times,serif" font-size="14.00">sigma_sales</text>
<text text-anchor="middle" x="376.43" y="-183.73" font-family="Times,serif" font-size="14.00">~</text>
<text text-anchor="middle" x="376.43" y="-168.73" font-family="Times,serif" font-size="14.00">Halfnormal</text>
</g>
<!-- sales -->
<g id="node10" class="node">
<title>sales</title>
<ellipse fill="lightgrey" stroke="black" cx="256.43" cy="-76.48" rx="41.94" ry="37.45"/>
<text text-anchor="middle" x="256.43" y="-87.78" font-family="Times,serif" font-size="14.00">sales</text>
<text text-anchor="middle" x="256.43" y="-72.78" font-family="Times,serif" font-size="14.00">~</text>
<text text-anchor="middle" x="256.43" y="-57.78" font-family="Times,serif" font-size="14.00">Normal</text>
</g>
<!-- sigma_sales&#45;&gt;sales -->
<g id="edge12" class="edge">
<title>sigma_sales&#45;&gt;sales</title>
<path fill="none" stroke="black" d="M343,-156.08C327.79,-142.27 309.72,-125.86 294.03,-111.62"/>
<polygon fill="black" stroke="black" points="296.47,-109.11 286.72,-104.98 291.77,-114.29 296.47,-109.11"/>
</g>
<!-- _use_observed_carry -->
<g id="node6" class="node">
<title>_use_observed_carry</title>
<path fill="lightgrey" stroke="black" d="M1046.93,-438.84C1046.93,-438.84 939.93,-438.84 939.93,-438.84 933.93,-438.84 927.93,-432.84 927.93,-426.84 927.93,-426.84 927.93,-397.84 927.93,-397.84 927.93,-391.84 933.93,-385.84 939.93,-385.84 939.93,-385.84 1046.93,-385.84 1046.93,-385.84 1052.93,-385.84 1058.93,-391.84 1058.93,-397.84 1058.93,-397.84 1058.93,-426.84 1058.93,-426.84 1058.93,-432.84 1052.93,-438.84 1046.93,-438.84"/>
<text text-anchor="middle" x="993.43" y="-423.64" font-family="Times,serif" font-size="14.00">_use_observed_carry</text>
<text text-anchor="middle" x="993.43" y="-408.64" font-family="Times,serif" font-size="14.00">~</text>
<text text-anchor="middle" x="993.43" y="-393.64" font-family="Times,serif" font-size="14.00">Data</text>
</g>
<!-- mu_alpha_sales -->
<g id="node7" class="node">
<title>mu_alpha_sales</title>
<ellipse fill="none" stroke="black" cx="836.43" cy="-412.34" rx="73.58" ry="37.45"/>
<text text-anchor="middle" x="836.43" y="-423.64" font-family="Times,serif" font-size="14.00">mu_alpha_sales</text>
<text text-anchor="middle" x="836.43" y="-408.64" font-family="Times,serif" font-size="14.00">~</text>
<text text-anchor="middle" x="836.43" y="-393.64" font-family="Times,serif" font-size="14.00">Normal</text>
</g>
<!-- mu_alpha_sales&#45;&gt;alpha_sales -->
<g id="edge1" class="edge">
<title>mu_alpha_sales&#45;&gt;alpha_sales</title>
<path fill="none" stroke="black" d="M808.82,-377.16C800.15,-366.43 790.49,-354.46 781.48,-343.31"/>
<polygon fill="black" stroke="black" points="784.39,-341.34 775.38,-335.76 778.94,-345.74 784.39,-341.34"/>
</g>
<!-- lam_tv -->
<g id="node8" class="node">
<title>lam_tv</title>
<ellipse fill="none" stroke="black" cx="618.43" cy="-301.38" rx="56.64" ry="37.45"/>
<text text-anchor="middle" x="618.43" y="-312.68" font-family="Times,serif" font-size="14.00">lam_tv</text>
<text text-anchor="middle" x="618.43" y="-297.68" font-family="Times,serif" font-size="14.00">~</text>
<text text-anchor="middle" x="618.43" y="-282.68" font-family="Times,serif" font-size="14.00">Halfnormal</text>
</g>
<!-- lam_tv&#45;&gt;mu_sales -->
<g id="edge10" class="edge">
<title>lam_tv&#45;&gt;mu_sales</title>
<path fill="none" stroke="black" d="M595.37,-267.02C584.34,-253.9 569.92,-240.24 553.43,-232.91 528.54,-221.84 334.34,-233.3 308.43,-224.91 304.42,-223.61 300.45,-221.92 296.57,-219.98"/>
<polygon fill="black" stroke="black" points="298.34,-216.96 287.91,-215.09 294.9,-223.06 298.34,-216.96"/>
</g>
<!-- tv -->
<g id="node9" class="node">
<title>tv</title>
<path fill="lightgrey" stroke="black" d="M288.43,-327.88C288.43,-327.88 258.43,-327.88 258.43,-327.88 252.43,-327.88 246.43,-321.88 246.43,-315.88 246.43,-315.88 246.43,-286.88 246.43,-286.88 246.43,-280.88 252.43,-274.88 258.43,-274.88 258.43,-274.88 288.43,-274.88 288.43,-274.88 294.43,-274.88 300.43,-280.88 300.43,-286.88 300.43,-286.88 300.43,-315.88 300.43,-315.88 300.43,-321.88 294.43,-327.88 288.43,-327.88"/>
<text text-anchor="middle" x="273.43" y="-312.68" font-family="Times,serif" font-size="14.00">tv</text>
<text text-anchor="middle" x="273.43" y="-297.68" font-family="Times,serif" font-size="14.00">~</text>
<text text-anchor="middle" x="273.43" y="-282.68" font-family="Times,serif" font-size="14.00">Data</text>
</g>
<!-- tv&#45;&gt;mu_sales -->
<g id="edge3" class="edge">
<title>tv&#45;&gt;mu_sales</title>
<path fill="none" stroke="black" d="M269.02,-274.42C266.55,-259.86 263.43,-241.47 260.71,-225.43"/>
<polygon fill="black" stroke="black" points="264.19,-225.02 259.06,-215.75 257.29,-226.19 264.19,-225.02"/>
</g>
<!-- digital -->
<g id="node11" class="node">
<title>digital</title>
<path fill="lightgrey" stroke="black" d="M216.43,-327.88C216.43,-327.88 186.43,-327.88 186.43,-327.88 180.43,-327.88 174.43,-321.88 174.43,-315.88 174.43,-315.88 174.43,-286.88 174.43,-286.88 174.43,-280.88 180.43,-274.88 186.43,-274.88 186.43,-274.88 216.43,-274.88 216.43,-274.88 222.43,-274.88 228.43,-280.88 228.43,-286.88 228.43,-286.88 228.43,-315.88 228.43,-315.88 228.43,-321.88 222.43,-327.88 216.43,-327.88"/>
<text text-anchor="middle" x="201.43" y="-312.68" font-family="Times,serif" font-size="14.00">digital</text>
<text text-anchor="middle" x="201.43" y="-297.68" font-family="Times,serif" font-size="14.00">~</text>
<text text-anchor="middle" x="201.43" y="-282.68" font-family="Times,serif" font-size="14.00">Data</text>
</g>
<!-- digital&#45;&gt;mu_sales -->
<g id="edge7" class="edge">
<title>digital&#45;&gt;mu_sales</title>
<path fill="none" stroke="black" d="M213.72,-274.42C220.74,-259.58 229.66,-240.75 237.35,-224.5"/>
<polygon fill="black" stroke="black" points="240.44,-226.16 241.55,-215.62 234.11,-223.16 240.44,-226.16"/>
</g>
<!-- mu_sales&#45;&gt;sales -->
<g id="edge13" class="edge">
<title>mu_sales&#45;&gt;sales</title>
<path fill="none" stroke="black" d="M254.9,-160.61C255.09,-150.12 255.32,-137.64 255.54,-125.59"/>
<polygon fill="black" stroke="black" points="259.04,-125.82 255.72,-115.76 252.04,-125.69 259.04,-125.82"/>
</g>
<!-- trend -->
<g id="node13" class="node">
<title>trend</title>
<path fill="lightgrey" stroke="black" d="M144.43,-327.88C144.43,-327.88 114.43,-327.88 114.43,-327.88 108.43,-327.88 102.43,-321.88 102.43,-315.88 102.43,-315.88 102.43,-286.88 102.43,-286.88 102.43,-280.88 108.43,-274.88 114.43,-274.88 114.43,-274.88 144.43,-274.88 144.43,-274.88 150.43,-274.88 156.43,-280.88 156.43,-286.88 156.43,-286.88 156.43,-315.88 156.43,-315.88 156.43,-321.88 150.43,-327.88 144.43,-327.88"/>
<text text-anchor="middle" x="129.43" y="-312.68" font-family="Times,serif" font-size="14.00">trend</text>
<text text-anchor="middle" x="129.43" y="-297.68" font-family="Times,serif" font-size="14.00">~</text>
<text text-anchor="middle" x="129.43" y="-282.68" font-family="Times,serif" font-size="14.00">Data</text>
</g>
<!-- trend&#45;&gt;mu_sales -->
<g id="edge11" class="edge">
<title>trend&#45;&gt;mu_sales</title>
<path fill="none" stroke="black" d="M138.72,-274.55C144.67,-260.84 153.54,-244.49 165.43,-232.91 174.81,-223.77 186.43,-216.15 198.16,-209.94"/>
<polygon fill="black" stroke="black" points="199.67,-213.1 207.07,-205.52 196.56,-206.83 199.67,-213.1"/>
</g>
<!-- alpha_sales&#45;&gt;mu_sales -->
<g id="edge5" class="edge">
<title>alpha_sales&#45;&gt;mu_sales</title>
<path fill="none" stroke="black" d="M725.86,-266.94C715.02,-253.81 700.82,-240.16 684.43,-232.91 646.21,-216 348.25,-237.56 308.43,-224.91 304.42,-223.63 300.43,-221.96 296.55,-220.03"/>
<polygon fill="black" stroke="black" points="298.32,-217.01 287.89,-215.16 294.89,-223.11 298.32,-217.01"/>
</g>
<!-- beta_sales -->
<g id="node15" class="node">
<title>beta_sales</title>
<ellipse fill="none" stroke="black" cx="879.43" cy="-301.38" rx="50.82" ry="37.45"/>
<text text-anchor="middle" x="879.43" y="-312.68" font-family="Times,serif" font-size="14.00">beta_sales</text>
<text text-anchor="middle" x="879.43" y="-297.68" font-family="Times,serif" font-size="14.00">~</text>
<text text-anchor="middle" x="879.43" y="-282.68" font-family="Times,serif" font-size="14.00">Normal</text>
</g>
<!-- beta_sales&#45;&gt;mu_sales -->
<g id="edge9" class="edge">
<title>beta_sales&#45;&gt;mu_sales</title>
<path fill="none" stroke="black" d="M857.62,-267.26C846.94,-254.01 832.83,-240.19 816.43,-232.91 790.63,-221.46 335.35,-233.38 308.43,-224.91 304.24,-223.59 300.07,-221.83 296.03,-219.8"/>
<polygon fill="black" stroke="black" points="298.01,-216.89 287.58,-215.01 294.56,-222.99 298.01,-216.89"/>
</g>
</g>
</svg>
