<?xml version="1.0" encoding="UTF-8" standalone="no"?>
<!DOCTYPE svg PUBLIC "-//W3C//DTD SVG 1.1//EN"
 "http://www.w3.org/Graphics/SVG/1.1/DTD/svg11.dtd">
<!-- Generated by graphviz version 7.1.0 (0)
 -->
<!-- Pages: 1 -->
<svg width="1736pt" height="363pt"
 viewBox="0.00 0.00 1735.50 362.86" xmlns="http://www.w3.org/2000/svg" xmlns:xlink="http://www.w3.org/1999/xlink">
<g id="graph0" class="graph" transform="scale(1 1) rotate(0) translate(4 358.86)">
<polygon fill="white" stroke="none" points="-4,4 -4,-358.86 1731.5,-358.86 1731.5,4 -4,4"/>
<g id="clust1" class="cluster">
<title>cluster52 x 1</title>
<path fill="none" stroke="black" d="M568,-8C568,-8 1109,-8 1109,-8 1115,-8 1121,-14 1121,-20 1121,-20 1121,-334.86 1121,-334.86 1121,-340.86 1115,-346.86 1109,-346.86 1109,-346.86 568,-346.86 568,-346.86 562,-346.86 556,-340.86 556,-334.86 556,-334.86 556,-20 556,-20 556,-14 562,-8 568,-8"/>
<text text-anchor="middle" x="1095.5" y="-15.8" font-family="Times,serif" font-size="14.00">52 x 1</text>
</g>
<g id="clust2" class="cluster">
<title>clustersales_predictors (3)</title>
<path fill="none" stroke="black" d="M1309,-232.91C1309,-232.91 1408,-232.91 1408,-232.91 1414,-232.91 1420,-238.91 1420,-244.91 1420,-244.91 1420,-334.86 1420,-334.86 1420,-340.86 1414,-346.86 1408,-346.86 1408,-346.86 1309,-346.86 1309,-346.86 1303,-346.86 1297,-340.86 1297,-334.86 1297,-334.86 1297,-244.91 1297,-244.91 1297,-238.91 1303,-232.91 1309,-232.91"/>
<text text-anchor="middle" x="1358.5" y="-240.71" font-family="Times,serif" font-size="14.00">sales_predictors (3)</text>
</g>
<g id="clust3" class="cluster">
<title>clusterawareness_predictors (2)</title>
<path fill="none" stroke="black" d="M1440,-232.91C1440,-232.91 1574,-232.91 1574,-232.91 1580,-232.91 1586,-238.91 1586,-244.91 1586,-244.91 1586,-334.86 1586,-334.86 1586,-340.86 1580,-346.86 1574,-346.86 1574,-346.86 1440,-346.86 1440,-346.86 1434,-346.86 1428,-340.86 1428,-334.86 1428,-334.86 1428,-244.91 1428,-244.91 1428,-238.91 1434,-232.91 1440,-232.91"/>
<text text-anchor="middle" x="1510" y="-240.71" font-family="Times,serif" font-size="14.00">awareness_predictors (2)</text>
</g>
<g id="clust4" class="cluster">
<title>cluster12</title>
<path fill="none" stroke="black" d="M304,-8C304,-8 536,-8 536,-8 542,-8 548,-14 548,-20 548,-20 548,-109.95 548,-109.95 548,-115.95 542,-121.95 536,-121.95 536,-121.95 304,-121.95 304,-121.95 298,-121.95 292,-115.95 292,-109.95 292,-109.95 292,-20 292,-20 292,-14 298,-8 304,-8"/>
<text text-anchor="middle" x="533" y="-15.8" font-family="Times,serif" font-size="14.00">12</text>
</g>
<g id="clust5" class="cluster">
<title>cluster40</title>
<path fill="none" stroke="black" d="M20,-8C20,-8 272,-8 272,-8 278,-8 284,-14 284,-20 284,-20 284,-109.95 284,-109.95 284,-115.95 278,-121.95 272,-121.95 272,-121.95 20,-121.95 20,-121.95 14,-121.95 8,-115.95 8,-109.95 8,-109.95 8,-20 8,-20 8,-14 14,-8 20,-8"/>
<text text-anchor="middle" x="269" y="-15.8" font-family="Times,serif" font-size="14.00">40</text>
</g>
<!-- sigma_awareness_survey -->
<g id="node1" class="node">
<title>sigma_awareness_survey</title>
<ellipse fill="none" stroke="black" cx="386" cy="-187.43" rx="109.7" ry="37.45"/>
<text text-anchor="middle" x="386" y="-198.73" font-family="Times,serif" font-size="14.00">sigma_awareness_survey</text>
<text text-anchor="middle" x="386" y="-183.73" font-family="Times,serif" font-size="14.00">~</text>
<text text-anchor="middle" x="386" y="-168.73" font-family="Times,serif" font-size="14.00">Halfnormal</text>
</g>
<!-- awareness_survey_observed -->
<g id="node15" class="node">
<title>awareness_survey_observed</title>
<ellipse fill="lightgrey" stroke="black" cx="420" cy="-76.48" rx="120.42" ry="37.45"/>
<text text-anchor="middle" x="420" y="-87.78" font-family="Times,serif" font-size="14.00">awareness_survey_observed</text>
<text text-anchor="middle" x="420" y="-72.78" font-family="Times,serif" font-size="14.00">~</text>
<text text-anchor="middle" x="420" y="-57.78" font-family="Times,serif" font-size="14.00">Normal</text>
</g>
<!-- sigma_awareness_survey&#45;&gt;awareness_survey_observed -->
<g id="edge1" class="edge">
<title>sigma_awareness_survey&#45;&gt;awareness_survey_observed</title>
<path fill="none" stroke="black" d="M397.42,-149.85C399.91,-141.85 402.59,-133.28 405.19,-124.93"/>
<polygon fill="black" stroke="black" points="408.47,-126.18 408.11,-115.59 401.79,-124.1 408.47,-126.18"/>
</g>
<!-- awareness_survey_unobserved -->
<g id="node16" class="node">
<title>awareness_survey_unobserved</title>
<ellipse fill="none" stroke="black" cx="146" cy="-76.48" rx="130.22" ry="37.45"/>
<text text-anchor="middle" x="146" y="-87.78" font-family="Times,serif" font-size="14.00">awareness_survey_unobserved</text>
<text text-anchor="middle" x="146" y="-72.78" font-family="Times,serif" font-size="14.00">~</text>
<text text-anchor="middle" x="146" y="-57.78" font-family="Times,serif" font-size="14.00">Normal</text>
</g>
<!-- sigma_awareness_survey&#45;&gt;awareness_survey_unobserved -->
<g id="edge3" class="edge">
<title>sigma_awareness_survey&#45;&gt;awareness_survey_unobserved</title>
<path fill="none" stroke="black" d="M321.05,-156.95C291.49,-143.53 256.24,-127.52 225.15,-113.41"/>
<polygon fill="black" stroke="black" points="226.71,-110.27 216.16,-109.33 223.82,-116.65 226.71,-110.27"/>
</g>
<!-- sigma_sales -->
<g id="node2" class="node">
<title>sigma_sales</title>
<ellipse fill="none" stroke="black" cx="1189" cy="-187.43" rx="58.88" ry="37.45"/>
<text text-anchor="middle" x="1189" y="-198.73" font-family="Times,serif" font-size="14.00">sigma_sales</text>
<text text-anchor="middle" x="1189" y="-183.73" font-family="Times,serif" font-size="14.00">~</text>
<text text-anchor="middle" x="1189" y="-168.73" font-family="Times,serif" font-size="14.00">Halfnormal</text>
</g>
<!-- sales -->
<g id="node6" class="node">
<title>sales</title>
<ellipse fill="lightgrey" stroke="black" cx="1069" cy="-76.48" rx="41.94" ry="37.45"/>
<text text-anchor="middle" x="1069" y="-87.78" font-family="Times,serif" font-size="14.00">sales</text>
<text text-anchor="middle" x="1069" y="-72.78" font-family="Times,serif" font-size="14.00">~</text>
<text text-anchor="middle" x="1069" y="-57.78" font-family="Times,serif" font-size="14.00">Normal</text>
</g>
<!-- sigma_sales&#45;&gt;sales -->
<g id="edge26" class="edge">
<title>sigma_sales&#45;&gt;sales</title>
<path fill="none" stroke="black" d="M1155.57,-156.08C1140.36,-142.27 1122.29,-125.86 1106.6,-111.62"/>
<polygon fill="black" stroke="black" points="1109.05,-109.11 1099.29,-104.98 1104.34,-114.29 1109.05,-109.11"/>
</g>
<!-- _use_observed_carry -->
<g id="node3" class="node">
<title>_use_observed_carry</title>
<path fill="lightgrey" stroke="black" d="M1715.5,-327.88C1715.5,-327.88 1608.5,-327.88 1608.5,-327.88 1602.5,-327.88 1596.5,-321.88 1596.5,-315.88 1596.5,-315.88 1596.5,-286.88 1596.5,-286.88 1596.5,-280.88 1602.5,-274.88 1608.5,-274.88 1608.5,-274.88 1715.5,-274.88 1715.5,-274.88 1721.5,-274.88 1727.5,-280.88 1727.5,-286.88 1727.5,-286.88 1727.5,-315.88 1727.5,-315.88 1727.5,-321.88 1721.5,-327.88 1715.5,-327.88"/>
<text text-anchor="middle" x="1662" y="-312.68" font-family="Times,serif" font-size="14.00">_use_observed_carry</text>
<text text-anchor="middle" x="1662" y="-297.68" font-family="Times,serif" font-size="14.00">~</text>
<text text-anchor="middle" x="1662" y="-282.68" font-family="Times,serif" font-size="14.00">Data</text>
</g>
<!-- sigma_awareness -->
<g id="node4" class="node">
<title>sigma_awareness</title>
<ellipse fill="none" stroke="black" cx="1210" cy="-301.38" rx="79.39" ry="37.45"/>
<text text-anchor="middle" x="1210" y="-312.68" font-family="Times,serif" font-size="14.00">sigma_awareness</text>
<text text-anchor="middle" x="1210" y="-297.68" font-family="Times,serif" font-size="14.00">~</text>
<text text-anchor="middle" x="1210" y="-282.68" font-family="Times,serif" font-size="14.00">Halfnormal</text>
</g>
<!-- mu_sales -->
<g id="node9" class="node">
<title>mu_sales</title>
<polygon fill="none" stroke="black" points="1112.5,-213.93 1021.5,-213.93 1021.5,-160.93 1112.5,-160.93 1112.5,-213.93"/>
<text text-anchor="middle" x="1067" y="-198.73" font-family="Times,serif" font-size="14.00">mu_sales</text>
<text text-anchor="middle" x="1067" y="-183.73" font-family="Times,serif" font-size="14.00">~</text>
<text text-anchor="middle" x="1067" y="-168.73" font-family="Times,serif" font-size="14.00">Deterministic</text>
</g>
<!-- sigma_awareness&#45;&gt;mu_sales -->
<g id="edge18" class="edge">
<title>sigma_awareness&#45;&gt;mu_sales</title>
<path fill="none" stroke="black" d="M1170.33,-268.66C1156.07,-257.33 1139.85,-244.5 1125,-232.91 1120.12,-229.1 1115,-225.13 1109.9,-221.2"/>
<polygon fill="black" stroke="black" points="1112.07,-218.45 1102.01,-215.13 1107.8,-224 1112.07,-218.45"/>
</g>
<!-- mu_awareness_survey -->
<g id="node10" class="node">
<title>mu_awareness_survey</title>
<polygon fill="none" stroke="black" points="1003,-213.93 863,-213.93 863,-160.93 1003,-160.93 1003,-213.93"/>
<text text-anchor="middle" x="933" y="-198.73" font-family="Times,serif" font-size="14.00">mu_awareness_survey</text>
<text text-anchor="middle" x="933" y="-183.73" font-family="Times,serif" font-size="14.00">~</text>
<text text-anchor="middle" x="933" y="-168.73" font-family="Times,serif" font-size="14.00">Deterministic</text>
</g>
<!-- sigma_awareness&#45;&gt;mu_awareness_survey -->
<g id="edge12" class="edge">
<title>sigma_awareness&#45;&gt;mu_awareness_survey</title>
<path fill="none" stroke="black" d="M1177.44,-266.91C1162.72,-253.94 1144.31,-240.42 1125,-232.91 1078.49,-214.81 1061.36,-237.23 1013,-224.91 1006.4,-223.22 999.67,-221.02 993.05,-218.53"/>
<polygon fill="black" stroke="black" points="994.78,-215.45 984.2,-214.97 992.17,-221.94 994.78,-215.45"/>
</g>
<!-- awareness -->
<g id="node12" class="node">
<title>awareness</title>
<polygon fill="none" stroke="black" points="844.5,-213.93 753.5,-213.93 753.5,-160.93 844.5,-160.93 844.5,-213.93"/>
<text text-anchor="middle" x="799" y="-198.73" font-family="Times,serif" font-size="14.00">awareness</text>
<text text-anchor="middle" x="799" y="-183.73" font-family="Times,serif" font-size="14.00">~</text>
<text text-anchor="middle" x="799" y="-168.73" font-family="Times,serif" font-size="14.00">Deterministic</text>
</g>
<!-- sigma_awareness&#45;&gt;awareness -->
<g id="edge24" class="edge">
<title>sigma_awareness&#45;&gt;awareness</title>
<path fill="none" stroke="black" d="M1177.99,-266.87C1163.23,-253.72 1144.64,-240.08 1125,-232.91 1068.41,-212.23 911.42,-243.15 854,-224.91 849.82,-223.58 845.66,-221.83 841.61,-219.82"/>
<polygon fill="black" stroke="black" points="843.57,-216.91 833.13,-215.11 840.17,-223.03 843.57,-216.91"/>
</g>
<!-- lower_funnel -->
<g id="node5" class="node">
<title>lower_funnel</title>
<path fill="lightgrey" stroke="black" d="M774.5,-327.88C774.5,-327.88 709.5,-327.88 709.5,-327.88 703.5,-327.88 697.5,-321.88 697.5,-315.88 697.5,-315.88 697.5,-286.88 697.5,-286.88 697.5,-280.88 703.5,-274.88 709.5,-274.88 709.5,-274.88 774.5,-274.88 774.5,-274.88 780.5,-274.88 786.5,-280.88 786.5,-286.88 786.5,-286.88 786.5,-315.88 786.5,-315.88 786.5,-321.88 780.5,-327.88 774.5,-327.88"/>
<text text-anchor="middle" x="742" y="-312.68" font-family="Times,serif" font-size="14.00">lower_funnel</text>
<text text-anchor="middle" x="742" y="-297.68" font-family="Times,serif" font-size="14.00">~</text>
<text text-anchor="middle" x="742" y="-282.68" font-family="Times,serif" font-size="14.00">Data</text>
</g>
<!-- lower_funnel&#45;&gt;mu_sales -->
<g id="edge13" class="edge">
<title>lower_funnel&#45;&gt;mu_sales</title>
<path fill="none" stroke="black" d="M755.28,-274.5C764.51,-259.48 778.31,-241.81 796,-232.91 817.45,-222.11 989.14,-232.26 1012,-224.91 1016.18,-223.56 1020.33,-221.81 1024.38,-219.79"/>
<polygon fill="black" stroke="black" points="1025.83,-222.99 1032.86,-215.06 1022.42,-216.88 1025.83,-222.99"/>
</g>
<!-- lower_funnel&#45;&gt;mu_awareness_survey -->
<g id="edge7" class="edge">
<title>lower_funnel&#45;&gt;mu_awareness_survey</title>
<path fill="none" stroke="black" d="M756.04,-274.44C765.38,-259.79 779.04,-242.54 796,-232.91 818.63,-220.06 829.03,-232.22 854,-224.91 860.13,-223.11 866.39,-220.92 872.57,-218.5"/>
<polygon fill="black" stroke="black" points="873.55,-221.88 881.46,-214.83 870.88,-215.41 873.55,-221.88"/>
</g>
<!-- lower_funnel&#45;&gt;awareness -->
<g id="edge19" class="edge">
<title>lower_funnel&#45;&gt;awareness</title>
<path fill="none" stroke="black" d="M755.22,-274.42C762.77,-259.58 772.36,-240.75 780.64,-224.5"/>
<polygon fill="black" stroke="black" points="783.75,-226.1 785.16,-215.6 777.51,-222.93 783.75,-226.1"/>
</g>
<!-- upper_funnel -->
<g id="node7" class="node">
<title>upper_funnel</title>
<path fill="lightgrey" stroke="black" d="M1100.5,-327.88C1100.5,-327.88 1035.5,-327.88 1035.5,-327.88 1029.5,-327.88 1023.5,-321.88 1023.5,-315.88 1023.5,-315.88 1023.5,-286.88 1023.5,-286.88 1023.5,-280.88 1029.5,-274.88 1035.5,-274.88 1035.5,-274.88 1100.5,-274.88 1100.5,-274.88 1106.5,-274.88 1112.5,-280.88 1112.5,-286.88 1112.5,-286.88 1112.5,-315.88 1112.5,-315.88 1112.5,-321.88 1106.5,-327.88 1100.5,-327.88"/>
<text text-anchor="middle" x="1068" y="-312.68" font-family="Times,serif" font-size="14.00">upper_funnel</text>
<text text-anchor="middle" x="1068" y="-297.68" font-family="Times,serif" font-size="14.00">~</text>
<text text-anchor="middle" x="1068" y="-282.68" font-family="Times,serif" font-size="14.00">Data</text>
</g>
<!-- upper_funnel&#45;&gt;mu_sales -->
<g id="edge14" class="edge">
<title>upper_funnel&#45;&gt;mu_sales</title>
<path fill="none" stroke="black" d="M1067.77,-274.42C1067.64,-259.86 1067.47,-241.47 1067.33,-225.43"/>
<polygon fill="black" stroke="black" points="1070.83,-225.74 1067.24,-215.77 1063.83,-225.8 1070.83,-225.74"/>
</g>
<!-- upper_funnel&#45;&gt;mu_awareness_survey -->
<g id="edge8" class="edge">
<title>upper_funnel&#45;&gt;mu_awareness_survey</title>
<path fill="none" stroke="black" d="M1051.09,-274.61C1041.36,-261.08 1028.24,-244.88 1014,-232.91 1008.68,-228.44 1002.84,-224.2 996.81,-220.26"/>
<polygon fill="black" stroke="black" points="998.86,-217.41 988.52,-215.1 995.16,-223.35 998.86,-217.41"/>
</g>
<!-- upper_funnel&#45;&gt;awareness -->
<g id="edge20" class="edge">
<title>upper_funnel&#45;&gt;awareness</title>
<path fill="none" stroke="black" d="M1054.68,-274.58C1045.44,-259.59 1031.63,-241.93 1014,-232.91 982.31,-216.69 887.82,-236.03 854,-224.91 849.83,-223.54 845.68,-221.76 841.64,-219.73"/>
<polygon fill="black" stroke="black" points="843.6,-216.82 833.17,-214.99 840.18,-222.93 843.6,-216.82"/>
</g>
<!-- innovations_awareness -->
<g id="node8" class="node">
<title>innovations_awareness</title>
<ellipse fill="none" stroke="black" cx="905" cy="-301.38" rx="100.32" ry="37.45"/>
<text text-anchor="middle" x="905" y="-312.68" font-family="Times,serif" font-size="14.00">innovations_awareness</text>
<text text-anchor="middle" x="905" y="-297.68" font-family="Times,serif" font-size="14.00">~</text>
<text text-anchor="middle" x="905" y="-282.68" font-family="Times,serif" font-size="14.00">Normal</text>
</g>
<!-- innovations_awareness&#45;&gt;mu_sales -->
<g id="edge15" class="edge">
<title>innovations_awareness&#45;&gt;mu_sales</title>
<path fill="none" stroke="black" d="M951.86,-268C973.35,-253.15 998.76,-235.59 1020.24,-220.74"/>
<polygon fill="black" stroke="black" points="1022.01,-223.78 1028.25,-215.21 1018.03,-218.02 1022.01,-223.78"/>
</g>
<!-- innovations_awareness&#45;&gt;mu_awareness_survey -->
<g id="edge9" class="edge">
<title>innovations_awareness&#45;&gt;mu_awareness_survey</title>
<path fill="none" stroke="black" d="M914.17,-263.73C917.27,-251.32 920.73,-237.48 923.83,-225.08"/>
<polygon fill="black" stroke="black" points="927.16,-226.2 926.19,-215.65 920.37,-224.5 927.16,-226.2"/>
</g>
<!-- innovations_awareness&#45;&gt;awareness -->
<g id="edge21" class="edge">
<title>innovations_awareness&#45;&gt;awareness</title>
<path fill="none" stroke="black" d="M872.04,-265.57C859.06,-251.86 844.19,-236.16 831.27,-222.52"/>
<polygon fill="black" stroke="black" points="833.97,-220.28 824.56,-215.42 828.89,-225.09 833.97,-220.28"/>
</g>
<!-- mu_sales&#45;&gt;sales -->
<g id="edge25" class="edge">
<title>mu_sales&#45;&gt;sales</title>
<path fill="none" stroke="black" d="M1067.47,-160.61C1067.67,-150.12 1067.9,-137.64 1068.12,-125.59"/>
<polygon fill="black" stroke="black" points="1071.61,-125.82 1068.3,-115.76 1064.61,-125.69 1071.61,-125.82"/>
</g>
<!-- mu_awareness_survey&#45;&gt;awareness_survey_observed -->
<g id="edge2" class="edge">
<title>mu_awareness_survey&#45;&gt;awareness_survey_observed</title>
<path fill="none" stroke="black" d="M883.38,-160.44C873.84,-156.33 863.77,-152.58 854,-149.95 723.82,-114.97 683.87,-149.89 552,-121.95 536.96,-118.77 521.25,-114.42 506.13,-109.69"/>
<polygon fill="black" stroke="black" points="507.28,-106.38 496.68,-106.65 505.13,-113.04 507.28,-106.38"/>
</g>
<!-- mu_awareness_survey&#45;&gt;awareness_survey_unobserved -->
<g id="edge4" class="edge">
<title>mu_awareness_survey&#45;&gt;awareness_survey_unobserved</title>
<path fill="none" stroke="black" d="M884.33,-160.46C874.53,-156.24 864.12,-152.44 854,-149.95 609.42,-89.84 535.95,-166.17 288,-121.95 271.21,-118.96 253.63,-114.55 236.79,-109.65"/>
<polygon fill="black" stroke="black" points="237.88,-106.33 227.29,-106.81 235.87,-113.03 237.88,-106.33"/>
</g>
<!-- awareness_survey -->
<g id="node11" class="node">
<title>awareness_survey</title>
<polygon fill="none" stroke="black" points="679.5,-327.88 564.5,-327.88 564.5,-274.88 679.5,-274.88 679.5,-327.88"/>
<text text-anchor="middle" x="622" y="-312.68" font-family="Times,serif" font-size="14.00">awareness_survey</text>
<text text-anchor="middle" x="622" y="-297.68" font-family="Times,serif" font-size="14.00">~</text>
<text text-anchor="middle" x="622" y="-282.68" font-family="Times,serif" font-size="14.00">Deterministic</text>
</g>
<!-- beta_sales -->
<g id="node13" class="node">
<title>beta_sales</title>
<ellipse fill="none" stroke="black" cx="1358" cy="-301.38" rx="50.82" ry="37.45"/>
<text text-anchor="middle" x="1358" y="-312.68" font-family="Times,serif" font-size="14.00">beta_sales</text>
<text text-anchor="middle" x="1358" y="-297.68" font-family="Times,serif" font-size="14.00">~</text>
<text text-anchor="middle" x="1358" y="-282.68" font-family="Times,serif" font-size="14.00">Normal</text>
</g>
<!-- beta_sales&#45;&gt;mu_sales -->
<g id="edge17" class="edge">
<title>beta_sales&#45;&gt;mu_sales</title>
<path fill="none" stroke="black" d="M1336.9,-266.81C1326.83,-253.82 1313.57,-240.32 1298,-232.91 1262.45,-215.97 1158.38,-237.28 1121,-224.91 1117.01,-223.58 1113.03,-221.88 1109.16,-219.92"/>
<polygon fill="black" stroke="black" points="1110.93,-216.91 1100.51,-215.02 1107.48,-223 1110.93,-216.91"/>
</g>
<!-- beta_sales&#45;&gt;mu_awareness_survey -->
<g id="edge11" class="edge">
<title>beta_sales&#45;&gt;mu_awareness_survey</title>
<path fill="none" stroke="black" d="M1337.24,-267.04C1327.15,-253.92 1313.77,-240.26 1298,-232.91 1269.28,-219.53 1043.86,-232.06 1013,-224.91 1006.17,-223.32 999.21,-221.13 992.4,-218.6"/>
<polygon fill="black" stroke="black" points="993.83,-215.41 983.25,-214.95 991.24,-221.91 993.83,-215.41"/>
</g>
<!-- beta_sales&#45;&gt;awareness -->
<g id="edge23" class="edge">
<title>beta_sales&#45;&gt;awareness</title>
<path fill="none" stroke="black" d="M1337.27,-266.96C1327.19,-253.83 1313.81,-240.18 1298,-232.91 1275.59,-222.6 877.56,-232.24 854,-224.91 849.75,-223.58 845.53,-221.82 841.42,-219.79"/>
<polygon fill="black" stroke="black" points="843.25,-216.8 832.81,-214.99 839.84,-222.92 843.25,-216.8"/>
</g>
<!-- beta_awareness -->
<g id="node14" class="node">
<title>beta_awareness</title>
<ellipse fill="none" stroke="black" cx="1507" cy="-301.38" rx="71.34" ry="37.45"/>
<text text-anchor="middle" x="1507" y="-312.68" font-family="Times,serif" font-size="14.00">beta_awareness</text>
<text text-anchor="middle" x="1507" y="-297.68" font-family="Times,serif" font-size="14.00">~</text>
<text text-anchor="middle" x="1507" y="-282.68" font-family="Times,serif" font-size="14.00">Beta</text>
</g>
<!-- beta_awareness&#45;&gt;mu_sales -->
<g id="edge16" class="edge">
<title>beta_awareness&#45;&gt;mu_sales</title>
<path fill="none" stroke="black" d="M1476.27,-267.21C1461.83,-253.94 1443.51,-240.13 1424,-232.91 1392.42,-221.22 1153.07,-235.19 1121,-224.91 1116.99,-223.62 1113.01,-221.94 1109.13,-220.01"/>
<polygon fill="black" stroke="black" points="1110.9,-216.99 1100.47,-215.13 1107.47,-223.09 1110.9,-216.99"/>
</g>
<!-- beta_awareness&#45;&gt;mu_awareness_survey -->
<g id="edge10" class="edge">
<title>beta_awareness&#45;&gt;mu_awareness_survey</title>
<path fill="none" stroke="black" d="M1476.3,-267.14C1461.86,-253.87 1443.53,-240.06 1424,-232.91 1381.11,-217.2 1057.54,-235.04 1013,-224.91 1005.9,-223.29 998.67,-221.01 991.6,-218.37"/>
<polygon fill="black" stroke="black" points="993.38,-215.32 982.8,-214.84 990.78,-221.81 993.38,-215.32"/>
</g>
<!-- beta_awareness&#45;&gt;awareness -->
<g id="edge22" class="edge">
<title>beta_awareness&#45;&gt;awareness</title>
<path fill="none" stroke="black" d="M1476.32,-267.09C1461.88,-253.81 1443.55,-240.01 1424,-232.91 1364.46,-211.29 914.51,-243.61 854,-224.91 849.75,-223.59 845.52,-221.84 841.41,-219.81"/>
<polygon fill="black" stroke="black" points="843.24,-216.82 832.8,-215.02 839.84,-222.94 843.24,-216.82"/>
</g>
<!-- awareness_survey_observed&#45;&gt;awareness_survey -->
<g id="edge6" class="edge">
<title>awareness_survey_observed&#45;&gt;awareness_survey</title>
<path fill="none" stroke="black" d="M463.47,-111.62C477.28,-123.22 492.27,-136.64 505,-149.95 540.22,-186.8 575.43,-233.78 597.87,-265.35"/>
<polygon fill="black" stroke="black" points="594.92,-267.23 603.55,-273.39 600.64,-263.2 594.92,-267.23"/>
</g>
<!-- awareness_survey_unobserved&#45;&gt;awareness_survey -->
<g id="edge5" class="edge">
<title>awareness_survey_unobserved&#45;&gt;awareness_survey</title>
<path fill="none" stroke="black" d="M165.97,-113.8C186.69,-147.93 222.3,-197.72 267,-224.91 355.84,-278.95 477.66,-294.68 553.03,-299.04"/>
<polygon fill="black" stroke="black" points="552.58,-302.52 562.75,-299.54 552.94,-295.53 552.58,-302.52"/>
</g>
</g>
</svg>
