<?xml version="1.0" encoding="UTF-8" standalone="no"?>
<!DOCTYPE svg PUBLIC "-//W3C//DTD SVG 1.1//EN"
 "http://www.w3.org/Graphics/SVG/1.1/DTD/svg11.dtd">
<!-- Generated by graphviz version 7.1.0 (0)
 -->
<!-- Pages: 1 -->
<svg width="467pt" height="182pt"
 viewBox="0.00 0.00 467.08 182.00" xmlns="http://www.w3.org/2000/svg" xmlns:xlink="http://www.w3.org/1999/xlink">
<g id="graph0" class="graph" transform="scale(1 1) rotate(0) translate(4 178)">
<polygon fill="white" stroke="none" points="-4,4 -4,-178 463.08,-178 463.08,4 -4,4"/>
<!-- upper_funnel -->
<g id="node1" class="node">
<title>upper_funnel</title>
<polygon fill="none" stroke="black" points="89,-106 0,-106 0,-70 89,-70 89,-106"/>
<text text-anchor="middle" x="44.5" y="-84.3" font-family="Times,serif" font-size="14.00">upper_funnel</text>
</g>
<!-- awareness -->
<g id="node3" class="node">
<title>awareness</title>
<ellipse fill="none" stroke="black" stroke-width="2" stroke-dasharray="5,2" cx="196.8" cy="-123" rx="46.59" ry="18"/>
<text text-anchor="middle" x="196.8" y="-119.3" font-family="Times,serif" font-size="14.00">awareness</text>
</g>
<!-- upper_funnel&#45;&gt;awareness -->
<g id="edge1" class="edge">
<title>upper_funnel&#45;&gt;awareness</title>
<path fill="none" stroke="black" d="M89.38,-98.22C106.88,-102.29 127.15,-107.01 145.26,-111.23"/>
<polygon fill="black" stroke="black" points="144.22,-114.58 154.75,-113.44 145.8,-107.76 144.22,-114.58"/>
<text text-anchor="middle" x="119.5" y="-111.8" font-family="Times,serif" font-size="14.00">a_uf</text>
</g>
<!-- sales -->
<g id="node4" class="node">
<title>sales</title>
<ellipse fill="none" stroke="black" cx="384.34" cy="-72" rx="27.9" ry="18"/>
<text text-anchor="middle" x="384.34" y="-68.3" font-family="Times,serif" font-size="14.00">sales</text>
</g>
<!-- upper_funnel&#45;&gt;sales -->
<g id="edge4" class="edge">
<title>upper_funnel&#45;&gt;sales</title>
<path fill="none" stroke="black" d="M89.46,-84.78C108.12,-83.48 130.12,-82.05 150,-81 218.52,-77.38 298.44,-74.62 344.73,-73.15"/>
<polygon fill="black" stroke="black" points="344.62,-76.66 354.51,-72.85 344.41,-69.66 344.62,-76.66"/>
<text text-anchor="middle" x="196.8" y="-84.8" font-family="Times,serif" font-size="14.00">c_uf</text>
</g>
<!-- lower_funnel -->
<g id="node2" class="node">
<title>lower_funnel</title>
<polygon fill="none" stroke="black" points="241.3,-36 152.3,-36 152.3,0 241.3,0 241.3,-36"/>
<text text-anchor="middle" x="196.8" y="-14.3" font-family="Times,serif" font-size="14.00">lower_funnel</text>
</g>
<!-- lower_funnel&#45;&gt;sales -->
<g id="edge5" class="edge">
<title>lower_funnel&#45;&gt;sales</title>
<path fill="none" stroke="black" d="M241.34,-29.16C257.2,-33.35 275.25,-38.24 291.59,-43 310.41,-48.48 331.24,-55.02 348.29,-60.51"/>
<polygon fill="black" stroke="black" points="346.86,-63.73 357.46,-63.47 349.02,-57.07 346.86,-63.73"/>
<text text-anchor="middle" x="276.59" y="-46.8" font-family="Times,serif" font-size="14.00">d_lf</text>
</g>
<!-- awareness&#45;&gt;awareness -->
<g id="edge2" class="edge">
<title>awareness&#45;&gt;awareness</title>
<path fill="none" stroke="black" stroke-dasharray="5,2" d="M183,-140.41C180.42,-150.09 185.02,-159 196.8,-159 203.6,-159 208.01,-156.02 210.02,-151.64"/>
<polygon fill="black" stroke="black" points="213.51,-152.09 210.52,-141.92 206.51,-151.73 213.51,-152.09"/>
<text text-anchor="middle" x="196.8" y="-162.8" font-family="Times,serif" font-size="14.00">rho (t−1)</text>
</g>
<!-- awareness&#45;&gt;sales -->
<g id="edge3" class="edge">
<title>awareness&#45;&gt;sales</title>
<path fill="none" stroke="black" d="M235.34,-112.68C268.02,-103.7 315.07,-90.76 347.3,-81.91"/>
<polygon fill="black" stroke="black" points="347.86,-85.38 356.57,-79.36 346,-78.63 347.86,-85.38"/>
<text text-anchor="middle" x="276.59" y="-109.8" font-family="Times,serif" font-size="14.00">b_aw</text>
</g>
<!-- awareness_survey -->
<g id="node5" class="node">
<title>awareness_survey</title>
<ellipse fill="none" stroke="black" cx="384.34" cy="-143" rx="74.99" ry="18"/>
<text text-anchor="middle" x="384.34" y="-139.3" font-family="Times,serif" font-size="14.00">awareness_survey</text>
</g>
<!-- awareness&#45;&gt;awareness_survey -->
<g id="edge6" class="edge">
<title>awareness&#45;&gt;awareness_survey</title>
<path fill="none" stroke="black" d="M242.24,-127.79C260.78,-129.79 282.89,-132.17 304.04,-134.45"/>
<polygon fill="black" stroke="black" points="303.51,-137.92 313.82,-135.51 304.26,-130.96 303.51,-137.92"/>
<text text-anchor="middle" x="276.59" y="-136.8" font-family="Times,serif" font-size="14.00">1</text>
</g>
</g>
</svg>
