<?xml version="1.0" encoding="UTF-8" standalone="no"?>
<!DOCTYPE svg PUBLIC "-//W3C//DTD SVG 1.1//EN"
 "http://www.w3.org/Graphics/SVG/1.1/DTD/svg11.dtd">
<!-- Generated by graphviz version 7.1.0 (0)
 -->
<!-- Pages: 1 -->
<svg width="1066pt" height="458pt"
 viewBox="0.00 0.00 1065.54 457.81" xmlns="http://www.w3.org/2000/svg" xmlns:xlink="http://www.w3.org/1999/xlink">
<g id="graph0" class="graph" transform="scale(1 1) rotate(0) translate(4 453.81)">
<polygon fill="white" stroke="none" points="-4,4 -4,-453.81 1061.54,-453.81 1061.54,4 -4,4"/>
<g id="clust1" class="cluster">
<title>cluster30 x 4</title>
<path fill="none" stroke="black" d="M245.54,-8C245.54,-8 435.54,-8 435.54,-8 441.54,-8 447.54,-14 447.54,-20 447.54,-20 447.54,-323.88 447.54,-323.88 447.54,-329.88 441.54,-335.88 435.54,-335.88 435.54,-335.88 245.54,-335.88 245.54,-335.88 239.54,-335.88 233.54,-329.88 233.54,-323.88 233.54,-323.88 233.54,-20 233.54,-20 233.54,-14 239.54,-8 245.54,-8"/>
<text text-anchor="middle" x="422.04" y="-15.8" font-family="Times,serif" font-size="14.00">30 x 4</text>
</g>
<g id="clust2" class="cluster">
<title>clusterunit (4)</title>
<path fill="none" stroke="black" d="M109.54,-232.91C109.54,-232.91 213.54,-232.91 213.54,-232.91 219.54,-232.91 225.54,-238.91 225.54,-244.91 225.54,-244.91 225.54,-334.86 225.54,-334.86 225.54,-340.86 219.54,-346.86 213.54,-346.86 213.54,-346.86 109.54,-346.86 109.54,-346.86 103.54,-346.86 97.54,-340.86 97.54,-334.86 97.54,-334.86 97.54,-244.91 97.54,-244.91 97.54,-238.91 103.54,-232.91 109.54,-232.91"/>
<text text-anchor="middle" x="197.04" y="-240.71" font-family="Times,serif" font-size="14.00">unit (4)</text>
</g>
<g id="clust3" class="cluster">
<title>clustersales_predictors (4)</title>
<path fill="none" stroke="black" d="M938.54,-232.91C938.54,-232.91 1037.54,-232.91 1037.54,-232.91 1043.54,-232.91 1049.54,-238.91 1049.54,-244.91 1049.54,-244.91 1049.54,-334.86 1049.54,-334.86 1049.54,-340.86 1043.54,-346.86 1037.54,-346.86 1037.54,-346.86 938.54,-346.86 938.54,-346.86 932.54,-346.86 926.54,-340.86 926.54,-334.86 926.54,-334.86 926.54,-244.91 926.54,-244.91 926.54,-238.91 932.54,-232.91 938.54,-232.91"/>
<text text-anchor="middle" x="988.04" y="-240.71" font-family="Times,serif" font-size="14.00">sales_predictors (4)</text>
</g>
<!-- mu_alpha_sales -->
<g id="node1" class="node">
<title>mu_alpha_sales</title>
<ellipse fill="none" stroke="black" cx="73.54" cy="-412.34" rx="73.58" ry="37.45"/>
<text text-anchor="middle" x="73.54" y="-423.64" font-family="Times,serif" font-size="14.00">mu_alpha_sales</text>
<text text-anchor="middle" x="73.54" y="-408.64" font-family="Times,serif" font-size="14.00">~</text>
<text text-anchor="middle" x="73.54" y="-393.64" font-family="Times,serif" font-size="14.00">Normal</text>
</g>
<!-- alpha_sales -->
<g id="node14" class="node">
<title>alpha_sales</title>
<ellipse fill="none" stroke="black" cx="161.54" cy="-301.38" rx="55.72" ry="37.45"/>
<text text-anchor="middle" x="161.54" y="-312.68" font-family="Times,serif" font-size="14.00">alpha_sales</text>
<text text-anchor="middle" x="161.54" y="-297.68" font-family="Times,serif" font-size="14.00">~</text>
<text text-anchor="middle" x="161.54" y="-282.68" font-family="Times,serif" font-size="14.00">Normal</text>
</g>
<!-- mu_alpha_sales&#45;&gt;alpha_sales -->
<g id="edge1" class="edge">
<title>mu_alpha_sales&#45;&gt;alpha_sales</title>
<path fill="none" stroke="black" d="M101.14,-377.16C109.81,-366.43 119.47,-354.46 128.48,-343.31"/>
<polygon fill="black" stroke="black" points="131.02,-345.74 134.58,-335.76 125.58,-341.34 131.02,-345.74"/>
</g>
<!-- lam_dig -->
<g id="node2" class="node">
<title>lam_dig</title>
<ellipse fill="none" stroke="black" cx="514.54" cy="-301.38" rx="56.64" ry="37.45"/>
<text text-anchor="middle" x="514.54" y="-312.68" font-family="Times,serif" font-size="14.00">lam_dig</text>
<text text-anchor="middle" x="514.54" y="-297.68" font-family="Times,serif" font-size="14.00">~</text>
<text text-anchor="middle" x="514.54" y="-282.68" font-family="Times,serif" font-size="14.00">Halfnormal</text>
</g>
<!-- mu_sales -->
<g id="node13" class="node">
<title>mu_sales</title>
<polygon fill="none" stroke="black" points="439.04,-213.93 348.04,-213.93 348.04,-160.93 439.04,-160.93 439.04,-213.93"/>
<text text-anchor="middle" x="393.54" y="-198.73" font-family="Times,serif" font-size="14.00">mu_sales</text>
<text text-anchor="middle" x="393.54" y="-183.73" font-family="Times,serif" font-size="14.00">~</text>
<text text-anchor="middle" x="393.54" y="-168.73" font-family="Times,serif" font-size="14.00">Deterministic</text>
</g>
<!-- lam_dig&#45;&gt;mu_sales -->
<g id="edge3" class="edge">
<title>lam_dig&#45;&gt;mu_sales</title>
<path fill="none" stroke="black" d="M486.72,-268.43C476.11,-256.84 463.64,-243.89 451.54,-232.91 447.3,-229.06 442.76,-225.19 438.15,-221.42"/>
<polygon fill="black" stroke="black" points="440.44,-218.78 430.44,-215.28 436.08,-224.25 440.44,-218.78"/>
</g>
<!-- _use_observed_carry -->
<g id="node3" class="node">
<title>_use_observed_carry</title>
<path fill="lightgrey" stroke="black" d="M471.04,-438.84C471.04,-438.84 364.04,-438.84 364.04,-438.84 358.04,-438.84 352.04,-432.84 352.04,-426.84 352.04,-426.84 352.04,-397.84 352.04,-397.84 352.04,-391.84 358.04,-385.84 364.04,-385.84 364.04,-385.84 471.04,-385.84 471.04,-385.84 477.04,-385.84 483.04,-391.84 483.04,-397.84 483.04,-397.84 483.04,-426.84 483.04,-426.84 483.04,-432.84 477.04,-438.84 471.04,-438.84"/>
<text text-anchor="middle" x="417.54" y="-423.64" font-family="Times,serif" font-size="14.00">_use_observed_carry</text>
<text text-anchor="middle" x="417.54" y="-408.64" font-family="Times,serif" font-size="14.00">~</text>
<text text-anchor="middle" x="417.54" y="-393.64" font-family="Times,serif" font-size="14.00">Data</text>
</g>
<!-- theta_tv -->
<g id="node4" class="node">
<title>theta_tv</title>
<ellipse fill="none" stroke="black" cx="631.54" cy="-301.38" rx="42.35" ry="37.45"/>
<text text-anchor="middle" x="631.54" y="-312.68" font-family="Times,serif" font-size="14.00">theta_tv</text>
<text text-anchor="middle" x="631.54" y="-297.68" font-family="Times,serif" font-size="14.00">~</text>
<text text-anchor="middle" x="631.54" y="-282.68" font-family="Times,serif" font-size="14.00">Beta</text>
</g>
<!-- theta_tv&#45;&gt;mu_sales -->
<g id="edge7" class="edge">
<title>theta_tv&#45;&gt;mu_sales</title>
<path fill="none" stroke="black" d="M614.36,-266.66C605.99,-253.82 594.65,-240.47 580.54,-232.91 554.44,-218.92 475.58,-234.42 447.54,-224.91 443.61,-223.57 439.7,-221.88 435.89,-219.94"/>
<polygon fill="black" stroke="black" points="437.79,-217 427.37,-215.12 434.34,-223.09 437.79,-217"/>
</g>
<!-- lam_tv -->
<g id="node5" class="node">
<title>lam_tv</title>
<ellipse fill="none" stroke="black" cx="748.54" cy="-301.38" rx="56.64" ry="37.45"/>
<text text-anchor="middle" x="748.54" y="-312.68" font-family="Times,serif" font-size="14.00">lam_tv</text>
<text text-anchor="middle" x="748.54" y="-297.68" font-family="Times,serif" font-size="14.00">~</text>
<text text-anchor="middle" x="748.54" y="-282.68" font-family="Times,serif" font-size="14.00">Halfnormal</text>
</g>
<!-- lam_tv&#45;&gt;mu_sales -->
<g id="edge8" class="edge">
<title>lam_tv&#45;&gt;mu_sales</title>
<path fill="none" stroke="black" d="M725.02,-267.03C713.8,-253.9 699.18,-240.24 682.54,-232.91 634.73,-211.83 497.24,-241.05 447.54,-224.91 443.54,-223.61 439.56,-221.92 435.68,-219.97"/>
<polygon fill="black" stroke="black" points="437.45,-216.95 427.02,-215.09 434.01,-223.05 437.45,-216.95"/>
</g>
<!-- theta_dig -->
<g id="node6" class="node">
<title>theta_dig</title>
<ellipse fill="none" stroke="black" cx="870.54" cy="-301.38" rx="47.25" ry="37.45"/>
<text text-anchor="middle" x="870.54" y="-312.68" font-family="Times,serif" font-size="14.00">theta_dig</text>
<text text-anchor="middle" x="870.54" y="-297.68" font-family="Times,serif" font-size="14.00">~</text>
<text text-anchor="middle" x="870.54" y="-282.68" font-family="Times,serif" font-size="14.00">Beta</text>
</g>
<!-- theta_dig&#45;&gt;mu_sales -->
<g id="edge10" class="edge">
<title>theta_dig&#45;&gt;mu_sales</title>
<path fill="none" stroke="black" d="M851.39,-266.68C842.08,-253.67 829.62,-240.19 814.54,-232.91 777.81,-215.17 486.41,-237.27 447.54,-224.91 443.53,-223.63 439.55,-221.96 435.66,-220.03"/>
<polygon fill="black" stroke="black" points="437.43,-217.01 427,-215.16 434,-223.11 437.43,-217.01"/>
</g>
<!-- sigma_sales -->
<g id="node7" class="node">
<title>sigma_sales</title>
<ellipse fill="none" stroke="black" cx="515.54" cy="-187.43" rx="58.88" ry="37.45"/>
<text text-anchor="middle" x="515.54" y="-198.73" font-family="Times,serif" font-size="14.00">sigma_sales</text>
<text text-anchor="middle" x="515.54" y="-183.73" font-family="Times,serif" font-size="14.00">~</text>
<text text-anchor="middle" x="515.54" y="-168.73" font-family="Times,serif" font-size="14.00">Halfnormal</text>
</g>
<!-- sales -->
<g id="node9" class="node">
<title>sales</title>
<ellipse fill="lightgrey" stroke="black" cx="395.54" cy="-76.48" rx="41.94" ry="37.45"/>
<text text-anchor="middle" x="395.54" y="-87.78" font-family="Times,serif" font-size="14.00">sales</text>
<text text-anchor="middle" x="395.54" y="-72.78" font-family="Times,serif" font-size="14.00">~</text>
<text text-anchor="middle" x="395.54" y="-57.78" font-family="Times,serif" font-size="14.00">Normal</text>
</g>
<!-- sigma_sales&#45;&gt;sales -->
<g id="edge13" class="edge">
<title>sigma_sales&#45;&gt;sales</title>
<path fill="none" stroke="black" d="M482.11,-156.08C466.9,-142.27 448.83,-125.86 433.14,-111.62"/>
<polygon fill="black" stroke="black" points="435.58,-109.11 425.83,-104.98 430.88,-114.29 435.58,-109.11"/>
</g>
<!-- sigma_alpha_sales -->
<g id="node8" class="node">
<title>sigma_alpha_sales</title>
<ellipse fill="none" stroke="black" cx="249.54" cy="-412.34" rx="84.29" ry="37.45"/>
<text text-anchor="middle" x="249.54" y="-423.64" font-family="Times,serif" font-size="14.00">sigma_alpha_sales</text>
<text text-anchor="middle" x="249.54" y="-408.64" font-family="Times,serif" font-size="14.00">~</text>
<text text-anchor="middle" x="249.54" y="-393.64" font-family="Times,serif" font-size="14.00">Halfnormal</text>
</g>
<!-- sigma_alpha_sales&#45;&gt;alpha_sales -->
<g id="edge2" class="edge">
<title>sigma_alpha_sales&#45;&gt;alpha_sales</title>
<path fill="none" stroke="black" d="M221.45,-376.56C212.97,-366.05 203.56,-354.41 194.77,-343.53"/>
<polygon fill="black" stroke="black" points="197.52,-341.37 188.52,-335.79 192.08,-345.76 197.52,-341.37"/>
</g>
<!-- trend -->
<g id="node10" class="node">
<title>trend</title>
<path fill="lightgrey" stroke="black" d="M427.54,-327.88C427.54,-327.88 397.54,-327.88 397.54,-327.88 391.54,-327.88 385.54,-321.88 385.54,-315.88 385.54,-315.88 385.54,-286.88 385.54,-286.88 385.54,-280.88 391.54,-274.88 397.54,-274.88 397.54,-274.88 427.54,-274.88 427.54,-274.88 433.54,-274.88 439.54,-280.88 439.54,-286.88 439.54,-286.88 439.54,-315.88 439.54,-315.88 439.54,-321.88 433.54,-327.88 427.54,-327.88"/>
<text text-anchor="middle" x="412.54" y="-312.68" font-family="Times,serif" font-size="14.00">trend</text>
<text text-anchor="middle" x="412.54" y="-297.68" font-family="Times,serif" font-size="14.00">~</text>
<text text-anchor="middle" x="412.54" y="-282.68" font-family="Times,serif" font-size="14.00">Data</text>
</g>
<!-- trend&#45;&gt;mu_sales -->
<g id="edge4" class="edge">
<title>trend&#45;&gt;mu_sales</title>
<path fill="none" stroke="black" d="M408.13,-274.42C405.66,-259.86 402.54,-241.47 399.82,-225.43"/>
<polygon fill="black" stroke="black" points="403.3,-225.02 398.18,-215.75 396.4,-226.19 403.3,-225.02"/>
</g>
<!-- digital -->
<g id="node11" class="node">
<title>digital</title>
<path fill="lightgrey" stroke="black" d="M355.54,-327.88C355.54,-327.88 325.54,-327.88 325.54,-327.88 319.54,-327.88 313.54,-321.88 313.54,-315.88 313.54,-315.88 313.54,-286.88 313.54,-286.88 313.54,-280.88 319.54,-274.88 325.54,-274.88 325.54,-274.88 355.54,-274.88 355.54,-274.88 361.54,-274.88 367.54,-280.88 367.54,-286.88 367.54,-286.88 367.54,-315.88 367.54,-315.88 367.54,-321.88 361.54,-327.88 355.54,-327.88"/>
<text text-anchor="middle" x="340.54" y="-312.68" font-family="Times,serif" font-size="14.00">digital</text>
<text text-anchor="middle" x="340.54" y="-297.68" font-family="Times,serif" font-size="14.00">~</text>
<text text-anchor="middle" x="340.54" y="-282.68" font-family="Times,serif" font-size="14.00">Data</text>
</g>
<!-- digital&#45;&gt;mu_sales -->
<g id="edge6" class="edge">
<title>digital&#45;&gt;mu_sales</title>
<path fill="none" stroke="black" d="M352.83,-274.42C359.86,-259.58 368.77,-240.75 376.46,-224.5"/>
<polygon fill="black" stroke="black" points="379.55,-226.16 380.67,-215.62 373.22,-223.16 379.55,-226.16"/>
</g>
<!-- tv -->
<g id="node12" class="node">
<title>tv</title>
<path fill="lightgrey" stroke="black" d="M283.54,-327.88C283.54,-327.88 253.54,-327.88 253.54,-327.88 247.54,-327.88 241.54,-321.88 241.54,-315.88 241.54,-315.88 241.54,-286.88 241.54,-286.88 241.54,-280.88 247.54,-274.88 253.54,-274.88 253.54,-274.88 283.54,-274.88 283.54,-274.88 289.54,-274.88 295.54,-280.88 295.54,-286.88 295.54,-286.88 295.54,-315.88 295.54,-315.88 295.54,-321.88 289.54,-327.88 283.54,-327.88"/>
<text text-anchor="middle" x="268.54" y="-312.68" font-family="Times,serif" font-size="14.00">tv</text>
<text text-anchor="middle" x="268.54" y="-297.68" font-family="Times,serif" font-size="14.00">~</text>
<text text-anchor="middle" x="268.54" y="-282.68" font-family="Times,serif" font-size="14.00">Data</text>
</g>
<!-- tv&#45;&gt;mu_sales -->
<g id="edge9" class="edge">
<title>tv&#45;&gt;mu_sales</title>
<path fill="none" stroke="black" d="M277.83,-274.55C283.79,-260.84 292.65,-244.49 304.54,-232.91 313.92,-223.77 325.55,-216.15 337.27,-209.94"/>
<polygon fill="black" stroke="black" points="338.78,-213.1 346.18,-205.52 335.67,-206.83 338.78,-213.1"/>
</g>
<!-- mu_sales&#45;&gt;sales -->
<g id="edge12" class="edge">
<title>mu_sales&#45;&gt;sales</title>
<path fill="none" stroke="black" d="M394.01,-160.61C394.21,-150.12 394.43,-137.64 394.66,-125.59"/>
<polygon fill="black" stroke="black" points="398.15,-125.82 394.84,-115.76 391.15,-125.69 398.15,-125.82"/>
</g>
<!-- alpha_sales&#45;&gt;mu_sales -->
<g id="edge11" class="edge">
<title>alpha_sales&#45;&gt;mu_sales</title>
<path fill="none" stroke="black" d="M187.52,-268.15C199.18,-255.54 213.84,-241.96 229.54,-232.91 262.34,-213.99 303.48,-202.86 336.35,-196.46"/>
<polygon fill="black" stroke="black" points="336.92,-199.92 346.12,-194.67 335.65,-193.03 336.92,-199.92"/>
</g>
<!-- beta_sales -->
<g id="node15" class="node">
<title>beta_sales</title>
<ellipse fill="none" stroke="black" cx="986.54" cy="-301.38" rx="50.82" ry="37.45"/>
<text text-anchor="middle" x="986.54" y="-312.68" font-family="Times,serif" font-size="14.00">beta_sales</text>
<text text-anchor="middle" x="986.54" y="-297.68" font-family="Times,serif" font-size="14.00">~</text>
<text text-anchor="middle" x="986.54" y="-282.68" font-family="Times,serif" font-size="14.00">Normal</text>
</g>
<!-- beta_sales&#45;&gt;mu_sales -->
<g id="edge5" class="edge">
<title>beta_sales&#45;&gt;mu_sales</title>
<path fill="none" stroke="black" d="M965.82,-266.95C955.73,-253.82 942.35,-240.17 926.54,-232.91 902.35,-221.8 472.92,-232.91 447.54,-224.91 443.35,-223.59 439.19,-221.83 435.14,-219.79"/>
<polygon fill="black" stroke="black" points="437.12,-216.89 426.7,-215.01 433.67,-222.98 437.12,-216.89"/>
</g>
</g>
</svg>
