<?xml version="1.0" encoding="UTF-8" standalone="no"?>
<!DOCTYPE svg PUBLIC "-//W3C//DTD SVG 1.1//EN"
 "http://www.w3.org/Graphics/SVG/1.1/DTD/svg11.dtd">
<!-- Generated by graphviz version 12.2.1 (0)
 -->
<!-- Pages: 1 -->
<svg width="359pt" height="154pt"
 viewBox="0.00 0.00 358.59 154.44" xmlns="http://www.w3.org/2000/svg" xmlns:xlink="http://www.w3.org/1999/xlink">
<g id="graph0" class="graph" transform="scale(1 1) rotate(0) translate(4 150.44)">
<polygon fill="white" stroke="none" points="-4,4 -4,-150.44 354.59,-150.44 354.59,4 -4,4"/>
<!-- brand_spend -->
<g id="node1" class="node">
<title>brand_spend</title>
<polygon fill="none" stroke="black" points="85,-130.21 0,-130.21 0,-94.21 85,-94.21 85,-130.21"/>
<text text-anchor="middle" x="42.5" y="-107.16" font-family="Times,serif" font-size="14.00">brand_spend</text>
</g>
<!-- search_traffic -->
<g id="node4" class="node">
<title>search_traffic</title>
<ellipse fill="none" stroke="black" cx="188.59" cy="-90.21" rx="61.59" ry="18"/>
<text text-anchor="middle" x="188.59" y="-85.16" font-family="Times,serif" font-size="14.00">search_traffic</text>
</g>
<!-- brand_spend&#45;&gt;search_traffic -->
<g id="edge1" class="edge">
<title>brand_spend&#45;&gt;search_traffic</title>
<path fill="none" stroke="black" d="M85.18,-105.85C96.81,-104.07 109.74,-102.1 122.39,-100.16"/>
<polygon fill="black" stroke="black" points="122.53,-103.68 131.89,-98.71 121.48,-96.76 122.53,-103.68"/>
<text text-anchor="middle" x="106" y="-105.73" font-family="Times,serif" font-size="14.00">a</text>
</g>
<!-- sales -->
<g id="node5" class="node">
<title>sales</title>
<ellipse fill="none" stroke="black" cx="321.76" cy="-63.21" rx="28.83" ry="18"/>
<text text-anchor="middle" x="321.76" y="-58.16" font-family="Times,serif" font-size="14.00">sales</text>
</g>
<!-- brand_spend&#45;&gt;sales -->
<g id="edge4" class="edge">
<title>brand_spend&#45;&gt;sales</title>
<path fill="none" stroke="black" d="M85.32,-121.9C128.11,-129.85 195.85,-136.9 250.18,-117.21 268.09,-110.72 285.15,-97.92 298,-86.41"/>
<polygon fill="black" stroke="black" points="300.18,-89.17 305.09,-79.78 295.39,-84.06 300.18,-89.17"/>
<text text-anchor="middle" x="188.59" y="-133.14" font-family="Times,serif" font-size="14.00">c</text>
</g>
<!-- season -->
<g id="node2" class="node">
<title>season</title>
<polygon fill="none" stroke="black" points="69.5,-53.21 15.5,-53.21 15.5,-17.21 69.5,-17.21 69.5,-53.21"/>
<text text-anchor="middle" x="42.5" y="-30.16" font-family="Times,serif" font-size="14.00">season</text>
</g>
<!-- season&#45;&gt;search_traffic -->
<g id="edge2" class="edge">
<title>season&#45;&gt;search_traffic</title>
<path fill="none" stroke="black" d="M69.93,-45.3C89.29,-52.69 116.11,-62.92 139.25,-71.76"/>
<polygon fill="black" stroke="black" points="137.93,-75 148.52,-75.29 140.42,-68.46 137.93,-75"/>
</g>
<!-- season&#45;&gt;sales -->
<g id="edge6" class="edge">
<title>season&#45;&gt;sales</title>
<path fill="none" stroke="black" d="M69.7,-24.66C109.67,-10.14 187.83,11.9 250.18,-9.21 268.34,-15.36 285.51,-28.27 298.36,-39.93"/>
<polygon fill="black" stroke="black" points="295.78,-42.3 305.44,-46.65 300.6,-37.23 295.78,-42.3"/>
</g>
<!-- perf_spend -->
<g id="node3" class="node">
<title>perf_spend</title>
<polygon fill="none" stroke="black" points="226.59,-54.21 150.59,-54.21 150.59,-18.21 226.59,-18.21 226.59,-54.21"/>
<text text-anchor="middle" x="188.59" y="-31.16" font-family="Times,serif" font-size="14.00">perf_spend</text>
</g>
<!-- perf_spend&#45;&gt;sales -->
<g id="edge5" class="edge">
<title>perf_spend&#45;&gt;sales</title>
<path fill="none" stroke="black" d="M227.03,-43.16C241.95,-46.01 259.27,-49.4 274.93,-52.71 277.72,-53.3 280.61,-53.92 283.51,-54.56"/>
<polygon fill="black" stroke="black" points="282.61,-57.95 293.14,-56.73 284.15,-51.12 282.61,-57.95"/>
<text text-anchor="middle" x="271.55" y="-55.91" font-family="Times,serif" font-size="14.00">d</text>
</g>
<!-- search_traffic&#45;&gt;sales -->
<g id="edge3" class="edge">
<title>search_traffic&#45;&gt;sales</title>
<path fill="none" stroke="black" d="M239.93,-79.85C254.12,-76.93 269.32,-73.8 282.67,-71.05"/>
<polygon fill="black" stroke="black" points="283.28,-74.5 292.36,-69.05 281.86,-67.64 283.28,-74.5"/>
<text text-anchor="middle" x="271.55" y="-76.7" font-family="Times,serif" font-size="14.00">b</text>
</g>
</g>
</svg>
