<?xml version="1.0" encoding="UTF-8" standalone="no"?>
<!DOCTYPE svg PUBLIC "-//W3C//DTD SVG 1.1//EN"
 "http://www.w3.org/Graphics/SVG/1.1/DTD/svg11.dtd">
<!-- Generated by graphviz version 7.1.0 (0)
 -->
<!-- Pages: 1 -->
<svg width="616pt" height="588pt"
 viewBox="0.00 0.00 615.69 587.77" xmlns="http://www.w3.org/2000/svg" xmlns:xlink="http://www.w3.org/1999/xlink">
<g id="graph0" class="graph" transform="scale(1 1) rotate(0) translate(4 583.77)">
<polygon fill="white" stroke="none" points="-4,4 -4,-583.77 611.69,-583.77 611.69,4 -4,4"/>
<g id="clust1" class="cluster">
<title>cluster500</title>
<path fill="none" stroke="black" d="M137.69,-8C137.69,-8 393.69,-8 393.69,-8 399.69,-8 405.69,-14 405.69,-20 405.69,-20 405.69,-548.79 405.69,-548.79 405.69,-554.79 399.69,-560.79 393.69,-560.79 393.69,-560.79 137.69,-560.79 137.69,-560.79 131.69,-560.79 125.69,-554.79 125.69,-548.79 125.69,-548.79 125.69,-20 125.69,-20 125.69,-14 131.69,-8 137.69,-8"/>
<text text-anchor="middle" x="387.19" y="-15.8" font-family="Times,serif" font-size="14.00">500</text>
</g>
<g id="clust2" class="cluster">
<title>clustersales_predictors (5)</title>
<path fill="none" stroke="black" d="M425.69,-232.91C425.69,-232.91 524.69,-232.91 524.69,-232.91 530.69,-232.91 536.69,-238.91 536.69,-244.91 536.69,-244.91 536.69,-334.86 536.69,-334.86 536.69,-340.86 530.69,-346.86 524.69,-346.86 524.69,-346.86 425.69,-346.86 425.69,-346.86 419.69,-346.86 413.69,-340.86 413.69,-334.86 413.69,-334.86 413.69,-244.91 413.69,-244.91 413.69,-238.91 419.69,-232.91 425.69,-232.91"/>
<text text-anchor="middle" x="475.19" y="-240.71" font-family="Times,serif" font-size="14.00">sales_predictors (5)</text>
</g>
<g id="clust3" class="cluster">
<title>clustersearch_traffic_predictors (3)</title>
<path fill="none" stroke="black" d="M425.69,-457.81C425.69,-457.81 587.69,-457.81 587.69,-457.81 593.69,-457.81 599.69,-463.81 599.69,-469.81 599.69,-469.81 599.69,-559.77 599.69,-559.77 599.69,-565.77 593.69,-571.77 587.69,-571.77 587.69,-571.77 425.69,-571.77 425.69,-571.77 419.69,-571.77 413.69,-565.77 413.69,-559.77 413.69,-559.77 413.69,-469.81 413.69,-469.81 413.69,-463.81 419.69,-457.81 425.69,-457.81"/>
<text text-anchor="middle" x="514.19" y="-465.61" font-family="Times,serif" font-size="14.00">search_traffic_predictors (3)</text>
</g>
<!-- mu_search_traffic -->
<g id="node1" class="node">
<title>mu_search_traffic</title>
<polygon fill="none" stroke="black" points="300.69,-438.84 184.69,-438.84 184.69,-385.84 300.69,-385.84 300.69,-438.84"/>
<text text-anchor="middle" x="242.69" y="-423.64" font-family="Times,serif" font-size="14.00">mu_search_traffic</text>
<text text-anchor="middle" x="242.69" y="-408.64" font-family="Times,serif" font-size="14.00">~</text>
<text text-anchor="middle" x="242.69" y="-393.64" font-family="Times,serif" font-size="14.00">Deterministic</text>
</g>
<!-- search_traffic -->
<g id="node5" class="node">
<title>search_traffic</title>
<ellipse fill="lightgrey" stroke="black" cx="237.69" cy="-301.38" rx="64.19" ry="37.45"/>
<text text-anchor="middle" x="237.69" y="-312.68" font-family="Times,serif" font-size="14.00">search_traffic</text>
<text text-anchor="middle" x="237.69" y="-297.68" font-family="Times,serif" font-size="14.00">~</text>
<text text-anchor="middle" x="237.69" y="-282.68" font-family="Times,serif" font-size="14.00">Normal</text>
</g>
<!-- mu_search_traffic&#45;&gt;search_traffic -->
<g id="edge1" class="edge">
<title>mu_search_traffic&#45;&gt;search_traffic</title>
<path fill="none" stroke="black" d="M241.5,-385.52C241.02,-375.02 240.45,-362.55 239.9,-350.5"/>
<polygon fill="black" stroke="black" points="243.4,-350.49 239.45,-340.66 236.41,-350.81 243.4,-350.49"/>
</g>
<!-- sales -->
<g id="node2" class="node">
<title>sales</title>
<ellipse fill="lightgrey" stroke="black" cx="191.69" cy="-76.48" rx="41.94" ry="37.45"/>
<text text-anchor="middle" x="191.69" y="-87.78" font-family="Times,serif" font-size="14.00">sales</text>
<text text-anchor="middle" x="191.69" y="-72.78" font-family="Times,serif" font-size="14.00">~</text>
<text text-anchor="middle" x="191.69" y="-57.78" font-family="Times,serif" font-size="14.00">Normal</text>
</g>
<!-- brand_spend -->
<g id="node3" class="node">
<title>brand_spend</title>
<path fill="lightgrey" stroke="black" d="M279.69,-552.79C279.69,-552.79 217.69,-552.79 217.69,-552.79 211.69,-552.79 205.69,-546.79 205.69,-540.79 205.69,-540.79 205.69,-511.79 205.69,-511.79 205.69,-505.79 211.69,-499.79 217.69,-499.79 217.69,-499.79 279.69,-499.79 279.69,-499.79 285.69,-499.79 291.69,-505.79 291.69,-511.79 291.69,-511.79 291.69,-540.79 291.69,-540.79 291.69,-546.79 285.69,-552.79 279.69,-552.79"/>
<text text-anchor="middle" x="248.69" y="-537.59" font-family="Times,serif" font-size="14.00">brand_spend</text>
<text text-anchor="middle" x="248.69" y="-522.59" font-family="Times,serif" font-size="14.00">~</text>
<text text-anchor="middle" x="248.69" y="-507.59" font-family="Times,serif" font-size="14.00">Data</text>
</g>
<!-- brand_spend&#45;&gt;mu_search_traffic -->
<g id="edge10" class="edge">
<title>brand_spend&#45;&gt;mu_search_traffic</title>
<path fill="none" stroke="black" d="M247.3,-499.32C246.52,-484.77 245.53,-466.37 244.67,-450.33"/>
<polygon fill="black" stroke="black" points="248.19,-450.47 244.15,-440.67 241.2,-450.85 248.19,-450.47"/>
</g>
<!-- mu_sales -->
<g id="node7" class="node">
<title>mu_sales</title>
<polygon fill="none" stroke="black" points="254.19,-213.93 163.19,-213.93 163.19,-160.93 254.19,-160.93 254.19,-213.93"/>
<text text-anchor="middle" x="208.69" y="-198.73" font-family="Times,serif" font-size="14.00">mu_sales</text>
<text text-anchor="middle" x="208.69" y="-183.73" font-family="Times,serif" font-size="14.00">~</text>
<text text-anchor="middle" x="208.69" y="-168.73" font-family="Times,serif" font-size="14.00">Deterministic</text>
</g>
<!-- brand_spend&#45;&gt;mu_sales -->
<g id="edge3" class="edge">
<title>brand_spend&#45;&gt;mu_sales</title>
<path fill="none" stroke="black" d="M233.65,-499.36C224.48,-485.45 211.65,-468.93 196.69,-457.81 188.67,-451.86 181.79,-457.72 175.69,-449.81 146.23,-411.59 146.34,-277.55 164.69,-232.91 166.09,-229.49 167.9,-226.2 169.98,-223.06"/>
<polygon fill="black" stroke="black" points="172.62,-225.36 175.97,-215.3 167.09,-221.08 172.62,-225.36"/>
</g>
<!-- season -->
<g id="node4" class="node">
<title>season</title>
<path fill="lightgrey" stroke="black" d="M175.69,-552.79C175.69,-552.79 145.69,-552.79 145.69,-552.79 139.69,-552.79 133.69,-546.79 133.69,-540.79 133.69,-540.79 133.69,-511.79 133.69,-511.79 133.69,-505.79 139.69,-499.79 145.69,-499.79 145.69,-499.79 175.69,-499.79 175.69,-499.79 181.69,-499.79 187.69,-505.79 187.69,-511.79 187.69,-511.79 187.69,-540.79 187.69,-540.79 187.69,-546.79 181.69,-552.79 175.69,-552.79"/>
<text text-anchor="middle" x="160.69" y="-537.59" font-family="Times,serif" font-size="14.00">season</text>
<text text-anchor="middle" x="160.69" y="-522.59" font-family="Times,serif" font-size="14.00">~</text>
<text text-anchor="middle" x="160.69" y="-507.59" font-family="Times,serif" font-size="14.00">Data</text>
</g>
<!-- season&#45;&gt;mu_search_traffic -->
<g id="edge9" class="edge">
<title>season&#45;&gt;mu_search_traffic</title>
<path fill="none" stroke="black" d="M172.09,-499.49C178.44,-486.42 187.02,-470.64 196.69,-457.81 199.47,-454.12 202.57,-450.45 205.8,-446.9"/>
<polygon fill="black" stroke="black" points="208.07,-449.6 212.46,-439.95 203.01,-444.75 208.07,-449.6"/>
</g>
<!-- season&#45;&gt;mu_sales -->
<g id="edge5" class="edge">
<title>season&#45;&gt;mu_sales</title>
<path fill="none" stroke="black" d="M151.58,-499.67C134.31,-446.54 102.44,-321.91 147.69,-232.91 149.61,-229.12 152.03,-225.58 154.78,-222.28"/>
<polygon fill="black" stroke="black" points="157.2,-224.81 161.68,-215.21 152.19,-219.93 157.2,-224.81"/>
</g>
<!-- search_traffic&#45;&gt;mu_sales -->
<g id="edge7" class="edge">
<title>search_traffic&#45;&gt;mu_sales</title>
<path fill="none" stroke="black" d="M228.27,-264.04C225.06,-251.62 221.46,-237.73 218.23,-225.27"/>
<polygon fill="black" stroke="black" points="221.67,-224.59 215.78,-215.79 214.9,-226.35 221.67,-224.59"/>
</g>
<!-- perf_spend -->
<g id="node6" class="node">
<title>perf_spend</title>
<path fill="lightgrey" stroke="black" d="M385.19,-327.88C385.19,-327.88 332.19,-327.88 332.19,-327.88 326.19,-327.88 320.19,-321.88 320.19,-315.88 320.19,-315.88 320.19,-286.88 320.19,-286.88 320.19,-280.88 326.19,-274.88 332.19,-274.88 332.19,-274.88 385.19,-274.88 385.19,-274.88 391.19,-274.88 397.19,-280.88 397.19,-286.88 397.19,-286.88 397.19,-315.88 397.19,-315.88 397.19,-321.88 391.19,-327.88 385.19,-327.88"/>
<text text-anchor="middle" x="358.69" y="-312.68" font-family="Times,serif" font-size="14.00">perf_spend</text>
<text text-anchor="middle" x="358.69" y="-297.68" font-family="Times,serif" font-size="14.00">~</text>
<text text-anchor="middle" x="358.69" y="-282.68" font-family="Times,serif" font-size="14.00">Data</text>
</g>
<!-- perf_spend&#45;&gt;mu_sales -->
<g id="edge4" class="edge">
<title>perf_spend&#45;&gt;mu_sales</title>
<path fill="none" stroke="black" d="M345.01,-274.69C336.6,-260.85 324.75,-244.32 310.69,-232.91 297.22,-221.97 280.64,-213.23 264.8,-206.5"/>
<polygon fill="black" stroke="black" points="266.52,-203.42 255.94,-202.92 263.9,-209.91 266.52,-203.42"/>
</g>
<!-- mu_sales&#45;&gt;sales -->
<g id="edge11" class="edge">
<title>mu_sales&#45;&gt;sales</title>
<path fill="none" stroke="black" d="M204.66,-160.61C202.99,-149.91 201,-137.16 199.09,-124.89"/>
<polygon fill="black" stroke="black" points="202.6,-124.67 197.6,-115.33 195.68,-125.75 202.6,-124.67"/>
</g>
<!-- beta_sales -->
<g id="node8" class="node">
<title>beta_sales</title>
<ellipse fill="none" stroke="black" cx="472.69" cy="-301.38" rx="50.82" ry="37.45"/>
<text text-anchor="middle" x="472.69" y="-312.68" font-family="Times,serif" font-size="14.00">beta_sales</text>
<text text-anchor="middle" x="472.69" y="-297.68" font-family="Times,serif" font-size="14.00">~</text>
<text text-anchor="middle" x="472.69" y="-282.68" font-family="Times,serif" font-size="14.00">Normal</text>
</g>
<!-- beta_sales&#45;&gt;mu_sales -->
<g id="edge6" class="edge">
<title>beta_sales&#45;&gt;mu_sales</title>
<path fill="none" stroke="black" d="M449.23,-267.76C438.53,-255.09 424.86,-241.57 409.69,-232.91 365.43,-207.64 308.12,-196.72 266.02,-192.01"/>
<polygon fill="black" stroke="black" points="266.38,-188.53 256.08,-190.99 265.67,-195.49 266.38,-188.53"/>
</g>
<!-- sigma_search_traffic -->
<g id="node9" class="node">
<title>sigma_search_traffic</title>
<ellipse fill="none" stroke="black" cx="506.69" cy="-412.34" rx="92.76" ry="37.45"/>
<text text-anchor="middle" x="506.69" y="-423.64" font-family="Times,serif" font-size="14.00">sigma_search_traffic</text>
<text text-anchor="middle" x="506.69" y="-408.64" font-family="Times,serif" font-size="14.00">~</text>
<text text-anchor="middle" x="506.69" y="-393.64" font-family="Times,serif" font-size="14.00">Halfnormal</text>
</g>
<!-- sigma_search_traffic&#45;&gt;search_traffic -->
<g id="edge2" class="edge">
<title>sigma_search_traffic&#45;&gt;search_traffic</title>
<path fill="none" stroke="black" d="M440.68,-385.69C430.36,-381.92 419.77,-378.19 409.69,-374.86 366.68,-360.65 353.24,-364.91 311.69,-346.86 304.32,-343.66 296.79,-339.85 289.49,-335.82"/>
<polygon fill="black" stroke="black" points="291.45,-332.91 281.03,-330.98 287.97,-338.99 291.45,-332.91"/>
</g>
<!-- sigma_sales -->
<g id="node10" class="node">
<title>sigma_sales</title>
<ellipse fill="none" stroke="black" cx="58.69" cy="-187.43" rx="58.88" ry="37.45"/>
<text text-anchor="middle" x="58.69" y="-198.73" font-family="Times,serif" font-size="14.00">sigma_sales</text>
<text text-anchor="middle" x="58.69" y="-183.73" font-family="Times,serif" font-size="14.00">~</text>
<text text-anchor="middle" x="58.69" y="-168.73" font-family="Times,serif" font-size="14.00">Halfnormal</text>
</g>
<!-- sigma_sales&#45;&gt;sales -->
<g id="edge12" class="edge">
<title>sigma_sales&#45;&gt;sales</title>
<path fill="none" stroke="black" d="M94.33,-157.23C112.32,-142.5 134.17,-124.59 152.62,-109.49"/>
<polygon fill="black" stroke="black" points="154.68,-112.32 160.19,-103.28 150.24,-106.91 154.68,-112.32"/>
</g>
<!-- beta_search_traffic -->
<g id="node11" class="node">
<title>beta_search_traffic</title>
<ellipse fill="none" stroke="black" cx="506.69" cy="-526.29" rx="84.71" ry="37.45"/>
<text text-anchor="middle" x="506.69" y="-537.59" font-family="Times,serif" font-size="14.00">beta_search_traffic</text>
<text text-anchor="middle" x="506.69" y="-522.59" font-family="Times,serif" font-size="14.00">~</text>
<text text-anchor="middle" x="506.69" y="-507.59" font-family="Times,serif" font-size="14.00">Normal</text>
</g>
<!-- beta_search_traffic&#45;&gt;mu_search_traffic -->
<g id="edge8" class="edge">
<title>beta_search_traffic&#45;&gt;mu_search_traffic</title>
<path fill="none" stroke="black" d="M467.07,-493.05C450.2,-480.6 429.79,-467.13 409.69,-457.81 378.9,-443.54 342.72,-433.2 311.92,-426.1"/>
<polygon fill="black" stroke="black" points="312.83,-422.72 302.31,-423.96 311.31,-429.55 312.83,-422.72"/>
</g>
</g>
</svg>
