<?xml version="1.0" encoding="UTF-8" standalone="no"?>
<!DOCTYPE svg PUBLIC "-//W3C//DTD SVG 1.1//EN"
 "http://www.w3.org/Graphics/SVG/1.1/DTD/svg11.dtd">
<!-- Generated by graphviz version 7.1.0 (0)
 -->
<!-- Pages: 1 -->
<svg width="1079pt" height="458pt"
 viewBox="0.00 0.00 1078.93 457.81" xmlns="http://www.w3.org/2000/svg" xmlns:xlink="http://www.w3.org/1999/xlink">
<g id="graph0" class="graph" transform="scale(1 1) rotate(0) translate(4 453.81)">
<polygon fill="white" stroke="none" points="-4,4 -4,-453.81 1074.93,-453.81 1074.93,4 -4,4"/>
<g id="clust1" class="cluster">
<title>cluster30 x 4</title>
<path fill="none" stroke="black" d="M106.43,-8C106.43,-8 296.43,-8 296.43,-8 302.43,-8 308.43,-14 308.43,-20 308.43,-20 308.43,-323.88 308.43,-323.88 308.43,-329.88 302.43,-335.88 296.43,-335.88 296.43,-335.88 106.43,-335.88 106.43,-335.88 100.43,-335.88 94.43,-329.88 94.43,-323.88 94.43,-323.88 94.43,-20 94.43,-20 94.43,-14 100.43,-8 106.43,-8"/>
<text text-anchor="middle" x="282.93" y="-15.8" font-family="Times,serif" font-size="14.00">30 x 4</text>
</g>
<g id="clust2" class="cluster">
<title>clusterunit (4)</title>
<path fill="none" stroke="black" d="M697.43,-232.91C697.43,-232.91 801.43,-232.91 801.43,-232.91 807.43,-232.91 813.43,-238.91 813.43,-244.91 813.43,-244.91 813.43,-334.86 813.43,-334.86 813.43,-340.86 807.43,-346.86 801.43,-346.86 801.43,-346.86 697.43,-346.86 697.43,-346.86 691.43,-346.86 685.43,-340.86 685.43,-334.86 685.43,-334.86 685.43,-244.91 685.43,-244.91 685.43,-238.91 691.43,-232.91 697.43,-232.91"/>
<text text-anchor="middle" x="784.93" y="-240.71" font-family="Times,serif" font-size="14.00">unit (4)</text>
</g>
<g id="clust3" class="cluster">
<title>clustersales_predictors (4)</title>
<path fill="none" stroke="black" d="M833.43,-232.91C833.43,-232.91 932.43,-232.91 932.43,-232.91 938.43,-232.91 944.43,-238.91 944.43,-244.91 944.43,-244.91 944.43,-334.86 944.43,-334.86 944.43,-340.86 938.43,-346.86 932.43,-346.86 932.43,-346.86 833.43,-346.86 833.43,-346.86 827.43,-346.86 821.43,-340.86 821.43,-334.86 821.43,-334.86 821.43,-244.91 821.43,-244.91 821.43,-238.91 827.43,-232.91 833.43,-232.91"/>
<text text-anchor="middle" x="882.93" y="-240.71" font-family="Times,serif" font-size="14.00">sales_predictors (4)</text>
</g>
<!-- theta_tv -->
<g id="node1" class="node">
<title>theta_tv</title>
<ellipse fill="none" stroke="black" cx="42.43" cy="-301.38" rx="42.35" ry="37.45"/>
<text text-anchor="middle" x="42.43" y="-312.68" font-family="Times,serif" font-size="14.00">theta_tv</text>
<text text-anchor="middle" x="42.43" y="-297.68" font-family="Times,serif" font-size="14.00">~</text>
<text text-anchor="middle" x="42.43" y="-282.68" font-family="Times,serif" font-size="14.00">Beta</text>
</g>
<!-- mu_sales -->
<g id="node12" class="node">
<title>mu_sales</title>
<polygon fill="none" stroke="black" points="299.93,-213.93 208.93,-213.93 208.93,-160.93 299.93,-160.93 299.93,-213.93"/>
<text text-anchor="middle" x="254.43" y="-198.73" font-family="Times,serif" font-size="14.00">mu_sales</text>
<text text-anchor="middle" x="254.43" y="-183.73" font-family="Times,serif" font-size="14.00">~</text>
<text text-anchor="middle" x="254.43" y="-168.73" font-family="Times,serif" font-size="14.00">Deterministic</text>
</g>
<!-- theta_tv&#45;&gt;mu_sales -->
<g id="edge9" class="edge">
<title>theta_tv&#45;&gt;mu_sales</title>
<path fill="none" stroke="black" d="M59.68,-267.01C67.55,-254.69 77.92,-241.62 90.43,-232.91 121.96,-210.93 163.87,-199.81 197.43,-194.18"/>
<polygon fill="black" stroke="black" points="197.62,-197.69 206.96,-192.7 196.55,-190.77 197.62,-197.69"/>
</g>
<!-- lam_tv -->
<g id="node2" class="node">
<title>lam_tv</title>
<ellipse fill="none" stroke="black" cx="375.43" cy="-301.38" rx="56.64" ry="37.45"/>
<text text-anchor="middle" x="375.43" y="-312.68" font-family="Times,serif" font-size="14.00">lam_tv</text>
<text text-anchor="middle" x="375.43" y="-297.68" font-family="Times,serif" font-size="14.00">~</text>
<text text-anchor="middle" x="375.43" y="-282.68" font-family="Times,serif" font-size="14.00">Halfnormal</text>
</g>
<!-- lam_tv&#45;&gt;mu_sales -->
<g id="edge4" class="edge">
<title>lam_tv&#45;&gt;mu_sales</title>
<path fill="none" stroke="black" d="M347.6,-268.43C336.99,-256.84 324.53,-243.89 312.43,-232.91 308.19,-229.06 303.64,-225.19 299.03,-221.42"/>
<polygon fill="black" stroke="black" points="301.33,-218.78 291.33,-215.28 296.97,-224.25 301.33,-218.78"/>
</g>
<!-- _use_observed_carry -->
<g id="node3" class="node">
<title>_use_observed_carry</title>
<path fill="lightgrey" stroke="black" d="M1058.93,-438.84C1058.93,-438.84 951.93,-438.84 951.93,-438.84 945.93,-438.84 939.93,-432.84 939.93,-426.84 939.93,-426.84 939.93,-397.84 939.93,-397.84 939.93,-391.84 945.93,-385.84 951.93,-385.84 951.93,-385.84 1058.93,-385.84 1058.93,-385.84 1064.93,-385.84 1070.93,-391.84 1070.93,-397.84 1070.93,-397.84 1070.93,-426.84 1070.93,-426.84 1070.93,-432.84 1064.93,-438.84 1058.93,-438.84"/>
<text text-anchor="middle" x="1005.43" y="-423.64" font-family="Times,serif" font-size="14.00">_use_observed_carry</text>
<text text-anchor="middle" x="1005.43" y="-408.64" font-family="Times,serif" font-size="14.00">~</text>
<text text-anchor="middle" x="1005.43" y="-393.64" font-family="Times,serif" font-size="14.00">Data</text>
</g>
<!-- mu_alpha_sales -->
<g id="node4" class="node">
<title>mu_alpha_sales</title>
<ellipse fill="none" stroke="black" cx="661.43" cy="-412.34" rx="73.58" ry="37.45"/>
<text text-anchor="middle" x="661.43" y="-423.64" font-family="Times,serif" font-size="14.00">mu_alpha_sales</text>
<text text-anchor="middle" x="661.43" y="-408.64" font-family="Times,serif" font-size="14.00">~</text>
<text text-anchor="middle" x="661.43" y="-393.64" font-family="Times,serif" font-size="14.00">Normal</text>
</g>
<!-- alpha_sales -->
<g id="node14" class="node">
<title>alpha_sales</title>
<ellipse fill="none" stroke="black" cx="749.43" cy="-301.38" rx="55.72" ry="37.45"/>
<text text-anchor="middle" x="749.43" y="-312.68" font-family="Times,serif" font-size="14.00">alpha_sales</text>
<text text-anchor="middle" x="749.43" y="-297.68" font-family="Times,serif" font-size="14.00">~</text>
<text text-anchor="middle" x="749.43" y="-282.68" font-family="Times,serif" font-size="14.00">Normal</text>
</g>
<!-- mu_alpha_sales&#45;&gt;alpha_sales -->
<g id="edge1" class="edge">
<title>mu_alpha_sales&#45;&gt;alpha_sales</title>
<path fill="none" stroke="black" d="M689.03,-377.16C697.7,-366.43 707.36,-354.46 716.37,-343.31"/>
<polygon fill="black" stroke="black" points="718.91,-345.74 722.47,-335.76 713.47,-341.34 718.91,-345.74"/>
</g>
<!-- sigma_sales -->
<g id="node5" class="node">
<title>sigma_sales</title>
<ellipse fill="none" stroke="black" cx="376.43" cy="-187.43" rx="58.88" ry="37.45"/>
<text text-anchor="middle" x="376.43" y="-198.73" font-family="Times,serif" font-size="14.00">sigma_sales</text>
<text text-anchor="middle" x="376.43" y="-183.73" font-family="Times,serif" font-size="14.00">~</text>
<text text-anchor="middle" x="376.43" y="-168.73" font-family="Times,serif" font-size="14.00">Halfnormal</text>
</g>
<!-- sales -->
<g id="node10" class="node">
<title>sales</title>
<ellipse fill="lightgrey" stroke="black" cx="256.43" cy="-76.48" rx="41.94" ry="37.45"/>
<text text-anchor="middle" x="256.43" y="-87.78" font-family="Times,serif" font-size="14.00">sales</text>
<text text-anchor="middle" x="256.43" y="-72.78" font-family="Times,serif" font-size="14.00">~</text>
<text text-anchor="middle" x="256.43" y="-57.78" font-family="Times,serif" font-size="14.00">Normal</text>
</g>
<!-- sigma_sales&#45;&gt;sales -->
<g id="edge13" class="edge">
<title>sigma_sales&#45;&gt;sales</title>
<path fill="none" stroke="black" d="M343,-156.08C327.79,-142.27 309.72,-125.86 294.03,-111.62"/>
<polygon fill="black" stroke="black" points="296.47,-109.11 286.72,-104.98 291.77,-114.29 296.47,-109.11"/>
</g>
<!-- sigma_alpha_sales -->
<g id="node6" class="node">
<title>sigma_alpha_sales</title>
<ellipse fill="none" stroke="black" cx="837.43" cy="-412.34" rx="84.29" ry="37.45"/>
<text text-anchor="middle" x="837.43" y="-423.64" font-family="Times,serif" font-size="14.00">sigma_alpha_sales</text>
<text text-anchor="middle" x="837.43" y="-408.64" font-family="Times,serif" font-size="14.00">~</text>
<text text-anchor="middle" x="837.43" y="-393.64" font-family="Times,serif" font-size="14.00">Halfnormal</text>
</g>
<!-- sigma_alpha_sales&#45;&gt;alpha_sales -->
<g id="edge2" class="edge">
<title>sigma_alpha_sales&#45;&gt;alpha_sales</title>
<path fill="none" stroke="black" d="M809.34,-376.56C800.85,-366.05 791.45,-354.41 782.66,-343.53"/>
<polygon fill="black" stroke="black" points="785.41,-341.37 776.4,-335.79 779.97,-345.76 785.41,-341.37"/>
</g>
<!-- lam_dig -->
<g id="node7" class="node">
<title>lam_dig</title>
<ellipse fill="none" stroke="black" cx="506.43" cy="-301.38" rx="56.64" ry="37.45"/>
<text text-anchor="middle" x="506.43" y="-312.68" font-family="Times,serif" font-size="14.00">lam_dig</text>
<text text-anchor="middle" x="506.43" y="-297.68" font-family="Times,serif" font-size="14.00">~</text>
<text text-anchor="middle" x="506.43" y="-282.68" font-family="Times,serif" font-size="14.00">Halfnormal</text>
</g>
<!-- lam_dig&#45;&gt;mu_sales -->
<g id="edge5" class="edge">
<title>lam_dig&#45;&gt;mu_sales</title>
<path fill="none" stroke="black" d="M482.97,-266.89C471.96,-253.91 457.67,-240.4 441.43,-232.91 414.54,-220.51 336.47,-234.42 308.43,-224.91 304.5,-223.57 300.59,-221.88 296.77,-219.94"/>
<polygon fill="black" stroke="black" points="298.68,-217 288.26,-215.12 295.23,-223.09 298.68,-217"/>
</g>
<!-- theta_dig -->
<g id="node8" class="node">
<title>theta_dig</title>
<ellipse fill="none" stroke="black" cx="628.43" cy="-301.38" rx="47.25" ry="37.45"/>
<text text-anchor="middle" x="628.43" y="-312.68" font-family="Times,serif" font-size="14.00">theta_dig</text>
<text text-anchor="middle" x="628.43" y="-297.68" font-family="Times,serif" font-size="14.00">~</text>
<text text-anchor="middle" x="628.43" y="-282.68" font-family="Times,serif" font-size="14.00">Beta</text>
</g>
<!-- theta_dig&#45;&gt;mu_sales -->
<g id="edge11" class="edge">
<title>theta_dig&#45;&gt;mu_sales</title>
<path fill="none" stroke="black" d="M609.24,-266.74C599.93,-253.75 587.47,-240.25 572.43,-232.91 546.05,-220.03 336.35,-233.92 308.43,-224.91 304.42,-223.61 300.44,-221.93 296.56,-219.99"/>
<polygon fill="black" stroke="black" points="298.33,-216.97 287.9,-215.11 294.9,-223.07 298.33,-216.97"/>
</g>
<!-- tv -->
<g id="node9" class="node">
<title>tv</title>
<path fill="lightgrey" stroke="black" d="M288.43,-327.88C288.43,-327.88 258.43,-327.88 258.43,-327.88 252.43,-327.88 246.43,-321.88 246.43,-315.88 246.43,-315.88 246.43,-286.88 246.43,-286.88 246.43,-280.88 252.43,-274.88 258.43,-274.88 258.43,-274.88 288.43,-274.88 288.43,-274.88 294.43,-274.88 300.43,-280.88 300.43,-286.88 300.43,-286.88 300.43,-315.88 300.43,-315.88 300.43,-321.88 294.43,-327.88 288.43,-327.88"/>
<text text-anchor="middle" x="273.43" y="-312.68" font-family="Times,serif" font-size="14.00">tv</text>
<text text-anchor="middle" x="273.43" y="-297.68" font-family="Times,serif" font-size="14.00">~</text>
<text text-anchor="middle" x="273.43" y="-282.68" font-family="Times,serif" font-size="14.00">Data</text>
</g>
<!-- tv&#45;&gt;mu_sales -->
<g id="edge3" class="edge">
<title>tv&#45;&gt;mu_sales</title>
<path fill="none" stroke="black" d="M269.02,-274.42C266.55,-259.86 263.43,-241.47 260.71,-225.43"/>
<polygon fill="black" stroke="black" points="264.19,-225.02 259.06,-215.75 257.29,-226.19 264.19,-225.02"/>
</g>
<!-- trend -->
<g id="node11" class="node">
<title>trend</title>
<path fill="lightgrey" stroke="black" d="M216.43,-327.88C216.43,-327.88 186.43,-327.88 186.43,-327.88 180.43,-327.88 174.43,-321.88 174.43,-315.88 174.43,-315.88 174.43,-286.88 174.43,-286.88 174.43,-280.88 180.43,-274.88 186.43,-274.88 186.43,-274.88 216.43,-274.88 216.43,-274.88 222.43,-274.88 228.43,-280.88 228.43,-286.88 228.43,-286.88 228.43,-315.88 228.43,-315.88 228.43,-321.88 222.43,-327.88 216.43,-327.88"/>
<text text-anchor="middle" x="201.43" y="-312.68" font-family="Times,serif" font-size="14.00">trend</text>
<text text-anchor="middle" x="201.43" y="-297.68" font-family="Times,serif" font-size="14.00">~</text>
<text text-anchor="middle" x="201.43" y="-282.68" font-family="Times,serif" font-size="14.00">Data</text>
</g>
<!-- trend&#45;&gt;mu_sales -->
<g id="edge6" class="edge">
<title>trend&#45;&gt;mu_sales</title>
<path fill="none" stroke="black" d="M213.72,-274.42C220.74,-259.58 229.66,-240.75 237.35,-224.5"/>
<polygon fill="black" stroke="black" points="240.44,-226.16 241.55,-215.62 234.11,-223.16 240.44,-226.16"/>
</g>
<!-- mu_sales&#45;&gt;sales -->
<g id="edge12" class="edge">
<title>mu_sales&#45;&gt;sales</title>
<path fill="none" stroke="black" d="M254.9,-160.61C255.09,-150.12 255.32,-137.64 255.54,-125.59"/>
<polygon fill="black" stroke="black" points="259.04,-125.82 255.72,-115.76 252.04,-125.69 259.04,-125.82"/>
</g>
<!-- digital -->
<g id="node13" class="node">
<title>digital</title>
<path fill="lightgrey" stroke="black" d="M144.43,-327.88C144.43,-327.88 114.43,-327.88 114.43,-327.88 108.43,-327.88 102.43,-321.88 102.43,-315.88 102.43,-315.88 102.43,-286.88 102.43,-286.88 102.43,-280.88 108.43,-274.88 114.43,-274.88 114.43,-274.88 144.43,-274.88 144.43,-274.88 150.43,-274.88 156.43,-280.88 156.43,-286.88 156.43,-286.88 156.43,-315.88 156.43,-315.88 156.43,-321.88 150.43,-327.88 144.43,-327.88"/>
<text text-anchor="middle" x="129.43" y="-312.68" font-family="Times,serif" font-size="14.00">digital</text>
<text text-anchor="middle" x="129.43" y="-297.68" font-family="Times,serif" font-size="14.00">~</text>
<text text-anchor="middle" x="129.43" y="-282.68" font-family="Times,serif" font-size="14.00">Data</text>
</g>
<!-- digital&#45;&gt;mu_sales -->
<g id="edge8" class="edge">
<title>digital&#45;&gt;mu_sales</title>
<path fill="none" stroke="black" d="M138.72,-274.55C144.67,-260.84 153.54,-244.49 165.43,-232.91 174.81,-223.77 186.43,-216.15 198.16,-209.94"/>
<polygon fill="black" stroke="black" points="199.67,-213.1 207.07,-205.52 196.56,-206.83 199.67,-213.1"/>
</g>
<!-- alpha_sales&#45;&gt;mu_sales -->
<g id="edge10" class="edge">
<title>alpha_sales&#45;&gt;mu_sales</title>
<path fill="none" stroke="black" d="M726.41,-266.93C715.38,-253.8 700.97,-240.15 684.43,-232.91 646.15,-216.15 348.25,-237.56 308.43,-224.91 304.42,-223.63 300.43,-221.96 296.55,-220.03"/>
<polygon fill="black" stroke="black" points="298.32,-217.01 287.89,-215.16 294.89,-223.11 298.32,-217.01"/>
</g>
<!-- beta_sales -->
<g id="node15" class="node">
<title>beta_sales</title>
<ellipse fill="none" stroke="black" cx="880.43" cy="-301.38" rx="50.82" ry="37.45"/>
<text text-anchor="middle" x="880.43" y="-312.68" font-family="Times,serif" font-size="14.00">beta_sales</text>
<text text-anchor="middle" x="880.43" y="-297.68" font-family="Times,serif" font-size="14.00">~</text>
<text text-anchor="middle" x="880.43" y="-282.68" font-family="Times,serif" font-size="14.00">Normal</text>
</g>
<!-- beta_sales&#45;&gt;mu_sales -->
<g id="edge7" class="edge">
<title>beta_sales&#45;&gt;mu_sales</title>
<path fill="none" stroke="black" d="M858.62,-267.26C847.94,-254.01 833.83,-240.19 817.43,-232.91 791.58,-221.43 335.4,-233.4 308.43,-224.91 304.24,-223.59 300.07,-221.83 296.03,-219.8"/>
<polygon fill="black" stroke="black" points="298.01,-216.9 287.58,-215.01 294.56,-222.99 298.01,-216.9"/>
</g>
</g>
</svg>
