<?xml version="1.0" encoding="UTF-8" standalone="no"?>
<!DOCTYPE svg PUBLIC "-//W3C//DTD SVG 1.1//EN"
 "http://www.w3.org/Graphics/SVG/1.1/DTD/svg11.dtd">
<!-- Generated by graphviz version 7.1.0 (0)
 -->
<!-- Pages: 1 -->
<svg width="1202pt" height="458pt"
 viewBox="0.00 0.00 1202.28 457.81" xmlns="http://www.w3.org/2000/svg" xmlns:xlink="http://www.w3.org/1999/xlink">
<g id="graph0" class="graph" transform="scale(1 1) rotate(0) translate(4 453.81)">
<polygon fill="white" stroke="none" points="-4,4 -4,-453.81 1198.28,-453.81 1198.28,4 -4,4"/>
<g id="clust1" class="cluster">
<title>cluster240</title>
<path fill="none" stroke="black" d="M131.85,-8C131.85,-8 321.85,-8 321.85,-8 327.85,-8 333.85,-14 333.85,-20 333.85,-20 333.85,-323.88 333.85,-323.88 333.85,-329.88 327.85,-335.88 321.85,-335.88 321.85,-335.88 131.85,-335.88 131.85,-335.88 125.85,-335.88 119.85,-329.88 119.85,-323.88 119.85,-323.88 119.85,-20 119.85,-20 119.85,-14 125.85,-8 131.85,-8"/>
<text text-anchor="middle" x="315.35" y="-15.8" font-family="Times,serif" font-size="14.00">240</text>
</g>
<g id="clust2" class="cluster">
<title>clusterunit (6)</title>
<path fill="none" stroke="black" d="M353.85,-232.91C353.85,-232.91 795.85,-232.91 795.85,-232.91 801.85,-232.91 807.85,-238.91 807.85,-244.91 807.85,-244.91 807.85,-334.86 807.85,-334.86 807.85,-340.86 801.85,-346.86 795.85,-346.86 795.85,-346.86 353.85,-346.86 353.85,-346.86 347.85,-346.86 341.85,-340.86 341.85,-334.86 341.85,-334.86 341.85,-244.91 341.85,-244.91 341.85,-238.91 347.85,-232.91 353.85,-232.91"/>
<text text-anchor="middle" x="779.35" y="-240.71" font-family="Times,serif" font-size="14.00">unit (6)</text>
</g>
<g id="clust3" class="cluster">
<title>clustersales_predictors (4)</title>
<path fill="none" stroke="black" d="M827.85,-232.91C827.85,-232.91 926.85,-232.91 926.85,-232.91 932.85,-232.91 938.85,-238.91 938.85,-244.91 938.85,-244.91 938.85,-334.86 938.85,-334.86 938.85,-340.86 932.85,-346.86 926.85,-346.86 926.85,-346.86 827.85,-346.86 827.85,-346.86 821.85,-346.86 815.85,-340.86 815.85,-334.86 815.85,-334.86 815.85,-244.91 815.85,-244.91 815.85,-238.91 821.85,-232.91 827.85,-232.91"/>
<text text-anchor="middle" x="877.35" y="-240.71" font-family="Times,serif" font-size="14.00">sales_predictors (4)</text>
</g>
<!-- tv -->
<g id="node1" class="node">
<title>tv</title>
<path fill="lightgrey" stroke="black" d="M313.85,-327.88C313.85,-327.88 283.85,-327.88 283.85,-327.88 277.85,-327.88 271.85,-321.88 271.85,-315.88 271.85,-315.88 271.85,-286.88 271.85,-286.88 271.85,-280.88 277.85,-274.88 283.85,-274.88 283.85,-274.88 313.85,-274.88 313.85,-274.88 319.85,-274.88 325.85,-280.88 325.85,-286.88 325.85,-286.88 325.85,-315.88 325.85,-315.88 325.85,-321.88 319.85,-327.88 313.85,-327.88"/>
<text text-anchor="middle" x="298.85" y="-312.68" font-family="Times,serif" font-size="14.00">tv</text>
<text text-anchor="middle" x="298.85" y="-297.68" font-family="Times,serif" font-size="14.00">~</text>
<text text-anchor="middle" x="298.85" y="-282.68" font-family="Times,serif" font-size="14.00">Data</text>
</g>
<!-- mu_sales -->
<g id="node4" class="node">
<title>mu_sales</title>
<polygon fill="none" stroke="black" points="325.35,-213.93 234.35,-213.93 234.35,-160.93 325.35,-160.93 325.35,-213.93"/>
<text text-anchor="middle" x="279.85" y="-198.73" font-family="Times,serif" font-size="14.00">mu_sales</text>
<text text-anchor="middle" x="279.85" y="-183.73" font-family="Times,serif" font-size="14.00">~</text>
<text text-anchor="middle" x="279.85" y="-168.73" font-family="Times,serif" font-size="14.00">Deterministic</text>
</g>
<!-- tv&#45;&gt;mu_sales -->
<g id="edge7" class="edge">
<title>tv&#45;&gt;mu_sales</title>
<path fill="none" stroke="black" d="M294.45,-274.42C291.98,-259.86 288.85,-241.47 286.13,-225.43"/>
<polygon fill="black" stroke="black" points="289.61,-225.02 284.49,-215.75 282.71,-226.19 289.61,-225.02"/>
</g>
<!-- sales -->
<g id="node2" class="node">
<title>sales</title>
<ellipse fill="lightgrey" stroke="black" cx="281.85" cy="-76.48" rx="41.94" ry="37.45"/>
<text text-anchor="middle" x="281.85" y="-87.78" font-family="Times,serif" font-size="14.00">sales</text>
<text text-anchor="middle" x="281.85" y="-72.78" font-family="Times,serif" font-size="14.00">~</text>
<text text-anchor="middle" x="281.85" y="-57.78" font-family="Times,serif" font-size="14.00">Normal</text>
</g>
<!-- trend -->
<g id="node3" class="node">
<title>trend</title>
<path fill="lightgrey" stroke="black" d="M241.85,-327.88C241.85,-327.88 211.85,-327.88 211.85,-327.88 205.85,-327.88 199.85,-321.88 199.85,-315.88 199.85,-315.88 199.85,-286.88 199.85,-286.88 199.85,-280.88 205.85,-274.88 211.85,-274.88 211.85,-274.88 241.85,-274.88 241.85,-274.88 247.85,-274.88 253.85,-280.88 253.85,-286.88 253.85,-286.88 253.85,-315.88 253.85,-315.88 253.85,-321.88 247.85,-327.88 241.85,-327.88"/>
<text text-anchor="middle" x="226.85" y="-312.68" font-family="Times,serif" font-size="14.00">trend</text>
<text text-anchor="middle" x="226.85" y="-297.68" font-family="Times,serif" font-size="14.00">~</text>
<text text-anchor="middle" x="226.85" y="-282.68" font-family="Times,serif" font-size="14.00">Data</text>
</g>
<!-- trend&#45;&gt;mu_sales -->
<g id="edge10" class="edge">
<title>trend&#45;&gt;mu_sales</title>
<path fill="none" stroke="black" d="M239.15,-274.42C246.17,-259.58 255.08,-240.75 262.78,-224.5"/>
<polygon fill="black" stroke="black" points="265.86,-226.16 266.98,-215.62 259.54,-223.16 265.86,-226.16"/>
</g>
<!-- mu_sales&#45;&gt;sales -->
<g id="edge14" class="edge">
<title>mu_sales&#45;&gt;sales</title>
<path fill="none" stroke="black" d="M280.33,-160.61C280.52,-150.12 280.75,-137.64 280.97,-125.59"/>
<polygon fill="black" stroke="black" points="284.47,-125.82 281.15,-115.76 277.47,-125.69 284.47,-125.82"/>
</g>
<!-- digital -->
<g id="node5" class="node">
<title>digital</title>
<path fill="lightgrey" stroke="black" d="M169.85,-327.88C169.85,-327.88 139.85,-327.88 139.85,-327.88 133.85,-327.88 127.85,-321.88 127.85,-315.88 127.85,-315.88 127.85,-286.88 127.85,-286.88 127.85,-280.88 133.85,-274.88 139.85,-274.88 139.85,-274.88 169.85,-274.88 169.85,-274.88 175.85,-274.88 181.85,-280.88 181.85,-286.88 181.85,-286.88 181.85,-315.88 181.85,-315.88 181.85,-321.88 175.85,-327.88 169.85,-327.88"/>
<text text-anchor="middle" x="154.85" y="-312.68" font-family="Times,serif" font-size="14.00">digital</text>
<text text-anchor="middle" x="154.85" y="-297.68" font-family="Times,serif" font-size="14.00">~</text>
<text text-anchor="middle" x="154.85" y="-282.68" font-family="Times,serif" font-size="14.00">Data</text>
</g>
<!-- digital&#45;&gt;mu_sales -->
<g id="edge9" class="edge">
<title>digital&#45;&gt;mu_sales</title>
<path fill="none" stroke="black" d="M164.14,-274.55C170.1,-260.84 178.96,-244.49 190.85,-232.91 200.23,-223.77 211.86,-216.15 223.58,-209.94"/>
<polygon fill="black" stroke="black" points="225.09,-213.1 232.5,-205.52 221.98,-206.83 225.09,-213.1"/>
</g>
<!-- mu_alpha_sales -->
<g id="node6" class="node">
<title>mu_alpha_sales</title>
<ellipse fill="none" stroke="black" cx="469.85" cy="-412.34" rx="73.58" ry="37.45"/>
<text text-anchor="middle" x="469.85" y="-423.64" font-family="Times,serif" font-size="14.00">mu_alpha_sales</text>
<text text-anchor="middle" x="469.85" y="-408.64" font-family="Times,serif" font-size="14.00">~</text>
<text text-anchor="middle" x="469.85" y="-393.64" font-family="Times,serif" font-size="14.00">Normal</text>
</g>
<!-- alpha_sales -->
<g id="node14" class="node">
<title>alpha_sales</title>
<ellipse fill="none" stroke="black" cx="557.85" cy="-301.38" rx="55.72" ry="37.45"/>
<text text-anchor="middle" x="557.85" y="-312.68" font-family="Times,serif" font-size="14.00">alpha_sales</text>
<text text-anchor="middle" x="557.85" y="-297.68" font-family="Times,serif" font-size="14.00">~</text>
<text text-anchor="middle" x="557.85" y="-282.68" font-family="Times,serif" font-size="14.00">Normal</text>
</g>
<!-- mu_alpha_sales&#45;&gt;alpha_sales -->
<g id="edge5" class="edge">
<title>mu_alpha_sales&#45;&gt;alpha_sales</title>
<path fill="none" stroke="black" d="M497.46,-377.16C506.13,-366.43 515.79,-354.46 524.8,-343.31"/>
<polygon fill="black" stroke="black" points="527.34,-345.74 530.9,-335.76 521.89,-341.34 527.34,-345.74"/>
</g>
<!-- mu_slope_sales_tv -->
<g id="node7" class="node">
<title>mu_slope_sales_tv</title>
<ellipse fill="none" stroke="black" cx="84.85" cy="-412.34" rx="84.71" ry="37.45"/>
<text text-anchor="middle" x="84.85" y="-423.64" font-family="Times,serif" font-size="14.00">mu_slope_sales_tv</text>
<text text-anchor="middle" x="84.85" y="-408.64" font-family="Times,serif" font-size="14.00">~</text>
<text text-anchor="middle" x="84.85" y="-393.64" font-family="Times,serif" font-size="14.00">Normal</text>
</g>
<!-- slope_sales_tv -->
<g id="node13" class="node">
<title>slope_sales_tv</title>
<ellipse fill="none" stroke="black" cx="416.85" cy="-301.38" rx="67.35" ry="37.45"/>
<text text-anchor="middle" x="416.85" y="-312.68" font-family="Times,serif" font-size="14.00">slope_sales_tv</text>
<text text-anchor="middle" x="416.85" y="-297.68" font-family="Times,serif" font-size="14.00">~</text>
<text text-anchor="middle" x="416.85" y="-282.68" font-family="Times,serif" font-size="14.00">Normal</text>
</g>
<!-- mu_slope_sales_tv&#45;&gt;slope_sales_tv -->
<g id="edge4" class="edge">
<title>mu_slope_sales_tv&#45;&gt;slope_sales_tv</title>
<path fill="none" stroke="black" d="M145.45,-385.83C156.44,-381.78 167.89,-377.92 178.85,-374.86 247.96,-355.57 270.29,-371.03 337.85,-346.86 346.39,-343.81 355.08,-339.88 363.43,-335.62"/>
<polygon fill="black" stroke="black" points="364.89,-338.81 372.07,-331.01 361.6,-332.63 364.89,-338.81"/>
</g>
<!-- sigma_sales -->
<g id="node8" class="node">
<title>sigma_sales</title>
<ellipse fill="none" stroke="black" cx="401.85" cy="-187.43" rx="58.88" ry="37.45"/>
<text text-anchor="middle" x="401.85" y="-198.73" font-family="Times,serif" font-size="14.00">sigma_sales</text>
<text text-anchor="middle" x="401.85" y="-183.73" font-family="Times,serif" font-size="14.00">~</text>
<text text-anchor="middle" x="401.85" y="-168.73" font-family="Times,serif" font-size="14.00">Halfnormal</text>
</g>
<!-- sigma_sales&#45;&gt;sales -->
<g id="edge15" class="edge">
<title>sigma_sales&#45;&gt;sales</title>
<path fill="none" stroke="black" d="M368.43,-156.08C353.21,-142.27 335.14,-125.86 319.46,-111.62"/>
<polygon fill="black" stroke="black" points="321.9,-109.11 312.14,-104.98 317.19,-114.29 321.9,-109.11"/>
</g>
<!-- mu_slope_sales_digital -->
<g id="node9" class="node">
<title>mu_slope_sales_digital</title>
<ellipse fill="none" stroke="black" cx="849.85" cy="-412.34" rx="101.65" ry="37.45"/>
<text text-anchor="middle" x="849.85" y="-423.64" font-family="Times,serif" font-size="14.00">mu_slope_sales_digital</text>
<text text-anchor="middle" x="849.85" y="-408.64" font-family="Times,serif" font-size="14.00">~</text>
<text text-anchor="middle" x="849.85" y="-393.64" font-family="Times,serif" font-size="14.00">Normal</text>
</g>
<!-- slope_sales_digital -->
<g id="node15" class="node">
<title>slope_sales_digital</title>
<ellipse fill="none" stroke="black" cx="715.85" cy="-301.38" rx="84.29" ry="37.45"/>
<text text-anchor="middle" x="715.85" y="-312.68" font-family="Times,serif" font-size="14.00">slope_sales_digital</text>
<text text-anchor="middle" x="715.85" y="-297.68" font-family="Times,serif" font-size="14.00">~</text>
<text text-anchor="middle" x="715.85" y="-282.68" font-family="Times,serif" font-size="14.00">Normal</text>
</g>
<!-- mu_slope_sales_digital&#45;&gt;slope_sales_digital -->
<g id="edge2" class="edge">
<title>mu_slope_sales_digital&#45;&gt;slope_sales_digital</title>
<path fill="none" stroke="black" d="M808.55,-377.76C794.54,-366.37 778.77,-353.54 764.25,-341.74"/>
<polygon fill="black" stroke="black" points="766.55,-339.09 756.58,-335.5 762.13,-344.52 766.55,-339.09"/>
</g>
<!-- sigma_slope_sales_tv -->
<g id="node10" class="node">
<title>sigma_slope_sales_tv</title>
<ellipse fill="none" stroke="black" cx="282.85" cy="-412.34" rx="95.42" ry="37.45"/>
<text text-anchor="middle" x="282.85" y="-423.64" font-family="Times,serif" font-size="14.00">sigma_slope_sales_tv</text>
<text text-anchor="middle" x="282.85" y="-408.64" font-family="Times,serif" font-size="14.00">~</text>
<text text-anchor="middle" x="282.85" y="-393.64" font-family="Times,serif" font-size="14.00">Halfnormal</text>
</g>
<!-- sigma_slope_sales_tv&#45;&gt;slope_sales_tv -->
<g id="edge3" class="edge">
<title>sigma_slope_sales_tv&#45;&gt;slope_sales_tv</title>
<path fill="none" stroke="black" d="M323.79,-378.06C338.58,-366.02 355.39,-352.36 370.61,-339.98"/>
<polygon fill="black" stroke="black" points="372.64,-342.84 378.19,-333.82 368.22,-337.41 372.64,-342.84"/>
</g>
<!-- sigma_alpha_sales -->
<g id="node11" class="node">
<title>sigma_alpha_sales</title>
<ellipse fill="none" stroke="black" cx="645.85" cy="-412.34" rx="84.29" ry="37.45"/>
<text text-anchor="middle" x="645.85" y="-423.64" font-family="Times,serif" font-size="14.00">sigma_alpha_sales</text>
<text text-anchor="middle" x="645.85" y="-408.64" font-family="Times,serif" font-size="14.00">~</text>
<text text-anchor="middle" x="645.85" y="-393.64" font-family="Times,serif" font-size="14.00">Halfnormal</text>
</g>
<!-- sigma_alpha_sales&#45;&gt;alpha_sales -->
<g id="edge6" class="edge">
<title>sigma_alpha_sales&#45;&gt;alpha_sales</title>
<path fill="none" stroke="black" d="M617.77,-376.56C609.28,-366.05 599.88,-354.41 591.09,-343.53"/>
<polygon fill="black" stroke="black" points="593.84,-341.37 584.83,-335.79 588.39,-345.76 593.84,-341.37"/>
</g>
<!-- sigma_slope_sales_digital -->
<g id="node12" class="node">
<title>sigma_slope_sales_digital</title>
<ellipse fill="none" stroke="black" cx="1081.85" cy="-412.34" rx="112.36" ry="37.45"/>
<text text-anchor="middle" x="1081.85" y="-423.64" font-family="Times,serif" font-size="14.00">sigma_slope_sales_digital</text>
<text text-anchor="middle" x="1081.85" y="-408.64" font-family="Times,serif" font-size="14.00">~</text>
<text text-anchor="middle" x="1081.85" y="-393.64" font-family="Times,serif" font-size="14.00">Halfnormal</text>
</g>
<!-- sigma_slope_sales_digital&#45;&gt;slope_sales_digital -->
<g id="edge1" class="edge">
<title>sigma_slope_sales_digital&#45;&gt;slope_sales_digital</title>
<path fill="none" stroke="black" d="M1001.48,-385.8C987.98,-381.89 974.07,-378.08 960.85,-374.86 895.39,-358.89 876.03,-367.4 811.85,-346.86 801.6,-343.58 791,-339.46 780.76,-335.07"/>
<polygon fill="black" stroke="black" points="782.19,-331.88 771.63,-331.04 779.36,-338.28 782.19,-331.88"/>
</g>
<!-- slope_sales_tv&#45;&gt;mu_sales -->
<g id="edge8" class="edge">
<title>slope_sales_tv&#45;&gt;mu_sales</title>
<path fill="none" stroke="black" d="M381.4,-269.41C367.9,-257.8 352.29,-244.6 337.85,-232.91 333.11,-229.06 328.09,-225.09 323.09,-221.18"/>
<polygon fill="black" stroke="black" points="325.37,-218.53 315.33,-215.17 321.08,-224.06 325.37,-218.53"/>
</g>
<!-- alpha_sales&#45;&gt;mu_sales -->
<g id="edge11" class="edge">
<title>alpha_sales&#45;&gt;mu_sales</title>
<path fill="none" stroke="black" d="M534.73,-267.16C523.69,-254.07 509.29,-240.39 492.85,-232.91 460.65,-218.25 367.41,-236.11 333.85,-224.91 329.92,-223.59 326,-221.91 322.18,-219.99"/>
<polygon fill="black" stroke="black" points="324.09,-217.04 313.66,-215.17 320.65,-223.14 324.09,-217.04"/>
</g>
<!-- slope_sales_digital&#45;&gt;mu_sales -->
<g id="edge12" class="edge">
<title>slope_sales_digital&#45;&gt;mu_sales</title>
<path fill="none" stroke="black" d="M680.76,-267.18C664.45,-253.91 644.01,-240.1 622.85,-232.91 562.02,-212.23 395.02,-244.56 333.85,-224.91 329.85,-223.62 325.87,-221.94 321.99,-220"/>
<polygon fill="black" stroke="black" points="323.76,-216.98 313.33,-215.12 320.32,-223.08 323.76,-216.98"/>
</g>
<!-- beta_sales -->
<g id="node16" class="node">
<title>beta_sales</title>
<ellipse fill="none" stroke="black" cx="874.85" cy="-301.38" rx="50.82" ry="37.45"/>
<text text-anchor="middle" x="874.85" y="-312.68" font-family="Times,serif" font-size="14.00">beta_sales</text>
<text text-anchor="middle" x="874.85" y="-297.68" font-family="Times,serif" font-size="14.00">~</text>
<text text-anchor="middle" x="874.85" y="-282.68" font-family="Times,serif" font-size="14.00">Normal</text>
</g>
<!-- beta_sales&#45;&gt;mu_sales -->
<g id="edge13" class="edge">
<title>beta_sales&#45;&gt;mu_sales</title>
<path fill="none" stroke="black" d="M853.05,-267.27C842.36,-254.02 828.26,-240.2 811.85,-232.91 787.58,-222.12 359.18,-232.89 333.85,-224.91 329.66,-223.59 325.5,-221.83 321.46,-219.79"/>
<polygon fill="black" stroke="black" points="323.44,-216.89 313.01,-215.01 319.99,-222.98 323.44,-216.89"/>
</g>
</g>
</svg>
