<?xml version="1.0" encoding="UTF-8" standalone="no"?>
<!DOCTYPE svg PUBLIC "-//W3C//DTD SVG 1.1//EN"
 "http://www.w3.org/Graphics/SVG/1.1/DTD/svg11.dtd">
<!-- Generated by graphviz version 12.2.1 (0)
 -->
<!-- Pages: 1 -->
<svg width="1197pt" height="486pt"
 viewBox="0.00 0.00 1196.91 486.27" xmlns="http://www.w3.org/2000/svg" xmlns:xlink="http://www.w3.org/1999/xlink">
<g id="graph0" class="graph" transform="scale(1 1) rotate(0) translate(4 482.27)">
<polygon fill="white" stroke="none" points="-4,4 -4,-482.27 1192.91,-482.27 1192.91,4 -4,4"/>
<g id="clust1" class="cluster">
<title>cluster240</title>
<path fill="none" stroke="black" d="M118.44,-8C118.44,-8 308.44,-8 308.44,-8 314.44,-8 320.44,-14 320.44,-20 320.44,-20 320.44,-345.04 320.44,-345.04 320.44,-351.04 314.44,-357.04 308.44,-357.04 308.44,-357.04 118.44,-357.04 118.44,-357.04 112.44,-357.04 106.44,-351.04 106.44,-345.04 106.44,-345.04 106.44,-20 106.44,-20 106.44,-14 112.44,-8 118.44,-8"/>
<text text-anchor="middle" x="302.31" y="-15.2" font-family="Times,serif" font-size="14.00">240</text>
</g>
<g id="clust2" class="cluster">
<title>clusterunit (6)</title>
<path fill="none" stroke="black" d="M340.44,-247.13C340.44,-247.13 780.44,-247.13 780.44,-247.13 786.44,-247.13 792.44,-253.13 792.44,-259.13 792.44,-259.13 792.44,-356.95 792.44,-356.95 792.44,-362.95 786.44,-368.95 780.44,-368.95 780.44,-368.95 340.44,-368.95 340.44,-368.95 334.44,-368.95 328.44,-362.95 328.44,-356.95 328.44,-356.95 328.44,-259.13 328.44,-259.13 328.44,-253.13 334.44,-247.13 340.44,-247.13"/>
<text text-anchor="middle" x="764.19" y="-254.33" font-family="Times,serif" font-size="14.00">unit (6)</text>
</g>
<g id="clust3" class="cluster">
<title>clustersales_predictors (4)</title>
<path fill="none" stroke="black" d="M812.44,-247.13C812.44,-247.13 910.44,-247.13 910.44,-247.13 916.44,-247.13 922.44,-253.13 922.44,-259.13 922.44,-259.13 922.44,-356.95 922.44,-356.95 922.44,-362.95 916.44,-368.95 910.44,-368.95 910.44,-368.95 812.44,-368.95 812.44,-368.95 806.44,-368.95 800.44,-362.95 800.44,-356.95 800.44,-356.95 800.44,-259.13 800.44,-259.13 800.44,-253.13 806.44,-247.13 812.44,-247.13"/>
<text text-anchor="middle" x="861.19" y="-254.33" font-family="Times,serif" font-size="14.00">sales_predictors (4)</text>
</g>
<!-- trend -->
<g id="node1" class="node">
<title>trend</title>
<path fill="lightgrey" stroke="black" d="M156.44,-349.04C156.44,-349.04 126.44,-349.04 126.44,-349.04 120.44,-349.04 114.44,-343.04 114.44,-337.04 114.44,-337.04 114.44,-303.54 114.44,-303.54 114.44,-297.54 120.44,-291.54 126.44,-291.54 126.44,-291.54 156.44,-291.54 156.44,-291.54 162.44,-291.54 168.44,-297.54 168.44,-303.54 168.44,-303.54 168.44,-337.04 168.44,-337.04 168.44,-343.04 162.44,-349.04 156.44,-349.04"/>
<text text-anchor="middle" x="141.44" y="-331.74" font-family="Times,serif" font-size="14.00">trend</text>
<text text-anchor="middle" x="141.44" y="-315.24" font-family="Times,serif" font-size="14.00">~</text>
<text text-anchor="middle" x="141.44" y="-298.74" font-family="Times,serif" font-size="14.00">Data</text>
</g>
<!-- mu_sales -->
<g id="node3" class="node">
<title>mu_sales</title>
<polygon fill="none" stroke="black" points="312.56,-227.23 222.31,-227.23 222.31,-169.73 312.56,-169.73 312.56,-227.23"/>
<text text-anchor="middle" x="267.44" y="-209.93" font-family="Times,serif" font-size="14.00">mu_sales</text>
<text text-anchor="middle" x="267.44" y="-193.43" font-family="Times,serif" font-size="14.00">~</text>
<text text-anchor="middle" x="267.44" y="-176.93" font-family="Times,serif" font-size="14.00">Deterministic</text>
</g>
<!-- trend&#45;&gt;mu_sales -->
<g id="edge8" class="edge">
<title>trend&#45;&gt;mu_sales</title>
<path fill="none" stroke="black" d="M150.75,-291.08C156.63,-276.6 165.41,-259.46 177.44,-247.13 187.28,-237.05 199.72,-228.63 212.18,-221.81"/>
<polygon fill="black" stroke="black" points="213.5,-225.06 220.78,-217.37 210.29,-218.84 213.5,-225.06"/>
</g>
<!-- sales -->
<g id="node2" class="node">
<title>sales</title>
<ellipse fill="lightgrey" stroke="black" cx="269.44" cy="-81.16" rx="41.01" ry="40.66"/>
<text text-anchor="middle" x="269.44" y="-92.61" font-family="Times,serif" font-size="14.00">sales</text>
<text text-anchor="middle" x="269.44" y="-76.11" font-family="Times,serif" font-size="14.00">~</text>
<text text-anchor="middle" x="269.44" y="-59.61" font-family="Times,serif" font-size="14.00">Normal</text>
</g>
<!-- mu_sales&#45;&gt;sales -->
<g id="edge15" class="edge">
<title>mu_sales&#45;&gt;sales</title>
<path fill="none" stroke="black" d="M267.93,-169.27C268.12,-158.44 268.34,-145.73 268.55,-133.41"/>
<polygon fill="black" stroke="black" points="272.04,-133.84 268.72,-123.78 265.04,-133.72 272.04,-133.84"/>
</g>
<!-- digital -->
<g id="node4" class="node">
<title>digital</title>
<path fill="lightgrey" stroke="black" d="M228.44,-349.04C228.44,-349.04 198.44,-349.04 198.44,-349.04 192.44,-349.04 186.44,-343.04 186.44,-337.04 186.44,-337.04 186.44,-303.54 186.44,-303.54 186.44,-297.54 192.44,-291.54 198.44,-291.54 198.44,-291.54 228.44,-291.54 228.44,-291.54 234.44,-291.54 240.44,-297.54 240.44,-303.54 240.44,-303.54 240.44,-337.04 240.44,-337.04 240.44,-343.04 234.44,-349.04 228.44,-349.04"/>
<text text-anchor="middle" x="213.44" y="-331.74" font-family="Times,serif" font-size="14.00">digital</text>
<text text-anchor="middle" x="213.44" y="-315.24" font-family="Times,serif" font-size="14.00">~</text>
<text text-anchor="middle" x="213.44" y="-298.74" font-family="Times,serif" font-size="14.00">Data</text>
</g>
<!-- digital&#45;&gt;mu_sales -->
<g id="edge12" class="edge">
<title>digital&#45;&gt;mu_sales</title>
<path fill="none" stroke="black" d="M226.1,-291.2C233.28,-275.28 242.36,-255.13 250.18,-237.77"/>
<polygon fill="black" stroke="black" points="253.32,-239.33 254.24,-228.77 246.94,-236.45 253.32,-239.33"/>
</g>
<!-- tv -->
<g id="node5" class="node">
<title>tv</title>
<path fill="lightgrey" stroke="black" d="M300.44,-349.04C300.44,-349.04 270.44,-349.04 270.44,-349.04 264.44,-349.04 258.44,-343.04 258.44,-337.04 258.44,-337.04 258.44,-303.54 258.44,-303.54 258.44,-297.54 264.44,-291.54 270.44,-291.54 270.44,-291.54 300.44,-291.54 300.44,-291.54 306.44,-291.54 312.44,-297.54 312.44,-303.54 312.44,-303.54 312.44,-337.04 312.44,-337.04 312.44,-343.04 306.44,-349.04 300.44,-349.04"/>
<text text-anchor="middle" x="285.44" y="-331.74" font-family="Times,serif" font-size="14.00">tv</text>
<text text-anchor="middle" x="285.44" y="-315.24" font-family="Times,serif" font-size="14.00">~</text>
<text text-anchor="middle" x="285.44" y="-298.74" font-family="Times,serif" font-size="14.00">Data</text>
</g>
<!-- tv&#45;&gt;mu_sales -->
<g id="edge7" class="edge">
<title>tv&#45;&gt;mu_sales</title>
<path fill="none" stroke="black" d="M281.22,-291.2C278.87,-275.58 275.91,-255.89 273.34,-238.76"/>
<polygon fill="black" stroke="black" points="276.8,-238.26 271.86,-228.89 269.88,-239.3 276.8,-238.26"/>
</g>
<!-- sigma_sales -->
<g id="node6" class="node">
<title>sigma_sales</title>
<ellipse fill="none" stroke="black" cx="388.44" cy="-198.48" rx="57.98" ry="40.66"/>
<text text-anchor="middle" x="388.44" y="-209.93" font-family="Times,serif" font-size="14.00">sigma_sales</text>
<text text-anchor="middle" x="388.44" y="-193.43" font-family="Times,serif" font-size="14.00">~</text>
<text text-anchor="middle" x="388.44" y="-176.93" font-family="Times,serif" font-size="14.00">Halfnormal</text>
</g>
<!-- sigma_sales&#45;&gt;sales -->
<g id="edge14" class="edge">
<title>sigma_sales&#45;&gt;sales</title>
<path fill="none" stroke="black" d="M354.97,-165.05C339.87,-150.41 321.98,-133.07 306.47,-118.05"/>
<polygon fill="black" stroke="black" points="309.31,-115.93 299.7,-111.48 304.44,-120.95 309.31,-115.93"/>
</g>
<!-- sigma_alpha_sales -->
<g id="node7" class="node">
<title>sigma_alpha_sales</title>
<ellipse fill="none" stroke="black" cx="83.44" cy="-437.61" rx="83.44" ry="40.66"/>
<text text-anchor="middle" x="83.44" y="-449.06" font-family="Times,serif" font-size="14.00">sigma_alpha_sales</text>
<text text-anchor="middle" x="83.44" y="-432.56" font-family="Times,serif" font-size="14.00">~</text>
<text text-anchor="middle" x="83.44" y="-416.06" font-family="Times,serif" font-size="14.00">Halfnormal</text>
</g>
<!-- alpha_sales -->
<g id="node13" class="node">
<title>alpha_sales</title>
<ellipse fill="none" stroke="black" cx="391.44" cy="-320.29" rx="55.33" ry="40.66"/>
<text text-anchor="middle" x="391.44" y="-331.74" font-family="Times,serif" font-size="14.00">alpha_sales</text>
<text text-anchor="middle" x="391.44" y="-315.24" font-family="Times,serif" font-size="14.00">~</text>
<text text-anchor="middle" x="391.44" y="-298.74" font-family="Times,serif" font-size="14.00">Normal</text>
</g>
<!-- sigma_alpha_sales&#45;&gt;alpha_sales -->
<g id="edge5" class="edge">
<title>sigma_alpha_sales&#45;&gt;alpha_sales</title>
<path fill="none" stroke="black" d="M142.6,-408.84C153.37,-404.44 164.63,-400.25 175.44,-396.95 239.88,-377.27 262.43,-395.32 324.44,-368.95 331.75,-365.84 339.06,-361.83 346.01,-357.45"/>
<polygon fill="black" stroke="black" points="347.59,-360.61 353.97,-352.15 343.71,-354.78 347.59,-360.61"/>
</g>
<!-- mu_alpha_sales -->
<g id="node8" class="node">
<title>mu_alpha_sales</title>
<ellipse fill="none" stroke="black" cx="257.44" cy="-437.61" rx="72.83" ry="40.66"/>
<text text-anchor="middle" x="257.44" y="-449.06" font-family="Times,serif" font-size="14.00">mu_alpha_sales</text>
<text text-anchor="middle" x="257.44" y="-432.56" font-family="Times,serif" font-size="14.00">~</text>
<text text-anchor="middle" x="257.44" y="-416.06" font-family="Times,serif" font-size="14.00">Normal</text>
</g>
<!-- mu_alpha_sales&#45;&gt;alpha_sales -->
<g id="edge6" class="edge">
<title>mu_alpha_sales&#45;&gt;alpha_sales</title>
<path fill="none" stroke="black" d="M296.56,-402.95C312.61,-389.13 331.26,-373.08 347.75,-358.89"/>
<polygon fill="black" stroke="black" points="349.71,-361.82 355.01,-352.64 345.15,-356.51 349.71,-361.82"/>
</g>
<!-- mu_slope_sales_tv -->
<g id="node9" class="node">
<title>mu_slope_sales_tv</title>
<ellipse fill="none" stroke="black" cx="432.44" cy="-437.61" rx="84.5" ry="40.66"/>
<text text-anchor="middle" x="432.44" y="-449.06" font-family="Times,serif" font-size="14.00">mu_slope_sales_tv</text>
<text text-anchor="middle" x="432.44" y="-432.56" font-family="Times,serif" font-size="14.00">~</text>
<text text-anchor="middle" x="432.44" y="-416.06" font-family="Times,serif" font-size="14.00">Normal</text>
</g>
<!-- slope_sales_tv -->
<g id="node14" class="node">
<title>slope_sales_tv</title>
<ellipse fill="none" stroke="black" cx="531.44" cy="-320.29" rx="67" ry="40.66"/>
<text text-anchor="middle" x="531.44" y="-331.74" font-family="Times,serif" font-size="14.00">slope_sales_tv</text>
<text text-anchor="middle" x="531.44" y="-315.24" font-family="Times,serif" font-size="14.00">~</text>
<text text-anchor="middle" x="531.44" y="-298.74" font-family="Times,serif" font-size="14.00">Normal</text>
</g>
<!-- mu_slope_sales_tv&#45;&gt;slope_sales_tv -->
<g id="edge3" class="edge">
<title>mu_slope_sales_tv&#45;&gt;slope_sales_tv</title>
<path fill="none" stroke="black" d="M464.31,-399.49C473.68,-388.58 484.02,-376.53 493.71,-365.24"/>
<polygon fill="black" stroke="black" points="496.13,-367.79 499.99,-357.92 490.82,-363.23 496.13,-367.79"/>
</g>
<!-- sigma_slope_sales_digital -->
<g id="node10" class="node">
<title>sigma_slope_sales_digital</title>
<ellipse fill="none" stroke="black" cx="855.44" cy="-437.61" rx="112.08" ry="40.66"/>
<text text-anchor="middle" x="855.44" y="-449.06" font-family="Times,serif" font-size="14.00">sigma_slope_sales_digital</text>
<text text-anchor="middle" x="855.44" y="-432.56" font-family="Times,serif" font-size="14.00">~</text>
<text text-anchor="middle" x="855.44" y="-416.06" font-family="Times,serif" font-size="14.00">Halfnormal</text>
</g>
<!-- slope_sales_digital -->
<g id="node15" class="node">
<title>slope_sales_digital</title>
<ellipse fill="none" stroke="black" cx="700.44" cy="-320.29" rx="83.97" ry="40.66"/>
<text text-anchor="middle" x="700.44" y="-331.74" font-family="Times,serif" font-size="14.00">slope_sales_digital</text>
<text text-anchor="middle" x="700.44" y="-315.24" font-family="Times,serif" font-size="14.00">~</text>
<text text-anchor="middle" x="700.44" y="-298.74" font-family="Times,serif" font-size="14.00">Normal</text>
</g>
<!-- sigma_slope_sales_digital&#45;&gt;slope_sales_digital -->
<g id="edge2" class="edge">
<title>sigma_slope_sales_digital&#45;&gt;slope_sales_digital</title>
<path fill="none" stroke="black" d="M807.25,-400.76C790.52,-388.31 771.66,-374.28 754.49,-361.51"/>
<polygon fill="black" stroke="black" points="757.02,-359.03 746.91,-355.86 752.84,-364.64 757.02,-359.03"/>
</g>
<!-- sigma_slope_sales_tv -->
<g id="node11" class="node">
<title>sigma_slope_sales_tv</title>
<ellipse fill="none" stroke="black" cx="630.44" cy="-437.61" rx="95.11" ry="40.66"/>
<text text-anchor="middle" x="630.44" y="-449.06" font-family="Times,serif" font-size="14.00">sigma_slope_sales_tv</text>
<text text-anchor="middle" x="630.44" y="-432.56" font-family="Times,serif" font-size="14.00">~</text>
<text text-anchor="middle" x="630.44" y="-416.06" font-family="Times,serif" font-size="14.00">Halfnormal</text>
</g>
<!-- sigma_slope_sales_tv&#45;&gt;slope_sales_tv -->
<g id="edge4" class="edge">
<title>sigma_slope_sales_tv&#45;&gt;slope_sales_tv</title>
<path fill="none" stroke="black" d="M598.3,-399.17C588.94,-388.27 578.63,-376.27 568.97,-365.01"/>
<polygon fill="black" stroke="black" points="571.89,-363.04 562.72,-357.74 566.58,-367.6 571.89,-363.04"/>
</g>
<!-- mu_slope_sales_digital -->
<g id="node12" class="node">
<title>mu_slope_sales_digital</title>
<ellipse fill="none" stroke="black" cx="1087.44" cy="-437.61" rx="101.47" ry="40.66"/>
<text text-anchor="middle" x="1087.44" y="-449.06" font-family="Times,serif" font-size="14.00">mu_slope_sales_digital</text>
<text text-anchor="middle" x="1087.44" y="-432.56" font-family="Times,serif" font-size="14.00">~</text>
<text text-anchor="middle" x="1087.44" y="-416.06" font-family="Times,serif" font-size="14.00">Normal</text>
</g>
<!-- mu_slope_sales_digital&#45;&gt;slope_sales_digital -->
<g id="edge1" class="edge">
<title>mu_slope_sales_digital&#45;&gt;slope_sales_digital</title>
<path fill="none" stroke="black" d="M1015.2,-408.59C1002.42,-404.27 989.13,-400.18 976.44,-396.95 897.97,-377.02 873.6,-393.46 796.44,-368.95 785.93,-365.61 775.14,-361.27 764.77,-356.56"/>
<polygon fill="black" stroke="black" points="766.47,-353.49 755.93,-352.4 763.49,-359.83 766.47,-353.49"/>
</g>
<!-- alpha_sales&#45;&gt;mu_sales -->
<g id="edge13" class="edge">
<title>alpha_sales&#45;&gt;mu_sales</title>
<path fill="none" stroke="black" d="M361.93,-285.77C350.55,-273.31 337.21,-259.26 324.44,-247.13 320.11,-243.03 315.49,-238.85 310.82,-234.76"/>
<polygon fill="black" stroke="black" points="313.42,-232.38 303.55,-228.51 308.85,-237.69 313.42,-232.38"/>
</g>
<!-- slope_sales_tv&#45;&gt;mu_sales -->
<g id="edge10" class="edge">
<title>slope_sales_tv&#45;&gt;mu_sales</title>
<path fill="none" stroke="black" d="M503.03,-283.05C490.11,-269.29 473.63,-255.03 455.44,-247.13 428.07,-235.26 349.5,-249.27 321.44,-239.13 317.31,-237.64 313.23,-235.73 309.26,-233.55"/>
<polygon fill="black" stroke="black" points="311.34,-230.72 300.99,-228.47 307.68,-236.69 311.34,-230.72"/>
</g>
<!-- slope_sales_digital&#45;&gt;mu_sales -->
<g id="edge9" class="edge">
<title>slope_sales_digital&#45;&gt;mu_sales</title>
<path fill="none" stroke="black" d="M664.84,-283.05C648.75,-269.1 628.6,-254.71 607.44,-247.13 547.58,-225.7 381.57,-259.78 321.44,-239.13 317.23,-237.69 313.07,-235.79 309.04,-233.6"/>
<polygon fill="black" stroke="black" points="310.99,-230.69 300.63,-228.46 307.34,-236.66 310.99,-230.69"/>
</g>
<!-- beta_sales -->
<g id="node16" class="node">
<title>beta_sales</title>
<ellipse fill="none" stroke="black" cx="859.44" cy="-320.29" rx="50.56" ry="40.66"/>
<text text-anchor="middle" x="859.44" y="-331.74" font-family="Times,serif" font-size="14.00">beta_sales</text>
<text text-anchor="middle" x="859.44" y="-315.24" font-family="Times,serif" font-size="14.00">~</text>
<text text-anchor="middle" x="859.44" y="-298.74" font-family="Times,serif" font-size="14.00">Normal</text>
</g>
<!-- beta_sales&#45;&gt;mu_sales -->
<g id="edge11" class="edge">
<title>beta_sales&#45;&gt;mu_sales</title>
<path fill="none" stroke="black" d="M837.53,-283.17C826.99,-269.25 813.03,-254.84 796.44,-247.13 772.5,-236.01 346.45,-247.57 321.44,-239.13 317.04,-237.65 312.69,-235.66 308.5,-233.37"/>
<polygon fill="black" stroke="black" points="310.66,-230.59 300.31,-228.33 307,-236.55 310.66,-230.59"/>
</g>
</g>
</svg>
