<?xml version="1.0" encoding="UTF-8" standalone="no"?>
<!DOCTYPE svg PUBLIC "-//W3C//DTD SVG 1.1//EN"
 "http://www.w3.org/Graphics/SVG/1.1/DTD/svg11.dtd">
<!-- Generated by graphviz version 12.2.1 (0)
 -->
<!-- Pages: 1 -->
<svg width="494pt" height="624pt"
 viewBox="0.00 0.00 494.00 624.09" xmlns="http://www.w3.org/2000/svg" xmlns:xlink="http://www.w3.org/1999/xlink">
<g id="graph0" class="graph" transform="scale(1 1) rotate(0) translate(4 620.09)">
<polygon fill="white" stroke="none" points="-4,4 -4,-620.09 490,-620.09 490,4 -4,4"/>
<g id="clust1" class="cluster">
<title>cluster500</title>
<path fill="none" stroke="black" d="M20,-8C20,-8 274,-8 274,-8 280,-8 286,-14 286,-20 286,-20 286,-584.18 286,-584.18 286,-590.18 280,-596.18 274,-596.18 274,-596.18 20,-596.18 20,-596.18 14,-596.18 8,-590.18 8,-584.18 8,-584.18 8,-20 8,-20 8,-14 14,-8 20,-8"/>
<text text-anchor="middle" x="267.88" y="-15.2" font-family="Times,serif" font-size="14.00">500</text>
</g>
<g id="clust2" class="cluster">
<title>clustersales_predictors (5)</title>
<path fill="none" stroke="black" d="M306,-247.13C306,-247.13 404,-247.13 404,-247.13 410,-247.13 416,-253.13 416,-259.13 416,-259.13 416,-356.95 416,-356.95 416,-362.95 410,-368.95 404,-368.95 404,-368.95 306,-368.95 306,-368.95 300,-368.95 294,-362.95 294,-356.95 294,-356.95 294,-259.13 294,-259.13 294,-253.13 300,-247.13 306,-247.13"/>
<text text-anchor="middle" x="354.75" y="-254.33" font-family="Times,serif" font-size="14.00">sales_predictors (5)</text>
</g>
<g id="clust3" class="cluster">
<title>clustersearch_traffic_predictors (3)</title>
<path fill="none" stroke="black" d="M306,-486.27C306,-486.27 466,-486.27 466,-486.27 472,-486.27 478,-492.27 478,-498.27 478,-498.27 478,-596.09 478,-596.09 478,-602.09 472,-608.09 466,-608.09 466,-608.09 306,-608.09 306,-608.09 300,-608.09 294,-602.09 294,-596.09 294,-596.09 294,-498.27 294,-498.27 294,-492.27 300,-486.27 306,-486.27"/>
<text text-anchor="middle" x="392.75" y="-493.47" font-family="Times,serif" font-size="14.00">search_traffic_predictors (3)</text>
</g>
<!-- sales -->
<g id="node1" class="node">
<title>sales</title>
<ellipse fill="lightgrey" stroke="black" cx="210" cy="-81.16" rx="41.01" ry="40.66"/>
<text text-anchor="middle" x="210" y="-92.61" font-family="Times,serif" font-size="14.00">sales</text>
<text text-anchor="middle" x="210" y="-76.11" font-family="Times,serif" font-size="14.00">~</text>
<text text-anchor="middle" x="210" y="-59.61" font-family="Times,serif" font-size="14.00">Normal</text>
</g>
<!-- mu_sales -->
<g id="node2" class="node">
<title>mu_sales</title>
<polygon fill="none" stroke="black" points="202.12,-227.23 111.88,-227.23 111.88,-169.73 202.12,-169.73 202.12,-227.23"/>
<text text-anchor="middle" x="157" y="-209.93" font-family="Times,serif" font-size="14.00">mu_sales</text>
<text text-anchor="middle" x="157" y="-193.43" font-family="Times,serif" font-size="14.00">~</text>
<text text-anchor="middle" x="157" y="-176.93" font-family="Times,serif" font-size="14.00">Deterministic</text>
</g>
<!-- mu_sales&#45;&gt;sales -->
<g id="edge12" class="edge">
<title>mu_sales&#45;&gt;sales</title>
<path fill="none" stroke="black" d="M169.97,-169.27C175.58,-157.05 182.31,-142.41 188.63,-128.66"/>
<polygon fill="black" stroke="black" points="191.73,-130.29 192.73,-119.74 185.37,-127.37 191.73,-130.29"/>
</g>
<!-- season -->
<g id="node3" class="node">
<title>season</title>
<path fill="lightgrey" stroke="black" d="M130,-588.18C130,-588.18 100,-588.18 100,-588.18 94,-588.18 88,-582.18 88,-576.18 88,-576.18 88,-542.68 88,-542.68 88,-536.68 94,-530.68 100,-530.68 100,-530.68 130,-530.68 130,-530.68 136,-530.68 142,-536.68 142,-542.68 142,-542.68 142,-576.18 142,-576.18 142,-582.18 136,-588.18 130,-588.18"/>
<text text-anchor="middle" x="115" y="-570.88" font-family="Times,serif" font-size="14.00">season</text>
<text text-anchor="middle" x="115" y="-554.38" font-family="Times,serif" font-size="14.00">~</text>
<text text-anchor="middle" x="115" y="-537.88" font-family="Times,serif" font-size="14.00">Data</text>
</g>
<!-- season&#45;&gt;mu_sales -->
<g id="edge5" class="edge">
<title>season&#45;&gt;mu_sales</title>
<path fill="none" stroke="black" d="M111.11,-530.53C104.43,-475.02 94.31,-347.43 126,-247.13 126.99,-244 128.25,-240.88 129.68,-237.81"/>
<polygon fill="black" stroke="black" points="132.75,-239.5 134.42,-229.03 126.59,-236.17 132.75,-239.5"/>
</g>
<!-- mu_search_traffic -->
<g id="node6" class="node">
<title>mu_search_traffic</title>
<polygon fill="none" stroke="black" points="268.5,-466.36 153.5,-466.36 153.5,-408.86 268.5,-408.86 268.5,-466.36"/>
<text text-anchor="middle" x="211" y="-449.06" font-family="Times,serif" font-size="14.00">mu_search_traffic</text>
<text text-anchor="middle" x="211" y="-432.56" font-family="Times,serif" font-size="14.00">~</text>
<text text-anchor="middle" x="211" y="-416.06" font-family="Times,serif" font-size="14.00">Deterministic</text>
</g>
<!-- season&#45;&gt;mu_search_traffic -->
<g id="edge9" class="edge">
<title>season&#45;&gt;mu_search_traffic</title>
<path fill="none" stroke="black" d="M128.14,-530.29C135.34,-516.33 145.04,-499.64 156,-486.27 159.33,-482.21 163.03,-478.21 166.89,-474.36"/>
<polygon fill="black" stroke="black" points="169.02,-477.16 173.87,-467.74 164.21,-472.08 169.02,-477.16"/>
</g>
<!-- search_traffic -->
<g id="node4" class="node">
<title>search_traffic</title>
<ellipse fill="lightgrey" stroke="black" cx="214" cy="-320.29" rx="63.82" ry="40.66"/>
<text text-anchor="middle" x="214" y="-331.74" font-family="Times,serif" font-size="14.00">search_traffic</text>
<text text-anchor="middle" x="214" y="-315.24" font-family="Times,serif" font-size="14.00">~</text>
<text text-anchor="middle" x="214" y="-298.74" font-family="Times,serif" font-size="14.00">Normal</text>
</g>
<!-- search_traffic&#45;&gt;mu_sales -->
<g id="edge7" class="edge">
<title>search_traffic&#45;&gt;mu_sales</title>
<path fill="none" stroke="black" d="M195.81,-281.05C189.21,-267.19 181.77,-251.54 175.17,-237.68"/>
<polygon fill="black" stroke="black" points="178.43,-236.38 170.98,-228.86 172.11,-239.39 178.43,-236.38"/>
</g>
<!-- perf_spend -->
<g id="node5" class="node">
<title>perf_spend</title>
<path fill="lightgrey" stroke="black" d="M80,-349.04C80,-349.04 28,-349.04 28,-349.04 22,-349.04 16,-343.04 16,-337.04 16,-337.04 16,-303.54 16,-303.54 16,-297.54 22,-291.54 28,-291.54 28,-291.54 80,-291.54 80,-291.54 86,-291.54 92,-297.54 92,-303.54 92,-303.54 92,-337.04 92,-337.04 92,-343.04 86,-349.04 80,-349.04"/>
<text text-anchor="middle" x="54" y="-331.74" font-family="Times,serif" font-size="14.00">perf_spend</text>
<text text-anchor="middle" x="54" y="-315.24" font-family="Times,serif" font-size="14.00">~</text>
<text text-anchor="middle" x="54" y="-298.74" font-family="Times,serif" font-size="14.00">Data</text>
</g>
<!-- perf_spend&#45;&gt;mu_sales -->
<g id="edge3" class="edge">
<title>perf_spend&#45;&gt;mu_sales</title>
<path fill="none" stroke="black" d="M72.31,-291.26C81.77,-277.49 93.86,-260.93 106,-247.13 109.47,-243.19 113.23,-239.22 117.08,-235.34"/>
<polygon fill="black" stroke="black" points="119.26,-238.1 123.96,-228.6 114.36,-233.1 119.26,-238.1"/>
</g>
<!-- mu_search_traffic&#45;&gt;search_traffic -->
<g id="edge1" class="edge">
<title>mu_search_traffic&#45;&gt;search_traffic</title>
<path fill="none" stroke="black" d="M211.73,-408.4C212.02,-397.58 212.35,-384.86 212.67,-372.54"/>
<polygon fill="black" stroke="black" points="216.16,-373.01 212.92,-362.92 209.16,-372.82 216.16,-373.01"/>
</g>
<!-- brand_spend -->
<g id="node7" class="node">
<title>brand_spend</title>
<path fill="lightgrey" stroke="black" d="M237.5,-588.18C237.5,-588.18 176.5,-588.18 176.5,-588.18 170.5,-588.18 164.5,-582.18 164.5,-576.18 164.5,-576.18 164.5,-542.68 164.5,-542.68 164.5,-536.68 170.5,-530.68 176.5,-530.68 176.5,-530.68 237.5,-530.68 237.5,-530.68 243.5,-530.68 249.5,-536.68 249.5,-542.68 249.5,-542.68 249.5,-576.18 249.5,-576.18 249.5,-582.18 243.5,-588.18 237.5,-588.18"/>
<text text-anchor="middle" x="207" y="-570.88" font-family="Times,serif" font-size="14.00">brand_spend</text>
<text text-anchor="middle" x="207" y="-554.38" font-family="Times,serif" font-size="14.00">~</text>
<text text-anchor="middle" x="207" y="-537.88" font-family="Times,serif" font-size="14.00">Data</text>
</g>
<!-- brand_spend&#45;&gt;mu_sales -->
<g id="edge6" class="edge">
<title>brand_spend&#45;&gt;mu_sales</title>
<path fill="none" stroke="black" d="M185.11,-530.33C167.38,-507.54 145.29,-479.06 145,-478.27 110.02,-381.67 124.43,-348.53 141,-247.13 141.46,-244.31 142.07,-241.42 142.77,-238.54"/>
<polygon fill="black" stroke="black" points="146.11,-239.6 145.48,-229.03 139.38,-237.69 146.11,-239.6"/>
</g>
<!-- brand_spend&#45;&gt;mu_search_traffic -->
<g id="edge10" class="edge">
<title>brand_spend&#45;&gt;mu_search_traffic</title>
<path fill="none" stroke="black" d="M207.94,-530.34C208.46,-514.71 209.12,-495.02 209.69,-477.89"/>
<polygon fill="black" stroke="black" points="213.18,-478.15 210.02,-468.04 206.19,-477.92 213.18,-478.15"/>
</g>
<!-- beta_sales -->
<g id="node8" class="node">
<title>beta_sales</title>
<ellipse fill="none" stroke="black" cx="353" cy="-320.29" rx="50.56" ry="40.66"/>
<text text-anchor="middle" x="353" y="-331.74" font-family="Times,serif" font-size="14.00">beta_sales</text>
<text text-anchor="middle" x="353" y="-315.24" font-family="Times,serif" font-size="14.00">~</text>
<text text-anchor="middle" x="353" y="-298.74" font-family="Times,serif" font-size="14.00">Normal</text>
</g>
<!-- beta_sales&#45;&gt;mu_sales -->
<g id="edge4" class="edge">
<title>beta_sales&#45;&gt;mu_sales</title>
<path fill="none" stroke="black" d="M328.46,-284.23C317.87,-271.15 304.56,-257.07 290,-247.13 266.96,-231.42 238.16,-220.27 213.26,-212.72"/>
<polygon fill="black" stroke="black" points="214.52,-209.44 203.94,-210.02 212.57,-216.17 214.52,-209.44"/>
</g>
<!-- sigma_sales -->
<g id="node9" class="node">
<title>sigma_sales</title>
<ellipse fill="none" stroke="black" cx="352" cy="-198.48" rx="57.98" ry="40.66"/>
<text text-anchor="middle" x="352" y="-209.93" font-family="Times,serif" font-size="14.00">sigma_sales</text>
<text text-anchor="middle" x="352" y="-193.43" font-family="Times,serif" font-size="14.00">~</text>
<text text-anchor="middle" x="352" y="-176.93" font-family="Times,serif" font-size="14.00">Halfnormal</text>
</g>
<!-- sigma_sales&#45;&gt;sales -->
<g id="edge11" class="edge">
<title>sigma_sales&#45;&gt;sales</title>
<path fill="none" stroke="black" d="M314.69,-167.18C294.79,-151.02 270.3,-131.12 250,-114.65"/>
<polygon fill="black" stroke="black" points="252.44,-112.12 242.47,-108.53 248.03,-117.55 252.44,-112.12"/>
</g>
<!-- sigma_search_traffic -->
<g id="node10" class="node">
<title>sigma_search_traffic</title>
<ellipse fill="none" stroke="black" cx="386" cy="-437.61" rx="91.92" ry="40.66"/>
<text text-anchor="middle" x="386" y="-449.06" font-family="Times,serif" font-size="14.00">sigma_search_traffic</text>
<text text-anchor="middle" x="386" y="-432.56" font-family="Times,serif" font-size="14.00">~</text>
<text text-anchor="middle" x="386" y="-416.06" font-family="Times,serif" font-size="14.00">Halfnormal</text>
</g>
<!-- sigma_search_traffic&#45;&gt;search_traffic -->
<g id="edge2" class="edge">
<title>sigma_search_traffic&#45;&gt;search_traffic</title>
<path fill="none" stroke="black" d="M336.25,-403.26C314.56,-388.71 289.1,-371.64 267.05,-356.86"/>
<polygon fill="black" stroke="black" points="269.01,-353.96 258.76,-351.3 265.12,-359.78 269.01,-353.96"/>
</g>
<!-- beta_search_traffic -->
<g id="node11" class="node">
<title>beta_search_traffic</title>
<ellipse fill="none" stroke="black" cx="386" cy="-559.43" rx="84.5" ry="40.66"/>
<text text-anchor="middle" x="386" y="-570.88" font-family="Times,serif" font-size="14.00">beta_search_traffic</text>
<text text-anchor="middle" x="386" y="-554.38" font-family="Times,serif" font-size="14.00">~</text>
<text text-anchor="middle" x="386" y="-537.88" font-family="Times,serif" font-size="14.00">Normal</text>
</g>
<!-- beta_search_traffic&#45;&gt;mu_search_traffic -->
<g id="edge8" class="edge">
<title>beta_search_traffic&#45;&gt;mu_search_traffic</title>
<path fill="none" stroke="black" d="M342.71,-524.42C326.45,-512.04 307.63,-498.17 290,-486.27 283.34,-481.77 276.25,-477.21 269.16,-472.77"/>
<polygon fill="black" stroke="black" points="271.17,-469.9 260.82,-467.62 267.49,-475.85 271.17,-469.9"/>
</g>
</g>
</svg>
