<?xml version="1.0" encoding="UTF-8" standalone="no"?>
<!DOCTYPE svg PUBLIC "-//W3C//DTD SVG 1.1//EN"
 "http://www.w3.org/Graphics/SVG/1.1/DTD/svg11.dtd">
<!-- Generated by graphviz version 12.2.1 (0)
 -->
<!-- Pages: 1 -->
<svg width="255pt" height="81pt"
 viewBox="0.00 0.00 254.75 81.00" xmlns="http://www.w3.org/2000/svg" xmlns:xlink="http://www.w3.org/1999/xlink">
<g id="graph0" class="graph" transform="scale(1 1) rotate(0) translate(4 77)">
<polygon fill="white" stroke="none" points="-4,4 -4,-77 250.75,-77 250.75,4 -4,4"/>
<!-- X -->
<g id="node1" class="node">
<title>X</title>
<polygon fill="none" stroke="black" points="54,-36 0,-36 0,0 54,0 54,-36"/>
<text text-anchor="middle" x="27" y="-12.95" font-family="Times,serif" font-size="14.00">X</text>
</g>
<!-- M -->
<g id="node2" class="node">
<title>M</title>
<ellipse fill="none" stroke="black" cx="123" cy="-55" rx="27" ry="18"/>
<text text-anchor="middle" x="123" y="-49.95" font-family="Times,serif" font-size="14.00">M</text>
</g>
<!-- X&#45;&gt;M -->
<g id="edge1" class="edge">
<title>X&#45;&gt;M</title>
<path fill="none" stroke="black" d="M54.43,-28.41C65.13,-32.62 77.6,-37.53 88.9,-41.97"/>
<polygon fill="black" stroke="black" points="87.27,-45.09 97.86,-45.5 89.84,-38.58 87.27,-45.09"/>
<text text-anchor="middle" x="75" y="-40.81" font-family="Times,serif" font-size="14.00">a</text>
</g>
<!-- Y -->
<g id="node3" class="node">
<title>Y</title>
<ellipse fill="none" stroke="black" cx="219.75" cy="-18" rx="27" ry="18"/>
<text text-anchor="middle" x="219.75" y="-12.95" font-family="Times,serif" font-size="14.00">Y</text>
</g>
<!-- X&#45;&gt;Y -->
<g id="edge3" class="edge">
<title>X&#45;&gt;Y</title>
<path fill="none" stroke="black" d="M54.44,-14.88C67.01,-13.55 82.26,-12.16 96,-11.5 119.97,-10.36 126.03,-10.37 150,-11.5 160.16,-11.98 171.13,-12.85 181.26,-13.81"/>
<polygon fill="black" stroke="black" points="180.87,-17.29 191.17,-14.8 181.57,-10.32 180.87,-17.29"/>
<text text-anchor="middle" x="123" y="-14.7" font-family="Times,serif" font-size="14.00">c</text>
</g>
<!-- M&#45;&gt;Y -->
<g id="edge2" class="edge">
<title>M&#45;&gt;Y</title>
<path fill="none" stroke="black" d="M146.94,-46.04C158.46,-41.54 172.64,-36.01 185.34,-31.05"/>
<polygon fill="black" stroke="black" points="186.57,-34.32 194.62,-27.42 184.03,-27.8 186.57,-34.32"/>
<text text-anchor="middle" x="171.38" y="-40.81" font-family="Times,serif" font-size="14.00">b</text>
</g>
</g>
</svg>
