<?xml version="1.0" encoding="UTF-8" standalone="no"?>
<!DOCTYPE svg PUBLIC "-//W3C//DTD SVG 1.1//EN"
 "http://www.w3.org/Graphics/SVG/1.1/DTD/svg11.dtd">
<!-- Generated by graphviz version 7.1.0 (0)
 -->
<!-- Pages: 1 -->
<svg width="608pt" height="566pt"
 viewBox="0.00 0.00 608.00 565.81" xmlns="http://www.w3.org/2000/svg" xmlns:xlink="http://www.w3.org/1999/xlink">
<g id="graph0" class="graph" transform="scale(1 1) rotate(0) translate(4 561.81)">
<polygon fill="white" stroke="none" points="-4,4 -4,-561.81 604,-561.81 604,4 -4,4"/>
<g id="clust1" class="cluster">
<title>cluster1000</title>
<path fill="none" stroke="black" d="M200,-8C200,-8 424,-8 424,-8 430,-8 436,-14 436,-20 436,-20 436,-526.84 436,-526.84 436,-532.84 430,-538.84 424,-538.84 424,-538.84 200,-538.84 200,-538.84 194,-538.84 188,-532.84 188,-526.84 188,-526.84 188,-20 188,-20 188,-14 194,-8 200,-8"/>
<text text-anchor="middle" x="414" y="-15.8" font-family="Times,serif" font-size="14.00">1000</text>
</g>
<g id="clust2" class="cluster">
<title>clusterhospitalized_predictors (5)</title>
<path fill="none" stroke="black" d="M20,-210.95C20,-210.95 168,-210.95 168,-210.95 174,-210.95 180,-216.95 180,-222.95 180,-222.95 180,-312.91 180,-312.91 180,-318.91 174,-324.91 168,-324.91 168,-324.91 20,-324.91 20,-324.91 14,-324.91 8,-318.91 8,-312.91 8,-312.91 8,-222.95 8,-222.95 8,-216.95 14,-210.95 20,-210.95"/>
<text text-anchor="middle" x="99" y="-218.75" font-family="Times,serif" font-size="14.00">hospitalized_predictors (5)</text>
</g>
<g id="clust3" class="cluster">
<title>clusterantibody_predictors (3)</title>
<path fill="none" stroke="black" d="M456,-435.86C456,-435.86 580,-435.86 580,-435.86 586,-435.86 592,-441.86 592,-447.86 592,-447.86 592,-537.81 592,-537.81 592,-543.81 586,-549.81 580,-549.81 580,-549.81 456,-549.81 456,-549.81 450,-549.81 444,-543.81 444,-537.81 444,-537.81 444,-447.86 444,-447.86 444,-441.86 450,-435.86 456,-435.86"/>
<text text-anchor="middle" x="520" y="-443.66" font-family="Times,serif" font-size="14.00">antibody_predictors (3)</text>
</g>
<!-- comorbidity -->
<g id="node1" class="node">
<title>comorbidity</title>
<path fill="lightgrey" stroke="black" d="M415.5,-305.93C415.5,-305.93 356.5,-305.93 356.5,-305.93 350.5,-305.93 344.5,-299.93 344.5,-293.93 344.5,-293.93 344.5,-264.93 344.5,-264.93 344.5,-258.93 350.5,-252.93 356.5,-252.93 356.5,-252.93 415.5,-252.93 415.5,-252.93 421.5,-252.93 427.5,-258.93 427.5,-264.93 427.5,-264.93 427.5,-293.93 427.5,-293.93 427.5,-299.93 421.5,-305.93 415.5,-305.93"/>
<text text-anchor="middle" x="386" y="-290.73" font-family="Times,serif" font-size="14.00">comorbidity</text>
<text text-anchor="middle" x="386" y="-275.73" font-family="Times,serif" font-size="14.00">~</text>
<text text-anchor="middle" x="386" y="-260.73" font-family="Times,serif" font-size="14.00">Data</text>
</g>
<!-- mu_hospitalized -->
<g id="node7" class="node">
<title>mu_hospitalized</title>
<polygon fill="none" stroke="black" points="305.5,-202.95 198.5,-202.95 198.5,-149.95 305.5,-149.95 305.5,-202.95"/>
<text text-anchor="middle" x="252" y="-187.75" font-family="Times,serif" font-size="14.00">mu_hospitalized</text>
<text text-anchor="middle" x="252" y="-172.75" font-family="Times,serif" font-size="14.00">~</text>
<text text-anchor="middle" x="252" y="-157.75" font-family="Times,serif" font-size="14.00">Deterministic</text>
</g>
<!-- comorbidity&#45;&gt;mu_hospitalized -->
<g id="edge3" class="edge">
<title>comorbidity&#45;&gt;mu_hospitalized</title>
<path fill="none" stroke="black" d="M371.27,-252.6C362.27,-238.73 349.69,-222.2 335,-210.95 329.12,-206.45 322.54,-202.46 315.74,-198.95"/>
<polygon fill="black" stroke="black" points="317.56,-195.94 307.03,-194.79 314.55,-202.26 317.56,-195.94"/>
</g>
<!-- age -->
<g id="node2" class="node">
<title>age</title>
<path fill="lightgrey" stroke="black" d="M314,-530.84C314,-530.84 284,-530.84 284,-530.84 278,-530.84 272,-524.84 272,-518.84 272,-518.84 272,-489.84 272,-489.84 272,-483.84 278,-477.84 284,-477.84 284,-477.84 314,-477.84 314,-477.84 320,-477.84 326,-483.84 326,-489.84 326,-489.84 326,-518.84 326,-518.84 326,-524.84 320,-530.84 314,-530.84"/>
<text text-anchor="middle" x="299" y="-515.64" font-family="Times,serif" font-size="14.00">age</text>
<text text-anchor="middle" x="299" y="-500.64" font-family="Times,serif" font-size="14.00">~</text>
<text text-anchor="middle" x="299" y="-485.64" font-family="Times,serif" font-size="14.00">Data</text>
</g>
<!-- mu_antibody -->
<g id="node5" class="node">
<title>mu_antibody</title>
<polygon fill="none" stroke="black" points="335.5,-416.88 244.5,-416.88 244.5,-363.88 335.5,-363.88 335.5,-416.88"/>
<text text-anchor="middle" x="290" y="-401.68" font-family="Times,serif" font-size="14.00">mu_antibody</text>
<text text-anchor="middle" x="290" y="-386.68" font-family="Times,serif" font-size="14.00">~</text>
<text text-anchor="middle" x="290" y="-371.68" font-family="Times,serif" font-size="14.00">Deterministic</text>
</g>
<!-- age&#45;&gt;mu_antibody -->
<g id="edge8" class="edge">
<title>age&#45;&gt;mu_antibody</title>
<path fill="none" stroke="black" d="M296.91,-477.37C295.74,-462.82 294.26,-444.42 292.97,-428.38"/>
<polygon fill="black" stroke="black" points="296.49,-428.4 292.2,-418.72 289.51,-428.97 296.49,-428.4"/>
</g>
<!-- age&#45;&gt;mu_hospitalized -->
<g id="edge4" class="edge">
<title>age&#45;&gt;mu_hospitalized</title>
<path fill="none" stroke="black" d="M290.92,-477.61C285.22,-463.41 276.22,-446.54 263,-435.86 252.93,-427.73 243.19,-437.88 235,-427.86 206.39,-392.84 211.03,-273.08 227.03,-214.19"/>
<polygon fill="black" stroke="black" points="230.35,-215.3 229.94,-204.71 223.66,-213.25 230.35,-215.3"/>
</g>
<!-- hospitalized -->
<g id="node3" class="node">
<title>hospitalized</title>
<ellipse fill="lightgrey" stroke="black" cx="254" cy="-76.48" rx="57.97" ry="37.45"/>
<text text-anchor="middle" x="254" y="-87.78" font-family="Times,serif" font-size="14.00">hospitalized</text>
<text text-anchor="middle" x="254" y="-72.78" font-family="Times,serif" font-size="14.00">~</text>
<text text-anchor="middle" x="254" y="-57.78" font-family="Times,serif" font-size="14.00">Bernoulli</text>
</g>
<!-- vaccine -->
<g id="node4" class="node">
<title>vaccine</title>
<path fill="lightgrey" stroke="black" d="M242,-530.84C242,-530.84 208,-530.84 208,-530.84 202,-530.84 196,-524.84 196,-518.84 196,-518.84 196,-489.84 196,-489.84 196,-483.84 202,-477.84 208,-477.84 208,-477.84 242,-477.84 242,-477.84 248,-477.84 254,-483.84 254,-489.84 254,-489.84 254,-518.84 254,-518.84 254,-524.84 248,-530.84 242,-530.84"/>
<text text-anchor="middle" x="225" y="-515.64" font-family="Times,serif" font-size="14.00">vaccine</text>
<text text-anchor="middle" x="225" y="-500.64" font-family="Times,serif" font-size="14.00">~</text>
<text text-anchor="middle" x="225" y="-485.64" font-family="Times,serif" font-size="14.00">Data</text>
</g>
<!-- vaccine&#45;&gt;mu_antibody -->
<g id="edge9" class="edge">
<title>vaccine&#45;&gt;mu_antibody</title>
<path fill="none" stroke="black" d="M239.24,-477.59C246.29,-464.96 254.99,-449.55 263,-435.86 264.72,-432.91 266.53,-429.87 268.35,-426.82"/>
<polygon fill="black" stroke="black" points="271.22,-428.84 273.37,-418.47 265.22,-425.23 271.22,-428.84"/>
</g>
<!-- vaccine&#45;&gt;mu_hospitalized -->
<g id="edge5" class="edge">
<title>vaccine&#45;&gt;mu_hospitalized</title>
<path fill="none" stroke="black" d="M216.25,-477.55C200.45,-426.5 171.96,-309.79 212.19,-213.48"/>
<polygon fill="black" stroke="black" points="215.36,-214.98 216.25,-204.42 208.97,-212.12 215.36,-214.98"/>
</g>
<!-- antibody -->
<g id="node6" class="node">
<title>antibody</title>
<ellipse fill="lightgrey" stroke="black" cx="281" cy="-279.43" rx="45.01" ry="37.45"/>
<text text-anchor="middle" x="281" y="-290.73" font-family="Times,serif" font-size="14.00">antibody</text>
<text text-anchor="middle" x="281" y="-275.73" font-family="Times,serif" font-size="14.00">~</text>
<text text-anchor="middle" x="281" y="-260.73" font-family="Times,serif" font-size="14.00">Normal</text>
</g>
<!-- mu_antibody&#45;&gt;antibody -->
<g id="edge2" class="edge">
<title>mu_antibody&#45;&gt;antibody</title>
<path fill="none" stroke="black" d="M287.87,-363.56C287,-353.07 285.97,-340.6 284.97,-328.55"/>
<polygon fill="black" stroke="black" points="288.47,-328.38 284.16,-318.71 281.5,-328.96 288.47,-328.38"/>
</g>
<!-- antibody&#45;&gt;mu_hospitalized -->
<g id="edge6" class="edge">
<title>antibody&#45;&gt;mu_hospitalized</title>
<path fill="none" stroke="black" d="M270.69,-242.55C268.06,-233.36 265.21,-223.46 262.56,-214.23"/>
<polygon fill="black" stroke="black" points="265.99,-213.49 259.87,-204.84 259.26,-215.42 265.99,-213.49"/>
</g>
<!-- mu_hospitalized&#45;&gt;hospitalized -->
<g id="edge11" class="edge">
<title>mu_hospitalized&#45;&gt;hospitalized</title>
<path fill="none" stroke="black" d="M252.53,-149.45C252.68,-142.13 252.85,-133.93 253.01,-125.75"/>
<polygon fill="black" stroke="black" points="256.51,-125.88 253.22,-115.81 249.51,-125.73 256.51,-125.88"/>
</g>
<!-- beta_hospitalized -->
<g id="node8" class="node">
<title>beta_hospitalized</title>
<ellipse fill="none" stroke="black" cx="94" cy="-279.43" rx="78.48" ry="37.45"/>
<text text-anchor="middle" x="94" y="-290.73" font-family="Times,serif" font-size="14.00">beta_hospitalized</text>
<text text-anchor="middle" x="94" y="-275.73" font-family="Times,serif" font-size="14.00">~</text>
<text text-anchor="middle" x="94" y="-260.73" font-family="Times,serif" font-size="14.00">Normal</text>
</g>
<!-- beta_hospitalized&#45;&gt;mu_hospitalized -->
<g id="edge7" class="edge">
<title>beta_hospitalized&#45;&gt;mu_hospitalized</title>
<path fill="none" stroke="black" d="M133.2,-246.55C148.59,-234.71 166.69,-221.58 184,-210.95 185.4,-210.09 186.83,-209.24 188.28,-208.39"/>
<polygon fill="black" stroke="black" points="189.74,-211.58 196.73,-203.62 186.3,-205.48 189.74,-211.58"/>
</g>
<!-- sigma_antibody -->
<g id="node9" class="node">
<title>sigma_antibody</title>
<ellipse fill="none" stroke="black" cx="518" cy="-390.38" rx="73.58" ry="37.45"/>
<text text-anchor="middle" x="518" y="-401.68" font-family="Times,serif" font-size="14.00">sigma_antibody</text>
<text text-anchor="middle" x="518" y="-386.68" font-family="Times,serif" font-size="14.00">~</text>
<text text-anchor="middle" x="518" y="-371.68" font-family="Times,serif" font-size="14.00">Halfnormal</text>
</g>
<!-- sigma_antibody&#45;&gt;antibody -->
<g id="edge1" class="edge">
<title>sigma_antibody&#45;&gt;antibody</title>
<path fill="none" stroke="black" d="M466.09,-363.58C457.48,-359.74 448.57,-356.04 440,-352.91 395.04,-336.48 378.65,-346.65 336,-324.91 330.46,-322.08 324.96,-318.64 319.7,-314.92"/>
<polygon fill="black" stroke="black" points="321.85,-312.16 311.75,-308.94 317.64,-317.75 321.85,-312.16"/>
</g>
<!-- beta_antibody -->
<g id="node10" class="node">
<title>beta_antibody</title>
<ellipse fill="none" stroke="black" cx="518" cy="-504.34" rx="65.52" ry="37.45"/>
<text text-anchor="middle" x="518" y="-515.64" font-family="Times,serif" font-size="14.00">beta_antibody</text>
<text text-anchor="middle" x="518" y="-500.64" font-family="Times,serif" font-size="14.00">~</text>
<text text-anchor="middle" x="518" y="-485.64" font-family="Times,serif" font-size="14.00">Normal</text>
</g>
<!-- beta_antibody&#45;&gt;mu_antibody -->
<g id="edge10" class="edge">
<title>beta_antibody&#45;&gt;mu_antibody</title>
<path fill="none" stroke="black" d="M486.94,-471.06C473.5,-458.6 456.96,-445.14 440,-435.86 411.18,-420.09 376.11,-409.29 347.13,-402.29"/>
<polygon fill="black" stroke="black" points="347.95,-398.89 337.42,-400.04 346.37,-405.71 347.95,-398.89"/>
</g>
</g>
</svg>
