<?xml version="1.0" encoding="UTF-8" standalone="no"?>
<!DOCTYPE svg PUBLIC "-//W3C//DTD SVG 1.1//EN"
 "http://www.w3.org/Graphics/SVG/1.1/DTD/svg11.dtd">
<!-- Generated by graphviz version 7.1.0 (0)
 -->
<!-- Pages: 1 -->
<svg width="256pt" height="79pt"
 viewBox="0.00 0.00 256.00 79.00" xmlns="http://www.w3.org/2000/svg" xmlns:xlink="http://www.w3.org/1999/xlink">
<g id="graph0" class="graph" transform="scale(1 1) rotate(0) translate(4 75)">
<polygon fill="white" stroke="none" points="-4,4 -4,-75 252,-75 252,4 -4,4"/>
<!-- X -->
<g id="node1" class="node">
<title>X</title>
<polygon fill="none" stroke="black" points="54,-36 0,-36 0,0 54,0 54,-36"/>
<text text-anchor="middle" x="27" y="-14.3" font-family="Times,serif" font-size="14.00">X</text>
</g>
<!-- H -->
<g id="node2" class="node">
<title>H</title>
<ellipse fill="none" stroke="black" cx="124" cy="-53" rx="27" ry="18"/>
<text text-anchor="middle" x="124" y="-49.3" font-family="Times,serif" font-size="14.00">H</text>
</g>
<!-- X&#45;&gt;H -->
<g id="edge1" class="edge">
<title>X&#45;&gt;H</title>
<path fill="none" stroke="black" d="M54.46,-27.75C65.28,-31.73 77.92,-36.39 89.38,-40.61"/>
<polygon fill="black" stroke="black" points="87.89,-43.8 98.49,-43.97 90.31,-37.23 87.89,-43.8"/>
<text text-anchor="middle" x="75.5" y="-39.8" font-family="Times,serif" font-size="14.00">a</text>
</g>
<!-- Y -->
<g id="node3" class="node">
<title>Y</title>
<ellipse fill="none" stroke="black" cx="221" cy="-18" rx="27" ry="18"/>
<text text-anchor="middle" x="221" y="-14.3" font-family="Times,serif" font-size="14.00">Y</text>
</g>
<!-- X&#45;&gt;Y -->
<g id="edge2" class="edge">
<title>X&#45;&gt;Y</title>
<path fill="none" stroke="black" d="M54.49,-14.68C67.31,-13.24 82.93,-11.71 97,-11 120.97,-9.79 127.03,-9.79 151,-11 161.4,-11.53 172.64,-12.5 182.98,-13.55"/>
<polygon fill="black" stroke="black" points="182.34,-17 192.66,-14.59 183.09,-10.04 182.34,-17"/>
<text text-anchor="middle" x="124" y="-14.8" font-family="Times,serif" font-size="14.00">b</text>
</g>
<!-- H&#45;&gt;Y -->
<g id="edge3" class="edge">
<title>H&#45;&gt;Y</title>
<path fill="none" stroke="black" d="M148,-44.53C159.46,-40.3 173.56,-35.11 186.22,-30.44"/>
<polygon fill="black" stroke="black" points="187.29,-33.78 195.47,-27.04 184.87,-27.21 187.29,-33.78"/>
<text text-anchor="middle" x="172.5" y="-39.8" font-family="Times,serif" font-size="14.00">c</text>
</g>
</g>
</svg>
