<?xml version="1.0" encoding="UTF-8" standalone="no"?>
<!DOCTYPE svg PUBLIC "-//W3C//DTD SVG 1.1//EN"
 "http://www.w3.org/Graphics/SVG/1.1/DTD/svg11.dtd">
<!-- Generated by graphviz version 7.1.0 (0)
 -->
<!-- Pages: 1 -->
<svg width="273pt" height="107pt"
 viewBox="0.00 0.00 273.49 107.00" xmlns="http://www.w3.org/2000/svg" xmlns:xlink="http://www.w3.org/1999/xlink">
<g id="graph0" class="graph" transform="scale(1 1) rotate(0) translate(4 103)">
<polygon fill="white" stroke="none" points="-4,4 -4,-103 269.49,-103 269.49,4 -4,4"/>
<!-- X -->
<g id="node1" class="node">
<title>X</title>
<polygon fill="none" stroke="black" points="54,-44 0,-44 0,-8 54,-8 54,-44"/>
<text text-anchor="middle" x="27" y="-22.3" font-family="Times,serif" font-size="14.00">X</text>
</g>
<!-- M -->
<g id="node2" class="node">
<title>M</title>
<ellipse fill="none" stroke="black" stroke-dasharray="5,2" cx="124" cy="-61" rx="27" ry="18"/>
<text text-anchor="middle" x="124" y="-57.3" font-family="Times,serif" font-size="14.00">M</text>
</g>
<!-- X&#45;&gt;M -->
<g id="edge1" class="edge">
<title>X&#45;&gt;M</title>
<path fill="none" stroke="black" d="M54.46,-35.75C65.28,-39.73 77.92,-44.39 89.38,-48.61"/>
<polygon fill="black" stroke="black" points="87.89,-51.8 98.49,-51.97 90.31,-45.23 87.89,-51.8"/>
<text text-anchor="middle" x="75.5" y="-47.8" font-family="Times,serif" font-size="14.00">a</text>
</g>
<!-- Y -->
<g id="node3" class="node">
<title>Y</title>
<ellipse fill="none" stroke="black" cx="229.75" cy="-18" rx="27" ry="18"/>
<text text-anchor="middle" x="229.75" y="-14.3" font-family="Times,serif" font-size="14.00">Y</text>
</g>
<!-- X&#45;&gt;Y -->
<g id="edge3" class="edge">
<title>X&#45;&gt;Y</title>
<path fill="none" stroke="black" d="M54.5,-22.73C67.31,-21.29 82.93,-19.77 97,-19 128.69,-17.28 164.73,-17.13 191.1,-17.35"/>
<polygon fill="black" stroke="black" points="190.93,-20.85 200.96,-17.46 191,-13.85 190.93,-20.85"/>
<text text-anchor="middle" x="124" y="-22.8" font-family="Times,serif" font-size="14.00">c</text>
</g>
<!-- M&#45;&gt;Y -->
<g id="edge2" class="edge">
<title>M&#45;&gt;Y</title>
<path fill="none" stroke="black" d="M147.51,-51.67C161.65,-45.81 180.13,-38.15 195.89,-31.62"/>
<polygon fill="black" stroke="black" points="196.98,-34.95 204.88,-27.89 194.3,-28.49 196.98,-34.95"/>
<text text-anchor="middle" x="172.5" y="-45.8" font-family="Times,serif" font-size="14.00">b</text>
</g>
<!-- M_obs -->
<g id="node4" class="node">
<title>M_obs</title>
<ellipse fill="none" stroke="black" cx="229.75" cy="-81" rx="36" ry="18"/>
<text text-anchor="middle" x="229.75" y="-77.3" font-family="Times,serif" font-size="14.00">M_obs</text>
</g>
<!-- M&#45;&gt;M_obs -->
<g id="edge4" class="edge">
<title>M&#45;&gt;M_obs</title>
<path fill="none" stroke="black" d="M150.38,-65.89C160.74,-67.89 173.04,-70.26 184.78,-72.52"/>
<polygon fill="black" stroke="black" points="183.82,-75.9 194.3,-74.36 185.14,-69.03 183.82,-75.9"/>
<text text-anchor="middle" x="172.5" y="-73.8" font-family="Times,serif" font-size="14.00">1</text>
</g>
</g>
</svg>
