<?xml version="1.0" encoding="UTF-8" standalone="no"?>
<!DOCTYPE svg PUBLIC "-//W3C//DTD SVG 1.1//EN"
 "http://www.w3.org/Graphics/SVG/1.1/DTD/svg11.dtd">
<!-- Generated by graphviz version 7.1.0 (0)
 -->
<!-- Pages: 1 -->
<svg width="375pt" height="105pt"
 viewBox="0.00 0.00 375.00 104.54" xmlns="http://www.w3.org/2000/svg" xmlns:xlink="http://www.w3.org/1999/xlink">
<g id="graph0" class="graph" transform="scale(1 1) rotate(0) translate(4 100.54)">
<polygon fill="white" stroke="none" points="-4,4 -4,-100.54 371,-100.54 371,4 -4,4"/>
<!-- T -->
<g id="node1" class="node">
<title>T</title>
<polygon fill="none" stroke="black" points="54,-45.54 0,-45.54 0,-9.54 54,-9.54 54,-45.54"/>
<text text-anchor="middle" x="27" y="-23.84" font-family="Times,serif" font-size="14.00">T</text>
</g>
<!-- M1 -->
<g id="node2" class="node">
<title>M1</title>
<ellipse fill="none" stroke="black" cx="130" cy="-78.54" rx="27" ry="18"/>
<text text-anchor="middle" x="130" y="-74.84" font-family="Times,serif" font-size="14.00">M1</text>
</g>
<!-- T&#45;&gt;M1 -->
<g id="edge1" class="edge">
<title>T&#45;&gt;M1</title>
<path fill="none" stroke="black" d="M54.27,-40.81C67.59,-47.53 83.86,-55.75 97.81,-62.79"/>
<polygon fill="black" stroke="black" points="96.09,-65.84 106.59,-67.23 99.25,-59.59 96.09,-65.84"/>
<text text-anchor="middle" x="78.5" y="-59.34" font-family="Times,serif" font-size="14.00">a1</text>
</g>
<!-- M2 -->
<g id="node3" class="node">
<title>M2</title>
<ellipse fill="none" stroke="black" cx="236" cy="-31.54" rx="27" ry="18"/>
<text text-anchor="middle" x="236" y="-27.84" font-family="Times,serif" font-size="14.00">M2</text>
</g>
<!-- T&#45;&gt;M2 -->
<g id="edge2" class="edge">
<title>T&#45;&gt;M2</title>
<path fill="none" stroke="black" d="M54.22,-28.05C90.44,-28.75 155.99,-30.01 197.41,-30.81"/>
<polygon fill="black" stroke="black" points="197.09,-34.31 207.16,-31 197.23,-27.31 197.09,-34.31"/>
<text text-anchor="middle" x="130" y="-33.34" font-family="Times,serif" font-size="14.00">a2</text>
</g>
<!-- Y -->
<g id="node4" class="node">
<title>Y</title>
<ellipse fill="none" stroke="black" cx="340" cy="-31.54" rx="27" ry="18"/>
<text text-anchor="middle" x="340" y="-27.84" font-family="Times,serif" font-size="14.00">Y</text>
</g>
<!-- T&#45;&gt;Y -->
<g id="edge5" class="edge">
<title>T&#45;&gt;Y</title>
<path fill="none" stroke="black" d="M54.25,-20.42C97.85,-9.6 187.86,8.41 263,-4.54 277.77,-7.09 293.47,-12.22 306.75,-17.34"/>
<polygon fill="black" stroke="black" points="305.27,-20.52 315.85,-21.01 307.89,-14.02 305.27,-20.52"/>
<text text-anchor="middle" x="183" y="-5.34" font-family="Times,serif" font-size="14.00">c</text>
</g>
<!-- M1&#45;&gt;M2 -->
<g id="edge6" class="edge">
<title>M1&#45;&gt;M2</title>
<path fill="none" stroke="black" stroke-dasharray="5,2" d="M163.16,-64C175.67,-58.35 189.97,-51.89 202.51,-46.23"/>
<polygon fill="black" stroke="black" points="162.11,-60.64 154.43,-67.95 164.99,-67.02 162.11,-60.64"/>
<polygon fill="black" stroke="black" points="203.93,-49.42 211.6,-42.12 201.04,-43.05 203.93,-49.42"/>
<text text-anchor="middle" x="183" y="-61.34" font-family="Times,serif" font-size="14.00">~~</text>
</g>
<!-- M1&#45;&gt;Y -->
<g id="edge3" class="edge">
<title>M1&#45;&gt;Y</title>
<path fill="none" stroke="black" d="M157.39,-78.86C167.89,-78.68 180.06,-78.07 191,-76.54 238.18,-69.93 249.87,-65.81 295,-50.54 298.94,-49.21 303.01,-47.67 307.02,-46.06"/>
<polygon fill="black" stroke="black" points="308.08,-49.41 315.95,-42.31 305.37,-42.96 308.08,-49.41"/>
<text text-anchor="middle" x="236" y="-77.34" font-family="Times,serif" font-size="14.00">b1</text>
</g>
<!-- M2&#45;&gt;Y -->
<g id="edge4" class="edge">
<title>M2&#45;&gt;Y</title>
<path fill="none" stroke="black" d="M263.27,-31.54C274.93,-31.54 288.86,-31.54 301.58,-31.54"/>
<polygon fill="black" stroke="black" points="301.31,-35.04 311.31,-31.54 301.31,-28.04 301.31,-35.04"/>
<text text-anchor="middle" x="288" y="-35.34" font-family="Times,serif" font-size="14.00">b2</text>
</g>
</g>
</svg>
