<?xml version="1.0" encoding="UTF-8" standalone="no"?>
<!DOCTYPE svg PUBLIC "-//W3C//DTD SVG 1.1//EN"
 "http://www.w3.org/Graphics/SVG/1.1/DTD/svg11.dtd">
<!-- Generated by graphviz version 7.1.0 (0)
 -->
<!-- Pages: 1 -->
<svg width="601pt" height="105pt"
 viewBox="0.00 0.00 601.37 105.00" xmlns="http://www.w3.org/2000/svg" xmlns:xlink="http://www.w3.org/1999/xlink">
<g id="graph0" class="graph" transform="scale(1 1) rotate(0) translate(4 101)">
<polygon fill="white" stroke="none" points="-4,4 -4,-101 597.37,-101 597.37,4 -4,4"/>
<!-- channel_quality -->
<g id="node1" class="node">
<title>channel_quality</title>
<polygon fill="none" stroke="black" points="108,-97 5,-97 5,-61 108,-61 108,-97"/>
<text text-anchor="middle" x="56.5" y="-75.3" font-family="Times,serif" font-size="14.00">channel_quality</text>
</g>
<!-- engagement -->
<g id="node3" class="node">
<title>engagement</title>
<ellipse fill="none" stroke="black" cx="229.95" cy="-27" rx="53.89" ry="18"/>
<text text-anchor="middle" x="229.95" y="-23.3" font-family="Times,serif" font-size="14.00">engagement</text>
</g>
<!-- channel_quality&#45;&gt;engagement -->
<g id="edge1" class="edge">
<title>channel_quality&#45;&gt;engagement</title>
<path fill="none" stroke="black" d="M108.48,-63.54C130.51,-56.85 156.24,-49.05 178.25,-42.38"/>
<polygon fill="black" stroke="black" points="179.05,-45.79 187.6,-39.54 177.02,-39.09 179.05,-45.79"/>
<text text-anchor="middle" x="144.5" y="-59.8" font-family="Times,serif" font-size="14.00">e_ch</text>
</g>
<!-- activated -->
<g id="node4" class="node">
<title>activated</title>
<ellipse fill="none" stroke="black" cx="395.14" cy="-74" rx="42.49" ry="18"/>
<text text-anchor="middle" x="395.14" y="-70.3" font-family="Times,serif" font-size="14.00">activated</text>
</g>
<!-- channel_quality&#45;&gt;activated -->
<g id="edge4" class="edge">
<title>channel_quality&#45;&gt;activated</title>
<path fill="none" stroke="black" d="M108.26,-78.25C170.94,-77.32 277.07,-75.74 340.88,-74.79"/>
<polygon fill="black" stroke="black" points="340.82,-78.29 350.77,-74.64 340.72,-71.29 340.82,-78.29"/>
<text text-anchor="middle" x="229.95" y="-80.8" font-family="Times,serif" font-size="14.00">a_ch</text>
</g>
<!-- onboarding_score -->
<g id="node2" class="node">
<title>onboarding_score</title>
<polygon fill="none" stroke="black" points="113,-36 0,-36 0,0 113,0 113,-36"/>
<text text-anchor="middle" x="56.5" y="-14.3" font-family="Times,serif" font-size="14.00">onboarding_score</text>
</g>
<!-- onboarding_score&#45;&gt;engagement -->
<g id="edge2" class="edge">
<title>onboarding_score&#45;&gt;engagement</title>
<path fill="none" stroke="black" d="M113.35,-17.54C127.9,-17.7 143.54,-18.12 158,-19 161.19,-19.2 164.46,-19.43 167.75,-19.7"/>
<polygon fill="black" stroke="black" points="167.22,-23.17 177.49,-20.58 167.85,-16.2 167.22,-23.17"/>
<text text-anchor="middle" x="144.5" y="-22.8" font-family="Times,serif" font-size="14.00">e_on</text>
</g>
<!-- engagement&#45;&gt;activated -->
<g id="edge3" class="edge">
<title>engagement&#45;&gt;activated</title>
<path fill="none" stroke="black" d="M271.7,-38.74C294.93,-45.43 324.11,-53.83 348.15,-60.76"/>
<polygon fill="black" stroke="black" points="347.11,-64.1 357.69,-63.5 349.05,-57.37 347.11,-64.1"/>
<text text-anchor="middle" x="318.39" y="-59.8" font-family="Times,serif" font-size="14.00">a_eng</text>
</g>
<!-- converted -->
<g id="node5" class="node">
<title>converted</title>
<ellipse fill="none" stroke="black" cx="547.88" cy="-39" rx="45.49" ry="18"/>
<text text-anchor="middle" x="547.88" y="-35.3" font-family="Times,serif" font-size="14.00">converted</text>
</g>
<!-- engagement&#45;&gt;converted -->
<g id="edge6" class="edge">
<title>engagement&#45;&gt;converted</title>
<path fill="none" stroke="black" d="M284,-27.71C325.71,-28.4 385.27,-29.7 437.38,-32 455.02,-32.78 474.24,-33.91 491.59,-35.04"/>
<polygon fill="black" stroke="black" points="490.96,-38.5 501.17,-35.67 491.42,-31.52 490.96,-38.5"/>
<text text-anchor="middle" x="395.14" y="-35.8" font-family="Times,serif" font-size="14.00">c_eng</text>
</g>
<!-- activated&#45;&gt;converted -->
<g id="edge5" class="edge">
<title>activated&#45;&gt;converted</title>
<path fill="none" stroke="black" d="M433.01,-65.44C452.3,-60.96 476.18,-55.42 497.08,-50.56"/>
<polygon fill="black" stroke="black" points="497.59,-54.04 506.54,-48.37 496.01,-47.22 497.59,-54.04"/>
<text text-anchor="middle" x="469.88" y="-62.8" font-family="Times,serif" font-size="14.00">c_act</text>
</g>
</g>
</svg>
