<?xml version="1.0" encoding="UTF-8" standalone="no"?>
<!DOCTYPE svg PUBLIC "-//W3C//DTD SVG 1.1//EN"
 "http://www.w3.org/Graphics/SVG/1.1/DTD/svg11.dtd">
<!-- Generated by graphviz version 7.1.0 (0)
 -->
<!-- Pages: 1 -->
<svg width="457pt" height="769pt"
 viewBox="0.00 0.00 457.00 768.77" xmlns="http://www.w3.org/2000/svg" xmlns:xlink="http://www.w3.org/1999/xlink">
<g id="graph0" class="graph" transform="scale(1 1) rotate(0) translate(4 764.77)">
<polygon fill="white" stroke="none" points="-4,4 -4,-764.77 453,-764.77 453,4 -4,4"/>
<g id="clust1" class="cluster">
<title>cluster800</title>
<path fill="none" stroke="black" d="M20,-8C20,-8 247,-8 247,-8 253,-8 259,-14 259,-20 259,-20 259,-729.79 259,-729.79 259,-735.79 253,-741.79 247,-741.79 247,-741.79 20,-741.79 20,-741.79 14,-741.79 8,-735.79 8,-729.79 8,-729.79 8,-20 8,-20 8,-14 14,-8 20,-8"/>
<text text-anchor="middle" x="240.5" y="-15.8" font-family="Times,serif" font-size="14.00">800</text>
</g>
<g id="clust2" class="cluster">
<title>clusterengagement_predictors (3)</title>
<path fill="none" stroke="black" d="M279,-638.81C279,-638.81 429,-638.81 429,-638.81 435,-638.81 441,-644.81 441,-650.81 441,-650.81 441,-740.77 441,-740.77 441,-746.77 435,-752.77 429,-752.77 429,-752.77 279,-752.77 279,-752.77 273,-752.77 267,-746.77 267,-740.77 267,-740.77 267,-650.81 267,-650.81 267,-644.81 273,-638.81 279,-638.81"/>
<text text-anchor="middle" x="359.5" y="-646.61" font-family="Times,serif" font-size="14.00">engagement_predictors (3)</text>
</g>
<g id="clust3" class="cluster">
<title>clusterconverted_predictors (3)</title>
<path fill="none" stroke="black" d="M279,-210.95C279,-210.95 411,-210.95 411,-210.95 417,-210.95 423,-216.95 423,-222.95 423,-222.95 423,-312.91 423,-312.91 423,-318.91 417,-324.91 411,-324.91 411,-324.91 279,-324.91 279,-324.91 273,-324.91 267,-318.91 267,-312.91 267,-312.91 267,-222.95 267,-222.95 267,-216.95 273,-210.95 279,-210.95"/>
<text text-anchor="middle" x="348" y="-218.75" font-family="Times,serif" font-size="14.00">converted_predictors (3)</text>
</g>
<g id="clust4" class="cluster">
<title>clusteractivated_predictors (3)</title>
<path fill="none" stroke="black" d="M279,-413.91C279,-413.91 405,-413.91 405,-413.91 411,-413.91 417,-419.91 417,-425.91 417,-425.91 417,-515.86 417,-515.86 417,-521.86 411,-527.86 405,-527.86 405,-527.86 279,-527.86 279,-527.86 273,-527.86 267,-521.86 267,-515.86 267,-515.86 267,-425.91 267,-425.91 267,-419.91 273,-413.91 279,-413.91"/>
<text text-anchor="middle" x="344" y="-421.71" font-family="Times,serif" font-size="14.00">activated_predictors (3)</text>
</g>
<!-- channel_quality -->
<g id="node1" class="node">
<title>channel_quality</title>
<path fill="lightgrey" stroke="black" d="M107.5,-733.79C107.5,-733.79 28.5,-733.79 28.5,-733.79 22.5,-733.79 16.5,-727.79 16.5,-721.79 16.5,-721.79 16.5,-692.79 16.5,-692.79 16.5,-686.79 22.5,-680.79 28.5,-680.79 28.5,-680.79 107.5,-680.79 107.5,-680.79 113.5,-680.79 119.5,-686.79 119.5,-692.79 119.5,-692.79 119.5,-721.79 119.5,-721.79 119.5,-727.79 113.5,-733.79 107.5,-733.79"/>
<text text-anchor="middle" x="68" y="-718.59" font-family="Times,serif" font-size="14.00">channel_quality</text>
<text text-anchor="middle" x="68" y="-703.59" font-family="Times,serif" font-size="14.00">~</text>
<text text-anchor="middle" x="68" y="-688.59" font-family="Times,serif" font-size="14.00">Data</text>
</g>
<!-- mu_activated -->
<g id="node2" class="node">
<title>mu_activated</title>
<polygon fill="none" stroke="black" points="246.5,-405.91 155.5,-405.91 155.5,-352.91 246.5,-352.91 246.5,-405.91"/>
<text text-anchor="middle" x="201" y="-390.71" font-family="Times,serif" font-size="14.00">mu_activated</text>
<text text-anchor="middle" x="201" y="-375.71" font-family="Times,serif" font-size="14.00">~</text>
<text text-anchor="middle" x="201" y="-360.71" font-family="Times,serif" font-size="14.00">Deterministic</text>
</g>
<!-- channel_quality&#45;&gt;mu_activated -->
<g id="edge7" class="edge">
<title>channel_quality&#45;&gt;mu_activated</title>
<path fill="none" stroke="black" d="M65.48,-680.37C61.53,-625.02 60.07,-493.81 124,-413.91 129.64,-406.86 137.05,-401.27 145.04,-396.83"/>
<polygon fill="black" stroke="black" points="146.56,-399.98 154.03,-392.47 143.51,-393.69 146.56,-399.98"/>
</g>
<!-- mu_engagement -->
<g id="node4" class="node">
<title>mu_engagement</title>
<polygon fill="none" stroke="black" points="246.5,-619.84 139.5,-619.84 139.5,-566.84 246.5,-566.84 246.5,-619.84"/>
<text text-anchor="middle" x="193" y="-604.64" font-family="Times,serif" font-size="14.00">mu_engagement</text>
<text text-anchor="middle" x="193" y="-589.64" font-family="Times,serif" font-size="14.00">~</text>
<text text-anchor="middle" x="193" y="-574.64" font-family="Times,serif" font-size="14.00">Deterministic</text>
</g>
<!-- channel_quality&#45;&gt;mu_engagement -->
<g id="edge10" class="edge">
<title>channel_quality&#45;&gt;mu_engagement</title>
<path fill="none" stroke="black" d="M89.03,-680.32C100.24,-667.2 114.65,-651.44 129,-638.81 133.57,-634.79 138.51,-630.81 143.55,-626.98"/>
<polygon fill="black" stroke="black" points="145.48,-629.91 151.46,-621.16 141.33,-624.27 145.48,-629.91"/>
</g>
<!-- activated -->
<g id="node3" class="node">
<title>activated</title>
<ellipse fill="lightgrey" stroke="black" cx="202" cy="-279.43" rx="48.17" ry="37.45"/>
<text text-anchor="middle" x="202" y="-290.73" font-family="Times,serif" font-size="14.00">activated</text>
<text text-anchor="middle" x="202" y="-275.73" font-family="Times,serif" font-size="14.00">~</text>
<text text-anchor="middle" x="202" y="-260.73" font-family="Times,serif" font-size="14.00">Bernoulli</text>
</g>
<!-- mu_activated&#45;&gt;activated -->
<g id="edge3" class="edge">
<title>mu_activated&#45;&gt;activated</title>
<path fill="none" stroke="black" d="M201.27,-352.41C201.34,-345.09 201.42,-336.88 201.51,-328.7"/>
<polygon fill="black" stroke="black" points="205.01,-328.8 201.61,-318.76 198.01,-328.72 205.01,-328.8"/>
</g>
<!-- mu_converted -->
<g id="node8" class="node">
<title>mu_converted</title>
<polygon fill="none" stroke="black" points="249.5,-202.95 154.5,-202.95 154.5,-149.95 249.5,-149.95 249.5,-202.95"/>
<text text-anchor="middle" x="202" y="-187.75" font-family="Times,serif" font-size="14.00">mu_converted</text>
<text text-anchor="middle" x="202" y="-172.75" font-family="Times,serif" font-size="14.00">~</text>
<text text-anchor="middle" x="202" y="-157.75" font-family="Times,serif" font-size="14.00">Deterministic</text>
</g>
<!-- activated&#45;&gt;mu_converted -->
<g id="edge5" class="edge">
<title>activated&#45;&gt;mu_converted</title>
<path fill="none" stroke="black" d="M202,-241.69C202,-232.83 202,-223.36 202,-214.48"/>
<polygon fill="black" stroke="black" points="205.5,-214.78 202,-204.78 198.5,-214.78 205.5,-214.78"/>
</g>
<!-- engagement -->
<g id="node5" class="node">
<title>engagement</title>
<ellipse fill="lightgrey" stroke="black" cx="192" cy="-482.38" rx="58.88" ry="37.45"/>
<text text-anchor="middle" x="192" y="-493.68" font-family="Times,serif" font-size="14.00">engagement</text>
<text text-anchor="middle" x="192" y="-478.68" font-family="Times,serif" font-size="14.00">~</text>
<text text-anchor="middle" x="192" y="-463.68" font-family="Times,serif" font-size="14.00">Normal</text>
</g>
<!-- mu_engagement&#45;&gt;engagement -->
<g id="edge2" class="edge">
<title>mu_engagement&#45;&gt;engagement</title>
<path fill="none" stroke="black" d="M192.76,-566.52C192.67,-556.02 192.55,-543.55 192.44,-531.5"/>
<polygon fill="black" stroke="black" points="195.94,-531.63 192.35,-521.66 188.94,-531.7 195.94,-531.63"/>
</g>
<!-- engagement&#45;&gt;mu_activated -->
<g id="edge9" class="edge">
<title>engagement&#45;&gt;mu_activated</title>
<path fill="none" stroke="black" d="M195.27,-444.64C196.06,-435.78 196.91,-426.31 197.7,-417.43"/>
<polygon fill="black" stroke="black" points="201.16,-417.99 198.57,-407.72 194.19,-417.37 201.16,-417.99"/>
</g>
<!-- engagement&#45;&gt;mu_converted -->
<g id="edge6" class="edge">
<title>engagement&#45;&gt;mu_converted</title>
<path fill="none" stroke="black" d="M167.19,-448.16C159.18,-435.58 151.28,-420.71 147,-405.91 140.89,-384.75 141.91,-216.35 145,-210.95 145.52,-210.04 146.08,-209.15 146.68,-208.27"/>
<polygon fill="black" stroke="black" points="149.17,-210.74 153.12,-200.91 143.9,-206.13 149.17,-210.74"/>
</g>
<!-- onboarding_score -->
<g id="node6" class="node">
<title>onboarding_score</title>
<path fill="lightgrey" stroke="black" d="M238.5,-733.79C238.5,-733.79 149.5,-733.79 149.5,-733.79 143.5,-733.79 137.5,-727.79 137.5,-721.79 137.5,-721.79 137.5,-692.79 137.5,-692.79 137.5,-686.79 143.5,-680.79 149.5,-680.79 149.5,-680.79 238.5,-680.79 238.5,-680.79 244.5,-680.79 250.5,-686.79 250.5,-692.79 250.5,-692.79 250.5,-721.79 250.5,-721.79 250.5,-727.79 244.5,-733.79 238.5,-733.79"/>
<text text-anchor="middle" x="194" y="-718.59" font-family="Times,serif" font-size="14.00">onboarding_score</text>
<text text-anchor="middle" x="194" y="-703.59" font-family="Times,serif" font-size="14.00">~</text>
<text text-anchor="middle" x="194" y="-688.59" font-family="Times,serif" font-size="14.00">Data</text>
</g>
<!-- onboarding_score&#45;&gt;mu_engagement -->
<g id="edge12" class="edge">
<title>onboarding_score&#45;&gt;mu_engagement</title>
<path fill="none" stroke="black" d="M193.77,-680.32C193.64,-665.77 193.47,-647.37 193.33,-631.33"/>
<polygon fill="black" stroke="black" points="196.83,-631.64 193.24,-621.68 189.83,-631.71 196.83,-631.64"/>
</g>
<!-- converted -->
<g id="node7" class="node">
<title>converted</title>
<ellipse fill="lightgrey" stroke="black" cx="202" cy="-76.48" rx="49.49" ry="37.45"/>
<text text-anchor="middle" x="202" y="-87.78" font-family="Times,serif" font-size="14.00">converted</text>
<text text-anchor="middle" x="202" y="-72.78" font-family="Times,serif" font-size="14.00">~</text>
<text text-anchor="middle" x="202" y="-57.78" font-family="Times,serif" font-size="14.00">Bernoulli</text>
</g>
<!-- mu_converted&#45;&gt;converted -->
<g id="edge13" class="edge">
<title>mu_converted&#45;&gt;converted</title>
<path fill="none" stroke="black" d="M202,-149.45C202,-142.13 202,-133.93 202,-125.75"/>
<polygon fill="black" stroke="black" points="205.5,-125.81 202,-115.81 198.5,-125.81 205.5,-125.81"/>
</g>
<!-- sigma_engagement -->
<g id="node9" class="node">
<title>sigma_engagement</title>
<ellipse fill="none" stroke="black" cx="353" cy="-593.34" rx="86.03" ry="37.45"/>
<text text-anchor="middle" x="353" y="-604.64" font-family="Times,serif" font-size="14.00">sigma_engagement</text>
<text text-anchor="middle" x="353" y="-589.64" font-family="Times,serif" font-size="14.00">~</text>
<text text-anchor="middle" x="353" y="-574.64" font-family="Times,serif" font-size="14.00">Halfnormal</text>
</g>
<!-- sigma_engagement&#45;&gt;engagement -->
<g id="edge1" class="edge">
<title>sigma_engagement&#45;&gt;engagement</title>
<path fill="none" stroke="black" d="M307.29,-561.41C286.66,-547.44 262.24,-530.92 241.2,-516.68"/>
<polygon fill="black" stroke="black" points="243.29,-513.87 233.05,-511.16 239.37,-519.67 243.29,-513.87"/>
</g>
<!-- beta_engagement -->
<g id="node10" class="node">
<title>beta_engagement</title>
<ellipse fill="none" stroke="black" cx="354" cy="-707.29" rx="79.39" ry="37.45"/>
<text text-anchor="middle" x="354" y="-718.59" font-family="Times,serif" font-size="14.00">beta_engagement</text>
<text text-anchor="middle" x="354" y="-703.59" font-family="Times,serif" font-size="14.00">~</text>
<text text-anchor="middle" x="354" y="-688.59" font-family="Times,serif" font-size="14.00">Normal</text>
</g>
<!-- beta_engagement&#45;&gt;mu_engagement -->
<g id="edge11" class="edge">
<title>beta_engagement&#45;&gt;mu_engagement</title>
<path fill="none" stroke="black" d="M313.23,-675.09C297.69,-663.45 279.7,-650.29 263,-638.81 256.94,-634.65 250.51,-630.38 244.11,-626.21"/>
<polygon fill="black" stroke="black" points="246.35,-623.49 236.05,-621.01 242.56,-629.37 246.35,-623.49"/>
</g>
<!-- beta_converted -->
<g id="node11" class="node">
<title>beta_converted</title>
<ellipse fill="none" stroke="black" cx="345" cy="-279.43" rx="70.01" ry="37.45"/>
<text text-anchor="middle" x="345" y="-290.73" font-family="Times,serif" font-size="14.00">beta_converted</text>
<text text-anchor="middle" x="345" y="-275.73" font-family="Times,serif" font-size="14.00">~</text>
<text text-anchor="middle" x="345" y="-260.73" font-family="Times,serif" font-size="14.00">Normal</text>
</g>
<!-- beta_converted&#45;&gt;mu_converted -->
<g id="edge4" class="edge">
<title>beta_converted&#45;&gt;mu_converted</title>
<path fill="none" stroke="black" d="M309.39,-246.69C295.38,-234.86 278.87,-221.71 263,-210.95 261.82,-210.15 260.62,-209.36 259.4,-208.56"/>
<polygon fill="black" stroke="black" points="261.43,-205.7 251.09,-203.38 257.72,-211.64 261.43,-205.7"/>
</g>
<!-- beta_activated -->
<g id="node12" class="node">
<title>beta_activated</title>
<ellipse fill="none" stroke="black" cx="342" cy="-482.38" rx="67.35" ry="37.45"/>
<text text-anchor="middle" x="342" y="-493.68" font-family="Times,serif" font-size="14.00">beta_activated</text>
<text text-anchor="middle" x="342" y="-478.68" font-family="Times,serif" font-size="14.00">~</text>
<text text-anchor="middle" x="342" y="-463.68" font-family="Times,serif" font-size="14.00">Normal</text>
</g>
<!-- beta_activated&#45;&gt;mu_activated -->
<g id="edge8" class="edge">
<title>beta_activated&#45;&gt;mu_activated</title>
<path fill="none" stroke="black" d="M308.27,-449.83C294.72,-437.89 278.62,-424.62 263,-413.91 260.83,-412.42 258.59,-410.94 256.3,-409.49"/>
<polygon fill="black" stroke="black" points="258.36,-406.65 247.99,-404.44 254.72,-412.63 258.36,-406.65"/>
</g>
</g>
</svg>
