<?xml version="1.0" encoding="UTF-8" standalone="no"?>
<!DOCTYPE svg PUBLIC "-//W3C//DTD SVG 1.1//EN"
 "http://www.w3.org/Graphics/SVG/1.1/DTD/svg11.dtd">
<!-- Generated by graphviz version 12.2.1 (0)
 -->
<!-- Pages: 1 -->
<svg width="255pt" height="74pt"
 viewBox="0.00 0.00 254.75 74.00" xmlns="http://www.w3.org/2000/svg" xmlns:xlink="http://www.w3.org/1999/xlink">
<g id="graph0" class="graph" transform="scale(1 1) rotate(0) translate(4 70)">
<polygon fill="white" stroke="none" points="-4,4 -4,-70 250.75,-70 250.75,4 -4,4"/>
<!-- X -->
<g id="node1" class="node">
<title>X</title>
<polygon fill="none" stroke="black" points="54,-36 0,-36 0,0 54,0 54,-36"/>
<text text-anchor="middle" x="27" y="-12.95" font-family="Times,serif" font-size="14.00">X</text>
</g>
<!-- M -->
<g id="node2" class="node">
<title>M</title>
<ellipse fill="none" stroke="black" cx="123" cy="-48" rx="27" ry="18"/>
<text text-anchor="middle" x="123" y="-42.95" font-family="Times,serif" font-size="14.00">M</text>
</g>
<!-- X&#45;&gt;M -->
<g id="edge1" class="edge">
<title>X&#45;&gt;M</title>
<path fill="none" stroke="black" d="M54.43,-26.44C64.59,-29.68 76.34,-33.43 87.17,-36.88"/>
<polygon fill="black" stroke="black" points="85.98,-40.18 96.57,-39.88 88.11,-33.51 85.98,-40.18"/>
<text text-anchor="middle" x="75" y="-37.1" font-family="Times,serif" font-size="14.00">a</text>
</g>
<!-- Y -->
<g id="node3" class="node">
<title>Y</title>
<ellipse fill="none" stroke="black" cx="219.75" cy="-18" rx="27" ry="18"/>
<text text-anchor="middle" x="219.75" y="-12.95" font-family="Times,serif" font-size="14.00">Y</text>
</g>
<!-- X&#45;&gt;Y -->
<g id="edge3" class="edge">
<title>X&#45;&gt;Y</title>
<path fill="none" stroke="black" d="M54.12,-18C86.9,-18 143.35,-18 180.87,-18"/>
<polygon fill="black" stroke="black" points="180.82,-21.5 190.82,-18 180.82,-14.5 180.82,-21.5"/>
</g>
<!-- M&#45;&gt;Y -->
<g id="edge2" class="edge">
<title>M&#45;&gt;Y</title>
<path fill="none" stroke="black" d="M147.91,-40.43C158.91,-36.95 172.16,-32.75 184.21,-28.93"/>
<polygon fill="black" stroke="black" points="184.93,-32.38 193.41,-26.02 182.82,-25.71 184.93,-32.38"/>
<text text-anchor="middle" x="171.38" y="-37.1" font-family="Times,serif" font-size="14.00">b</text>
</g>
</g>
</svg>
