<?xml version="1.0" encoding="UTF-8" standalone="no"?>
<!DOCTYPE svg PUBLIC "-//W3C//DTD SVG 1.1//EN"
 "http://www.w3.org/Graphics/SVG/1.1/DTD/svg11.dtd">
<!-- Generated by graphviz version 7.1.0 (0)
 -->
<!-- Pages: 1 -->
<svg width="256pt" height="74pt"
 viewBox="0.00 0.00 256.00 74.00" xmlns="http://www.w3.org/2000/svg" xmlns:xlink="http://www.w3.org/1999/xlink">
<g id="graph0" class="graph" transform="scale(1 1) rotate(0) translate(4 70)">
<polygon fill="white" stroke="none" points="-4,4 -4,-70 252,-70 252,4 -4,4"/>
<!-- X -->
<g id="node1" class="node">
<title>X</title>
<polygon fill="none" stroke="black" points="54,-36 0,-36 0,0 54,0 54,-36"/>
<text text-anchor="middle" x="27" y="-14.3" font-family="Times,serif" font-size="14.00">X</text>
</g>
<!-- M -->
<g id="node2" class="node">
<title>M</title>
<ellipse fill="none" stroke="black" cx="124" cy="-48" rx="27" ry="18"/>
<text text-anchor="middle" x="124" y="-44.3" font-family="Times,serif" font-size="14.00">M</text>
</g>
<!-- X&#45;&gt;M -->
<g id="edge1" class="edge">
<title>X&#45;&gt;M</title>
<path fill="none" stroke="black" d="M54.46,-26.36C64.92,-29.66 77.09,-33.5 88.24,-37.02"/>
<polygon fill="black" stroke="black" points="86.92,-40.28 97.51,-39.95 89.03,-33.6 86.92,-40.28"/>
<text text-anchor="middle" x="75.5" y="-36.8" font-family="Times,serif" font-size="14.00">a</text>
</g>
<!-- Y -->
<g id="node3" class="node">
<title>Y</title>
<ellipse fill="none" stroke="black" cx="221" cy="-18" rx="27" ry="18"/>
<text text-anchor="middle" x="221" y="-14.3" font-family="Times,serif" font-size="14.00">Y</text>
</g>
<!-- X&#45;&gt;Y -->
<g id="edge3" class="edge">
<title>X&#45;&gt;Y</title>
<path fill="none" stroke="black" d="M54.29,-18C87.52,-18 144.92,-18 182.68,-18"/>
<polygon fill="black" stroke="black" points="182.2,-21.5 192.2,-18 182.2,-14.5 182.2,-21.5"/>
</g>
<!-- M&#45;&gt;Y -->
<g id="edge2" class="edge">
<title>M&#45;&gt;Y</title>
<path fill="none" stroke="black" d="M148.97,-40.43C160,-36.95 173.29,-32.75 185.37,-28.93"/>
<polygon fill="black" stroke="black" points="186.11,-32.37 194.59,-26.02 184,-25.7 186.11,-32.37"/>
<text text-anchor="middle" x="172.5" y="-36.8" font-family="Times,serif" font-size="14.00">b</text>
</g>
</g>
</svg>
