<?xml version="1.0" encoding="UTF-8" standalone="no"?>
<!DOCTYPE svg PUBLIC "-//W3C//DTD SVG 1.1//EN"
 "http://www.w3.org/Graphics/SVG/1.1/DTD/svg11.dtd">
<!-- Generated by graphviz version 7.1.0 (0)
 -->
<!-- Pages: 1 -->
<svg width="367pt" height="80pt"
 viewBox="0.00 0.00 366.59 80.00" xmlns="http://www.w3.org/2000/svg" xmlns:xlink="http://www.w3.org/1999/xlink">
<g id="graph0" class="graph" transform="scale(1 1) rotate(0) translate(4 76)">
<polygon fill="white" stroke="none" points="-4,4 -4,-76 362.59,-76 362.59,4 -4,4"/>
<!-- foot_traffic -->
<g id="node1" class="node">
<title>foot_traffic</title>
<polygon fill="none" stroke="black" points="78,-36 0,-36 0,0 78,0 78,-36"/>
<text text-anchor="middle" x="39" y="-14.3" font-family="Times,serif" font-size="14.00">foot_traffic</text>
</g>
<!-- promo -->
<g id="node2" class="node">
<title>promo</title>
<ellipse fill="none" stroke="black" cx="149.45" cy="-52" rx="34.39" ry="18"/>
<text text-anchor="middle" x="149.45" y="-48.3" font-family="Times,serif" font-size="14.00">promo</text>
</g>
<!-- foot_traffic&#45;&gt;promo -->
<g id="edge1" class="edge">
<title>foot_traffic&#45;&gt;promo</title>
<path fill="none" stroke="black" d="M78.23,-29.99C88.07,-33.07 98.68,-36.4 108.59,-39.51"/>
<polygon fill="black" stroke="black" points="107.38,-42.79 117.97,-42.45 109.48,-36.11 107.38,-42.79"/>
</g>
<!-- revenue -->
<g id="node3" class="node">
<title>revenue</title>
<ellipse fill="none" stroke="black" cx="320.24" cy="-39" rx="38.19" ry="18"/>
<text text-anchor="middle" x="320.24" y="-35.3" font-family="Times,serif" font-size="14.00">revenue</text>
</g>
<!-- foot_traffic&#45;&gt;revenue -->
<g id="edge4" class="edge">
<title>foot_traffic&#45;&gt;revenue</title>
<path fill="none" stroke="black" d="M78.14,-18.69C122.79,-19.82 198.91,-22.7 263.89,-30 266.73,-30.32 269.64,-30.68 272.58,-31.08"/>
<polygon fill="black" stroke="black" points="271.98,-34.53 282.38,-32.5 272.99,-27.6 271.98,-34.53"/>
</g>
<!-- promo&#45;&gt;revenue -->
<g id="edge2" class="edge">
<title>promo&#45;&gt;revenue</title>
<path fill="none" stroke="black" d="M183.38,-55.76C206.11,-57.64 236.97,-58.81 263.89,-55 268.33,-54.37 272.92,-53.47 277.46,-52.42"/>
<polygon fill="black" stroke="black" points="278.28,-55.82 287.08,-49.91 276.52,-49.04 278.28,-55.82"/>
<text text-anchor="middle" x="232.89" y="-60.8" font-family="Times,serif" font-size="14.00">b_contemp</text>
</g>
<!-- promo&#45;&gt;revenue -->
<g id="edge3" class="edge">
<title>promo&#45;&gt;revenue</title>
<path fill="none" stroke="black" stroke-dasharray="5,2" d="M178.12,-41.72C185.72,-39.36 194.03,-37.19 201.89,-36 224.59,-32.55 250.03,-32.72 271.41,-33.99"/>
<polygon fill="black" stroke="black" points="271.09,-37.47 281.31,-34.68 271.58,-30.49 271.09,-37.47"/>
<text text-anchor="middle" x="232.89" y="-39.8" font-family="Times,serif" font-size="14.00">b_lag (t−1)</text>
</g>
</g>
</svg>
