<?xml version="1.0" encoding="UTF-8" standalone="no"?>
<!DOCTYPE svg PUBLIC "-//W3C//DTD SVG 1.1//EN"
 "http://www.w3.org/Graphics/SVG/1.1/DTD/svg11.dtd">
<!-- Generated by graphviz version 7.1.0 (0)
 -->
<!-- Pages: 1 -->
<svg width="355pt" height="78pt"
 viewBox="0.00 0.00 354.59 78.00" xmlns="http://www.w3.org/2000/svg" xmlns:xlink="http://www.w3.org/1999/xlink">
<g id="graph0" class="graph" transform="scale(1 1) rotate(0) translate(4 74)">
<polygon fill="white" stroke="none" points="-4,4 -4,-74 350.59,-74 350.59,4 -4,4"/>
<!-- foot_traffic -->
<g id="node1" class="node">
<title>foot_traffic</title>
<polygon fill="none" stroke="black" points="78,-36 0,-36 0,0 78,0 78,-36"/>
<text text-anchor="middle" x="39" y="-14.3" font-family="Times,serif" font-size="14.00">foot_traffic</text>
</g>
<!-- promo -->
<g id="node2" class="node">
<title>promo</title>
<ellipse fill="none" stroke="black" cx="149.45" cy="-52" rx="34.39" ry="18"/>
<text text-anchor="middle" x="149.45" y="-48.3" font-family="Times,serif" font-size="14.00">promo</text>
</g>
<!-- foot_traffic&#45;&gt;promo -->
<g id="edge1" class="edge">
<title>foot_traffic&#45;&gt;promo</title>
<path fill="none" stroke="black" d="M78.23,-29.99C88.07,-33.07 98.68,-36.4 108.59,-39.51"/>
<polygon fill="black" stroke="black" points="107.38,-42.79 117.97,-42.45 109.48,-36.11 107.38,-42.79"/>
</g>
<!-- revenue -->
<g id="node3" class="node">
<title>revenue</title>
<ellipse fill="none" stroke="black" cx="308.24" cy="-22" rx="38.19" ry="18"/>
<text text-anchor="middle" x="308.24" y="-18.3" font-family="Times,serif" font-size="14.00">revenue</text>
</g>
<!-- foot_traffic&#45;&gt;revenue -->
<g id="edge3" class="edge">
<title>foot_traffic&#45;&gt;revenue</title>
<path fill="none" stroke="black" d="M78.29,-18.57C125.79,-19.28 206.82,-20.5 258.65,-21.27"/>
<polygon fill="black" stroke="black" points="258.32,-24.77 268.37,-21.42 258.42,-17.77 258.32,-24.77"/>
</g>
<!-- promo&#45;&gt;revenue -->
<g id="edge2" class="edge">
<title>promo&#45;&gt;revenue</title>
<path fill="none" stroke="black" d="M182.18,-45.93C204.84,-41.59 235.67,-35.69 261.05,-30.84"/>
<polygon fill="black" stroke="black" points="261.63,-34.29 270.8,-28.97 260.32,-27.41 261.63,-34.29"/>
<text text-anchor="middle" x="226.89" y="-44.8" font-family="Times,serif" font-size="14.00">b_promo</text>
</g>
</g>
</svg>
