<?xml version="1.0" encoding="UTF-8" standalone="no"?>
<!DOCTYPE svg PUBLIC "-//W3C//DTD SVG 1.1//EN"
 "http://www.w3.org/Graphics/SVG/1.1/DTD/svg11.dtd">
<!-- Generated by graphviz version 7.1.0 (0)
 -->
<!-- Pages: 1 -->
<svg width="294pt" height="213pt"
 viewBox="0.00 0.00 293.99 213.00" xmlns="http://www.w3.org/2000/svg" xmlns:xlink="http://www.w3.org/1999/xlink">
<g id="graph0" class="graph" transform="scale(1 1) rotate(0) translate(4 209)">
<polygon fill="white" stroke="none" points="-4,4 -4,-209 289.99,-209 289.99,4 -4,4"/>
<!-- price -->
<g id="node1" class="node">
<title>price</title>
<polygon fill="none" stroke="black" points="82,-205 28,-205 28,-169 82,-169 82,-205"/>
<text text-anchor="middle" x="55" y="-183.3" font-family="Times,serif" font-size="14.00">price</text>
</g>
<!-- demand -->
<g id="node5" class="node">
<title>demand</title>
<ellipse fill="none" stroke="black" cx="247" cy="-118" rx="38.99" ry="18"/>
<text text-anchor="middle" x="247" y="-114.3" font-family="Times,serif" font-size="14.00">demand</text>
</g>
<!-- price&#45;&gt;demand -->
<g id="edge1" class="edge">
<title>price&#45;&gt;demand</title>
<path fill="none" stroke="black" d="M82.27,-188.92C110.31,-189.88 155.36,-188.28 190,-172 203.75,-165.54 216.23,-154.33 225.9,-143.79"/>
<polygon fill="black" stroke="black" points="228.43,-146.21 232.34,-136.36 223.14,-141.62 228.43,-146.21"/>
<text text-anchor="middle" x="159" y="-190.8" font-family="Times,serif" font-size="14.00">b_price</text>
</g>
<!-- price&#45;&gt;demand -->
<g id="edge2" class="edge">
<title>price&#45;&gt;demand</title>
<path fill="none" stroke="black" stroke-dasharray="5,2" d="M82.25,-173.42C95.71,-166.76 112.5,-158.92 128,-153 135.2,-150.25 171.77,-139.48 202.31,-130.61"/>
<polygon fill="black" stroke="black" points="203.14,-134.01 211.77,-127.86 201.19,-127.29 203.14,-134.01"/>
<text text-anchor="middle" x="159" y="-156.8" font-family="Times,serif" font-size="14.00">b_lag (t−1)</text>
</g>
<!-- competitor_price -->
<g id="node2" class="node">
<title>competitor_price</title>
<polygon fill="none" stroke="black" points="110,-144 0,-144 0,-108 110,-108 110,-144"/>
<text text-anchor="middle" x="55" y="-122.3" font-family="Times,serif" font-size="14.00">competitor_price</text>
</g>
<!-- competitor_price&#45;&gt;demand -->
<g id="edge3" class="edge">
<title>competitor_price&#45;&gt;demand</title>
<path fill="none" stroke="black" d="M110.22,-120.21C116.21,-119.73 122.23,-119.3 128,-119 150.44,-117.82 175.31,-117.46 196.41,-117.45"/>
<polygon fill="black" stroke="black" points="196.19,-120.95 206.2,-117.47 196.2,-113.95 196.19,-120.95"/>
<text text-anchor="middle" x="159" y="-122.8" font-family="Times,serif" font-size="14.00">b_comp</text>
</g>
<!-- season -->
<g id="node3" class="node">
<title>season</title>
<polygon fill="none" stroke="black" points="82,-90 28,-90 28,-54 82,-54 82,-90"/>
<text text-anchor="middle" x="55" y="-68.3" font-family="Times,serif" font-size="14.00">season</text>
</g>
<!-- season&#45;&gt;demand -->
<g id="edge4" class="edge">
<title>season&#45;&gt;demand</title>
<path fill="none" stroke="black" d="M82.46,-75.92C109.69,-80.24 153.2,-87.92 190,-98 195.14,-99.41 200.49,-101.06 205.75,-102.81"/>
<polygon fill="black" stroke="black" points="204.31,-106.01 214.9,-105.97 206.59,-99.39 204.31,-106.01"/>
<text text-anchor="middle" x="159" y="-101.8" font-family="Times,serif" font-size="14.00">b_season</text>
</g>
<!-- trend -->
<g id="node4" class="node">
<title>trend</title>
<polygon fill="none" stroke="black" points="82,-36 28,-36 28,0 82,0 82,-36"/>
<text text-anchor="middle" x="55" y="-14.3" font-family="Times,serif" font-size="14.00">trend</text>
</g>
<!-- trend&#45;&gt;demand -->
<g id="edge5" class="edge">
<title>trend&#45;&gt;demand</title>
<path fill="none" stroke="black" d="M82.38,-28.34C109.92,-39.52 154.02,-58.5 190,-79 198.88,-84.06 208.13,-90.13 216.5,-95.97"/>
<polygon fill="black" stroke="black" points="214.43,-98.79 224.6,-101.75 218.5,-93.1 214.43,-98.79"/>
</g>
</g>
</svg>
