<?xml version="1.0" encoding="UTF-8" standalone="no"?>
<!DOCTYPE svg PUBLIC "-//W3C//DTD SVG 1.1//EN"
 "http://www.w3.org/Graphics/SVG/1.1/DTD/svg11.dtd">
<!-- Generated by graphviz version 7.1.0 (0)
 -->
<!-- Pages: 1 -->
<svg width="1101pt" height="458pt"
 viewBox="0.00 0.00 1100.56 457.81" xmlns="http://www.w3.org/2000/svg" xmlns:xlink="http://www.w3.org/1999/xlink">
<g id="graph0" class="graph" transform="scale(1 1) rotate(0) translate(4 453.81)">
<polygon fill="white" stroke="none" points="-4,4 -4,-453.81 1096.56,-453.81 1096.56,4 -4,4"/>
<g id="clust1" class="cluster">
<title>cluster40 x 5</title>
<path fill="none" stroke="black" d="M604.56,-8C604.56,-8 922.56,-8 922.56,-8 928.56,-8 934.56,-14 934.56,-20 934.56,-20 934.56,-323.88 934.56,-323.88 934.56,-329.88 928.56,-335.88 922.56,-335.88 922.56,-335.88 604.56,-335.88 604.56,-335.88 598.56,-335.88 592.56,-329.88 592.56,-323.88 592.56,-323.88 592.56,-20 592.56,-20 592.56,-14 598.56,-8 604.56,-8"/>
<text text-anchor="middle" x="909.06" y="-15.8" font-family="Times,serif" font-size="14.00">40 x 5</text>
</g>
<g id="clust2" class="cluster">
<title>clusterunit (5)</title>
<path fill="none" stroke="black" d="M244.56,-232.91C244.56,-232.91 572.56,-232.91 572.56,-232.91 578.56,-232.91 584.56,-238.91 584.56,-244.91 584.56,-244.91 584.56,-334.86 584.56,-334.86 584.56,-340.86 578.56,-346.86 572.56,-346.86 572.56,-346.86 244.56,-346.86 244.56,-346.86 238.56,-346.86 232.56,-340.86 232.56,-334.86 232.56,-334.86 232.56,-244.91 232.56,-244.91 232.56,-238.91 238.56,-232.91 244.56,-232.91"/>
<text text-anchor="middle" x="556.06" y="-240.71" font-family="Times,serif" font-size="14.00">unit (5)</text>
</g>
<g id="clust3" class="cluster">
<title>clusterdemand_predictors (6)</title>
<path fill="none" stroke="black" d="M954.56,-232.91C954.56,-232.91 1072.56,-232.91 1072.56,-232.91 1078.56,-232.91 1084.56,-238.91 1084.56,-244.91 1084.56,-244.91 1084.56,-334.86 1084.56,-334.86 1084.56,-340.86 1078.56,-346.86 1072.56,-346.86 1072.56,-346.86 954.56,-346.86 954.56,-346.86 948.56,-346.86 942.56,-340.86 942.56,-334.86 942.56,-334.86 942.56,-244.91 942.56,-244.91 942.56,-238.91 948.56,-232.91 954.56,-232.91"/>
<text text-anchor="middle" x="1014.56" y="-240.71" font-family="Times,serif" font-size="14.00">demand_predictors (6)</text>
</g>
<!-- mu_alpha_demand -->
<g id="node1" class="node">
<title>mu_alpha_demand</title>
<ellipse fill="none" stroke="black" cx="85.56" cy="-412.34" rx="85.62" ry="37.45"/>
<text text-anchor="middle" x="85.56" y="-423.64" font-family="Times,serif" font-size="14.00">mu_alpha_demand</text>
<text text-anchor="middle" x="85.56" y="-408.64" font-family="Times,serif" font-size="14.00">~</text>
<text text-anchor="middle" x="85.56" y="-393.64" font-family="Times,serif" font-size="14.00">Normal</text>
</g>
<!-- alpha_demand -->
<g id="node13" class="node">
<title>alpha_demand</title>
<ellipse fill="none" stroke="black" cx="308.56" cy="-301.38" rx="67.76" ry="37.45"/>
<text text-anchor="middle" x="308.56" y="-312.68" font-family="Times,serif" font-size="14.00">alpha_demand</text>
<text text-anchor="middle" x="308.56" y="-297.68" font-family="Times,serif" font-size="14.00">~</text>
<text text-anchor="middle" x="308.56" y="-282.68" font-family="Times,serif" font-size="14.00">Normal</text>
</g>
<!-- mu_alpha_demand&#45;&gt;alpha_demand -->
<g id="edge3" class="edge">
<title>mu_alpha_demand&#45;&gt;alpha_demand</title>
<path fill="none" stroke="black" d="M141.83,-383.84C174.34,-367.96 215.22,-347.99 248.37,-331.79"/>
<polygon fill="black" stroke="black" points="249.58,-335.09 257.03,-327.56 246.51,-328.8 249.58,-335.09"/>
</g>
<!-- sigma_alpha_demand -->
<g id="node2" class="node">
<title>sigma_alpha_demand</title>
<ellipse fill="none" stroke="black" cx="285.56" cy="-412.34" rx="96.33" ry="37.45"/>
<text text-anchor="middle" x="285.56" y="-423.64" font-family="Times,serif" font-size="14.00">sigma_alpha_demand</text>
<text text-anchor="middle" x="285.56" y="-408.64" font-family="Times,serif" font-size="14.00">~</text>
<text text-anchor="middle" x="285.56" y="-393.64" font-family="Times,serif" font-size="14.00">Halfnormal</text>
</g>
<!-- sigma_alpha_demand&#45;&gt;alpha_demand -->
<g id="edge4" class="edge">
<title>sigma_alpha_demand&#45;&gt;alpha_demand</title>
<path fill="none" stroke="black" d="M293.28,-374.75C294.95,-366.85 296.74,-358.38 298.48,-350.12"/>
<polygon fill="black" stroke="black" points="301.86,-351.04 300.51,-340.54 295.02,-349.6 301.86,-351.04"/>
</g>
<!-- mu_slope_demand_price -->
<g id="node3" class="node">
<title>mu_slope_demand_price</title>
<ellipse fill="none" stroke="black" cx="508.56" cy="-412.34" rx="108.79" ry="37.45"/>
<text text-anchor="middle" x="508.56" y="-423.64" font-family="Times,serif" font-size="14.00">mu_slope_demand_price</text>
<text text-anchor="middle" x="508.56" y="-408.64" font-family="Times,serif" font-size="14.00">~</text>
<text text-anchor="middle" x="508.56" y="-393.64" font-family="Times,serif" font-size="14.00">Normal</text>
</g>
<!-- slope_demand_price -->
<g id="node14" class="node">
<title>slope_demand_price</title>
<ellipse fill="none" stroke="black" cx="485.56" cy="-301.38" rx="91.43" ry="37.45"/>
<text text-anchor="middle" x="485.56" y="-312.68" font-family="Times,serif" font-size="14.00">slope_demand_price</text>
<text text-anchor="middle" x="485.56" y="-297.68" font-family="Times,serif" font-size="14.00">~</text>
<text text-anchor="middle" x="485.56" y="-282.68" font-family="Times,serif" font-size="14.00">Normal</text>
</g>
<!-- mu_slope_demand_price&#45;&gt;slope_demand_price -->
<g id="edge1" class="edge">
<title>mu_slope_demand_price&#45;&gt;slope_demand_price</title>
<path fill="none" stroke="black" d="M500.84,-374.75C499.17,-366.85 497.38,-358.38 495.64,-350.12"/>
<polygon fill="black" stroke="black" points="499.1,-349.6 493.61,-340.54 492.25,-351.04 499.1,-349.6"/>
</g>
<!-- sigma_demand -->
<g id="node4" class="node">
<title>sigma_demand</title>
<ellipse fill="none" stroke="black" cx="1013.56" cy="-187.43" rx="70.92" ry="37.45"/>
<text text-anchor="middle" x="1013.56" y="-198.73" font-family="Times,serif" font-size="14.00">sigma_demand</text>
<text text-anchor="middle" x="1013.56" y="-183.73" font-family="Times,serif" font-size="14.00">~</text>
<text text-anchor="middle" x="1013.56" y="-168.73" font-family="Times,serif" font-size="14.00">Halfnormal</text>
</g>
<!-- demand -->
<g id="node9" class="node">
<title>demand</title>
<ellipse fill="lightgrey" stroke="black" cx="851.56" cy="-76.48" rx="42.35" ry="37.45"/>
<text text-anchor="middle" x="851.56" y="-87.78" font-family="Times,serif" font-size="14.00">demand</text>
<text text-anchor="middle" x="851.56" y="-72.78" font-family="Times,serif" font-size="14.00">~</text>
<text text-anchor="middle" x="851.56" y="-57.78" font-family="Times,serif" font-size="14.00">Normal</text>
</g>
<!-- sigma_demand&#45;&gt;demand -->
<g id="edge12" class="edge">
<title>sigma_demand&#45;&gt;demand</title>
<path fill="none" stroke="black" d="M970.57,-157.52C947.01,-141.67 917.9,-122.09 894.36,-106.26"/>
<polygon fill="black" stroke="black" points="896.49,-103.48 886.24,-100.8 892.58,-109.29 896.49,-103.48"/>
</g>
<!-- sigma_slope_demand_price -->
<g id="node5" class="node">
<title>sigma_slope_demand_price</title>
<ellipse fill="none" stroke="black" cx="754.56" cy="-412.34" rx="119.5" ry="37.45"/>
<text text-anchor="middle" x="754.56" y="-423.64" font-family="Times,serif" font-size="14.00">sigma_slope_demand_price</text>
<text text-anchor="middle" x="754.56" y="-408.64" font-family="Times,serif" font-size="14.00">~</text>
<text text-anchor="middle" x="754.56" y="-393.64" font-family="Times,serif" font-size="14.00">Halfnormal</text>
</g>
<!-- sigma_slope_demand_price&#45;&gt;slope_demand_price -->
<g id="edge2" class="edge">
<title>sigma_slope_demand_price&#45;&gt;slope_demand_price</title>
<path fill="none" stroke="black" d="M679.54,-382.88C650.97,-371.86 618.17,-359 588.56,-346.86 578.49,-342.73 567.91,-338.29 557.52,-333.86"/>
<polygon fill="black" stroke="black" points="559.18,-330.76 548.61,-330.05 556.43,-337.2 559.18,-330.76"/>
</g>
<!-- _use_observed_carry -->
<g id="node6" class="node">
<title>_use_observed_carry</title>
<path fill="lightgrey" stroke="black" d="M1011.06,-438.84C1011.06,-438.84 904.06,-438.84 904.06,-438.84 898.06,-438.84 892.06,-432.84 892.06,-426.84 892.06,-426.84 892.06,-397.84 892.06,-397.84 892.06,-391.84 898.06,-385.84 904.06,-385.84 904.06,-385.84 1011.06,-385.84 1011.06,-385.84 1017.06,-385.84 1023.06,-391.84 1023.06,-397.84 1023.06,-397.84 1023.06,-426.84 1023.06,-426.84 1023.06,-432.84 1017.06,-438.84 1011.06,-438.84"/>
<text text-anchor="middle" x="957.56" y="-423.64" font-family="Times,serif" font-size="14.00">_use_observed_carry</text>
<text text-anchor="middle" x="957.56" y="-408.64" font-family="Times,serif" font-size="14.00">~</text>
<text text-anchor="middle" x="957.56" y="-393.64" font-family="Times,serif" font-size="14.00">Data</text>
</g>
<!-- mu_demand -->
<g id="node7" class="node">
<title>mu_demand</title>
<polygon fill="none" stroke="black" points="833.06,-213.93 742.06,-213.93 742.06,-160.93 833.06,-160.93 833.06,-213.93"/>
<text text-anchor="middle" x="787.56" y="-198.73" font-family="Times,serif" font-size="14.00">mu_demand</text>
<text text-anchor="middle" x="787.56" y="-183.73" font-family="Times,serif" font-size="14.00">~</text>
<text text-anchor="middle" x="787.56" y="-168.73" font-family="Times,serif" font-size="14.00">Deterministic</text>
</g>
<!-- mu_demand&#45;&gt;demand -->
<g id="edge13" class="edge">
<title>mu_demand&#45;&gt;demand</title>
<path fill="none" stroke="black" d="M802.73,-160.61C809.87,-148.46 818.57,-133.64 826.64,-119.91"/>
<polygon fill="black" stroke="black" points="829.55,-121.85 831.6,-111.45 823.52,-118.3 829.55,-121.85"/>
</g>
<!-- price -->
<g id="node8" class="node">
<title>price</title>
<path fill="lightgrey" stroke="black" d="M914.56,-327.88C914.56,-327.88 884.56,-327.88 884.56,-327.88 878.56,-327.88 872.56,-321.88 872.56,-315.88 872.56,-315.88 872.56,-286.88 872.56,-286.88 872.56,-280.88 878.56,-274.88 884.56,-274.88 884.56,-274.88 914.56,-274.88 914.56,-274.88 920.56,-274.88 926.56,-280.88 926.56,-286.88 926.56,-286.88 926.56,-315.88 926.56,-315.88 926.56,-321.88 920.56,-327.88 914.56,-327.88"/>
<text text-anchor="middle" x="899.56" y="-312.68" font-family="Times,serif" font-size="14.00">price</text>
<text text-anchor="middle" x="899.56" y="-297.68" font-family="Times,serif" font-size="14.00">~</text>
<text text-anchor="middle" x="899.56" y="-282.68" font-family="Times,serif" font-size="14.00">Data</text>
</g>
<!-- price&#45;&gt;mu_demand -->
<g id="edge9" class="edge">
<title>price&#45;&gt;mu_demand</title>
<path fill="none" stroke="black" d="M889.82,-274.53C883.77,-260.98 874.97,-244.78 863.56,-232.91 857.53,-226.63 850.41,-220.94 843,-215.9"/>
<polygon fill="black" stroke="black" points="845.11,-213.09 834.79,-210.67 841.35,-218.99 845.11,-213.09"/>
</g>
<!-- trend -->
<g id="node10" class="node">
<title>trend</title>
<path fill="lightgrey" stroke="black" d="M842.56,-327.88C842.56,-327.88 812.56,-327.88 812.56,-327.88 806.56,-327.88 800.56,-321.88 800.56,-315.88 800.56,-315.88 800.56,-286.88 800.56,-286.88 800.56,-280.88 806.56,-274.88 812.56,-274.88 812.56,-274.88 842.56,-274.88 842.56,-274.88 848.56,-274.88 854.56,-280.88 854.56,-286.88 854.56,-286.88 854.56,-315.88 854.56,-315.88 854.56,-321.88 848.56,-327.88 842.56,-327.88"/>
<text text-anchor="middle" x="827.56" y="-312.68" font-family="Times,serif" font-size="14.00">trend</text>
<text text-anchor="middle" x="827.56" y="-297.68" font-family="Times,serif" font-size="14.00">~</text>
<text text-anchor="middle" x="827.56" y="-282.68" font-family="Times,serif" font-size="14.00">Data</text>
</g>
<!-- trend&#45;&gt;mu_demand -->
<g id="edge5" class="edge">
<title>trend&#45;&gt;mu_demand</title>
<path fill="none" stroke="black" d="M818.28,-274.42C813.03,-259.72 806.38,-241.11 800.61,-224.96"/>
<polygon fill="black" stroke="black" points="803.96,-223.92 797.3,-215.68 797.36,-226.27 803.96,-223.92"/>
</g>
<!-- season -->
<g id="node11" class="node">
<title>season</title>
<path fill="lightgrey" stroke="black" d="M770.56,-327.88C770.56,-327.88 740.56,-327.88 740.56,-327.88 734.56,-327.88 728.56,-321.88 728.56,-315.88 728.56,-315.88 728.56,-286.88 728.56,-286.88 728.56,-280.88 734.56,-274.88 740.56,-274.88 740.56,-274.88 770.56,-274.88 770.56,-274.88 776.56,-274.88 782.56,-280.88 782.56,-286.88 782.56,-286.88 782.56,-315.88 782.56,-315.88 782.56,-321.88 776.56,-327.88 770.56,-327.88"/>
<text text-anchor="middle" x="755.56" y="-312.68" font-family="Times,serif" font-size="14.00">season</text>
<text text-anchor="middle" x="755.56" y="-297.68" font-family="Times,serif" font-size="14.00">~</text>
<text text-anchor="middle" x="755.56" y="-282.68" font-family="Times,serif" font-size="14.00">Data</text>
</g>
<!-- season&#45;&gt;mu_demand -->
<g id="edge6" class="edge">
<title>season&#45;&gt;mu_demand</title>
<path fill="none" stroke="black" d="M762.98,-274.42C767.18,-259.72 772.5,-241.11 777.12,-224.96"/>
<polygon fill="black" stroke="black" points="780.38,-226.29 779.76,-215.71 773.65,-224.36 780.38,-226.29"/>
</g>
<!-- competitor_price -->
<g id="node12" class="node">
<title>competitor_price</title>
<path fill="lightgrey" stroke="black" d="M698.56,-327.88C698.56,-327.88 612.56,-327.88 612.56,-327.88 606.56,-327.88 600.56,-321.88 600.56,-315.88 600.56,-315.88 600.56,-286.88 600.56,-286.88 600.56,-280.88 606.56,-274.88 612.56,-274.88 612.56,-274.88 698.56,-274.88 698.56,-274.88 704.56,-274.88 710.56,-280.88 710.56,-286.88 710.56,-286.88 710.56,-315.88 710.56,-315.88 710.56,-321.88 704.56,-327.88 698.56,-327.88"/>
<text text-anchor="middle" x="655.56" y="-312.68" font-family="Times,serif" font-size="14.00">competitor_price</text>
<text text-anchor="middle" x="655.56" y="-297.68" font-family="Times,serif" font-size="14.00">~</text>
<text text-anchor="middle" x="655.56" y="-282.68" font-family="Times,serif" font-size="14.00">Data</text>
</g>
<!-- competitor_price&#45;&gt;mu_demand -->
<g id="edge10" class="edge">
<title>competitor_price&#45;&gt;mu_demand</title>
<path fill="none" stroke="black" d="M677.38,-274.65C689.19,-261.45 704.44,-245.53 719.56,-232.91 724.56,-228.74 729.96,-224.63 735.46,-220.69"/>
<polygon fill="black" stroke="black" points="737.29,-223.68 743.51,-215.11 733.3,-217.93 737.29,-223.68"/>
</g>
<!-- alpha_demand&#45;&gt;mu_demand -->
<g id="edge7" class="edge">
<title>alpha_demand&#45;&gt;mu_demand</title>
<path fill="none" stroke="black" d="M337.67,-267.27C350.93,-254.35 367.67,-240.79 385.56,-232.91 446,-206.29 634.66,-194.77 730.48,-190.54"/>
<polygon fill="black" stroke="black" points="730.34,-194.05 740.18,-190.12 730.04,-187.05 730.34,-194.05"/>
</g>
<!-- slope_demand_price&#45;&gt;mu_demand -->
<g id="edge11" class="edge">
<title>slope_demand_price&#45;&gt;mu_demand</title>
<path fill="none" stroke="black" d="M527.71,-267.82C545.64,-255.31 567.29,-241.9 588.56,-232.91 634.36,-213.55 689.81,-202.04 730.54,-195.6"/>
<polygon fill="black" stroke="black" points="731.02,-199.07 740.38,-194.1 729.97,-192.15 731.02,-199.07"/>
</g>
<!-- beta_demand -->
<g id="node15" class="node">
<title>beta_demand</title>
<ellipse fill="none" stroke="black" cx="1013.56" cy="-301.38" rx="62.87" ry="37.45"/>
<text text-anchor="middle" x="1013.56" y="-312.68" font-family="Times,serif" font-size="14.00">beta_demand</text>
<text text-anchor="middle" x="1013.56" y="-297.68" font-family="Times,serif" font-size="14.00">~</text>
<text text-anchor="middle" x="1013.56" y="-282.68" font-family="Times,serif" font-size="14.00">Normal</text>
</g>
<!-- beta_demand&#45;&gt;mu_demand -->
<g id="edge8" class="edge">
<title>beta_demand&#45;&gt;mu_demand</title>
<path fill="none" stroke="black" d="M983.9,-268.05C971,-255.58 955.07,-242.13 938.56,-232.91 909.37,-216.59 873.58,-205.71 844.18,-198.8"/>
<polygon fill="black" stroke="black" points="845.25,-195.45 834.72,-196.67 843.71,-202.28 845.25,-195.45"/>
</g>
</g>
</svg>
