<?xml version="1.0" encoding="UTF-8" standalone="no"?>
<!DOCTYPE svg PUBLIC "-//W3C//DTD SVG 1.1//EN"
 "http://www.w3.org/Graphics/SVG/1.1/DTD/svg11.dtd">
<!-- Generated by graphviz version 7.1.0 (0)
 -->
<!-- Pages: 1 -->
<svg width="1246pt" height="458pt"
 viewBox="0.00 0.00 1246.21 457.81" xmlns="http://www.w3.org/2000/svg" xmlns:xlink="http://www.w3.org/1999/xlink">
<g id="graph0" class="graph" transform="scale(1 1) rotate(0) translate(4 453.81)">
<polygon fill="white" stroke="none" points="-4,4 -4,-453.81 1242.21,-453.81 1242.21,4 -4,4"/>
<g id="clust1" class="cluster">
<title>cluster40 x 5</title>
<path fill="none" stroke="black" d="M161.71,-8C161.71,-8 479.71,-8 479.71,-8 485.71,-8 491.71,-14 491.71,-20 491.71,-20 491.71,-323.88 491.71,-323.88 491.71,-329.88 485.71,-335.88 479.71,-335.88 479.71,-335.88 161.71,-335.88 161.71,-335.88 155.71,-335.88 149.71,-329.88 149.71,-323.88 149.71,-323.88 149.71,-20 149.71,-20 149.71,-14 155.71,-8 161.71,-8"/>
<text text-anchor="middle" x="466.21" y="-15.8" font-family="Times,serif" font-size="14.00">40 x 5</text>
</g>
<g id="clust2" class="cluster">
<title>clusterunit (5)</title>
<path fill="none" stroke="black" d="M511.71,-232.91C511.71,-232.91 839.71,-232.91 839.71,-232.91 845.71,-232.91 851.71,-238.91 851.71,-244.91 851.71,-244.91 851.71,-334.86 851.71,-334.86 851.71,-340.86 845.71,-346.86 839.71,-346.86 839.71,-346.86 511.71,-346.86 511.71,-346.86 505.71,-346.86 499.71,-340.86 499.71,-334.86 499.71,-334.86 499.71,-244.91 499.71,-244.91 499.71,-238.91 505.71,-232.91 511.71,-232.91"/>
<text text-anchor="middle" x="823.21" y="-240.71" font-family="Times,serif" font-size="14.00">unit (5)</text>
</g>
<g id="clust3" class="cluster">
<title>clusterdemand_predictors (6)</title>
<path fill="none" stroke="black" d="M871.71,-232.91C871.71,-232.91 989.71,-232.91 989.71,-232.91 995.71,-232.91 1001.71,-238.91 1001.71,-244.91 1001.71,-244.91 1001.71,-334.86 1001.71,-334.86 1001.71,-340.86 995.71,-346.86 989.71,-346.86 989.71,-346.86 871.71,-346.86 871.71,-346.86 865.71,-346.86 859.71,-340.86 859.71,-334.86 859.71,-334.86 859.71,-244.91 859.71,-244.91 859.71,-238.91 865.71,-232.91 871.71,-232.91"/>
<text text-anchor="middle" x="931.71" y="-240.71" font-family="Times,serif" font-size="14.00">demand_predictors (6)</text>
</g>
<!-- sigma_demand -->
<g id="node1" class="node">
<title>sigma_demand</title>
<ellipse fill="none" stroke="black" cx="70.71" cy="-187.43" rx="70.92" ry="37.45"/>
<text text-anchor="middle" x="70.71" y="-198.73" font-family="Times,serif" font-size="14.00">sigma_demand</text>
<text text-anchor="middle" x="70.71" y="-183.73" font-family="Times,serif" font-size="14.00">~</text>
<text text-anchor="middle" x="70.71" y="-168.73" font-family="Times,serif" font-size="14.00">Halfnormal</text>
</g>
<!-- demand -->
<g id="node8" class="node">
<title>demand</title>
<ellipse fill="lightgrey" stroke="black" cx="291.71" cy="-76.48" rx="42.35" ry="37.45"/>
<text text-anchor="middle" x="291.71" y="-87.78" font-family="Times,serif" font-size="14.00">demand</text>
<text text-anchor="middle" x="291.71" y="-72.78" font-family="Times,serif" font-size="14.00">~</text>
<text text-anchor="middle" x="291.71" y="-57.78" font-family="Times,serif" font-size="14.00">Normal</text>
</g>
<!-- sigma_demand&#45;&gt;demand -->
<g id="edge12" class="edge">
<title>sigma_demand&#45;&gt;demand</title>
<path fill="none" stroke="black" d="M121.97,-161.16C158.99,-142.91 208.61,-118.45 244.63,-100.69"/>
<polygon fill="black" stroke="black" points="246.1,-103.87 253.52,-96.31 243,-97.59 246.1,-103.87"/>
</g>
<!-- sigma_slope_demand_price -->
<g id="node2" class="node">
<title>sigma_slope_demand_price</title>
<ellipse fill="none" stroke="black" cx="334.71" cy="-412.34" rx="119.5" ry="37.45"/>
<text text-anchor="middle" x="334.71" y="-423.64" font-family="Times,serif" font-size="14.00">sigma_slope_demand_price</text>
<text text-anchor="middle" x="334.71" y="-408.64" font-family="Times,serif" font-size="14.00">~</text>
<text text-anchor="middle" x="334.71" y="-393.64" font-family="Times,serif" font-size="14.00">Halfnormal</text>
</g>
<!-- slope_demand_price -->
<g id="node13" class="node">
<title>slope_demand_price</title>
<ellipse fill="none" stroke="black" cx="598.71" cy="-301.38" rx="91.43" ry="37.45"/>
<text text-anchor="middle" x="598.71" y="-312.68" font-family="Times,serif" font-size="14.00">slope_demand_price</text>
<text text-anchor="middle" x="598.71" y="-297.68" font-family="Times,serif" font-size="14.00">~</text>
<text text-anchor="middle" x="598.71" y="-282.68" font-family="Times,serif" font-size="14.00">Normal</text>
</g>
<!-- sigma_slope_demand_price&#45;&gt;slope_demand_price -->
<g id="edge1" class="edge">
<title>sigma_slope_demand_price&#45;&gt;slope_demand_price</title>
<path fill="none" stroke="black" d="M408.21,-382.38C435.73,-371.41 467.22,-358.72 495.71,-346.86 505.76,-342.68 516.33,-338.2 526.71,-333.76"/>
<polygon fill="black" stroke="black" points="527.81,-337.1 535.62,-329.94 525.05,-330.67 527.81,-337.1"/>
</g>
<!-- mu_alpha_demand -->
<g id="node3" class="node">
<title>mu_alpha_demand</title>
<ellipse fill="none" stroke="black" cx="792.71" cy="-412.34" rx="85.62" ry="37.45"/>
<text text-anchor="middle" x="792.71" y="-423.64" font-family="Times,serif" font-size="14.00">mu_alpha_demand</text>
<text text-anchor="middle" x="792.71" y="-408.64" font-family="Times,serif" font-size="14.00">~</text>
<text text-anchor="middle" x="792.71" y="-393.64" font-family="Times,serif" font-size="14.00">Normal</text>
</g>
<!-- alpha_demand -->
<g id="node14" class="node">
<title>alpha_demand</title>
<ellipse fill="none" stroke="black" cx="775.71" cy="-301.38" rx="67.76" ry="37.45"/>
<text text-anchor="middle" x="775.71" y="-312.68" font-family="Times,serif" font-size="14.00">alpha_demand</text>
<text text-anchor="middle" x="775.71" y="-297.68" font-family="Times,serif" font-size="14.00">~</text>
<text text-anchor="middle" x="775.71" y="-282.68" font-family="Times,serif" font-size="14.00">Normal</text>
</g>
<!-- mu_alpha_demand&#45;&gt;alpha_demand -->
<g id="edge4" class="edge">
<title>mu_alpha_demand&#45;&gt;alpha_demand</title>
<path fill="none" stroke="black" d="M787,-374.75C785.78,-366.94 784.48,-358.57 783.2,-350.4"/>
<polygon fill="black" stroke="black" points="786.67,-349.89 781.67,-340.55 779.75,-350.97 786.67,-349.89"/>
</g>
<!-- mu_slope_demand_price -->
<g id="node4" class="node">
<title>mu_slope_demand_price</title>
<ellipse fill="none" stroke="black" cx="580.71" cy="-412.34" rx="108.79" ry="37.45"/>
<text text-anchor="middle" x="580.71" y="-423.64" font-family="Times,serif" font-size="14.00">mu_slope_demand_price</text>
<text text-anchor="middle" x="580.71" y="-408.64" font-family="Times,serif" font-size="14.00">~</text>
<text text-anchor="middle" x="580.71" y="-393.64" font-family="Times,serif" font-size="14.00">Normal</text>
</g>
<!-- mu_slope_demand_price&#45;&gt;slope_demand_price -->
<g id="edge2" class="edge">
<title>mu_slope_demand_price&#45;&gt;slope_demand_price</title>
<path fill="none" stroke="black" d="M586.8,-374.45C588.08,-366.73 589.44,-358.48 590.77,-350.42"/>
<polygon fill="black" stroke="black" points="594.2,-351.16 592.38,-340.73 587.29,-350.02 594.2,-351.16"/>
</g>
<!-- sigma_alpha_demand -->
<g id="node5" class="node">
<title>sigma_alpha_demand</title>
<ellipse fill="none" stroke="black" cx="992.71" cy="-412.34" rx="96.33" ry="37.45"/>
<text text-anchor="middle" x="992.71" y="-423.64" font-family="Times,serif" font-size="14.00">sigma_alpha_demand</text>
<text text-anchor="middle" x="992.71" y="-408.64" font-family="Times,serif" font-size="14.00">~</text>
<text text-anchor="middle" x="992.71" y="-393.64" font-family="Times,serif" font-size="14.00">Halfnormal</text>
</g>
<!-- sigma_alpha_demand&#45;&gt;alpha_demand -->
<g id="edge3" class="edge">
<title>sigma_alpha_demand&#45;&gt;alpha_demand</title>
<path fill="none" stroke="black" d="M930.9,-383.33C907.21,-372.31 880.04,-359.33 855.71,-346.86 848.14,-342.98 840.24,-338.78 832.47,-334.56"/>
<polygon fill="black" stroke="black" points="834.16,-331.49 823.71,-329.75 830.79,-337.63 834.16,-331.49"/>
</g>
<!-- _use_observed_carry -->
<g id="node6" class="node">
<title>_use_observed_carry</title>
<path fill="lightgrey" stroke="black" d="M1226.21,-438.84C1226.21,-438.84 1119.21,-438.84 1119.21,-438.84 1113.21,-438.84 1107.21,-432.84 1107.21,-426.84 1107.21,-426.84 1107.21,-397.84 1107.21,-397.84 1107.21,-391.84 1113.21,-385.84 1119.21,-385.84 1119.21,-385.84 1226.21,-385.84 1226.21,-385.84 1232.21,-385.84 1238.21,-391.84 1238.21,-397.84 1238.21,-397.84 1238.21,-426.84 1238.21,-426.84 1238.21,-432.84 1232.21,-438.84 1226.21,-438.84"/>
<text text-anchor="middle" x="1172.71" y="-423.64" font-family="Times,serif" font-size="14.00">_use_observed_carry</text>
<text text-anchor="middle" x="1172.71" y="-408.64" font-family="Times,serif" font-size="14.00">~</text>
<text text-anchor="middle" x="1172.71" y="-393.64" font-family="Times,serif" font-size="14.00">Data</text>
</g>
<!-- trend -->
<g id="node7" class="node">
<title>trend</title>
<path fill="lightgrey" stroke="black" d="M471.71,-327.88C471.71,-327.88 441.71,-327.88 441.71,-327.88 435.71,-327.88 429.71,-321.88 429.71,-315.88 429.71,-315.88 429.71,-286.88 429.71,-286.88 429.71,-280.88 435.71,-274.88 441.71,-274.88 441.71,-274.88 471.71,-274.88 471.71,-274.88 477.71,-274.88 483.71,-280.88 483.71,-286.88 483.71,-286.88 483.71,-315.88 483.71,-315.88 483.71,-321.88 477.71,-327.88 471.71,-327.88"/>
<text text-anchor="middle" x="456.71" y="-312.68" font-family="Times,serif" font-size="14.00">trend</text>
<text text-anchor="middle" x="456.71" y="-297.68" font-family="Times,serif" font-size="14.00">~</text>
<text text-anchor="middle" x="456.71" y="-282.68" font-family="Times,serif" font-size="14.00">Data</text>
</g>
<!-- mu_demand -->
<g id="node12" class="node">
<title>mu_demand</title>
<polygon fill="none" stroke="black" points="456.21,-213.93 365.21,-213.93 365.21,-160.93 456.21,-160.93 456.21,-213.93"/>
<text text-anchor="middle" x="410.71" y="-198.73" font-family="Times,serif" font-size="14.00">mu_demand</text>
<text text-anchor="middle" x="410.71" y="-183.73" font-family="Times,serif" font-size="14.00">~</text>
<text text-anchor="middle" x="410.71" y="-168.73" font-family="Times,serif" font-size="14.00">Deterministic</text>
</g>
<!-- trend&#45;&gt;mu_demand -->
<g id="edge6" class="edge">
<title>trend&#45;&gt;mu_demand</title>
<path fill="none" stroke="black" d="M446.04,-274.42C439.95,-259.58 432.21,-240.75 425.53,-224.5"/>
<polygon fill="black" stroke="black" points="428.93,-223.57 421.9,-215.65 422.46,-226.23 428.93,-223.57"/>
</g>
<!-- season -->
<g id="node9" class="node">
<title>season</title>
<path fill="lightgrey" stroke="black" d="M399.71,-327.88C399.71,-327.88 369.71,-327.88 369.71,-327.88 363.71,-327.88 357.71,-321.88 357.71,-315.88 357.71,-315.88 357.71,-286.88 357.71,-286.88 357.71,-280.88 363.71,-274.88 369.71,-274.88 369.71,-274.88 399.71,-274.88 399.71,-274.88 405.71,-274.88 411.71,-280.88 411.71,-286.88 411.71,-286.88 411.71,-315.88 411.71,-315.88 411.71,-321.88 405.71,-327.88 399.71,-327.88"/>
<text text-anchor="middle" x="384.71" y="-312.68" font-family="Times,serif" font-size="14.00">season</text>
<text text-anchor="middle" x="384.71" y="-297.68" font-family="Times,serif" font-size="14.00">~</text>
<text text-anchor="middle" x="384.71" y="-282.68" font-family="Times,serif" font-size="14.00">Data</text>
</g>
<!-- season&#45;&gt;mu_demand -->
<g id="edge10" class="edge">
<title>season&#45;&gt;mu_demand</title>
<path fill="none" stroke="black" d="M390.74,-274.42C394.12,-259.86 398.39,-241.47 402.12,-225.43"/>
<polygon fill="black" stroke="black" points="405.52,-226.26 404.37,-215.73 398.7,-224.68 405.52,-226.26"/>
</g>
<!-- competitor_price -->
<g id="node10" class="node">
<title>competitor_price</title>
<path fill="lightgrey" stroke="black" d="M327.71,-327.88C327.71,-327.88 241.71,-327.88 241.71,-327.88 235.71,-327.88 229.71,-321.88 229.71,-315.88 229.71,-315.88 229.71,-286.88 229.71,-286.88 229.71,-280.88 235.71,-274.88 241.71,-274.88 241.71,-274.88 327.71,-274.88 327.71,-274.88 333.71,-274.88 339.71,-280.88 339.71,-286.88 339.71,-286.88 339.71,-315.88 339.71,-315.88 339.71,-321.88 333.71,-327.88 327.71,-327.88"/>
<text text-anchor="middle" x="284.71" y="-312.68" font-family="Times,serif" font-size="14.00">competitor_price</text>
<text text-anchor="middle" x="284.71" y="-297.68" font-family="Times,serif" font-size="14.00">~</text>
<text text-anchor="middle" x="284.71" y="-282.68" font-family="Times,serif" font-size="14.00">Data</text>
</g>
<!-- competitor_price&#45;&gt;mu_demand -->
<g id="edge5" class="edge">
<title>competitor_price&#45;&gt;mu_demand</title>
<path fill="none" stroke="black" d="M307.05,-274.59C318.88,-261.52 333.99,-245.75 348.71,-232.91 353.27,-228.93 358.17,-224.97 363.15,-221.13"/>
<polygon fill="black" stroke="black" points="365.03,-224.09 370.92,-215.29 360.83,-218.49 365.03,-224.09"/>
</g>
<!-- price -->
<g id="node11" class="node">
<title>price</title>
<path fill="lightgrey" stroke="black" d="M199.71,-327.88C199.71,-327.88 169.71,-327.88 169.71,-327.88 163.71,-327.88 157.71,-321.88 157.71,-315.88 157.71,-315.88 157.71,-286.88 157.71,-286.88 157.71,-280.88 163.71,-274.88 169.71,-274.88 169.71,-274.88 199.71,-274.88 199.71,-274.88 205.71,-274.88 211.71,-280.88 211.71,-286.88 211.71,-286.88 211.71,-315.88 211.71,-315.88 211.71,-321.88 205.71,-327.88 199.71,-327.88"/>
<text text-anchor="middle" x="184.71" y="-312.68" font-family="Times,serif" font-size="14.00">price</text>
<text text-anchor="middle" x="184.71" y="-297.68" font-family="Times,serif" font-size="14.00">~</text>
<text text-anchor="middle" x="184.71" y="-282.68" font-family="Times,serif" font-size="14.00">Data</text>
</g>
<!-- price&#45;&gt;mu_demand -->
<g id="edge11" class="edge">
<title>price&#45;&gt;mu_demand</title>
<path fill="none" stroke="black" d="M192.6,-274.41C198.24,-260.13 207.24,-243.26 220.71,-232.91 258.68,-203.72 312.66,-193.2 353.39,-189.64"/>
<polygon fill="black" stroke="black" points="353.54,-193.14 363.26,-188.91 353.02,-186.16 353.54,-193.14"/>
</g>
<!-- mu_demand&#45;&gt;demand -->
<g id="edge13" class="edge">
<title>mu_demand&#45;&gt;demand</title>
<path fill="none" stroke="black" d="M382.51,-160.61C366.44,-145.9 346.12,-127.29 328.78,-111.42"/>
<polygon fill="black" stroke="black" points="331.39,-109.06 321.65,-104.89 326.66,-114.23 331.39,-109.06"/>
</g>
<!-- slope_demand_price&#45;&gt;mu_demand -->
<g id="edge9" class="edge">
<title>slope_demand_price&#45;&gt;mu_demand</title>
<path fill="none" stroke="black" d="M552.4,-268.66C534.88,-257.03 514.61,-244 495.71,-232.91 486.44,-227.46 476.43,-221.93 466.66,-216.71"/>
<polygon fill="black" stroke="black" points="468.41,-213.68 457.93,-212.1 465.14,-219.87 468.41,-213.68"/>
</g>
<!-- alpha_demand&#45;&gt;mu_demand -->
<g id="edge8" class="edge">
<title>alpha_demand&#45;&gt;mu_demand</title>
<path fill="none" stroke="black" d="M746.07,-267.29C732.83,-254.54 716.27,-241.1 698.71,-232.91 624.08,-198.1 527.93,-189.57 467.8,-187.98"/>
<polygon fill="black" stroke="black" points="468.21,-184.49 458.15,-187.78 468.07,-191.49 468.21,-184.49"/>
</g>
<!-- beta_demand -->
<g id="node15" class="node">
<title>beta_demand</title>
<ellipse fill="none" stroke="black" cx="930.71" cy="-301.38" rx="62.87" ry="37.45"/>
<text text-anchor="middle" x="930.71" y="-312.68" font-family="Times,serif" font-size="14.00">beta_demand</text>
<text text-anchor="middle" x="930.71" y="-297.68" font-family="Times,serif" font-size="14.00">~</text>
<text text-anchor="middle" x="930.71" y="-282.68" font-family="Times,serif" font-size="14.00">Normal</text>
</g>
<!-- beta_demand&#45;&gt;mu_demand -->
<g id="edge7" class="edge">
<title>beta_demand&#45;&gt;mu_demand</title>
<path fill="none" stroke="black" d="M902.9,-267.53C889.96,-254.5 873.49,-240.77 855.71,-232.91 787.6,-202.81 571.74,-192.84 467.77,-189.74"/>
<polygon fill="black" stroke="black" points="468.17,-186.25 458.07,-189.46 467.97,-193.25 468.17,-186.25"/>
</g>
</g>
</svg>
