<?xml version="1.0" encoding="UTF-8" standalone="no"?>
<!DOCTYPE svg PUBLIC "-//W3C//DTD SVG 1.1//EN"
 "http://www.w3.org/Graphics/SVG/1.1/DTD/svg11.dtd">
<!-- Generated by graphviz version 7.1.0 (0)
 -->
<!-- Pages: 1 -->
<svg width="342pt" height="149pt"
 viewBox="0.00 0.00 341.78 148.96" xmlns="http://www.w3.org/2000/svg" xmlns:xlink="http://www.w3.org/1999/xlink">
<g id="graph0" class="graph" transform="scale(1 1) rotate(0) translate(4 144.96)">
<polygon fill="white" stroke="none" points="-4,4 -4,-144.96 337.78,-144.96 337.78,4 -4,4"/>
<!-- vaccine -->
<g id="node1" class="node">
<title>vaccine</title>
<polygon fill="none" stroke="black" points="58,-139.96 0,-139.96 0,-103.96 58,-103.96 58,-139.96"/>
<text text-anchor="middle" x="29" y="-118.26" font-family="Times,serif" font-size="14.00">vaccine</text>
</g>
<!-- antibody -->
<g id="node4" class="node">
<title>antibody</title>
<ellipse fill="none" stroke="black" cx="142.6" cy="-87.96" rx="41.69" ry="18"/>
<text text-anchor="middle" x="142.6" y="-84.26" font-family="Times,serif" font-size="14.00">antibody</text>
</g>
<!-- vaccine&#45;&gt;antibody -->
<g id="edge1" class="edge">
<title>vaccine&#45;&gt;antibody</title>
<path fill="none" stroke="black" d="M58.45,-113.29C70.15,-109.73 83.99,-105.51 96.98,-101.55"/>
<polygon fill="black" stroke="black" points="97.64,-105.01 106.19,-98.75 95.6,-98.32 97.64,-105.01"/>
<text text-anchor="middle" x="79.5" y="-110.76" font-family="Times,serif" font-size="14.00">a</text>
</g>
<!-- hospitalized -->
<g id="node5" class="node">
<title>hospitalized</title>
<ellipse fill="none" stroke="black" cx="280.49" cy="-60.96" rx="53.09" ry="18"/>
<text text-anchor="middle" x="280.49" y="-57.26" font-family="Times,serif" font-size="14.00">hospitalized</text>
</g>
<!-- vaccine&#45;&gt;hospitalized -->
<g id="edge4" class="edge">
<title>vaccine&#45;&gt;hospitalized</title>
<path fill="none" stroke="black" d="M58.36,-125.06C89.91,-127.51 141.98,-128.57 184.19,-114.96 206.64,-107.72 229.71,-94.82 247.52,-83.45"/>
<polygon fill="black" stroke="black" points="249.14,-86.57 255.58,-78.16 245.3,-80.72 249.14,-86.57"/>
<text text-anchor="middle" x="142.6" y="-129.76" font-family="Times,serif" font-size="14.00">c</text>
</g>
<!-- age -->
<g id="node2" class="node">
<title>age</title>
<polygon fill="none" stroke="black" points="56,-62.96 2,-62.96 2,-26.96 56,-26.96 56,-62.96"/>
<text text-anchor="middle" x="29" y="-41.26" font-family="Times,serif" font-size="14.00">age</text>
</g>
<!-- age&#45;&gt;antibody -->
<g id="edge2" class="edge">
<title>age&#45;&gt;antibody</title>
<path fill="none" stroke="black" d="M56.45,-55.15C69.52,-60.19 85.59,-66.38 100.24,-72.03"/>
<polygon fill="black" stroke="black" points="98.59,-75.14 109.18,-75.47 101.1,-68.61 98.59,-75.14"/>
</g>
<!-- age&#45;&gt;hospitalized -->
<g id="edge5" class="edge">
<title>age&#45;&gt;hospitalized</title>
<path fill="none" stroke="black" d="M56.36,-26.84C69.22,-19.08 85.27,-10.91 101,-6.96 136.86,2.03 148.44,2.46 184.19,-6.96 207.31,-13.06 230.7,-26.19 248.53,-37.97"/>
<polygon fill="black" stroke="black" points="246.34,-40.72 256.57,-43.48 250.29,-34.94 246.34,-40.72"/>
</g>
<!-- comorbidity -->
<g id="node3" class="node">
<title>comorbidity</title>
<polygon fill="none" stroke="black" points="184.1,-51.96 101.1,-51.96 101.1,-15.96 184.1,-15.96 184.1,-51.96"/>
<text text-anchor="middle" x="142.6" y="-30.26" font-family="Times,serif" font-size="14.00">comorbidity</text>
</g>
<!-- comorbidity&#45;&gt;hospitalized -->
<g id="edge6" class="edge">
<title>comorbidity&#45;&gt;hospitalized</title>
<path fill="none" stroke="black" d="M184.37,-42.06C196.46,-44.47 209.93,-47.14 222.84,-49.71"/>
<polygon fill="black" stroke="black" points="222.02,-53.11 232.51,-51.63 223.38,-46.24 222.02,-53.11"/>
</g>
<!-- antibody&#45;&gt;hospitalized -->
<g id="edge3" class="edge">
<title>antibody&#45;&gt;hospitalized</title>
<path fill="none" stroke="black" d="M181.09,-80.51C193.98,-77.95 208.72,-75.02 222.8,-72.23"/>
<polygon fill="black" stroke="black" points="223.28,-75.7 232.41,-70.31 221.92,-68.83 223.28,-75.7"/>
<text text-anchor="middle" x="205.69" y="-79.76" font-family="Times,serif" font-size="14.00">b</text>
</g>
</g>
</svg>
