<?xml version="1.0" encoding="UTF-8" standalone="no"?>
<!DOCTYPE svg PUBLIC "-//W3C//DTD SVG 1.1//EN"
 "http://www.w3.org/Graphics/SVG/1.1/DTD/svg11.dtd">
<!-- Generated by graphviz version 7.1.0 (0)
 -->
<!-- Pages: 1 -->
<svg width="453pt" height="566pt"
 viewBox="0.00 0.00 452.68 565.81" xmlns="http://www.w3.org/2000/svg" xmlns:xlink="http://www.w3.org/1999/xlink">
<g id="graph0" class="graph" transform="scale(1 1) rotate(0) translate(4 561.81)">
<polygon fill="white" stroke="none" points="-4,4 -4,-561.81 448.68,-561.81 448.68,4 -4,4"/>
<g id="clust1" class="cluster">
<title>cluster1000</title>
<path fill="none" stroke="black" d="M20.68,-8C20.68,-8 244.68,-8 244.68,-8 250.68,-8 256.68,-14 256.68,-20 256.68,-20 256.68,-526.84 256.68,-526.84 256.68,-532.84 250.68,-538.84 244.68,-538.84 244.68,-538.84 20.68,-538.84 20.68,-538.84 14.68,-538.84 8.68,-532.84 8.68,-526.84 8.68,-526.84 8.68,-20 8.68,-20 8.68,-14 14.68,-8 20.68,-8"/>
<text text-anchor="middle" x="234.68" y="-15.8" font-family="Times,serif" font-size="14.00">1000</text>
</g>
<g id="clust2" class="cluster">
<title>clusterhospitalized_predictors (5)</title>
<path fill="none" stroke="black" d="M276.68,-210.95C276.68,-210.95 424.68,-210.95 424.68,-210.95 430.68,-210.95 436.68,-216.95 436.68,-222.95 436.68,-222.95 436.68,-312.91 436.68,-312.91 436.68,-318.91 430.68,-324.91 424.68,-324.91 424.68,-324.91 276.68,-324.91 276.68,-324.91 270.68,-324.91 264.68,-318.91 264.68,-312.91 264.68,-312.91 264.68,-222.95 264.68,-222.95 264.68,-216.95 270.68,-210.95 276.68,-210.95"/>
<text text-anchor="middle" x="355.68" y="-218.75" font-family="Times,serif" font-size="14.00">hospitalized_predictors (5)</text>
</g>
<g id="clust3" class="cluster">
<title>clusterantibody_predictors (3)</title>
<path fill="none" stroke="black" d="M276.68,-435.86C276.68,-435.86 400.68,-435.86 400.68,-435.86 406.68,-435.86 412.68,-441.86 412.68,-447.86 412.68,-447.86 412.68,-537.81 412.68,-537.81 412.68,-543.81 406.68,-549.81 400.68,-549.81 400.68,-549.81 276.68,-549.81 276.68,-549.81 270.68,-549.81 264.68,-543.81 264.68,-537.81 264.68,-537.81 264.68,-447.86 264.68,-447.86 264.68,-441.86 270.68,-435.86 276.68,-435.86"/>
<text text-anchor="middle" x="340.68" y="-443.66" font-family="Times,serif" font-size="14.00">antibody_predictors (3)</text>
</g>
<!-- vaccine -->
<g id="node1" class="node">
<title>vaccine</title>
<path fill="lightgrey" stroke="black" d="M134.68,-530.84C134.68,-530.84 100.68,-530.84 100.68,-530.84 94.68,-530.84 88.68,-524.84 88.68,-518.84 88.68,-518.84 88.68,-489.84 88.68,-489.84 88.68,-483.84 94.68,-477.84 100.68,-477.84 100.68,-477.84 134.68,-477.84 134.68,-477.84 140.68,-477.84 146.68,-483.84 146.68,-489.84 146.68,-489.84 146.68,-518.84 146.68,-518.84 146.68,-524.84 140.68,-530.84 134.68,-530.84"/>
<text text-anchor="middle" x="117.68" y="-515.64" font-family="Times,serif" font-size="14.00">vaccine</text>
<text text-anchor="middle" x="117.68" y="-500.64" font-family="Times,serif" font-size="14.00">~</text>
<text text-anchor="middle" x="117.68" y="-485.64" font-family="Times,serif" font-size="14.00">Data</text>
</g>
<!-- mu_antibody -->
<g id="node2" class="node">
<title>mu_antibody</title>
<polygon fill="none" stroke="black" points="155.18,-416.88 64.18,-416.88 64.18,-363.88 155.18,-363.88 155.18,-416.88"/>
<text text-anchor="middle" x="109.68" y="-401.68" font-family="Times,serif" font-size="14.00">mu_antibody</text>
<text text-anchor="middle" x="109.68" y="-386.68" font-family="Times,serif" font-size="14.00">~</text>
<text text-anchor="middle" x="109.68" y="-371.68" font-family="Times,serif" font-size="14.00">Deterministic</text>
</g>
<!-- vaccine&#45;&gt;mu_antibody -->
<g id="edge10" class="edge">
<title>vaccine&#45;&gt;mu_antibody</title>
<path fill="none" stroke="black" d="M115.83,-477.37C114.79,-462.82 113.47,-444.42 112.33,-428.38"/>
<polygon fill="black" stroke="black" points="115.84,-428.44 111.64,-418.72 108.86,-428.94 115.84,-428.44"/>
</g>
<!-- mu_hospitalized -->
<g id="node5" class="node">
<title>mu_hospitalized</title>
<polygon fill="none" stroke="black" points="155.18,-202.95 48.18,-202.95 48.18,-149.95 155.18,-149.95 155.18,-202.95"/>
<text text-anchor="middle" x="101.68" y="-187.75" font-family="Times,serif" font-size="14.00">mu_hospitalized</text>
<text text-anchor="middle" x="101.68" y="-172.75" font-family="Times,serif" font-size="14.00">~</text>
<text text-anchor="middle" x="101.68" y="-157.75" font-family="Times,serif" font-size="14.00">Deterministic</text>
</g>
<!-- vaccine&#45;&gt;mu_hospitalized -->
<g id="edge3" class="edge">
<title>vaccine&#45;&gt;mu_hospitalized</title>
<path fill="none" stroke="black" d="M108.54,-477.42C102.38,-463.34 92.92,-446.65 79.68,-435.86 70.64,-428.49 61.88,-437.04 54.68,-427.86 26.8,-392.27 24.44,-269.81 48,-213.71"/>
<polygon fill="black" stroke="black" points="51.12,-215.29 52.39,-204.77 44.84,-212.2 51.12,-215.29"/>
</g>
<!-- antibody -->
<g id="node3" class="node">
<title>antibody</title>
<ellipse fill="lightgrey" stroke="black" cx="101.68" cy="-279.43" rx="45.01" ry="37.45"/>
<text text-anchor="middle" x="101.68" y="-290.73" font-family="Times,serif" font-size="14.00">antibody</text>
<text text-anchor="middle" x="101.68" y="-275.73" font-family="Times,serif" font-size="14.00">~</text>
<text text-anchor="middle" x="101.68" y="-260.73" font-family="Times,serif" font-size="14.00">Normal</text>
</g>
<!-- mu_antibody&#45;&gt;antibody -->
<g id="edge2" class="edge">
<title>mu_antibody&#45;&gt;antibody</title>
<path fill="none" stroke="black" d="M107.79,-363.56C107.02,-353.07 106.1,-340.6 105.22,-328.55"/>
<polygon fill="black" stroke="black" points="108.72,-328.42 104.5,-318.71 101.74,-328.94 108.72,-328.42"/>
</g>
<!-- antibody&#45;&gt;mu_hospitalized -->
<g id="edge6" class="edge">
<title>antibody&#45;&gt;mu_hospitalized</title>
<path fill="none" stroke="black" d="M101.68,-241.69C101.68,-232.83 101.68,-223.36 101.68,-214.48"/>
<polygon fill="black" stroke="black" points="105.18,-214.78 101.68,-204.78 98.18,-214.78 105.18,-214.78"/>
</g>
<!-- age -->
<g id="node4" class="node">
<title>age</title>
<path fill="lightgrey" stroke="black" d="M58.68,-530.84C58.68,-530.84 28.68,-530.84 28.68,-530.84 22.68,-530.84 16.68,-524.84 16.68,-518.84 16.68,-518.84 16.68,-489.84 16.68,-489.84 16.68,-483.84 22.68,-477.84 28.68,-477.84 28.68,-477.84 58.68,-477.84 58.68,-477.84 64.68,-477.84 70.68,-483.84 70.68,-489.84 70.68,-489.84 70.68,-518.84 70.68,-518.84 70.68,-524.84 64.68,-530.84 58.68,-530.84"/>
<text text-anchor="middle" x="43.68" y="-515.64" font-family="Times,serif" font-size="14.00">age</text>
<text text-anchor="middle" x="43.68" y="-500.64" font-family="Times,serif" font-size="14.00">~</text>
<text text-anchor="middle" x="43.68" y="-485.64" font-family="Times,serif" font-size="14.00">Data</text>
</g>
<!-- age&#45;&gt;mu_antibody -->
<g id="edge9" class="edge">
<title>age&#45;&gt;mu_antibody</title>
<path fill="none" stroke="black" d="M56.75,-477.36C63.33,-464.67 71.61,-449.28 79.68,-435.86 81.56,-432.75 83.56,-429.55 85.6,-426.37"/>
<polygon fill="black" stroke="black" points="88.38,-428.51 90.95,-418.23 82.53,-424.66 88.38,-428.51"/>
</g>
<!-- age&#45;&gt;mu_hospitalized -->
<g id="edge7" class="edge">
<title>age&#45;&gt;mu_hospitalized</title>
<path fill="none" stroke="black" d="M33.03,-477.73C12.34,-423.54 -26.74,-295.33 27.68,-210.95 30.63,-206.38 34.38,-202.42 38.61,-199"/>
<polygon fill="black" stroke="black" points="40.32,-202.07 46.62,-193.56 36.38,-196.28 40.32,-202.07"/>
</g>
<!-- hospitalized -->
<g id="node6" class="node">
<title>hospitalized</title>
<ellipse fill="lightgrey" stroke="black" cx="101.68" cy="-76.48" rx="57.97" ry="37.45"/>
<text text-anchor="middle" x="101.68" y="-87.78" font-family="Times,serif" font-size="14.00">hospitalized</text>
<text text-anchor="middle" x="101.68" y="-72.78" font-family="Times,serif" font-size="14.00">~</text>
<text text-anchor="middle" x="101.68" y="-57.78" font-family="Times,serif" font-size="14.00">Bernoulli</text>
</g>
<!-- mu_hospitalized&#45;&gt;hospitalized -->
<g id="edge11" class="edge">
<title>mu_hospitalized&#45;&gt;hospitalized</title>
<path fill="none" stroke="black" d="M101.68,-149.45C101.68,-142.13 101.68,-133.93 101.68,-125.75"/>
<polygon fill="black" stroke="black" points="105.18,-125.81 101.68,-115.81 98.18,-125.81 105.18,-125.81"/>
</g>
<!-- comorbidity -->
<g id="node7" class="node">
<title>comorbidity</title>
<path fill="lightgrey" stroke="black" d="M236.18,-305.93C236.18,-305.93 177.18,-305.93 177.18,-305.93 171.18,-305.93 165.18,-299.93 165.18,-293.93 165.18,-293.93 165.18,-264.93 165.18,-264.93 165.18,-258.93 171.18,-252.93 177.18,-252.93 177.18,-252.93 236.18,-252.93 236.18,-252.93 242.18,-252.93 248.18,-258.93 248.18,-264.93 248.18,-264.93 248.18,-293.93 248.18,-293.93 248.18,-299.93 242.18,-305.93 236.18,-305.93"/>
<text text-anchor="middle" x="206.68" y="-290.73" font-family="Times,serif" font-size="14.00">comorbidity</text>
<text text-anchor="middle" x="206.68" y="-275.73" font-family="Times,serif" font-size="14.00">~</text>
<text text-anchor="middle" x="206.68" y="-260.73" font-family="Times,serif" font-size="14.00">Data</text>
</g>
<!-- comorbidity&#45;&gt;mu_hospitalized -->
<g id="edge4" class="edge">
<title>comorbidity&#45;&gt;mu_hospitalized</title>
<path fill="none" stroke="black" d="M190.5,-252.57C181.32,-239.18 169.03,-223.12 155.68,-210.95 155.6,-210.87 155.51,-210.79 155.42,-210.71"/>
<polygon fill="black" stroke="black" points="157.67,-208.03 147.72,-204.39 153.23,-213.44 157.67,-208.03"/>
</g>
<!-- beta_hospitalized -->
<g id="node8" class="node">
<title>beta_hospitalized</title>
<ellipse fill="none" stroke="black" cx="350.68" cy="-279.43" rx="78.48" ry="37.45"/>
<text text-anchor="middle" x="350.68" y="-290.73" font-family="Times,serif" font-size="14.00">beta_hospitalized</text>
<text text-anchor="middle" x="350.68" y="-275.73" font-family="Times,serif" font-size="14.00">~</text>
<text text-anchor="middle" x="350.68" y="-260.73" font-family="Times,serif" font-size="14.00">Normal</text>
</g>
<!-- beta_hospitalized&#45;&gt;mu_hospitalized -->
<g id="edge5" class="edge">
<title>beta_hospitalized&#45;&gt;mu_hospitalized</title>
<path fill="none" stroke="black" d="M314.92,-245.93C299.27,-233.28 280.07,-219.74 260.68,-210.95 231.18,-197.58 196.15,-189.47 166.49,-184.58"/>
<polygon fill="black" stroke="black" points="167.33,-181.17 156.91,-183.09 166.25,-188.09 167.33,-181.17"/>
</g>
<!-- sigma_antibody -->
<g id="node9" class="node">
<title>sigma_antibody</title>
<ellipse fill="none" stroke="black" cx="338.68" cy="-390.38" rx="73.58" ry="37.45"/>
<text text-anchor="middle" x="338.68" y="-401.68" font-family="Times,serif" font-size="14.00">sigma_antibody</text>
<text text-anchor="middle" x="338.68" y="-386.68" font-family="Times,serif" font-size="14.00">~</text>
<text text-anchor="middle" x="338.68" y="-371.68" font-family="Times,serif" font-size="14.00">Halfnormal</text>
</g>
<!-- sigma_antibody&#45;&gt;antibody -->
<g id="edge1" class="edge">
<title>sigma_antibody&#45;&gt;antibody</title>
<path fill="none" stroke="black" d="M286.77,-363.58C278.16,-359.74 269.25,-356.04 260.68,-352.91 215.72,-336.48 199.33,-346.65 156.68,-324.91 151.15,-322.08 145.65,-318.64 140.39,-314.92"/>
<polygon fill="black" stroke="black" points="142.53,-312.16 132.44,-308.94 138.32,-317.75 142.53,-312.16"/>
</g>
<!-- beta_antibody -->
<g id="node10" class="node">
<title>beta_antibody</title>
<ellipse fill="none" stroke="black" cx="338.68" cy="-504.34" rx="65.52" ry="37.45"/>
<text text-anchor="middle" x="338.68" y="-515.64" font-family="Times,serif" font-size="14.00">beta_antibody</text>
<text text-anchor="middle" x="338.68" y="-500.64" font-family="Times,serif" font-size="14.00">~</text>
<text text-anchor="middle" x="338.68" y="-485.64" font-family="Times,serif" font-size="14.00">Normal</text>
</g>
<!-- beta_antibody&#45;&gt;mu_antibody -->
<g id="edge8" class="edge">
<title>beta_antibody&#45;&gt;mu_antibody</title>
<path fill="none" stroke="black" d="M307.64,-471.05C294.19,-458.59 277.66,-445.13 260.68,-435.86 231.44,-419.89 195.8,-409.04 166.49,-402.06"/>
<polygon fill="black" stroke="black" points="167.6,-398.73 157.07,-399.91 166.04,-405.55 167.6,-398.73"/>
</g>
</g>
</svg>
