<?xml version="1.0" encoding="UTF-8" standalone="no"?>
<!DOCTYPE svg PUBLIC "-//W3C//DTD SVG 1.1//EN"
 "http://www.w3.org/Graphics/SVG/1.1/DTD/svg11.dtd">
<!-- Generated by graphviz version 7.1.0 (0)
 -->
<!-- Pages: 1 -->
<svg width="452pt" height="566pt"
 viewBox="0.00 0.00 452.00 565.81" xmlns="http://www.w3.org/2000/svg" xmlns:xlink="http://www.w3.org/1999/xlink">
<g id="graph0" class="graph" transform="scale(1 1) rotate(0) translate(4 561.81)">
<polygon fill="white" stroke="none" points="-4,4 -4,-561.81 448,-561.81 448,4 -4,4"/>
<g id="clust1" class="cluster">
<title>cluster1000</title>
<path fill="none" stroke="black" d="M20,-8C20,-8 244,-8 244,-8 250,-8 256,-14 256,-20 256,-20 256,-526.84 256,-526.84 256,-532.84 250,-538.84 244,-538.84 244,-538.84 20,-538.84 20,-538.84 14,-538.84 8,-532.84 8,-526.84 8,-526.84 8,-20 8,-20 8,-14 14,-8 20,-8"/>
<text text-anchor="middle" x="234" y="-15.8" font-family="Times,serif" font-size="14.00">1000</text>
</g>
<g id="clust2" class="cluster">
<title>clusterhospitalized_predictors (5)</title>
<path fill="none" stroke="black" d="M276,-210.95C276,-210.95 424,-210.95 424,-210.95 430,-210.95 436,-216.95 436,-222.95 436,-222.95 436,-312.91 436,-312.91 436,-318.91 430,-324.91 424,-324.91 424,-324.91 276,-324.91 276,-324.91 270,-324.91 264,-318.91 264,-312.91 264,-312.91 264,-222.95 264,-222.95 264,-216.95 270,-210.95 276,-210.95"/>
<text text-anchor="middle" x="355" y="-218.75" font-family="Times,serif" font-size="14.00">hospitalized_predictors (5)</text>
</g>
<g id="clust3" class="cluster">
<title>clusterantibody_predictors (3)</title>
<path fill="none" stroke="black" d="M276,-435.86C276,-435.86 400,-435.86 400,-435.86 406,-435.86 412,-441.86 412,-447.86 412,-447.86 412,-537.81 412,-537.81 412,-543.81 406,-549.81 400,-549.81 400,-549.81 276,-549.81 276,-549.81 270,-549.81 264,-543.81 264,-537.81 264,-537.81 264,-447.86 264,-447.86 264,-441.86 270,-435.86 276,-435.86"/>
<text text-anchor="middle" x="340" y="-443.66" font-family="Times,serif" font-size="14.00">antibody_predictors (3)</text>
</g>
<!-- hospitalized -->
<g id="node1" class="node">
<title>hospitalized</title>
<ellipse fill="lightgrey" stroke="black" cx="139" cy="-76.48" rx="57.97" ry="37.45"/>
<text text-anchor="middle" x="139" y="-87.78" font-family="Times,serif" font-size="14.00">hospitalized</text>
<text text-anchor="middle" x="139" y="-72.78" font-family="Times,serif" font-size="14.00">~</text>
<text text-anchor="middle" x="139" y="-57.78" font-family="Times,serif" font-size="14.00">Bernoulli</text>
</g>
<!-- antibody -->
<g id="node2" class="node">
<title>antibody</title>
<ellipse fill="lightgrey" stroke="black" cx="203" cy="-279.43" rx="45.01" ry="37.45"/>
<text text-anchor="middle" x="203" y="-290.73" font-family="Times,serif" font-size="14.00">antibody</text>
<text text-anchor="middle" x="203" y="-275.73" font-family="Times,serif" font-size="14.00">~</text>
<text text-anchor="middle" x="203" y="-260.73" font-family="Times,serif" font-size="14.00">Normal</text>
</g>
<!-- mu_hospitalized -->
<g id="node3" class="node">
<title>mu_hospitalized</title>
<polygon fill="none" stroke="black" points="192.5,-202.95 85.5,-202.95 85.5,-149.95 192.5,-149.95 192.5,-202.95"/>
<text text-anchor="middle" x="139" y="-187.75" font-family="Times,serif" font-size="14.00">mu_hospitalized</text>
<text text-anchor="middle" x="139" y="-172.75" font-family="Times,serif" font-size="14.00">~</text>
<text text-anchor="middle" x="139" y="-157.75" font-family="Times,serif" font-size="14.00">Deterministic</text>
</g>
<!-- antibody&#45;&gt;mu_hospitalized -->
<g id="edge3" class="edge">
<title>antibody&#45;&gt;mu_hospitalized</title>
<path fill="none" stroke="black" d="M182.4,-245.92C175.68,-235.33 168.2,-223.52 161.36,-212.73"/>
<polygon fill="black" stroke="black" points="164.43,-211.03 156.12,-204.46 158.51,-214.78 164.43,-211.03"/>
</g>
<!-- mu_hospitalized&#45;&gt;hospitalized -->
<g id="edge11" class="edge">
<title>mu_hospitalized&#45;&gt;hospitalized</title>
<path fill="none" stroke="black" d="M139,-149.45C139,-142.13 139,-133.93 139,-125.75"/>
<polygon fill="black" stroke="black" points="142.5,-125.81 139,-115.81 135.5,-125.81 142.5,-125.81"/>
</g>
<!-- age -->
<g id="node4" class="node">
<title>age</title>
<path fill="lightgrey" stroke="black" d="M214,-530.84C214,-530.84 184,-530.84 184,-530.84 178,-530.84 172,-524.84 172,-518.84 172,-518.84 172,-489.84 172,-489.84 172,-483.84 178,-477.84 184,-477.84 184,-477.84 214,-477.84 214,-477.84 220,-477.84 226,-483.84 226,-489.84 226,-489.84 226,-518.84 226,-518.84 226,-524.84 220,-530.84 214,-530.84"/>
<text text-anchor="middle" x="199" y="-515.64" font-family="Times,serif" font-size="14.00">age</text>
<text text-anchor="middle" x="199" y="-500.64" font-family="Times,serif" font-size="14.00">~</text>
<text text-anchor="middle" x="199" y="-485.64" font-family="Times,serif" font-size="14.00">Data</text>
</g>
<!-- age&#45;&gt;mu_hospitalized -->
<g id="edge4" class="edge">
<title>age&#45;&gt;mu_hospitalized</title>
<path fill="none" stroke="black" d="M186.37,-477.34C179.17,-464.07 169.33,-448.16 158,-435.86 153.91,-431.41 149.83,-433.2 147,-427.86 137.3,-409.54 137.61,-279.65 138.4,-214.51"/>
<polygon fill="black" stroke="black" points="141.9,-214.7 138.53,-204.66 134.9,-214.61 141.9,-214.7"/>
</g>
<!-- mu_antibody -->
<g id="node6" class="node">
<title>mu_antibody</title>
<polygon fill="none" stroke="black" points="247.5,-416.88 156.5,-416.88 156.5,-363.88 247.5,-363.88 247.5,-416.88"/>
<text text-anchor="middle" x="202" y="-401.68" font-family="Times,serif" font-size="14.00">mu_antibody</text>
<text text-anchor="middle" x="202" y="-386.68" font-family="Times,serif" font-size="14.00">~</text>
<text text-anchor="middle" x="202" y="-371.68" font-family="Times,serif" font-size="14.00">Deterministic</text>
</g>
<!-- age&#45;&gt;mu_antibody -->
<g id="edge8" class="edge">
<title>age&#45;&gt;mu_antibody</title>
<path fill="none" stroke="black" d="M199.7,-477.37C200.09,-462.82 200.58,-444.42 201.01,-428.38"/>
<polygon fill="black" stroke="black" points="204.5,-428.81 201.27,-418.72 197.5,-428.62 204.5,-428.81"/>
</g>
<!-- comorbidity -->
<g id="node5" class="node">
<title>comorbidity</title>
<path fill="lightgrey" stroke="black" d="M87.5,-305.93C87.5,-305.93 28.5,-305.93 28.5,-305.93 22.5,-305.93 16.5,-299.93 16.5,-293.93 16.5,-293.93 16.5,-264.93 16.5,-264.93 16.5,-258.93 22.5,-252.93 28.5,-252.93 28.5,-252.93 87.5,-252.93 87.5,-252.93 93.5,-252.93 99.5,-258.93 99.5,-264.93 99.5,-264.93 99.5,-293.93 99.5,-293.93 99.5,-299.93 93.5,-305.93 87.5,-305.93"/>
<text text-anchor="middle" x="58" y="-290.73" font-family="Times,serif" font-size="14.00">comorbidity</text>
<text text-anchor="middle" x="58" y="-275.73" font-family="Times,serif" font-size="14.00">~</text>
<text text-anchor="middle" x="58" y="-260.73" font-family="Times,serif" font-size="14.00">Data</text>
</g>
<!-- comorbidity&#45;&gt;mu_hospitalized -->
<g id="edge5" class="edge">
<title>comorbidity&#45;&gt;mu_hospitalized</title>
<path fill="none" stroke="black" d="M78.65,-252.69C88.55,-240.34 100.56,-225.38 111.24,-212.06"/>
<polygon fill="black" stroke="black" points="113.91,-214.32 117.44,-204.33 108.45,-209.94 113.91,-214.32"/>
</g>
<!-- mu_antibody&#45;&gt;antibody -->
<g id="edge1" class="edge">
<title>mu_antibody&#45;&gt;antibody</title>
<path fill="none" stroke="black" d="M202.24,-363.56C202.33,-353.07 202.45,-340.6 202.56,-328.55"/>
<polygon fill="black" stroke="black" points="206.06,-328.74 202.65,-318.71 199.06,-328.68 206.06,-328.74"/>
</g>
<!-- vaccine -->
<g id="node7" class="node">
<title>vaccine</title>
<path fill="lightgrey" stroke="black" d="M137,-530.84C137,-530.84 103,-530.84 103,-530.84 97,-530.84 91,-524.84 91,-518.84 91,-518.84 91,-489.84 91,-489.84 91,-483.84 97,-477.84 103,-477.84 103,-477.84 137,-477.84 137,-477.84 143,-477.84 149,-483.84 149,-489.84 149,-489.84 149,-518.84 149,-518.84 149,-524.84 143,-530.84 137,-530.84"/>
<text text-anchor="middle" x="120" y="-515.64" font-family="Times,serif" font-size="14.00">vaccine</text>
<text text-anchor="middle" x="120" y="-500.64" font-family="Times,serif" font-size="14.00">~</text>
<text text-anchor="middle" x="120" y="-485.64" font-family="Times,serif" font-size="14.00">Data</text>
</g>
<!-- vaccine&#45;&gt;mu_hospitalized -->
<g id="edge6" class="edge">
<title>vaccine&#45;&gt;mu_hospitalized</title>
<path fill="none" stroke="black" d="M120.37,-477.46C121.26,-428.18 124.14,-317.24 133.78,-214.58"/>
<polygon fill="black" stroke="black" points="137.24,-215.19 134.72,-204.9 130.27,-214.51 137.24,-215.19"/>
</g>
<!-- vaccine&#45;&gt;mu_antibody -->
<g id="edge10" class="edge">
<title>vaccine&#45;&gt;mu_antibody</title>
<path fill="none" stroke="black" d="M135.24,-477.41C143.09,-464.59 153.08,-449.08 163,-435.86 165.49,-432.54 168.16,-429.17 170.9,-425.83"/>
<polygon fill="black" stroke="black" points="173.46,-428.22 177.24,-418.32 168.11,-423.7 173.46,-428.22"/>
</g>
<!-- beta_hospitalized -->
<g id="node8" class="node">
<title>beta_hospitalized</title>
<ellipse fill="none" stroke="black" cx="350" cy="-279.43" rx="78.48" ry="37.45"/>
<text text-anchor="middle" x="350" y="-290.73" font-family="Times,serif" font-size="14.00">beta_hospitalized</text>
<text text-anchor="middle" x="350" y="-275.73" font-family="Times,serif" font-size="14.00">~</text>
<text text-anchor="middle" x="350" y="-260.73" font-family="Times,serif" font-size="14.00">Normal</text>
</g>
<!-- beta_hospitalized&#45;&gt;mu_hospitalized -->
<g id="edge7" class="edge">
<title>beta_hospitalized&#45;&gt;mu_hospitalized</title>
<path fill="none" stroke="black" d="M313.52,-246.17C297.91,-233.72 278.93,-220.25 260,-210.95 242.58,-202.4 222.65,-195.74 204.05,-190.69"/>
<polygon fill="black" stroke="black" points="205,-187.33 194.45,-188.21 203.25,-194.1 205,-187.33"/>
</g>
<!-- sigma_antibody -->
<g id="node9" class="node">
<title>sigma_antibody</title>
<ellipse fill="none" stroke="black" cx="339" cy="-390.38" rx="73.58" ry="37.45"/>
<text text-anchor="middle" x="339" y="-401.68" font-family="Times,serif" font-size="14.00">sigma_antibody</text>
<text text-anchor="middle" x="339" y="-386.68" font-family="Times,serif" font-size="14.00">~</text>
<text text-anchor="middle" x="339" y="-371.68" font-family="Times,serif" font-size="14.00">Halfnormal</text>
</g>
<!-- sigma_antibody&#45;&gt;antibody -->
<g id="edge2" class="edge">
<title>sigma_antibody&#45;&gt;antibody</title>
<path fill="none" stroke="black" d="M300.03,-358.16C282.35,-344 261.46,-327.27 243.6,-312.95"/>
<polygon fill="black" stroke="black" points="246.27,-310.61 236.28,-307.09 241.9,-316.08 246.27,-310.61"/>
</g>
<!-- beta_antibody -->
<g id="node10" class="node">
<title>beta_antibody</title>
<ellipse fill="none" stroke="black" cx="338" cy="-504.34" rx="65.52" ry="37.45"/>
<text text-anchor="middle" x="338" y="-515.64" font-family="Times,serif" font-size="14.00">beta_antibody</text>
<text text-anchor="middle" x="338" y="-500.64" font-family="Times,serif" font-size="14.00">~</text>
<text text-anchor="middle" x="338" y="-485.64" font-family="Times,serif" font-size="14.00">Normal</text>
</g>
<!-- beta_antibody&#45;&gt;mu_antibody -->
<g id="edge9" class="edge">
<title>beta_antibody&#45;&gt;mu_antibody</title>
<path fill="none" stroke="black" d="M303.04,-472.32C289.72,-460.71 274.3,-447.51 260,-435.86 255.27,-432 250.26,-428.02 245.26,-424.11"/>
<polygon fill="black" stroke="black" points="247.55,-421.45 237.5,-418.08 243.25,-426.98 247.55,-421.45"/>
</g>
</g>
</svg>
