<?xml version="1.0" encoding="UTF-8" standalone="no"?>
<!DOCTYPE svg PUBLIC "-//W3C//DTD SVG 1.1//EN"
 "http://www.w3.org/Graphics/SVG/1.1/DTD/svg11.dtd">
<!-- Generated by graphviz version 7.1.0 (0)
 -->
<!-- Pages: 1 -->
<svg width="422pt" height="121pt"
 viewBox="0.00 0.00 422.00 121.00" xmlns="http://www.w3.org/2000/svg" xmlns:xlink="http://www.w3.org/1999/xlink">
<g id="graph0" class="graph" transform="scale(1 1) rotate(0) translate(4 117)">
<polygon fill="white" stroke="none" points="-4,4 -4,-117 418,-117 418,4 -4,4"/>
<!-- X0 -->
<g id="node1" class="node">
<title>X0</title>
<polygon fill="none" stroke="black" points="54,-36 0,-36 0,0 54,0 54,-36"/>
<text text-anchor="middle" x="27" y="-14.3" font-family="Times,serif" font-size="14.00">X0</text>
</g>
<!-- X1 -->
<g id="node2" class="node">
<title>X1</title>
<ellipse fill="none" stroke="black" cx="117" cy="-41" rx="27" ry="18"/>
<text text-anchor="middle" x="117" y="-37.3" font-family="Times,serif" font-size="14.00">X1</text>
</g>
<!-- X0&#45;&gt;X1 -->
<g id="edge1" class="edge">
<title>X0&#45;&gt;X1</title>
<path fill="none" stroke="black" d="M54.4,-24.9C62.57,-27.04 71.7,-29.42 80.39,-31.69"/>
<polygon fill="black" stroke="black" points="79.4,-35.05 89.96,-34.19 81.17,-28.28 79.4,-35.05"/>
</g>
<!-- X3 -->
<g id="node5" class="node">
<title>X3</title>
<ellipse fill="none" stroke="black" cx="297" cy="-18" rx="27" ry="18"/>
<text text-anchor="middle" x="297" y="-14.3" font-family="Times,serif" font-size="14.00">X3</text>
</g>
<!-- X0&#45;&gt;X3 -->
<g id="edge5" class="edge">
<title>X0&#45;&gt;X3</title>
<path fill="none" stroke="black" d="M54.23,-15.93C65.26,-15.16 78.25,-14.38 90,-14 153.97,-11.94 170.03,-11.94 234,-14 241.9,-14.25 250.35,-14.69 258.39,-15.18"/>
<polygon fill="black" stroke="black" points="258.05,-18.67 268.26,-15.83 258.51,-11.68 258.05,-18.67"/>
</g>
<!-- X2 -->
<g id="node3" class="node">
<title>X2</title>
<ellipse fill="none" stroke="black" cx="207" cy="-95" rx="27" ry="18"/>
<text text-anchor="middle" x="207" y="-91.3" font-family="Times,serif" font-size="14.00">X2</text>
</g>
<!-- X1&#45;&gt;X2 -->
<g id="edge2" class="edge">
<title>X1&#45;&gt;X2</title>
<path fill="none" stroke="black" d="M137.53,-52.98C149.15,-60.12 164.11,-69.3 177.08,-77.25"/>
<polygon fill="black" stroke="black" points="174.88,-80.01 185.23,-82.26 178.54,-74.04 174.88,-80.01"/>
</g>
<!-- S1 -->
<g id="node4" class="node">
<title>S1</title>
<ellipse fill="none" stroke="black" cx="207" cy="-41" rx="27" ry="18"/>
<text text-anchor="middle" x="207" y="-37.3" font-family="Times,serif" font-size="14.00">S1</text>
</g>
<!-- X1&#45;&gt;S1 -->
<g id="edge3" class="edge">
<title>X1&#45;&gt;S1</title>
<path fill="none" stroke="black" d="M144.4,-41C151.89,-41 160.18,-41 168.2,-41"/>
<polygon fill="black" stroke="black" points="168.1,-44.5 178.1,-41 168.1,-37.5 168.1,-44.5"/>
</g>
<!-- X2&#45;&gt;X3 -->
<g id="edge4" class="edge">
<title>X2&#45;&gt;X3</title>
<path fill="none" stroke="black" d="M224.14,-80.88C237.33,-69.34 256.19,-52.83 271.29,-39.62"/>
<polygon fill="black" stroke="black" points="273.3,-42.51 278.52,-33.29 268.69,-37.24 273.3,-42.51"/>
</g>
<!-- S2 -->
<g id="node6" class="node">
<title>S2</title>
<ellipse fill="none" stroke="black" cx="297" cy="-95" rx="27" ry="18"/>
<text text-anchor="middle" x="297" y="-91.3" font-family="Times,serif" font-size="14.00">S2</text>
</g>
<!-- X2&#45;&gt;S2 -->
<g id="edge6" class="edge">
<title>X2&#45;&gt;S2</title>
<path fill="none" stroke="black" d="M234.4,-95C241.89,-95 250.18,-95 258.2,-95"/>
<polygon fill="black" stroke="black" points="258.1,-98.5 268.1,-95 258.1,-91.5 258.1,-98.5"/>
</g>
<!-- S3 -->
<g id="node7" class="node">
<title>S3</title>
<ellipse fill="none" stroke="black" cx="387" cy="-18" rx="27" ry="18"/>
<text text-anchor="middle" x="387" y="-14.3" font-family="Times,serif" font-size="14.00">S3</text>
</g>
<!-- X3&#45;&gt;S3 -->
<g id="edge7" class="edge">
<title>X3&#45;&gt;S3</title>
<path fill="none" stroke="black" d="M324.4,-18C331.89,-18 340.18,-18 348.2,-18"/>
<polygon fill="black" stroke="black" points="348.1,-21.5 358.1,-18 348.1,-14.5 348.1,-21.5"/>
</g>
</g>
</svg>
