<?xml version="1.0" encoding="UTF-8" standalone="no"?>
<!DOCTYPE svg PUBLIC "-//W3C//DTD SVG 1.1//EN"
 "http://www.w3.org/Graphics/SVG/1.1/DTD/svg11.dtd">
<!-- Generated by graphviz version 7.1.0 (0)
 -->
<!-- Pages: 1 -->
<svg width="159pt" height="98pt"
 viewBox="0.00 0.00 159.00 98.00" xmlns="http://www.w3.org/2000/svg" xmlns:xlink="http://www.w3.org/1999/xlink">
<g id="graph0" class="graph" transform="scale(1 1) rotate(0) translate(4 94)">
<polygon fill="white" stroke="none" points="-4,4 -4,-94 155,-94 155,4 -4,4"/>
<!-- X -->
<g id="node1" class="node">
<title>X</title>
<polygon fill="none" stroke="black" points="54,-90 0,-90 0,-54 54,-54 54,-90"/>
<text text-anchor="middle" x="27" y="-68.3" font-family="Times,serif" font-size="14.00">X</text>
</g>
<!-- Y -->
<g id="node3" class="node">
<title>Y</title>
<ellipse fill="none" stroke="black" cx="124" cy="-45" rx="27" ry="18"/>
<text text-anchor="middle" x="124" y="-41.3" font-family="Times,serif" font-size="14.00">Y</text>
</g>
<!-- X&#45;&gt;Y -->
<g id="edge1" class="edge">
<title>X&#45;&gt;Y</title>
<path fill="none" stroke="black" d="M54.46,-64.48C64.73,-61.56 76.64,-58.18 87.63,-55.05"/>
<polygon fill="black" stroke="black" points="88.51,-58.44 97.18,-52.34 86.6,-51.71 88.51,-58.44"/>
<text text-anchor="middle" x="75.5" y="-62.8" font-family="Times,serif" font-size="14.00">a</text>
</g>
<!-- Z -->
<g id="node2" class="node">
<title>Z</title>
<polygon fill="none" stroke="black" points="54,-36 0,-36 0,0 54,0 54,-36"/>
<text text-anchor="middle" x="27" y="-14.3" font-family="Times,serif" font-size="14.00">Z</text>
</g>
<!-- Z&#45;&gt;Y -->
<g id="edge2" class="edge">
<title>Z&#45;&gt;Y</title>
<path fill="none" stroke="black" d="M54.46,-25.52C64.73,-28.44 76.64,-31.82 87.63,-34.95"/>
<polygon fill="black" stroke="black" points="86.6,-38.29 97.18,-37.66 88.51,-31.56 86.6,-38.29"/>
<text text-anchor="middle" x="75.5" y="-35.8" font-family="Times,serif" font-size="14.00">b</text>
</g>
</g>
</svg>
