<?xml version="1.0" encoding="UTF-8" standalone="no"?>
<!DOCTYPE svg PUBLIC "-//W3C//DTD SVG 1.1//EN"
 "http://www.w3.org/Graphics/SVG/1.1/DTD/svg11.dtd">
<!-- Generated by graphviz version 15.1.0 (20260618.0150)
 -->
<!-- Pages: 1 -->
<svg width="499pt" height="624pt"
 viewBox="0.00 0.00 499.00 624.00" xmlns="http://www.w3.org/2000/svg" xmlns:xlink="http://www.w3.org/1999/xlink">
<g id="graph0" class="graph" transform="scale(1 1) rotate(0) translate(4 620.09)">
<polygon fill="white" stroke="none" points="-4,4 -4,-620.09 494.93,-620.09 494.93,4 -4,4"/>
<g id="clust1" class="cluster">
<title>cluster500</title>
<path fill="none" stroke="black" d="M24.93,-8C24.93,-8 278.93,-8 278.93,-8 284.93,-8 290.93,-14 290.93,-20 290.93,-20 290.93,-584.18 290.93,-584.18 290.93,-590.18 284.93,-596.18 278.93,-596.18 278.93,-596.18 24.93,-596.18 24.93,-596.18 18.93,-596.18 12.93,-590.18 12.93,-584.18 12.93,-584.18 12.93,-20 12.93,-20 12.93,-14 18.93,-8 24.93,-8"/>
<text xml:space="preserve" text-anchor="middle" x="272.8" y="-15.2" font-family="Times,serif" font-size="14.00">500</text>
</g>
<g id="clust2" class="cluster">
<title>clustersales_predictors (5)</title>
<path fill="none" stroke="black" d="M310.93,-247.13C310.93,-247.13 409.93,-247.13 409.93,-247.13 415.93,-247.13 421.93,-253.13 421.93,-259.13 421.93,-259.13 421.93,-356.95 421.93,-356.95 421.93,-362.95 415.93,-368.95 409.93,-368.95 409.93,-368.95 310.93,-368.95 310.93,-368.95 304.93,-368.95 298.93,-362.95 298.93,-356.95 298.93,-356.95 298.93,-259.13 298.93,-259.13 298.93,-253.13 304.93,-247.13 310.93,-247.13"/>
<text xml:space="preserve" text-anchor="middle" x="360.68" y="-254.33" font-family="Times,serif" font-size="14.00">sales_predictors (5)</text>
</g>
<g id="clust3" class="cluster">
<title>clustersearch_traffic_predictors (3)</title>
<path fill="none" stroke="black" d="M310.93,-486.27C310.93,-486.27 470.93,-486.27 470.93,-486.27 476.93,-486.27 482.93,-492.27 482.93,-498.27 482.93,-498.27 482.93,-596.09 482.93,-596.09 482.93,-602.09 476.93,-608.09 470.93,-608.09 470.93,-608.09 310.93,-608.09 310.93,-608.09 304.93,-608.09 298.93,-602.09 298.93,-596.09 298.93,-596.09 298.93,-498.27 298.93,-498.27 298.93,-492.27 304.93,-486.27 310.93,-486.27"/>
<text xml:space="preserve" text-anchor="middle" x="397.68" y="-493.47" font-family="Times,serif" font-size="14.00">search_traffic_predictors (3)</text>
</g>
<!-- sales -->
<g id="node1" class="node">
<title>sales</title>
<ellipse fill="lightgrey" stroke="black" cx="211.93" cy="-81.16" rx="41.01" ry="40.66"/>
<text xml:space="preserve" text-anchor="middle" x="211.93" y="-92.61" font-family="Times,serif" font-size="14.00">sales</text>
<text xml:space="preserve" text-anchor="middle" x="211.93" y="-76.11" font-family="Times,serif" font-size="14.00">~</text>
<text xml:space="preserve" text-anchor="middle" x="211.93" y="-59.61" font-family="Times,serif" font-size="14.00">Normal</text>
</g>
<!-- mu_sales -->
<g id="node2" class="node">
<title>mu_sales</title>
<polygon fill="none" stroke="black" points="199.05,-227.23 108.8,-227.23 108.8,-169.73 199.05,-169.73 199.05,-227.23"/>
<text xml:space="preserve" text-anchor="middle" x="153.93" y="-209.93" font-family="Times,serif" font-size="14.00">mu_sales</text>
<text xml:space="preserve" text-anchor="middle" x="153.93" y="-193.43" font-family="Times,serif" font-size="14.00">~</text>
<text xml:space="preserve" text-anchor="middle" x="153.93" y="-176.93" font-family="Times,serif" font-size="14.00">Deterministic</text>
</g>
<!-- mu_sales&#45;&gt;sales -->
<g id="edge11" class="edge">
<title>mu_sales&#45;&gt;sales</title>
<path fill="none" stroke="black" d="M168.12,-169.27C174.38,-156.82 181.9,-141.87 188.92,-127.89"/>
<polygon fill="black" stroke="black" points="191.88,-129.8 193.25,-119.29 185.63,-126.65 191.88,-129.8"/>
</g>
<!-- perf_spend -->
<g id="node3" class="node">
<title>perf_spend</title>
<path fill="lightgrey" stroke="black" d="M270.93,-349.04C270.93,-349.04 218.93,-349.04 218.93,-349.04 212.93,-349.04 206.93,-343.04 206.93,-337.04 206.93,-337.04 206.93,-303.54 206.93,-303.54 206.93,-297.54 212.93,-291.54 218.93,-291.54 218.93,-291.54 270.93,-291.54 270.93,-291.54 276.93,-291.54 282.93,-297.54 282.93,-303.54 282.93,-303.54 282.93,-337.04 282.93,-337.04 282.93,-343.04 276.93,-349.04 270.93,-349.04"/>
<text xml:space="preserve" text-anchor="middle" x="244.93" y="-331.74" font-family="Times,serif" font-size="14.00">perf_spend</text>
<text xml:space="preserve" text-anchor="middle" x="244.93" y="-315.24" font-family="Times,serif" font-size="14.00">~</text>
<text xml:space="preserve" text-anchor="middle" x="244.93" y="-298.74" font-family="Times,serif" font-size="14.00">Data</text>
</g>
<!-- perf_spend&#45;&gt;mu_sales -->
<g id="edge3" class="edge">
<title>perf_spend&#45;&gt;mu_sales</title>
<path fill="none" stroke="black" d="M228.13,-291.13C219.6,-277.47 208.76,-261.06 197.93,-247.13 195.05,-243.44 191.94,-239.68 188.76,-235.98"/>
<polygon fill="black" stroke="black" points="191.52,-233.82 182.27,-228.65 186.28,-238.46 191.52,-233.82"/>
</g>
<!-- mu_search_traffic -->
<g id="node4" class="node">
<title>mu_search_traffic</title>
<polygon fill="none" stroke="black" points="187.43,-466.36 72.43,-466.36 72.43,-408.86 187.43,-408.86 187.43,-466.36"/>
<text xml:space="preserve" text-anchor="middle" x="129.93" y="-449.06" font-family="Times,serif" font-size="14.00">mu_search_traffic</text>
<text xml:space="preserve" text-anchor="middle" x="129.93" y="-432.56" font-family="Times,serif" font-size="14.00">~</text>
<text xml:space="preserve" text-anchor="middle" x="129.93" y="-416.06" font-family="Times,serif" font-size="14.00">Deterministic</text>
</g>
<!-- search_traffic -->
<g id="node5" class="node">
<title>search_traffic</title>
<ellipse fill="lightgrey" stroke="black" cx="124.93" cy="-320.29" rx="63.82" ry="40.66"/>
<text xml:space="preserve" text-anchor="middle" x="124.93" y="-331.74" font-family="Times,serif" font-size="14.00">search_traffic</text>
<text xml:space="preserve" text-anchor="middle" x="124.93" y="-315.24" font-family="Times,serif" font-size="14.00">~</text>
<text xml:space="preserve" text-anchor="middle" x="124.93" y="-298.74" font-family="Times,serif" font-size="14.00">Normal</text>
</g>
<!-- mu_search_traffic&#45;&gt;search_traffic -->
<g id="edge1" class="edge">
<title>mu_search_traffic&#45;&gt;search_traffic</title>
<path fill="none" stroke="black" d="M128.7,-408.4C128.23,-397.58 127.68,-384.86 127.15,-372.54"/>
<polygon fill="black" stroke="black" points="130.66,-372.76 126.73,-362.92 123.67,-373.06 130.66,-372.76"/>
</g>
<!-- search_traffic&#45;&gt;mu_sales -->
<g id="edge4" class="edge">
<title>search_traffic&#45;&gt;mu_sales</title>
<path fill="none" stroke="black" d="M134.5,-279.73C137.69,-266.55 141.24,-251.88 144.43,-238.72"/>
<polygon fill="black" stroke="black" points="147.81,-239.64 146.76,-229.1 141,-237.99 147.81,-239.64"/>
</g>
<!-- season -->
<g id="node6" class="node">
<title>season</title>
<path fill="lightgrey" stroke="black" d="M62.93,-588.18C62.93,-588.18 32.93,-588.18 32.93,-588.18 26.93,-588.18 20.93,-582.18 20.93,-576.18 20.93,-576.18 20.93,-542.68 20.93,-542.68 20.93,-536.68 26.93,-530.68 32.93,-530.68 32.93,-530.68 62.93,-530.68 62.93,-530.68 68.93,-530.68 74.93,-536.68 74.93,-542.68 74.93,-542.68 74.93,-576.18 74.93,-576.18 74.93,-582.18 68.93,-588.18 62.93,-588.18"/>
<text xml:space="preserve" text-anchor="middle" x="47.93" y="-570.88" font-family="Times,serif" font-size="14.00">season</text>
<text xml:space="preserve" text-anchor="middle" x="47.93" y="-554.38" font-family="Times,serif" font-size="14.00">~</text>
<text xml:space="preserve" text-anchor="middle" x="47.93" y="-537.88" font-family="Times,serif" font-size="14.00">Data</text>
</g>
<!-- season&#45;&gt;mu_sales -->
<g id="edge6" class="edge">
<title>season&#45;&gt;mu_sales</title>
<path fill="none" stroke="black" d="M36.03,-530.46C13.22,-472.02 -29.33,-335.1 30.93,-247.13 45.97,-225.18 72.69,-213.34 97.4,-206.95"/>
<polygon fill="black" stroke="black" points="98.13,-210.37 107.09,-204.72 96.56,-203.55 98.13,-210.37"/>
</g>
<!-- season&#45;&gt;mu_search_traffic -->
<g id="edge8" class="edge">
<title>season&#45;&gt;mu_search_traffic</title>
<path fill="none" stroke="black" d="M60.07,-530.3C66.58,-516.5 75.26,-499.95 84.93,-486.27 87.51,-482.61 90.37,-478.95 93.35,-475.37"/>
<polygon fill="black" stroke="black" points="95.98,-477.68 99.94,-467.85 90.72,-473.07 95.98,-477.68"/>
</g>
<!-- brand_spend -->
<g id="node7" class="node">
<title>brand_spend</title>
<path fill="lightgrey" stroke="black" d="M166.43,-588.18C166.43,-588.18 105.43,-588.18 105.43,-588.18 99.43,-588.18 93.43,-582.18 93.43,-576.18 93.43,-576.18 93.43,-542.68 93.43,-542.68 93.43,-536.68 99.43,-530.68 105.43,-530.68 105.43,-530.68 166.43,-530.68 166.43,-530.68 172.43,-530.68 178.43,-536.68 178.43,-542.68 178.43,-542.68 178.43,-576.18 178.43,-576.18 178.43,-582.18 172.43,-588.18 166.43,-588.18"/>
<text xml:space="preserve" text-anchor="middle" x="135.93" y="-570.88" font-family="Times,serif" font-size="14.00">brand_spend</text>
<text xml:space="preserve" text-anchor="middle" x="135.93" y="-554.38" font-family="Times,serif" font-size="14.00">~</text>
<text xml:space="preserve" text-anchor="middle" x="135.93" y="-537.88" font-family="Times,serif" font-size="14.00">Data</text>
</g>
<!-- brand_spend&#45;&gt;mu_sales -->
<g id="edge7" class="edge">
<title>brand_spend&#45;&gt;mu_sales</title>
<path fill="none" stroke="black" d="M120.96,-530.42C111.89,-515.64 99.13,-498.16 83.93,-486.27 76.38,-480.37 69.72,-485.89 63.93,-478.27 32.81,-437.32 24.31,-290.52 51.93,-247.13 62.36,-230.74 80.08,-219.89 97.85,-212.75"/>
<polygon fill="black" stroke="black" points="98.92,-216.09 107.13,-209.39 96.54,-209.51 98.92,-216.09"/>
</g>
<!-- brand_spend&#45;&gt;mu_search_traffic -->
<g id="edge10" class="edge">
<title>brand_spend&#45;&gt;mu_search_traffic</title>
<path fill="none" stroke="black" d="M134.52,-530.34C133.74,-514.71 132.75,-495.02 131.89,-477.89"/>
<polygon fill="black" stroke="black" points="135.4,-477.85 131.4,-468.04 128.41,-478.2 135.4,-477.85"/>
</g>
<!-- beta_sales -->
<g id="node8" class="node">
<title>beta_sales</title>
<ellipse fill="none" stroke="black" cx="357.93" cy="-320.29" rx="50.56" ry="40.66"/>
<text xml:space="preserve" text-anchor="middle" x="357.93" y="-331.74" font-family="Times,serif" font-size="14.00">beta_sales</text>
<text xml:space="preserve" text-anchor="middle" x="357.93" y="-315.24" font-family="Times,serif" font-size="14.00">~</text>
<text xml:space="preserve" text-anchor="middle" x="357.93" y="-298.74" font-family="Times,serif" font-size="14.00">Normal</text>
</g>
<!-- beta_sales&#45;&gt;mu_sales -->
<g id="edge5" class="edge">
<title>beta_sales&#45;&gt;mu_sales</title>
<path fill="none" stroke="black" d="M333.78,-284.47C323.15,-271.26 309.72,-257.03 294.93,-247.13 269.54,-230.15 237.53,-218.69 210.43,-211.27"/>
<polygon fill="black" stroke="black" points="211.56,-207.95 201,-208.82 209.8,-214.73 211.56,-207.95"/>
</g>
<!-- sigma_sales -->
<g id="node9" class="node">
<title>sigma_sales</title>
<ellipse fill="none" stroke="black" cx="356.93" cy="-198.48" rx="57.98" ry="40.66"/>
<text xml:space="preserve" text-anchor="middle" x="356.93" y="-209.93" font-family="Times,serif" font-size="14.00">sigma_sales</text>
<text xml:space="preserve" text-anchor="middle" x="356.93" y="-193.43" font-family="Times,serif" font-size="14.00">~</text>
<text xml:space="preserve" text-anchor="middle" x="356.93" y="-176.93" font-family="Times,serif" font-size="14.00">Halfnormal</text>
</g>
<!-- sigma_sales&#45;&gt;sales -->
<g id="edge12" class="edge">
<title>sigma_sales&#45;&gt;sales</title>
<path fill="none" stroke="black" d="M319.21,-167.48C298.74,-151.2 273.43,-131.07 252.53,-114.45"/>
<polygon fill="black" stroke="black" points="254.76,-111.75 244.76,-108.27 250.41,-117.23 254.76,-111.75"/>
</g>
<!-- sigma_search_traffic -->
<g id="node10" class="node">
<title>sigma_search_traffic</title>
<ellipse fill="none" stroke="black" cx="390.93" cy="-437.61" rx="91.92" ry="40.66"/>
<text xml:space="preserve" text-anchor="middle" x="390.93" y="-449.06" font-family="Times,serif" font-size="14.00">sigma_search_traffic</text>
<text xml:space="preserve" text-anchor="middle" x="390.93" y="-432.56" font-family="Times,serif" font-size="14.00">~</text>
<text xml:space="preserve" text-anchor="middle" x="390.93" y="-416.06" font-family="Times,serif" font-size="14.00">Halfnormal</text>
</g>
<!-- sigma_search_traffic&#45;&gt;search_traffic -->
<g id="edge2" class="edge">
<title>sigma_search_traffic&#45;&gt;search_traffic</title>
<path fill="none" stroke="black" d="M325.72,-408.54C315.48,-404.46 304.97,-400.46 294.93,-396.95 252.57,-382.14 238.72,-387.65 197.93,-368.95 190.64,-365.61 183.25,-361.62 176.1,-357.38"/>
<polygon fill="black" stroke="black" points="178.19,-354.55 167.84,-352.28 174.51,-360.51 178.19,-354.55"/>
</g>
<!-- beta_search_traffic -->
<g id="node11" class="node">
<title>beta_search_traffic</title>
<ellipse fill="none" stroke="black" cx="390.93" cy="-559.43" rx="84.5" ry="40.66"/>
<text xml:space="preserve" text-anchor="middle" x="390.93" y="-570.88" font-family="Times,serif" font-size="14.00">beta_search_traffic</text>
<text xml:space="preserve" text-anchor="middle" x="390.93" y="-554.38" font-family="Times,serif" font-size="14.00">~</text>
<text xml:space="preserve" text-anchor="middle" x="390.93" y="-537.88" font-family="Times,serif" font-size="14.00">Normal</text>
</g>
<!-- beta_search_traffic&#45;&gt;mu_search_traffic -->
<g id="edge9" class="edge">
<title>beta_search_traffic&#45;&gt;mu_search_traffic</title>
<path fill="none" stroke="black" d="M351.04,-523.3C334.56,-510.21 314.7,-496.14 294.93,-486.27 264.75,-471.21 229.03,-460.15 198.55,-452.5"/>
<polygon fill="black" stroke="black" points="199.6,-449.16 189.05,-450.2 197.94,-455.96 199.6,-449.16"/>
</g>
</g>
</svg>
