<?xml version="1.0" encoding="UTF-8" standalone="no"?>
<!DOCTYPE svg PUBLIC "-//W3C//DTD SVG 1.1//EN"
 "http://www.w3.org/Graphics/SVG/1.1/DTD/svg11.dtd">
<!-- Generated by graphviz version 7.1.0 (0)
 -->
<!-- Pages: 1 -->
<svg width="1209pt" height="580pt"
 viewBox="0.00 0.00 1208.69 579.77" xmlns="http://www.w3.org/2000/svg" xmlns:xlink="http://www.w3.org/1999/xlink">
<g id="graph0" class="graph" transform="scale(1 1) rotate(0) translate(4 575.77)">
<polygon fill="white" stroke="none" points="-4,4 -4,-575.77 1204.69,-575.77 1204.69,4 -4,4"/>
<g id="clust3" class="cluster">
<title>clusterawareness_predictors (2)</title>
<path fill="none" stroke="black" d="M1046.69,-232.91C1046.69,-232.91 1180.69,-232.91 1180.69,-232.91 1186.69,-232.91 1192.69,-238.91 1192.69,-244.91 1192.69,-244.91 1192.69,-334.86 1192.69,-334.86 1192.69,-340.86 1186.69,-346.86 1180.69,-346.86 1180.69,-346.86 1046.69,-346.86 1046.69,-346.86 1040.69,-346.86 1034.69,-340.86 1034.69,-334.86 1034.69,-334.86 1034.69,-244.91 1034.69,-244.91 1034.69,-238.91 1040.69,-232.91 1046.69,-232.91"/>
<text text-anchor="middle" x="1116.69" y="-240.71" font-family="Times,serif" font-size="14.00">awareness_predictors (2)</text>
</g>
<g id="clust4" class="cluster">
<title>cluster12</title>
<path fill="none" stroke="black" d="M32.69,-354.86C32.69,-354.86 264.69,-354.86 264.69,-354.86 270.69,-354.86 276.69,-360.86 276.69,-366.86 276.69,-366.86 276.69,-456.81 276.69,-456.81 276.69,-462.81 270.69,-468.81 264.69,-468.81 264.69,-468.81 32.69,-468.81 32.69,-468.81 26.69,-468.81 20.69,-462.81 20.69,-456.81 20.69,-456.81 20.69,-366.86 20.69,-366.86 20.69,-360.86 26.69,-354.86 32.69,-354.86"/>
<text text-anchor="middle" x="261.69" y="-362.66" font-family="Times,serif" font-size="14.00">12</text>
</g>
<g id="clust5" class="cluster">
<title>cluster40</title>
<path fill="none" stroke="black" d="M296.69,-354.86C296.69,-354.86 548.69,-354.86 548.69,-354.86 554.69,-354.86 560.69,-360.86 560.69,-366.86 560.69,-366.86 560.69,-456.81 560.69,-456.81 560.69,-462.81 554.69,-468.81 548.69,-468.81 548.69,-468.81 296.69,-468.81 296.69,-468.81 290.69,-468.81 284.69,-462.81 284.69,-456.81 284.69,-456.81 284.69,-366.86 284.69,-366.86 284.69,-360.86 290.69,-354.86 296.69,-354.86"/>
<text text-anchor="middle" x="545.69" y="-362.66" font-family="Times,serif" font-size="14.00">40</text>
</g>
<g id="clust1" class="cluster">
<title>cluster52 x 1</title>
<path fill="none" stroke="black" d="M137.69,-8C137.69,-8 677.69,-8 677.69,-8 683.69,-8 689.69,-14 689.69,-20 689.69,-20 689.69,-334.86 689.69,-334.86 689.69,-340.86 683.69,-346.86 677.69,-346.86 677.69,-346.86 137.69,-346.86 137.69,-346.86 131.69,-346.86 125.69,-340.86 125.69,-334.86 125.69,-334.86 125.69,-20 125.69,-20 125.69,-14 131.69,-8 137.69,-8"/>
<text text-anchor="middle" x="664.19" y="-15.8" font-family="Times,serif" font-size="14.00">52 x 1</text>
</g>
<g id="clust2" class="cluster">
<title>clustersales_predictors (3)</title>
<path fill="none" stroke="black" d="M915.69,-232.91C915.69,-232.91 1014.69,-232.91 1014.69,-232.91 1020.69,-232.91 1026.69,-238.91 1026.69,-244.91 1026.69,-244.91 1026.69,-334.86 1026.69,-334.86 1026.69,-340.86 1020.69,-346.86 1014.69,-346.86 1014.69,-346.86 915.69,-346.86 915.69,-346.86 909.69,-346.86 903.69,-340.86 903.69,-334.86 903.69,-334.86 903.69,-244.91 903.69,-244.91 903.69,-238.91 909.69,-232.91 915.69,-232.91"/>
<text text-anchor="middle" x="965.19" y="-240.71" font-family="Times,serif" font-size="14.00">sales_predictors (3)</text>
</g>
<!-- sigma_sales -->
<g id="node1" class="node">
<title>sigma_sales</title>
<ellipse fill="none" stroke="black" cx="58.69" cy="-187.43" rx="58.88" ry="37.45"/>
<text text-anchor="middle" x="58.69" y="-198.73" font-family="Times,serif" font-size="14.00">sigma_sales</text>
<text text-anchor="middle" x="58.69" y="-183.73" font-family="Times,serif" font-size="14.00">~</text>
<text text-anchor="middle" x="58.69" y="-168.73" font-family="Times,serif" font-size="14.00">Halfnormal</text>
</g>
<!-- sales -->
<g id="node5" class="node">
<title>sales</title>
<ellipse fill="lightgrey" stroke="black" cx="405.69" cy="-76.48" rx="41.94" ry="37.45"/>
<text text-anchor="middle" x="405.69" y="-87.78" font-family="Times,serif" font-size="14.00">sales</text>
<text text-anchor="middle" x="405.69" y="-72.78" font-family="Times,serif" font-size="14.00">~</text>
<text text-anchor="middle" x="405.69" y="-57.78" font-family="Times,serif" font-size="14.00">Normal</text>
</g>
<!-- sigma_sales&#45;&gt;sales -->
<g id="edge25" class="edge">
<title>sigma_sales&#45;&gt;sales</title>
<path fill="none" stroke="black" d="M99.89,-160.43C107,-156.58 114.43,-152.91 121.69,-149.95 199.65,-118.15 295.48,-97.18 353.51,-86.33"/>
<polygon fill="black" stroke="black" points="353.9,-89.81 363.11,-84.56 352.64,-82.93 353.9,-89.81"/>
</g>
<!-- sigma_awareness_survey -->
<g id="node2" class="node">
<title>sigma_awareness_survey</title>
<ellipse fill="none" stroke="black" cx="285.69" cy="-534.29" rx="109.7" ry="37.45"/>
<text text-anchor="middle" x="285.69" y="-545.59" font-family="Times,serif" font-size="14.00">sigma_awareness_survey</text>
<text text-anchor="middle" x="285.69" y="-530.59" font-family="Times,serif" font-size="14.00">~</text>
<text text-anchor="middle" x="285.69" y="-515.59" font-family="Times,serif" font-size="14.00">Halfnormal</text>
</g>
<!-- awareness_survey_observed -->
<g id="node15" class="node">
<title>awareness_survey_observed</title>
<ellipse fill="lightgrey" stroke="black" cx="148.69" cy="-423.34" rx="120.42" ry="37.45"/>
<text text-anchor="middle" x="148.69" y="-434.64" font-family="Times,serif" font-size="14.00">awareness_survey_observed</text>
<text text-anchor="middle" x="148.69" y="-419.64" font-family="Times,serif" font-size="14.00">~</text>
<text text-anchor="middle" x="148.69" y="-404.64" font-family="Times,serif" font-size="14.00">Normal</text>
</g>
<!-- sigma_awareness_survey&#45;&gt;awareness_survey_observed -->
<g id="edge1" class="edge">
<title>sigma_awareness_survey&#45;&gt;awareness_survey_observed</title>
<path fill="none" stroke="black" d="M243.09,-499.41C229.56,-488.65 214.45,-476.64 200.36,-465.42"/>
<polygon fill="black" stroke="black" points="202.92,-462.99 192.92,-459.51 198.56,-468.47 202.92,-462.99"/>
</g>
<!-- awareness_survey_unobserved -->
<g id="node16" class="node">
<title>awareness_survey_unobserved</title>
<ellipse fill="none" stroke="black" cx="422.69" cy="-423.34" rx="130.22" ry="37.45"/>
<text text-anchor="middle" x="422.69" y="-434.64" font-family="Times,serif" font-size="14.00">awareness_survey_unobserved</text>
<text text-anchor="middle" x="422.69" y="-419.64" font-family="Times,serif" font-size="14.00">~</text>
<text text-anchor="middle" x="422.69" y="-404.64" font-family="Times,serif" font-size="14.00">Normal</text>
</g>
<!-- sigma_awareness_survey&#45;&gt;awareness_survey_unobserved -->
<g id="edge3" class="edge">
<title>sigma_awareness_survey&#45;&gt;awareness_survey_unobserved</title>
<path fill="none" stroke="black" d="M328.29,-499.41C341.56,-488.86 356.36,-477.09 370.22,-466.06"/>
<polygon fill="black" stroke="black" points="372.34,-468.85 377.99,-459.89 367.98,-463.37 372.34,-468.85"/>
</g>
<!-- _use_observed_carry -->
<g id="node3" class="node">
<title>_use_observed_carry</title>
<path fill="lightgrey" stroke="black" d="M532.19,-560.79C532.19,-560.79 425.19,-560.79 425.19,-560.79 419.19,-560.79 413.19,-554.79 413.19,-548.79 413.19,-548.79 413.19,-519.79 413.19,-519.79 413.19,-513.79 419.19,-507.79 425.19,-507.79 425.19,-507.79 532.19,-507.79 532.19,-507.79 538.19,-507.79 544.19,-513.79 544.19,-519.79 544.19,-519.79 544.19,-548.79 544.19,-548.79 544.19,-554.79 538.19,-560.79 532.19,-560.79"/>
<text text-anchor="middle" x="478.69" y="-545.59" font-family="Times,serif" font-size="14.00">_use_observed_carry</text>
<text text-anchor="middle" x="478.69" y="-530.59" font-family="Times,serif" font-size="14.00">~</text>
<text text-anchor="middle" x="478.69" y="-515.59" font-family="Times,serif" font-size="14.00">Data</text>
</g>
<!-- sigma_awareness -->
<g id="node4" class="node">
<title>sigma_awareness</title>
<ellipse fill="none" stroke="black" cx="816.69" cy="-301.38" rx="79.39" ry="37.45"/>
<text text-anchor="middle" x="816.69" y="-312.68" font-family="Times,serif" font-size="14.00">sigma_awareness</text>
<text text-anchor="middle" x="816.69" y="-297.68" font-family="Times,serif" font-size="14.00">~</text>
<text text-anchor="middle" x="816.69" y="-282.68" font-family="Times,serif" font-size="14.00">Halfnormal</text>
</g>
<!-- mu_sales -->
<g id="node6" class="node">
<title>mu_sales</title>
<polygon fill="none" stroke="black" points="681.19,-213.93 590.19,-213.93 590.19,-160.93 681.19,-160.93 681.19,-213.93"/>
<text text-anchor="middle" x="635.69" y="-198.73" font-family="Times,serif" font-size="14.00">mu_sales</text>
<text text-anchor="middle" x="635.69" y="-183.73" font-family="Times,serif" font-size="14.00">~</text>
<text text-anchor="middle" x="635.69" y="-168.73" font-family="Times,serif" font-size="14.00">Deterministic</text>
</g>
<!-- sigma_awareness&#45;&gt;mu_sales -->
<g id="edge18" class="edge">
<title>sigma_awareness&#45;&gt;mu_sales</title>
<path fill="none" stroke="black" d="M776.45,-269.04C760.43,-257.13 741.57,-243.82 723.69,-232.91 713.61,-226.76 702.58,-220.69 691.83,-215.12"/>
<polygon fill="black" stroke="black" points="693.51,-212.04 683.01,-210.62 690.33,-218.28 693.51,-212.04"/>
</g>
<!-- mu_awareness_survey -->
<g id="node7" class="node">
<title>mu_awareness_survey</title>
<polygon fill="none" stroke="black" points="462.69,-213.93 322.69,-213.93 322.69,-160.93 462.69,-160.93 462.69,-213.93"/>
<text text-anchor="middle" x="392.69" y="-198.73" font-family="Times,serif" font-size="14.00">mu_awareness_survey</text>
<text text-anchor="middle" x="392.69" y="-183.73" font-family="Times,serif" font-size="14.00">~</text>
<text text-anchor="middle" x="392.69" y="-168.73" font-family="Times,serif" font-size="14.00">Deterministic</text>
</g>
<!-- sigma_awareness&#45;&gt;mu_awareness_survey -->
<g id="edge12" class="edge">
<title>sigma_awareness&#45;&gt;mu_awareness_survey</title>
<path fill="none" stroke="black" d="M782.02,-267.57C765.64,-254.21 745.02,-240.21 723.69,-232.91 670.89,-214.84 527.03,-237.62 472.69,-224.91 465.86,-223.31 458.91,-221.11 452.09,-218.58"/>
<polygon fill="black" stroke="black" points="453.53,-215.38 442.95,-214.92 450.93,-221.88 453.53,-215.38"/>
</g>
<!-- awareness -->
<g id="node10" class="node">
<title>awareness</title>
<polygon fill="none" stroke="black" points="572.19,-213.93 481.19,-213.93 481.19,-160.93 572.19,-160.93 572.19,-213.93"/>
<text text-anchor="middle" x="526.69" y="-198.73" font-family="Times,serif" font-size="14.00">awareness</text>
<text text-anchor="middle" x="526.69" y="-183.73" font-family="Times,serif" font-size="14.00">~</text>
<text text-anchor="middle" x="526.69" y="-168.73" font-family="Times,serif" font-size="14.00">Deterministic</text>
</g>
<!-- sigma_awareness&#45;&gt;awareness -->
<g id="edge24" class="edge">
<title>sigma_awareness&#45;&gt;awareness</title>
<path fill="none" stroke="black" d="M781.5,-267.46C765.17,-254.25 744.74,-240.4 723.69,-232.91 664.14,-211.71 641.67,-244.85 581.69,-224.91 577.7,-223.58 573.73,-221.89 569.85,-219.96"/>
<polygon fill="black" stroke="black" points="571.61,-216.93 561.17,-215.13 568.21,-223.05 571.61,-216.93"/>
</g>
<!-- mu_sales&#45;&gt;sales -->
<g id="edge26" class="edge">
<title>mu_sales&#45;&gt;sales</title>
<path fill="none" stroke="black" d="M599.42,-160.48C593.61,-156.75 587.57,-153.11 581.69,-149.95 540.65,-127.94 491.46,-108.2 455.53,-94.9"/>
<polygon fill="black" stroke="black" points="456.85,-91.66 446.25,-91.51 454.44,-98.23 456.85,-91.66"/>
</g>
<!-- mu_awareness_survey&#45;&gt;awareness_survey_observed -->
<g id="edge2" class="edge">
<title>mu_awareness_survey&#45;&gt;awareness_survey_observed</title>
<path fill="none" stroke="black" d="M322.38,-190.2C251.92,-193.64 150.45,-203.68 125.69,-232.91 92.5,-272.09 107.93,-333.27 125.28,-375.45"/>
<polygon fill="black" stroke="black" points="122.05,-376.81 129.22,-384.61 128.48,-374.04 122.05,-376.81"/>
</g>
<!-- mu_awareness_survey&#45;&gt;awareness_survey_unobserved -->
<g id="edge4" class="edge">
<title>mu_awareness_survey&#45;&gt;awareness_survey_unobserved</title>
<path fill="none" stroke="black" d="M441.55,-214.32C451.6,-218.61 462.29,-222.45 472.69,-224.91 484.48,-227.7 682.28,-224.18 690.69,-232.91 725.84,-269.37 721.26,-306.48 690.69,-346.86 672.42,-370.99 607.89,-389.57 546.73,-402.26"/>
<polygon fill="black" stroke="black" points="546.35,-398.77 537.25,-404.18 547.74,-405.63 546.35,-398.77"/>
</g>
<!-- lower_funnel -->
<g id="node8" class="node">
<title>lower_funnel</title>
<path fill="lightgrey" stroke="black" d="M451.19,-327.88C451.19,-327.88 386.19,-327.88 386.19,-327.88 380.19,-327.88 374.19,-321.88 374.19,-315.88 374.19,-315.88 374.19,-286.88 374.19,-286.88 374.19,-280.88 380.19,-274.88 386.19,-274.88 386.19,-274.88 451.19,-274.88 451.19,-274.88 457.19,-274.88 463.19,-280.88 463.19,-286.88 463.19,-286.88 463.19,-315.88 463.19,-315.88 463.19,-321.88 457.19,-327.88 451.19,-327.88"/>
<text text-anchor="middle" x="418.69" y="-312.68" font-family="Times,serif" font-size="14.00">lower_funnel</text>
<text text-anchor="middle" x="418.69" y="-297.68" font-family="Times,serif" font-size="14.00">~</text>
<text text-anchor="middle" x="418.69" y="-282.68" font-family="Times,serif" font-size="14.00">Data</text>
</g>
<!-- lower_funnel&#45;&gt;mu_sales -->
<g id="edge15" class="edge">
<title>lower_funnel&#45;&gt;mu_sales</title>
<path fill="none" stroke="black" d="M432.09,-274.72C441.36,-259.78 455.16,-242.13 472.69,-232.91 494.18,-221.59 558.74,-232.86 581.69,-224.91 585.61,-223.55 589.51,-221.83 593.32,-219.89"/>
<polygon fill="black" stroke="black" points="594.88,-223.03 601.84,-215.04 591.41,-216.95 594.88,-223.03"/>
</g>
<!-- lower_funnel&#45;&gt;mu_awareness_survey -->
<g id="edge9" class="edge">
<title>lower_funnel&#45;&gt;mu_awareness_survey</title>
<path fill="none" stroke="black" d="M412.66,-274.42C409.28,-259.86 405.01,-241.47 401.28,-225.43"/>
<polygon fill="black" stroke="black" points="404.7,-224.68 399.03,-215.73 397.88,-226.26 404.7,-224.68"/>
</g>
<!-- lower_funnel&#45;&gt;awareness -->
<g id="edge21" class="edge">
<title>lower_funnel&#45;&gt;awareness</title>
<path fill="none" stroke="black" d="M437.27,-274.67C447.18,-261.62 459.94,-245.83 472.69,-232.91 476.44,-229.11 480.49,-225.3 484.63,-221.6"/>
<polygon fill="black" stroke="black" points="486.77,-224.38 492.04,-215.19 482.19,-219.09 486.77,-224.38"/>
</g>
<!-- upper_funnel -->
<g id="node9" class="node">
<title>upper_funnel</title>
<path fill="lightgrey" stroke="black" d="M344.19,-327.88C344.19,-327.88 279.19,-327.88 279.19,-327.88 273.19,-327.88 267.19,-321.88 267.19,-315.88 267.19,-315.88 267.19,-286.88 267.19,-286.88 267.19,-280.88 273.19,-274.88 279.19,-274.88 279.19,-274.88 344.19,-274.88 344.19,-274.88 350.19,-274.88 356.19,-280.88 356.19,-286.88 356.19,-286.88 356.19,-315.88 356.19,-315.88 356.19,-321.88 350.19,-327.88 344.19,-327.88"/>
<text text-anchor="middle" x="311.69" y="-312.68" font-family="Times,serif" font-size="14.00">upper_funnel</text>
<text text-anchor="middle" x="311.69" y="-297.68" font-family="Times,serif" font-size="14.00">~</text>
<text text-anchor="middle" x="311.69" y="-282.68" font-family="Times,serif" font-size="14.00">Data</text>
</g>
<!-- upper_funnel&#45;&gt;mu_sales -->
<g id="edge16" class="edge">
<title>upper_funnel&#45;&gt;mu_sales</title>
<path fill="none" stroke="black" d="M324.97,-274.5C334.2,-259.48 348,-241.81 365.69,-232.91 387.14,-222.11 558.86,-232.36 581.69,-224.91 585.69,-223.6 589.67,-221.9 593.54,-219.96"/>
<polygon fill="black" stroke="black" points="595.21,-223.04 602.2,-215.07 591.77,-216.94 595.21,-223.04"/>
</g>
<!-- upper_funnel&#45;&gt;mu_awareness_survey -->
<g id="edge10" class="edge">
<title>upper_funnel&#45;&gt;mu_awareness_survey</title>
<path fill="none" stroke="black" d="M330.48,-274.42C341.42,-259.3 355.35,-240.03 367.26,-223.57"/>
<polygon fill="black" stroke="black" points="370.09,-225.63 373.12,-215.48 364.42,-221.53 370.09,-225.63"/>
</g>
<!-- upper_funnel&#45;&gt;awareness -->
<g id="edge22" class="edge">
<title>upper_funnel&#45;&gt;awareness</title>
<path fill="none" stroke="black" d="M325.31,-274.39C334.57,-259.53 348.31,-242.08 365.69,-232.91 386.58,-221.88 449.35,-232.57 471.69,-224.91 475.66,-223.54 479.63,-221.82 483.5,-219.88"/>
<polygon fill="black" stroke="black" points="485.16,-222.96 492.17,-215.02 481.74,-216.85 485.16,-222.96"/>
</g>
<!-- innovations_awareness -->
<g id="node11" class="node">
<title>innovations_awareness</title>
<ellipse fill="none" stroke="black" cx="581.69" cy="-301.38" rx="100.32" ry="37.45"/>
<text text-anchor="middle" x="581.69" y="-312.68" font-family="Times,serif" font-size="14.00">innovations_awareness</text>
<text text-anchor="middle" x="581.69" y="-297.68" font-family="Times,serif" font-size="14.00">~</text>
<text text-anchor="middle" x="581.69" y="-282.68" font-family="Times,serif" font-size="14.00">Normal</text>
</g>
<!-- innovations_awareness&#45;&gt;mu_sales -->
<g id="edge17" class="edge">
<title>innovations_awareness&#45;&gt;mu_sales</title>
<path fill="none" stroke="black" d="M599.22,-264.04C605.33,-251.37 612.19,-237.16 618.29,-224.51"/>
<polygon fill="black" stroke="black" points="621.35,-226.21 622.54,-215.69 615.05,-223.17 621.35,-226.21"/>
</g>
<!-- innovations_awareness&#45;&gt;mu_awareness_survey -->
<g id="edge11" class="edge">
<title>innovations_awareness&#45;&gt;mu_awareness_survey</title>
<path fill="none" stroke="black" d="M531.52,-268.64C513.13,-257.19 492.07,-244.29 472.69,-232.91 465.45,-228.66 457.79,-224.26 450.19,-219.97"/>
<polygon fill="black" stroke="black" points="452.03,-216.99 441.6,-215.15 448.6,-223.09 452.03,-216.99"/>
</g>
<!-- innovations_awareness&#45;&gt;awareness -->
<g id="edge23" class="edge">
<title>innovations_awareness&#45;&gt;awareness</title>
<path fill="none" stroke="black" d="M563.83,-264.04C557.61,-251.37 550.63,-237.16 544.42,-224.51"/>
<polygon fill="black" stroke="black" points="547.63,-223.11 540.08,-215.68 541.35,-226.2 547.63,-223.11"/>
</g>
<!-- awareness_survey -->
<g id="node12" class="node">
<title>awareness_survey</title>
<polygon fill="none" stroke="black" points="249.19,-327.88 134.19,-327.88 134.19,-274.88 249.19,-274.88 249.19,-327.88"/>
<text text-anchor="middle" x="191.69" y="-312.68" font-family="Times,serif" font-size="14.00">awareness_survey</text>
<text text-anchor="middle" x="191.69" y="-297.68" font-family="Times,serif" font-size="14.00">~</text>
<text text-anchor="middle" x="191.69" y="-282.68" font-family="Times,serif" font-size="14.00">Deterministic</text>
</g>
<!-- beta_sales -->
<g id="node13" class="node">
<title>beta_sales</title>
<ellipse fill="none" stroke="black" cx="964.69" cy="-301.38" rx="50.82" ry="37.45"/>
<text text-anchor="middle" x="964.69" y="-312.68" font-family="Times,serif" font-size="14.00">beta_sales</text>
<text text-anchor="middle" x="964.69" y="-297.68" font-family="Times,serif" font-size="14.00">~</text>
<text text-anchor="middle" x="964.69" y="-282.68" font-family="Times,serif" font-size="14.00">Normal</text>
</g>
<!-- beta_sales&#45;&gt;mu_sales -->
<g id="edge14" class="edge">
<title>beta_sales&#45;&gt;mu_sales</title>
<path fill="none" stroke="black" d="M942.86,-267.35C932.75,-254.61 919.65,-241.16 904.69,-232.91 869.18,-213.33 760.7,-200.03 692.84,-193.38"/>
<polygon fill="black" stroke="black" points="693.29,-189.91 683,-192.44 692.62,-196.88 693.29,-189.91"/>
</g>
<!-- beta_sales&#45;&gt;mu_awareness_survey -->
<g id="edge8" class="edge">
<title>beta_sales&#45;&gt;mu_awareness_survey</title>
<path fill="none" stroke="black" d="M943.96,-266.96C933.88,-253.83 920.5,-240.18 904.69,-232.91 882.88,-222.87 496.1,-230.22 472.69,-224.91 465.59,-223.3 458.36,-221.02 451.29,-218.38"/>
<polygon fill="black" stroke="black" points="453.07,-215.32 442.49,-214.85 450.47,-221.82 453.07,-215.32"/>
</g>
<!-- beta_sales&#45;&gt;awareness -->
<g id="edge20" class="edge">
<title>beta_sales&#45;&gt;awareness</title>
<path fill="none" stroke="black" d="M943.94,-267.01C933.85,-253.89 920.47,-240.23 904.69,-232.91 872.12,-217.8 615.93,-235.69 581.69,-224.91 577.51,-223.59 573.34,-221.85 569.29,-219.84"/>
<polygon fill="black" stroke="black" points="571.25,-216.93 560.81,-215.13 567.85,-223.05 571.25,-216.93"/>
</g>
<!-- beta_awareness -->
<g id="node14" class="node">
<title>beta_awareness</title>
<ellipse fill="none" stroke="black" cx="1113.69" cy="-301.38" rx="71.34" ry="37.45"/>
<text text-anchor="middle" x="1113.69" y="-312.68" font-family="Times,serif" font-size="14.00">beta_awareness</text>
<text text-anchor="middle" x="1113.69" y="-297.68" font-family="Times,serif" font-size="14.00">~</text>
<text text-anchor="middle" x="1113.69" y="-282.68" font-family="Times,serif" font-size="14.00">Beta</text>
</g>
<!-- beta_awareness&#45;&gt;mu_sales -->
<g id="edge13" class="edge">
<title>beta_awareness&#45;&gt;mu_sales</title>
<path fill="none" stroke="black" d="M1082.26,-267.64C1067.83,-254.63 1049.7,-240.88 1030.69,-232.91 971.06,-207.88 787,-195.66 692.69,-190.91"/>
<polygon fill="black" stroke="black" points="693.04,-187.42 682.88,-190.42 692.7,-194.41 693.04,-187.42"/>
</g>
<!-- beta_awareness&#45;&gt;mu_awareness_survey -->
<g id="edge7" class="edge">
<title>beta_awareness&#45;&gt;mu_awareness_survey</title>
<path fill="none" stroke="black" d="M1083.01,-267.09C1068.57,-253.81 1050.24,-240.01 1030.69,-232.91 1001.55,-222.32 502.94,-231.7 472.69,-224.91 465.59,-223.31 458.35,-221.04 451.28,-218.41"/>
<polygon fill="black" stroke="black" points="453.07,-215.35 442.48,-214.89 450.46,-221.85 453.07,-215.35"/>
</g>
<!-- beta_awareness&#45;&gt;awareness -->
<g id="edge19" class="edge">
<title>beta_awareness&#45;&gt;awareness</title>
<path fill="none" stroke="black" d="M1082.99,-267.13C1068.56,-253.85 1050.23,-240.04 1030.69,-232.91 983.82,-215.79 629.33,-239.73 581.69,-224.91 577.44,-223.58 573.22,-221.82 569.11,-219.79"/>
<polygon fill="black" stroke="black" points="570.94,-216.8 560.5,-214.99 567.53,-222.92 570.94,-216.8"/>
</g>
<!-- awareness_survey_observed&#45;&gt;awareness_survey -->
<g id="edge5" class="edge">
<title>awareness_survey_observed&#45;&gt;awareness_survey</title>
<path fill="none" stroke="black" d="M161.82,-385.69C167.14,-370.87 173.26,-353.79 178.57,-338.97"/>
<polygon fill="black" stroke="black" points="181.86,-340.18 181.94,-329.58 175.27,-337.81 181.86,-340.18"/>
</g>
<!-- awareness_survey_unobserved&#45;&gt;awareness_survey -->
<g id="edge6" class="edge">
<title>awareness_survey_unobserved&#45;&gt;awareness_survey</title>
<path fill="none" stroke="black" d="M358.59,-390.29C334.41,-378.62 306.5,-365.66 280.69,-354.86 271.09,-350.84 267.98,-351.55 258.69,-346.86 251.41,-343.18 243.96,-338.87 236.8,-334.4"/>
<polygon fill="black" stroke="black" points="238.83,-331.54 228.53,-329.07 235.04,-337.43 238.83,-331.54"/>
</g>
</g>
</svg>
