<?xml version="1.0" encoding="UTF-8" standalone="no"?>
<!DOCTYPE svg PUBLIC "-//W3C//DTD SVG 1.1//EN"
 "http://www.w3.org/Graphics/SVG/1.1/DTD/svg11.dtd">
<!-- Generated by graphviz version 7.1.0 (0)
 -->
<!-- Pages: 1 -->
<svg width="373pt" height="182pt"
 viewBox="0.00 0.00 373.49 182.00" xmlns="http://www.w3.org/2000/svg" xmlns:xlink="http://www.w3.org/1999/xlink">
<g id="graph0" class="graph" transform="scale(1 1) rotate(0) translate(4 178)">
<polygon fill="white" stroke="none" points="-4,4 -4,-178 369.49,-178 369.49,4 -4,4"/>
<!-- upper_funnel -->
<g id="node1" class="node">
<title>upper_funnel</title>
<polygon fill="none" stroke="black" points="89,-106 0,-106 0,-70 89,-70 89,-106"/>
<text text-anchor="middle" x="44.5" y="-84.3" font-family="Times,serif" font-size="14.00">upper_funnel</text>
</g>
<!-- awareness -->
<g id="node3" class="node">
<title>awareness</title>
<ellipse fill="none" stroke="black" stroke-dasharray="5,2" cx="196.8" cy="-123" rx="46.59" ry="18"/>
<text text-anchor="middle" x="196.8" y="-119.3" font-family="Times,serif" font-size="14.00">awareness</text>
</g>
<!-- upper_funnel&#45;&gt;awareness -->
<g id="edge1" class="edge">
<title>upper_funnel&#45;&gt;awareness</title>
<path fill="none" stroke="black" d="M89.38,-98.22C106.88,-102.29 127.15,-107.01 145.26,-111.23"/>
<polygon fill="black" stroke="black" points="144.22,-114.58 154.75,-113.44 145.8,-107.76 144.22,-114.58"/>
<text text-anchor="middle" x="119.5" y="-110.8" font-family="Times,serif" font-size="14.00">a_uf</text>
</g>
<!-- sales -->
<g id="node4" class="node">
<title>sales</title>
<ellipse fill="none" stroke="black" cx="337.54" cy="-72" rx="27.9" ry="18"/>
<text text-anchor="middle" x="337.54" y="-68.3" font-family="Times,serif" font-size="14.00">sales</text>
</g>
<!-- upper_funnel&#45;&gt;sales -->
<g id="edge4" class="edge">
<title>upper_funnel&#45;&gt;sales</title>
<path fill="none" stroke="black" d="M89.47,-84.87C108.13,-83.59 130.12,-82.15 150,-81 201.11,-78.06 260.15,-75.32 297.88,-73.65"/>
<polygon fill="black" stroke="black" points="298,-77.15 307.83,-73.22 297.69,-70.16 298,-77.15"/>
<text text-anchor="middle" x="196.8" y="-84.8" font-family="Times,serif" font-size="14.00">c_uf</text>
</g>
<!-- lower_funnel -->
<g id="node2" class="node">
<title>lower_funnel</title>
<polygon fill="none" stroke="black" points="241.3,-36 152.3,-36 152.3,0 241.3,0 241.3,-36"/>
<text text-anchor="middle" x="196.8" y="-14.3" font-family="Times,serif" font-size="14.00">lower_funnel</text>
</g>
<!-- lower_funnel&#45;&gt;sales -->
<g id="edge5" class="edge">
<title>lower_funnel&#45;&gt;sales</title>
<path fill="none" stroke="black" d="M241.72,-26.7C257.79,-30.66 275.87,-36.04 291.59,-43 297.43,-45.58 303.37,-48.87 308.95,-52.3"/>
<polygon fill="black" stroke="black" points="306.91,-55.15 317.2,-57.67 310.73,-49.28 306.91,-55.15"/>
<text text-anchor="middle" x="276.59" y="-46.8" font-family="Times,serif" font-size="14.00">d_lf</text>
</g>
<!-- awareness&#45;&gt;awareness -->
<g id="edge2" class="edge">
<title>awareness&#45;&gt;awareness</title>
<path fill="none" stroke="black" stroke-dasharray="5,2" d="M183,-140.41C180.42,-150.09 185.02,-159 196.8,-159 203.6,-159 208.01,-156.02 210.02,-151.64"/>
<polygon fill="black" stroke="black" points="213.51,-152.09 210.52,-141.92 206.51,-151.73 213.51,-152.09"/>
<text text-anchor="middle" x="196.8" y="-162.8" font-family="Times,serif" font-size="14.00">rho (t−1)</text>
</g>
<!-- awareness&#45;&gt;sales -->
<g id="edge3" class="edge">
<title>awareness&#45;&gt;sales</title>
<path fill="none" stroke="black" d="M231.38,-110.65C252.83,-102.77 280.55,-92.58 302.15,-84.64"/>
<polygon fill="black" stroke="black" points="303.22,-87.98 311.4,-81.24 300.81,-81.41 303.22,-87.98"/>
<text text-anchor="middle" x="276.59" y="-102.8" font-family="Times,serif" font-size="14.00">b_aw</text>
</g>
</g>
</svg>
