<?xml version="1.0" encoding="UTF-8" standalone="no"?>
<!DOCTYPE svg PUBLIC "-//W3C//DTD SVG 1.1//EN"
 "http://www.w3.org/Graphics/SVG/1.1/DTD/svg11.dtd">
<!-- Generated by graphviz version 7.1.0 (0)
 -->
<!-- Pages: 1 -->
<svg width="1109pt" height="580pt"
 viewBox="0.00 0.00 1109.46 579.77" xmlns="http://www.w3.org/2000/svg" xmlns:xlink="http://www.w3.org/1999/xlink">
<g id="graph0" class="graph" transform="scale(1 1) rotate(0) translate(4 575.77)">
<polygon fill="white" stroke="none" points="-4,4 -4,-575.77 1105.46,-575.77 1105.46,4 -4,4"/>
<g id="clust1" class="cluster">
<title>cluster52 x 1</title>
<path fill="none" stroke="black" d="M213.46,-8C213.46,-8 754.46,-8 754.46,-8 760.46,-8 766.46,-14 766.46,-20 766.46,-20 766.46,-334.86 766.46,-334.86 766.46,-340.86 760.46,-346.86 754.46,-346.86 754.46,-346.86 213.46,-346.86 213.46,-346.86 207.46,-346.86 201.46,-340.86 201.46,-334.86 201.46,-334.86 201.46,-20 201.46,-20 201.46,-14 207.46,-8 213.46,-8"/>
<text text-anchor="middle" x="740.96" y="-15.8" font-family="Times,serif" font-size="14.00">52 x 1</text>
</g>
<g id="clust2" class="cluster">
<title>clustersales_predictors (3)</title>
<path fill="none" stroke="black" d="M816.46,-232.91C816.46,-232.91 915.46,-232.91 915.46,-232.91 921.46,-232.91 927.46,-238.91 927.46,-244.91 927.46,-244.91 927.46,-334.86 927.46,-334.86 927.46,-340.86 921.46,-346.86 915.46,-346.86 915.46,-346.86 816.46,-346.86 816.46,-346.86 810.46,-346.86 804.46,-340.86 804.46,-334.86 804.46,-334.86 804.46,-244.91 804.46,-244.91 804.46,-238.91 810.46,-232.91 816.46,-232.91"/>
<text text-anchor="middle" x="865.96" y="-240.71" font-family="Times,serif" font-size="14.00">sales_predictors (3)</text>
</g>
<g id="clust3" class="cluster">
<title>clusterawareness_predictors (2)</title>
<path fill="none" stroke="black" d="M947.46,-232.91C947.46,-232.91 1081.46,-232.91 1081.46,-232.91 1087.46,-232.91 1093.46,-238.91 1093.46,-244.91 1093.46,-244.91 1093.46,-334.86 1093.46,-334.86 1093.46,-340.86 1087.46,-346.86 1081.46,-346.86 1081.46,-346.86 947.46,-346.86 947.46,-346.86 941.46,-346.86 935.46,-340.86 935.46,-334.86 935.46,-334.86 935.46,-244.91 935.46,-244.91 935.46,-238.91 941.46,-232.91 947.46,-232.91"/>
<text text-anchor="middle" x="1017.46" y="-240.71" font-family="Times,serif" font-size="14.00">awareness_predictors (2)</text>
</g>
<g id="clust4" class="cluster">
<title>cluster12</title>
<path fill="none" stroke="black" d="M208.46,-354.86C208.46,-354.86 440.46,-354.86 440.46,-354.86 446.46,-354.86 452.46,-360.86 452.46,-366.86 452.46,-366.86 452.46,-456.81 452.46,-456.81 452.46,-462.81 446.46,-468.81 440.46,-468.81 440.46,-468.81 208.46,-468.81 208.46,-468.81 202.46,-468.81 196.46,-462.81 196.46,-456.81 196.46,-456.81 196.46,-366.86 196.46,-366.86 196.46,-360.86 202.46,-354.86 208.46,-354.86"/>
<text text-anchor="middle" x="437.46" y="-362.66" font-family="Times,serif" font-size="14.00">12</text>
</g>
<g id="clust5" class="cluster">
<title>cluster40</title>
<path fill="none" stroke="black" d="M472.46,-354.86C472.46,-354.86 724.46,-354.86 724.46,-354.86 730.46,-354.86 736.46,-360.86 736.46,-366.86 736.46,-366.86 736.46,-456.81 736.46,-456.81 736.46,-462.81 730.46,-468.81 724.46,-468.81 724.46,-468.81 472.46,-468.81 472.46,-468.81 466.46,-468.81 460.46,-462.81 460.46,-456.81 460.46,-456.81 460.46,-366.86 460.46,-366.86 460.46,-360.86 466.46,-354.86 472.46,-354.86"/>
<text text-anchor="middle" x="721.46" y="-362.66" font-family="Times,serif" font-size="14.00">40</text>
</g>
<!-- sigma_awareness -->
<g id="node1" class="node">
<title>sigma_awareness</title>
<ellipse fill="none" stroke="black" cx="112.46" cy="-301.38" rx="79.39" ry="37.45"/>
<text text-anchor="middle" x="112.46" y="-312.68" font-family="Times,serif" font-size="14.00">sigma_awareness</text>
<text text-anchor="middle" x="112.46" y="-297.68" font-family="Times,serif" font-size="14.00">~</text>
<text text-anchor="middle" x="112.46" y="-282.68" font-family="Times,serif" font-size="14.00">Halfnormal</text>
</g>
<!-- mu_sales -->
<g id="node7" class="node">
<title>mu_sales</title>
<polygon fill="none" stroke="black" points="647.96,-213.93 556.96,-213.93 556.96,-160.93 647.96,-160.93 647.96,-213.93"/>
<text text-anchor="middle" x="602.46" y="-198.73" font-family="Times,serif" font-size="14.00">mu_sales</text>
<text text-anchor="middle" x="602.46" y="-183.73" font-family="Times,serif" font-size="14.00">~</text>
<text text-anchor="middle" x="602.46" y="-168.73" font-family="Times,serif" font-size="14.00">Deterministic</text>
</g>
<!-- sigma_awareness&#45;&gt;mu_sales -->
<g id="edge15" class="edge">
<title>sigma_awareness&#45;&gt;mu_sales</title>
<path fill="none" stroke="black" d="M144.46,-266.82C159.21,-253.67 177.8,-240.04 197.46,-232.91 231.32,-220.63 486.35,-232.9 521.46,-224.91 529.72,-223.03 538.17,-220.27 546.34,-217.11"/>
<polygon fill="black" stroke="black" points="547.58,-220.38 555.48,-213.33 544.9,-213.91 547.58,-220.38"/>
</g>
<!-- awareness -->
<g id="node9" class="node">
<title>awareness</title>
<polygon fill="none" stroke="black" points="756.96,-213.93 665.96,-213.93 665.96,-160.93 756.96,-160.93 756.96,-213.93"/>
<text text-anchor="middle" x="711.46" y="-198.73" font-family="Times,serif" font-size="14.00">awareness</text>
<text text-anchor="middle" x="711.46" y="-183.73" font-family="Times,serif" font-size="14.00">~</text>
<text text-anchor="middle" x="711.46" y="-168.73" font-family="Times,serif" font-size="14.00">Deterministic</text>
</g>
<!-- sigma_awareness&#45;&gt;awareness -->
<g id="edge21" class="edge">
<title>sigma_awareness&#45;&gt;awareness</title>
<path fill="none" stroke="black" d="M144.43,-266.76C159.18,-253.59 177.77,-239.96 197.46,-232.91 245.58,-215.66 608.71,-240.29 657.46,-224.91 661.65,-223.58 665.81,-221.82 669.86,-219.79"/>
<polygon fill="black" stroke="black" points="671.33,-222.98 678.3,-215 667.88,-216.89 671.33,-222.98"/>
</g>
<!-- mu_awareness_survey -->
<g id="node11" class="node">
<title>mu_awareness_survey</title>
<polygon fill="none" stroke="black" points="512.46,-213.93 372.46,-213.93 372.46,-160.93 512.46,-160.93 512.46,-213.93"/>
<text text-anchor="middle" x="442.46" y="-198.73" font-family="Times,serif" font-size="14.00">mu_awareness_survey</text>
<text text-anchor="middle" x="442.46" y="-183.73" font-family="Times,serif" font-size="14.00">~</text>
<text text-anchor="middle" x="442.46" y="-168.73" font-family="Times,serif" font-size="14.00">Deterministic</text>
</g>
<!-- sigma_awareness&#45;&gt;mu_awareness_survey -->
<g id="edge9" class="edge">
<title>sigma_awareness&#45;&gt;mu_awareness_survey</title>
<path fill="none" stroke="black" d="M146.26,-267.22C160.9,-254.62 178.93,-241.3 197.46,-232.91 248.97,-209.58 311.81,-198.48 360.95,-193.2"/>
<polygon fill="black" stroke="black" points="361.07,-196.7 370.67,-192.22 360.37,-189.74 361.07,-196.7"/>
</g>
<!-- _use_observed_carry -->
<g id="node2" class="node">
<title>_use_observed_carry</title>
<path fill="lightgrey" stroke="black" d="M707.96,-560.79C707.96,-560.79 600.96,-560.79 600.96,-560.79 594.96,-560.79 588.96,-554.79 588.96,-548.79 588.96,-548.79 588.96,-519.79 588.96,-519.79 588.96,-513.79 594.96,-507.79 600.96,-507.79 600.96,-507.79 707.96,-507.79 707.96,-507.79 713.96,-507.79 719.96,-513.79 719.96,-519.79 719.96,-519.79 719.96,-548.79 719.96,-548.79 719.96,-554.79 713.96,-560.79 707.96,-560.79"/>
<text text-anchor="middle" x="654.46" y="-545.59" font-family="Times,serif" font-size="14.00">_use_observed_carry</text>
<text text-anchor="middle" x="654.46" y="-530.59" font-family="Times,serif" font-size="14.00">~</text>
<text text-anchor="middle" x="654.46" y="-515.59" font-family="Times,serif" font-size="14.00">Data</text>
</g>
<!-- sigma_awareness_survey -->
<g id="node3" class="node">
<title>sigma_awareness_survey</title>
<ellipse fill="none" stroke="black" cx="461.46" cy="-534.29" rx="109.7" ry="37.45"/>
<text text-anchor="middle" x="461.46" y="-545.59" font-family="Times,serif" font-size="14.00">sigma_awareness_survey</text>
<text text-anchor="middle" x="461.46" y="-530.59" font-family="Times,serif" font-size="14.00">~</text>
<text text-anchor="middle" x="461.46" y="-515.59" font-family="Times,serif" font-size="14.00">Halfnormal</text>
</g>
<!-- awareness_survey_observed -->
<g id="node15" class="node">
<title>awareness_survey_observed</title>
<ellipse fill="lightgrey" stroke="black" cx="324.46" cy="-423.34" rx="120.42" ry="37.45"/>
<text text-anchor="middle" x="324.46" y="-434.64" font-family="Times,serif" font-size="14.00">awareness_survey_observed</text>
<text text-anchor="middle" x="324.46" y="-419.64" font-family="Times,serif" font-size="14.00">~</text>
<text text-anchor="middle" x="324.46" y="-404.64" font-family="Times,serif" font-size="14.00">Normal</text>
</g>
<!-- sigma_awareness_survey&#45;&gt;awareness_survey_observed -->
<g id="edge2" class="edge">
<title>sigma_awareness_survey&#45;&gt;awareness_survey_observed</title>
<path fill="none" stroke="black" d="M418.86,-499.41C405.33,-488.65 390.22,-476.64 376.13,-465.42"/>
<polygon fill="black" stroke="black" points="378.69,-462.99 368.69,-459.51 374.34,-468.47 378.69,-462.99"/>
</g>
<!-- awareness_survey_unobserved -->
<g id="node16" class="node">
<title>awareness_survey_unobserved</title>
<ellipse fill="none" stroke="black" cx="598.46" cy="-423.34" rx="130.22" ry="37.45"/>
<text text-anchor="middle" x="598.46" y="-434.64" font-family="Times,serif" font-size="14.00">awareness_survey_unobserved</text>
<text text-anchor="middle" x="598.46" y="-419.64" font-family="Times,serif" font-size="14.00">~</text>
<text text-anchor="middle" x="598.46" y="-404.64" font-family="Times,serif" font-size="14.00">Normal</text>
</g>
<!-- sigma_awareness_survey&#45;&gt;awareness_survey_unobserved -->
<g id="edge4" class="edge">
<title>sigma_awareness_survey&#45;&gt;awareness_survey_unobserved</title>
<path fill="none" stroke="black" d="M504.06,-499.41C517.33,-488.86 532.13,-477.09 545.99,-466.06"/>
<polygon fill="black" stroke="black" points="548.11,-468.85 553.76,-459.89 543.76,-463.37 548.11,-468.85"/>
</g>
<!-- sigma_sales -->
<g id="node4" class="node">
<title>sigma_sales</title>
<ellipse fill="none" stroke="black" cx="833.46" cy="-187.43" rx="58.88" ry="37.45"/>
<text text-anchor="middle" x="833.46" y="-198.73" font-family="Times,serif" font-size="14.00">sigma_sales</text>
<text text-anchor="middle" x="833.46" y="-183.73" font-family="Times,serif" font-size="14.00">~</text>
<text text-anchor="middle" x="833.46" y="-168.73" font-family="Times,serif" font-size="14.00">Halfnormal</text>
</g>
<!-- sales -->
<g id="node5" class="node">
<title>sales</title>
<ellipse fill="lightgrey" stroke="black" cx="659.46" cy="-76.48" rx="41.94" ry="37.45"/>
<text text-anchor="middle" x="659.46" y="-87.78" font-family="Times,serif" font-size="14.00">sales</text>
<text text-anchor="middle" x="659.46" y="-72.78" font-family="Times,serif" font-size="14.00">~</text>
<text text-anchor="middle" x="659.46" y="-57.78" font-family="Times,serif" font-size="14.00">Normal</text>
</g>
<!-- sigma_sales&#45;&gt;sales -->
<g id="edge26" class="edge">
<title>sigma_sales&#45;&gt;sales</title>
<path fill="none" stroke="black" d="M792.23,-160.61C765.46,-143.85 730.63,-122.04 703.35,-104.96"/>
<polygon fill="black" stroke="black" points="705.29,-102.04 694.96,-99.7 701.58,-107.98 705.29,-102.04"/>
</g>
<!-- upper_funnel -->
<g id="node6" class="node">
<title>upper_funnel</title>
<path fill="lightgrey" stroke="black" d="M286.96,-327.88C286.96,-327.88 221.96,-327.88 221.96,-327.88 215.96,-327.88 209.96,-321.88 209.96,-315.88 209.96,-315.88 209.96,-286.88 209.96,-286.88 209.96,-280.88 215.96,-274.88 221.96,-274.88 221.96,-274.88 286.96,-274.88 286.96,-274.88 292.96,-274.88 298.96,-280.88 298.96,-286.88 298.96,-286.88 298.96,-315.88 298.96,-315.88 298.96,-321.88 292.96,-327.88 286.96,-327.88"/>
<text text-anchor="middle" x="254.46" y="-312.68" font-family="Times,serif" font-size="14.00">upper_funnel</text>
<text text-anchor="middle" x="254.46" y="-297.68" font-family="Times,serif" font-size="14.00">~</text>
<text text-anchor="middle" x="254.46" y="-282.68" font-family="Times,serif" font-size="14.00">Data</text>
</g>
<!-- upper_funnel&#45;&gt;mu_sales -->
<g id="edge14" class="edge">
<title>upper_funnel&#45;&gt;mu_sales</title>
<path fill="none" stroke="black" d="M267.75,-274.5C276.97,-259.48 290.77,-241.82 308.46,-232.91 329.61,-222.25 498.4,-230.31 521.46,-224.91 529.71,-222.97 538.15,-220.19 546.31,-217.01"/>
<polygon fill="black" stroke="black" points="547.56,-220.28 555.46,-213.22 544.88,-213.82 547.56,-220.28"/>
</g>
<!-- upper_funnel&#45;&gt;awareness -->
<g id="edge20" class="edge">
<title>upper_funnel&#45;&gt;awareness</title>
<path fill="none" stroke="black" d="M267.7,-274.41C276.91,-259.35 290.71,-241.69 308.46,-232.91 343.23,-215.71 620.5,-236.68 657.46,-224.91 661.47,-223.63 665.45,-221.95 669.33,-220.02"/>
<polygon fill="black" stroke="black" points="671,-223.1 678,-215.15 667.56,-217 671,-223.1"/>
</g>
<!-- upper_funnel&#45;&gt;mu_awareness_survey -->
<g id="edge8" class="edge">
<title>upper_funnel&#45;&gt;mu_awareness_survey</title>
<path fill="none" stroke="black" d="M269.86,-274.54C279.41,-260.49 292.82,-243.79 308.46,-232.91 324.27,-221.9 343,-213.46 361.36,-207.05"/>
<polygon fill="black" stroke="black" points="362.27,-210.44 370.67,-203.98 360.08,-203.79 362.27,-210.44"/>
</g>
<!-- mu_sales&#45;&gt;sales -->
<g id="edge25" class="edge">
<title>mu_sales&#45;&gt;sales</title>
<path fill="none" stroke="black" d="M615.97,-160.61C622.16,-148.78 629.67,-134.42 636.7,-120.99"/>
<polygon fill="black" stroke="black" points="639.71,-122.78 641.24,-112.3 633.51,-119.54 639.71,-122.78"/>
</g>
<!-- awareness_survey -->
<g id="node8" class="node">
<title>awareness_survey</title>
<polygon fill="none" stroke="black" points="650.96,-327.88 535.96,-327.88 535.96,-274.88 650.96,-274.88 650.96,-327.88"/>
<text text-anchor="middle" x="593.46" y="-312.68" font-family="Times,serif" font-size="14.00">awareness_survey</text>
<text text-anchor="middle" x="593.46" y="-297.68" font-family="Times,serif" font-size="14.00">~</text>
<text text-anchor="middle" x="593.46" y="-282.68" font-family="Times,serif" font-size="14.00">Deterministic</text>
</g>
<!-- lower_funnel -->
<g id="node10" class="node">
<title>lower_funnel</title>
<path fill="lightgrey" stroke="black" d="M745.96,-327.88C745.96,-327.88 680.96,-327.88 680.96,-327.88 674.96,-327.88 668.96,-321.88 668.96,-315.88 668.96,-315.88 668.96,-286.88 668.96,-286.88 668.96,-280.88 674.96,-274.88 680.96,-274.88 680.96,-274.88 745.96,-274.88 745.96,-274.88 751.96,-274.88 757.96,-280.88 757.96,-286.88 757.96,-286.88 757.96,-315.88 757.96,-315.88 757.96,-321.88 751.96,-327.88 745.96,-327.88"/>
<text text-anchor="middle" x="713.46" y="-312.68" font-family="Times,serif" font-size="14.00">lower_funnel</text>
<text text-anchor="middle" x="713.46" y="-297.68" font-family="Times,serif" font-size="14.00">~</text>
<text text-anchor="middle" x="713.46" y="-282.68" font-family="Times,serif" font-size="14.00">Data</text>
</g>
<!-- lower_funnel&#45;&gt;mu_sales -->
<g id="edge13" class="edge">
<title>lower_funnel&#45;&gt;mu_sales</title>
<path fill="none" stroke="black" d="M695.48,-274.45C685.82,-261.35 673.28,-245.58 660.46,-232.91 656.6,-229.09 652.42,-225.31 648.12,-221.66"/>
<polygon fill="black" stroke="black" points="650.34,-218.95 640.38,-215.34 645.91,-224.37 650.34,-218.95"/>
</g>
<!-- lower_funnel&#45;&gt;awareness -->
<g id="edge19" class="edge">
<title>lower_funnel&#45;&gt;awareness</title>
<path fill="none" stroke="black" d="M713,-274.42C712.74,-259.86 712.41,-241.47 712.12,-225.43"/>
<polygon fill="black" stroke="black" points="715.63,-225.7 711.95,-215.77 708.63,-225.83 715.63,-225.7"/>
</g>
<!-- lower_funnel&#45;&gt;mu_awareness_survey -->
<g id="edge7" class="edge">
<title>lower_funnel&#45;&gt;mu_awareness_survey</title>
<path fill="none" stroke="black" d="M700.43,-274.72C691.38,-259.78 677.83,-242.13 660.46,-232.91 638.42,-221.2 572.91,-229.9 548.46,-224.91 539.21,-223.02 529.66,-220.54 520.25,-217.75"/>
<polygon fill="black" stroke="black" points="521.34,-214.42 510.75,-214.81 519.27,-221.11 521.34,-214.42"/>
</g>
<!-- mu_awareness_survey&#45;&gt;awareness_survey_observed -->
<g id="edge1" class="edge">
<title>mu_awareness_survey&#45;&gt;awareness_survey_observed</title>
<path fill="none" stroke="black" d="M372.25,-190.87C259.23,-195.53 47.24,-207.57 24.46,-232.91 -9.4,-270.57 -6.68,-306.92 24.46,-346.86 46.8,-375.51 129.33,-394.96 202.18,-406.93"/>
<polygon fill="black" stroke="black" points="201.39,-410.35 211.82,-408.48 202.5,-403.44 201.39,-410.35"/>
</g>
<!-- mu_awareness_survey&#45;&gt;awareness_survey_unobserved -->
<g id="edge3" class="edge">
<title>mu_awareness_survey&#45;&gt;awareness_survey_unobserved</title>
<path fill="none" stroke="black" d="M508.09,-214.36C521.27,-218.61 535.16,-222.43 548.46,-224.91 560.43,-227.13 759.01,-224.14 767.46,-232.91 802.61,-269.37 795.02,-304.37 767.46,-346.86 753.6,-368.23 732.12,-383.6 709.07,-394.64"/>
<polygon fill="black" stroke="black" points="707.83,-391.36 700.13,-398.65 710.69,-397.75 707.83,-391.36"/>
</g>
<!-- innovations_awareness -->
<g id="node12" class="node">
<title>innovations_awareness</title>
<ellipse fill="none" stroke="black" cx="417.46" cy="-301.38" rx="100.32" ry="37.45"/>
<text text-anchor="middle" x="417.46" y="-312.68" font-family="Times,serif" font-size="14.00">innovations_awareness</text>
<text text-anchor="middle" x="417.46" y="-297.68" font-family="Times,serif" font-size="14.00">~</text>
<text text-anchor="middle" x="417.46" y="-282.68" font-family="Times,serif" font-size="14.00">Normal</text>
</g>
<!-- innovations_awareness&#45;&gt;mu_sales -->
<g id="edge16" class="edge">
<title>innovations_awareness&#45;&gt;mu_sales</title>
<path fill="none" stroke="black" d="M468.57,-268.81C487.09,-257.43 508.18,-244.54 527.46,-232.91 534.32,-228.77 541.55,-224.44 548.71,-220.17"/>
<polygon fill="black" stroke="black" points="550.27,-223.32 557.07,-215.2 546.69,-217.3 550.27,-223.32"/>
</g>
<!-- innovations_awareness&#45;&gt;awareness -->
<g id="edge22" class="edge">
<title>innovations_awareness&#45;&gt;awareness</title>
<path fill="none" stroke="black" d="M460.53,-267.17C479.92,-254.07 503.75,-240.39 527.46,-232.91 582.66,-215.48 602.66,-243.54 657.46,-224.91 661.39,-223.57 665.3,-221.87 669.11,-219.94"/>
<polygon fill="black" stroke="black" points="670.66,-223.09 677.63,-215.11 667.2,-217 670.66,-223.09"/>
</g>
<!-- innovations_awareness&#45;&gt;mu_awareness_survey -->
<g id="edge10" class="edge">
<title>innovations_awareness&#45;&gt;mu_awareness_survey</title>
<path fill="none" stroke="black" d="M425.65,-263.73C428.42,-251.32 431.51,-237.48 434.28,-225.08"/>
<polygon fill="black" stroke="black" points="437.62,-226.18 436.38,-215.66 430.79,-224.65 437.62,-226.18"/>
</g>
<!-- beta_sales -->
<g id="node13" class="node">
<title>beta_sales</title>
<ellipse fill="none" stroke="black" cx="865.46" cy="-301.38" rx="50.82" ry="37.45"/>
<text text-anchor="middle" x="865.46" y="-312.68" font-family="Times,serif" font-size="14.00">beta_sales</text>
<text text-anchor="middle" x="865.46" y="-297.68" font-family="Times,serif" font-size="14.00">~</text>
<text text-anchor="middle" x="865.46" y="-282.68" font-family="Times,serif" font-size="14.00">Normal</text>
</g>
<!-- beta_sales&#45;&gt;mu_sales -->
<g id="edge17" class="edge">
<title>beta_sales&#45;&gt;mu_sales</title>
<path fill="none" stroke="black" d="M842.62,-267.56C831.53,-254.37 817.02,-240.5 800.46,-232.91 771.53,-219.64 687.67,-234.94 657.46,-224.91 653.48,-223.58 649.5,-221.89 645.62,-219.96"/>
<polygon fill="black" stroke="black" points="647.38,-216.93 636.94,-215.13 643.98,-223.05 647.38,-216.93"/>
</g>
<!-- beta_sales&#45;&gt;awareness -->
<g id="edge23" class="edge">
<title>beta_sales&#45;&gt;awareness</title>
<path fill="none" stroke="black" d="M841.35,-268.17C830.23,-255.41 816.04,-241.71 800.46,-232.91 786.57,-225.06 780.1,-231.26 765.46,-224.91 762.14,-223.47 758.81,-221.81 755.51,-220.03"/>
<polygon fill="black" stroke="black" points="757.52,-217.15 747.12,-215.11 753.98,-223.19 757.52,-217.15"/>
</g>
<!-- beta_sales&#45;&gt;mu_awareness_survey -->
<g id="edge11" class="edge">
<title>beta_sales&#45;&gt;mu_awareness_survey</title>
<path fill="none" stroke="black" d="M842.7,-267.37C831.63,-254.14 817.11,-240.3 800.46,-232.91 774.86,-221.54 576.01,-229.97 548.46,-224.91 538.8,-223.13 528.82,-220.64 519.03,-217.78"/>
<polygon fill="black" stroke="black" points="520.12,-214.45 509.53,-214.86 518.06,-221.14 520.12,-214.45"/>
</g>
<!-- beta_awareness -->
<g id="node14" class="node">
<title>beta_awareness</title>
<ellipse fill="none" stroke="black" cx="1014.46" cy="-301.38" rx="71.34" ry="37.45"/>
<text text-anchor="middle" x="1014.46" y="-312.68" font-family="Times,serif" font-size="14.00">beta_awareness</text>
<text text-anchor="middle" x="1014.46" y="-297.68" font-family="Times,serif" font-size="14.00">~</text>
<text text-anchor="middle" x="1014.46" y="-282.68" font-family="Times,serif" font-size="14.00">Beta</text>
</g>
<!-- beta_awareness&#45;&gt;mu_sales -->
<g id="edge18" class="edge">
<title>beta_awareness&#45;&gt;mu_sales</title>
<path fill="none" stroke="black" d="M983.73,-267.23C969.28,-253.98 950.96,-240.15 931.46,-232.91 874.36,-211.68 715.52,-243.34 657.46,-224.91 653.28,-223.58 649.12,-221.83 645.07,-219.82"/>
<polygon fill="black" stroke="black" points="647.03,-216.91 636.59,-215.11 643.63,-223.03 647.03,-216.91"/>
</g>
<!-- beta_awareness&#45;&gt;awareness -->
<g id="edge24" class="edge">
<title>beta_awareness&#45;&gt;awareness</title>
<path fill="none" stroke="black" d="M983.66,-267.41C969.2,-254.18 950.89,-240.34 931.46,-232.91 896.97,-219.71 800.51,-236.56 765.46,-224.91 761.47,-223.58 757.5,-221.87 753.62,-219.91"/>
<polygon fill="black" stroke="black" points="755.4,-216.89 744.97,-215 751.94,-222.98 755.4,-216.89"/>
</g>
<!-- beta_awareness&#45;&gt;mu_awareness_survey -->
<g id="edge12" class="edge">
<title>beta_awareness&#45;&gt;mu_awareness_survey</title>
<path fill="none" stroke="black" d="M983.75,-267.15C969.31,-253.88 950.99,-240.07 931.46,-232.91 891.5,-218.24 590.37,-232.37 548.46,-224.91 538.54,-223.14 528.3,-220.6 518.27,-217.66"/>
<polygon fill="black" stroke="black" points="519.53,-214.39 508.94,-214.79 517.47,-221.08 519.53,-214.39"/>
</g>
<!-- awareness_survey_observed&#45;&gt;awareness_survey -->
<g id="edge5" class="edge">
<title>awareness_survey_observed&#45;&gt;awareness_survey</title>
<path fill="none" stroke="black" d="M378.16,-389.34C401.43,-376.53 429.48,-363 456.46,-354.86 486.44,-345.81 497.05,-357.59 526.46,-346.86 535.04,-343.73 543.61,-339.3 551.61,-334.43"/>
<polygon fill="black" stroke="black" points="553.28,-337.52 559.79,-329.16 549.48,-331.64 553.28,-337.52"/>
</g>
<!-- awareness_survey_unobserved&#45;&gt;awareness_survey -->
<g id="edge6" class="edge">
<title>awareness_survey_unobserved&#45;&gt;awareness_survey</title>
<path fill="none" stroke="black" d="M596.93,-385.69C596.32,-371.02 595.62,-354.13 595,-339.41"/>
<polygon fill="black" stroke="black" points="598.51,-339.52 594.6,-329.67 591.52,-339.81 598.51,-339.52"/>
</g>
</g>
</svg>
