<?xml version="1.0" encoding="UTF-8" standalone="no"?>
<!DOCTYPE svg PUBLIC "-//W3C//DTD SVG 1.1//EN"
 "http://www.w3.org/Graphics/SVG/1.1/DTD/svg11.dtd">
<!-- Generated by graphviz version 7.1.0 (0)
 -->
<!-- Pages: 1 -->
<svg width="168pt" height="152pt"
 viewBox="0.00 0.00 168.00 152.00" xmlns="http://www.w3.org/2000/svg" xmlns:xlink="http://www.w3.org/1999/xlink">
<g id="graph0" class="graph" transform="scale(1 1) rotate(0) translate(4 148)">
<polygon fill="white" stroke="none" points="-4,4 -4,-148 164,-148 164,4 -4,4"/>
<!-- treated -->
<g id="node1" class="node">
<title>treated</title>
<polygon fill="none" stroke="black" points="62,-144 8,-144 8,-108 62,-108 62,-144"/>
<text text-anchor="middle" x="35" y="-122.3" font-family="Times,serif" font-size="14.00">treated</text>
</g>
<!-- Y -->
<g id="node4" class="node">
<title>Y</title>
<ellipse fill="none" stroke="black" cx="133" cy="-72" rx="27" ry="18"/>
<text text-anchor="middle" x="133" y="-68.3" font-family="Times,serif" font-size="14.00">Y</text>
</g>
<!-- treated&#45;&gt;Y -->
<g id="edge1" class="edge">
<title>treated&#45;&gt;Y</title>
<path fill="none" stroke="black" d="M62.49,-111.1C74.63,-104.27 89.08,-96.14 101.66,-89.07"/>
<polygon fill="black" stroke="black" points="103.37,-92.12 110.37,-84.17 99.94,-86.02 103.37,-92.12"/>
</g>
<!-- time -->
<g id="node2" class="node">
<title>time</title>
<polygon fill="none" stroke="black" points="62,-90 8,-90 8,-54 62,-54 62,-90"/>
<text text-anchor="middle" x="35" y="-68.3" font-family="Times,serif" font-size="14.00">time</text>
</g>
<!-- time&#45;&gt;Y -->
<g id="edge2" class="edge">
<title>time&#45;&gt;Y</title>
<path fill="none" stroke="black" d="M62.49,-72C72.35,-72 83.74,-72 94.41,-72"/>
<polygon fill="black" stroke="black" points="94.09,-75.5 104.09,-72 94.09,-68.5 94.09,-75.5"/>
</g>
<!-- treat_post -->
<g id="node3" class="node">
<title>treat_post</title>
<polygon fill="none" stroke="black" points="70,-36 0,-36 0,0 70,0 70,-36"/>
<text text-anchor="middle" x="35" y="-14.3" font-family="Times,serif" font-size="14.00">treat_post</text>
</g>
<!-- treat_post&#45;&gt;Y -->
<g id="edge3" class="edge">
<title>treat_post&#45;&gt;Y</title>
<path fill="none" stroke="black" d="M68.77,-36.43C79.44,-42.44 91.24,-49.07 101.72,-54.97"/>
<polygon fill="black" stroke="black" points="99.92,-57.97 110.36,-59.83 103.36,-51.87 99.92,-57.97"/>
</g>
</g>
</svg>
