<?xml version="1.0" encoding="UTF-8" standalone="no"?>
<!DOCTYPE svg PUBLIC "-//W3C//DTD SVG 1.1//EN"
 "http://www.w3.org/Graphics/SVG/1.1/DTD/svg11.dtd">
<!-- Generated by graphviz version 12.2.1 (0)
 -->
<!-- Pages: 1 -->
<svg width="476pt" height="127pt"
 viewBox="0.00 0.00 475.72 127.00" xmlns="http://www.w3.org/2000/svg" xmlns:xlink="http://www.w3.org/1999/xlink">
<g id="graph0" class="graph" transform="scale(1 1) rotate(0) translate(4 123)">
<polygon fill="white" stroke="none" points="-4,4 -4,-123 471.72,-123 471.72,4 -4,4"/>
<!-- Motivation -->
<g id="node1" class="node">
<title>Motivation</title>
<polygon fill="none" stroke="black" points="76.75,-36 0,-36 0,0 76.75,0 76.75,-36"/>
<text text-anchor="middle" x="38.38" y="-12.95" font-family="Times,serif" font-size="14.00">Motivation</text>
</g>
<!-- Training -->
<g id="node2" class="node">
<title>Training</title>
<ellipse fill="none" stroke="black" cx="166.65" cy="-48" rx="42.65" ry="18"/>
<text text-anchor="middle" x="166.65" y="-42.95" font-family="Times,serif" font-size="14.00">Training</text>
</g>
<!-- Motivation&#45;&gt;Training -->
<g id="edge1" class="edge">
<title>Motivation&#45;&gt;Training</title>
<path fill="none" stroke="black" d="M76.92,-26.92C89.76,-29.97 104.29,-33.42 117.83,-36.64"/>
<polygon fill="black" stroke="black" points="116.89,-40.01 127.43,-38.92 118.51,-33.2 116.89,-40.01"/>
<text text-anchor="middle" x="100.38" y="-36.2" font-family="Times,serif" font-size="14.00">m</text>
</g>
<!-- Performance -->
<g id="node4" class="node">
<title>Performance</title>
<ellipse fill="none" stroke="black" cx="409.21" cy="-48" rx="58.52" ry="18"/>
<text text-anchor="middle" x="409.21" y="-42.95" font-family="Times,serif" font-size="14.00">Performance</text>
</g>
<!-- Motivation&#45;&gt;Performance -->
<g id="edge5" class="edge">
<title>Motivation&#45;&gt;Performance</title>
<path fill="none" stroke="black" d="M77.23,-17.4C111.71,-17.15 163.99,-17.54 209.3,-21 255.32,-24.52 306.95,-31.62 346.08,-37.66"/>
<polygon fill="black" stroke="black" points="345.37,-41.09 355.79,-39.18 346.45,-34.17 345.37,-41.09"/>
<text text-anchor="middle" x="230.3" y="-26.19" font-family="Times,serif" font-size="14.00">f</text>
</g>
<!-- Skill -->
<g id="node3" class="node">
<title>Skill</title>
<ellipse fill="none" stroke="black" cx="279.62" cy="-101" rx="28.32" ry="18"/>
<text text-anchor="middle" x="279.62" y="-95.95" font-family="Times,serif" font-size="14.00">Skill</text>
</g>
<!-- Training&#45;&gt;Skill -->
<g id="edge2" class="edge">
<title>Training&#45;&gt;Skill</title>
<path fill="none" stroke="black" d="M195.94,-61.51C211.32,-68.86 230.41,-77.97 246.37,-85.59"/>
<polygon fill="black" stroke="black" points="244.43,-88.55 254.96,-89.7 247.45,-82.23 244.43,-88.55"/>
<text text-anchor="middle" x="230.3" y="-82.45" font-family="Times,serif" font-size="14.00">a</text>
</g>
<!-- Training&#45;&gt;Performance -->
<g id="edge4" class="edge">
<title>Training&#45;&gt;Performance</title>
<path fill="none" stroke="black" d="M209.55,-48C245.24,-48 297.22,-48 339.06,-48"/>
<polygon fill="black" stroke="black" points="339.06,-51.5 349.06,-48 339.06,-44.5 339.06,-51.5"/>
<text text-anchor="middle" x="279.62" y="-51.2" font-family="Times,serif" font-size="14.00">c</text>
</g>
<!-- Skill&#45;&gt;Performance -->
<g id="edge3" class="edge">
<title>Skill&#45;&gt;Performance</title>
<path fill="none" stroke="black" d="M304.02,-91.28C320.49,-84.44 343.05,-75.07 362.97,-66.79"/>
<polygon fill="black" stroke="black" points="364.11,-70.11 372,-63.04 361.43,-63.64 364.11,-70.11"/>
<text text-anchor="middle" x="329.32" y="-84.01" font-family="Times,serif" font-size="14.00">b</text>
</g>
</g>
</svg>
