<?xml version="1.0" encoding="UTF-8" standalone="no"?>
<!DOCTYPE svg PUBLIC "-//W3C//DTD SVG 1.1//EN"
 "http://www.w3.org/Graphics/SVG/1.1/DTD/svg11.dtd">
<!-- Generated by graphviz version 14.1.2 (0)
 -->
<!-- Pages: 1 -->
<svg width="344pt" height="109pt"
 viewBox="0.00 0.00 344.00 109.00" xmlns="http://www.w3.org/2000/svg" xmlns:xlink="http://www.w3.org/1999/xlink">
<g id="graph0" class="graph" transform="scale(1 1) rotate(0) translate(4 105.21)">
<polygon fill="white" stroke="none" points="-4,4 -4,-105.21 339.92,-105.21 339.92,4 -4,4"/>
<!-- Training -->
<g id="node1" class="node">
<title>Training</title>
<polygon fill="none" stroke="black" points="69.62,-99 7.12,-99 7.12,-63 69.62,-63 69.62,-99"/>
<text xml:space="preserve" text-anchor="middle" x="38.38" y="-75.95" font-family="Times,serif" font-size="14.00">Training</text>
</g>
<!-- Skill -->
<g id="node3" class="node">
<title>Skill</title>
<ellipse fill="none" stroke="black" cx="147.82" cy="-49" rx="28.32" ry="18"/>
<text xml:space="preserve" text-anchor="middle" x="147.82" y="-43.95" font-family="Times,serif" font-size="14.00">Skill</text>
</g>
<!-- Training&#45;&gt;Skill -->
<g id="edge1" class="edge">
<title>Training&#45;&gt;Skill</title>
<path fill="none" stroke="black" d="M69.88,-71.92C82.67,-68.1 97.65,-63.65 110.96,-59.68"/>
<polygon fill="black" stroke="black" points="111.64,-63.13 120.23,-56.92 109.65,-56.42 111.64,-63.13"/>
<text xml:space="preserve" text-anchor="middle" x="98.12" y="-67.24" font-family="Times,serif" font-size="14.00">a</text>
</g>
<!-- Performance -->
<g id="node4" class="node">
<title>Performance</title>
<ellipse fill="none" stroke="black" cx="277.41" cy="-49" rx="58.52" ry="18"/>
<text xml:space="preserve" text-anchor="middle" x="277.41" y="-43.95" font-family="Times,serif" font-size="14.00">Performance</text>
</g>
<!-- Training&#45;&gt;Performance -->
<g id="edge4" class="edge">
<title>Training&#45;&gt;Performance</title>
<path fill="none" stroke="black" d="M70.11,-83.62C78.12,-84.19 86.76,-84.71 94.75,-85 139.74,-86.62 189.85,-75.7 226.03,-65.47"/>
<polygon fill="black" stroke="black" points="226.72,-68.92 235.34,-62.76 224.76,-62.2 226.72,-68.92"/>
<text xml:space="preserve" text-anchor="middle" x="147.82" y="-87.91" font-family="Times,serif" font-size="14.00">c</text>
</g>
<!-- Experience -->
<g id="node2" class="node">
<title>Experience</title>
<polygon fill="none" stroke="black" points="76.75,-36 0,-36 0,0 76.75,0 76.75,-36"/>
<text xml:space="preserve" text-anchor="middle" x="38.38" y="-12.95" font-family="Times,serif" font-size="14.00">Experience</text>
</g>
<!-- Experience&#45;&gt;Skill -->
<g id="edge2" class="edge">
<title>Experience&#45;&gt;Skill</title>
<path fill="none" stroke="black" d="M77.07,-25.21C85.18,-27.04 93.68,-29.15 101.5,-31.5 105.25,-32.62 109.13,-33.92 112.97,-35.28"/>
<polygon fill="black" stroke="black" points="111.53,-38.47 122.12,-38.69 113.97,-31.92 111.53,-38.47"/>
<text xml:space="preserve" text-anchor="middle" x="98.12" y="-34.7" font-family="Times,serif" font-size="14.00">d</text>
</g>
<!-- Experience&#45;&gt;Performance -->
<g id="edge5" class="edge">
<title>Experience&#45;&gt;Performance</title>
<path fill="none" stroke="black" d="M77.15,-8.62C104.81,-3.19 143.11,1.36 176.14,-5.5 197.42,-9.92 219.72,-19.09 237.88,-27.87"/>
<polygon fill="black" stroke="black" points="236.19,-30.94 246.7,-32.29 239.32,-24.68 236.19,-30.94"/>
<text xml:space="preserve" text-anchor="middle" x="147.82" y="-8.7" font-family="Times,serif" font-size="14.00">e</text>
</g>
<!-- Skill&#45;&gt;Performance -->
<g id="edge3" class="edge">
<title>Skill&#45;&gt;Performance</title>
<path fill="none" stroke="black" d="M176.5,-49C185.7,-49 196.38,-49 207.27,-49"/>
<polygon fill="black" stroke="black" points="207.14,-52.5 217.14,-49 207.14,-45.5 207.14,-52.5"/>
<text xml:space="preserve" text-anchor="middle" x="197.52" y="-52.2" font-family="Times,serif" font-size="14.00">b</text>
</g>
</g>
</svg>
