<?xml version="1.0" encoding="UTF-8" standalone="no"?>
<!DOCTYPE svg PUBLIC "-//W3C//DTD SVG 1.1//EN"
 "http://www.w3.org/Graphics/SVG/1.1/DTD/svg11.dtd">
<!-- Generated by graphviz version 12.2.1 (0)
 -->
<!-- Pages: 1 -->
<svg width="566pt" height="153pt"
 viewBox="0.00 0.00 565.91 153.37" xmlns="http://www.w3.org/2000/svg" xmlns:xlink="http://www.w3.org/1999/xlink">
<g id="graph0" class="graph" transform="scale(1 1) rotate(0) translate(4 149.37)">
<polygon fill="white" stroke="none" points="-4,4 -4,-149.37 561.91,-149.37 561.91,4 -4,4"/>
<!-- tv -->
<g id="node1" class="node">
<title>tv</title>
<polygon fill="none" stroke="black" points="54,-144 0,-144 0,-108 54,-108 54,-144"/>
<text text-anchor="middle" x="27" y="-120.95" font-family="Times,serif" font-size="14.00">tv</text>
</g>
<!-- sales -->
<g id="node4" class="node">
<title>sales</title>
<ellipse fill="none" stroke="black" cx="529.08" cy="-72" rx="28.83" ry="18"/>
<text text-anchor="middle" x="529.08" y="-66.95" font-family="Times,serif" font-size="14.00">sales</text>
</g>
<!-- tv&#45;&gt;sales -->
<g id="edge1" class="edge">
<title>tv&#45;&gt;sales</title>
<path fill="none" stroke="black" d="M54.39,-127.32C125.04,-130.15 323.9,-133.62 482.25,-93 486.92,-91.8 491.71,-90.15 496.34,-88.28"/>
<polygon fill="black" stroke="black" points="497.63,-91.54 505.37,-84.3 494.81,-85.14 497.63,-91.54"/>
<text text-anchor="middle" x="277.13" y="-132.07" font-family="Times,serif" font-size="14.00">b_tv*logistic_saturation(adstock(tv, decay=theta_tv), lam=lam_tv)</text>
</g>
<!-- digital -->
<g id="node2" class="node">
<title>digital</title>
<polygon fill="none" stroke="black" points="54,-90 0,-90 0,-54 54,-54 54,-90"/>
<text text-anchor="middle" x="27" y="-66.95" font-family="Times,serif" font-size="14.00">digital</text>
</g>
<!-- digital&#45;&gt;sales -->
<g id="edge2" class="edge">
<title>digital&#45;&gt;sales</title>
<path fill="none" stroke="black" d="M54.18,-72C136.46,-72 390.19,-72 488.55,-72"/>
<polygon fill="black" stroke="black" points="488.51,-75.5 498.51,-72 488.51,-68.5 488.51,-75.5"/>
<text text-anchor="middle" x="277.13" y="-75.2" font-family="Times,serif" font-size="14.00">b_dig*logistic_saturation(adstock(digital, decay=theta_dig), lam=lam_dig)</text>
</g>
<!-- trend -->
<g id="node3" class="node">
<title>trend</title>
<polygon fill="none" stroke="black" points="54,-36 0,-36 0,0 54,0 54,-36"/>
<text text-anchor="middle" x="27" y="-12.95" font-family="Times,serif" font-size="14.00">trend</text>
</g>
<!-- trend&#45;&gt;sales -->
<g id="edge3" class="edge">
<title>trend&#45;&gt;sales</title>
<path fill="none" stroke="black" d="M54.18,-20.83C136.56,-29.72 390.78,-57.17 488.89,-67.77"/>
<polygon fill="black" stroke="black" points="488.51,-71.25 498.83,-68.84 489.26,-64.29 488.51,-71.25"/>
</g>
</g>
</svg>
