<?xml version="1.0" encoding="UTF-8" standalone="no"?>
<!DOCTYPE svg PUBLIC "-//W3C//DTD SVG 1.1//EN"
 "http://www.w3.org/Graphics/SVG/1.1/DTD/svg11.dtd">
<!-- Generated by graphviz version 12.2.1 (0)
 -->
<!-- Pages: 1 -->
<svg width="1086pt" height="486pt"
 viewBox="0.00 0.00 1085.98 486.27" xmlns="http://www.w3.org/2000/svg" xmlns:xlink="http://www.w3.org/1999/xlink">
<g id="graph0" class="graph" transform="scale(1 1) rotate(0) translate(4 482.27)">
<polygon fill="white" stroke="none" points="-4,4 -4,-482.27 1081.98,-482.27 1081.98,4 -4,4"/>
<g id="clust1" class="cluster">
<title>cluster30 x 4</title>
<path fill="none" stroke="black" d="M135.98,-8C135.98,-8 325.98,-8 325.98,-8 331.98,-8 337.98,-14 337.98,-20 337.98,-20 337.98,-345.04 337.98,-345.04 337.98,-351.04 331.98,-357.04 325.98,-357.04 325.98,-357.04 135.98,-357.04 135.98,-357.04 129.98,-357.04 123.98,-351.04 123.98,-345.04 123.98,-345.04 123.98,-20 123.98,-20 123.98,-14 129.98,-8 135.98,-8"/>
<text text-anchor="middle" x="312.73" y="-15.2" font-family="Times,serif" font-size="14.00">30 x 4</text>
</g>
<g id="clust2" class="cluster">
<title>clusterunit (4)</title>
<path fill="none" stroke="black" d="M825.98,-247.13C825.98,-247.13 927.98,-247.13 927.98,-247.13 933.98,-247.13 939.98,-253.13 939.98,-259.13 939.98,-259.13 939.98,-356.95 939.98,-356.95 939.98,-362.95 933.98,-368.95 927.98,-368.95 927.98,-368.95 825.98,-368.95 825.98,-368.95 819.98,-368.95 813.98,-362.95 813.98,-356.95 813.98,-356.95 813.98,-259.13 813.98,-259.13 813.98,-253.13 819.98,-247.13 825.98,-247.13"/>
<text text-anchor="middle" x="911.73" y="-254.33" font-family="Times,serif" font-size="14.00">unit (4)</text>
</g>
<g id="clust3" class="cluster">
<title>clustersales_predictors (4)</title>
<path fill="none" stroke="black" d="M959.98,-247.13C959.98,-247.13 1057.98,-247.13 1057.98,-247.13 1063.98,-247.13 1069.98,-253.13 1069.98,-259.13 1069.98,-259.13 1069.98,-356.95 1069.98,-356.95 1069.98,-362.95 1063.98,-368.95 1057.98,-368.95 1057.98,-368.95 959.98,-368.95 959.98,-368.95 953.98,-368.95 947.98,-362.95 947.98,-356.95 947.98,-356.95 947.98,-259.13 947.98,-259.13 947.98,-253.13 953.98,-247.13 959.98,-247.13"/>
<text text-anchor="middle" x="1008.73" y="-254.33" font-family="Times,serif" font-size="14.00">sales_predictors (4)</text>
</g>
<!-- mu_sales -->
<g id="node1" class="node">
<title>mu_sales</title>
<polygon fill="none" stroke="black" points="330.11,-227.23 239.86,-227.23 239.86,-169.73 330.11,-169.73 330.11,-227.23"/>
<text text-anchor="middle" x="284.98" y="-209.93" font-family="Times,serif" font-size="14.00">mu_sales</text>
<text text-anchor="middle" x="284.98" y="-193.43" font-family="Times,serif" font-size="14.00">~</text>
<text text-anchor="middle" x="284.98" y="-176.93" font-family="Times,serif" font-size="14.00">Deterministic</text>
</g>
<!-- sales -->
<g id="node3" class="node">
<title>sales</title>
<ellipse fill="lightgrey" stroke="black" cx="228.98" cy="-81.16" rx="41.01" ry="40.66"/>
<text text-anchor="middle" x="228.98" y="-92.61" font-family="Times,serif" font-size="14.00">sales</text>
<text text-anchor="middle" x="228.98" y="-76.11" font-family="Times,serif" font-size="14.00">~</text>
<text text-anchor="middle" x="228.98" y="-59.61" font-family="Times,serif" font-size="14.00">Normal</text>
</g>
<!-- mu_sales&#45;&gt;sales -->
<g id="edge12" class="edge">
<title>mu_sales&#45;&gt;sales</title>
<path fill="none" stroke="black" d="M271.28,-169.27C265.35,-157.05 258.24,-142.41 251.56,-128.66"/>
<polygon fill="black" stroke="black" points="254.74,-127.2 247.23,-119.73 248.45,-130.25 254.74,-127.2"/>
</g>
<!-- trend -->
<g id="node2" class="node">
<title>trend</title>
<path fill="lightgrey" stroke="black" d="M173.98,-349.04C173.98,-349.04 143.98,-349.04 143.98,-349.04 137.98,-349.04 131.98,-343.04 131.98,-337.04 131.98,-337.04 131.98,-303.54 131.98,-303.54 131.98,-297.54 137.98,-291.54 143.98,-291.54 143.98,-291.54 173.98,-291.54 173.98,-291.54 179.98,-291.54 185.98,-297.54 185.98,-303.54 185.98,-303.54 185.98,-337.04 185.98,-337.04 185.98,-343.04 179.98,-349.04 173.98,-349.04"/>
<text text-anchor="middle" x="158.98" y="-331.74" font-family="Times,serif" font-size="14.00">trend</text>
<text text-anchor="middle" x="158.98" y="-315.24" font-family="Times,serif" font-size="14.00">~</text>
<text text-anchor="middle" x="158.98" y="-298.74" font-family="Times,serif" font-size="14.00">Data</text>
</g>
<!-- trend&#45;&gt;mu_sales -->
<g id="edge5" class="edge">
<title>trend&#45;&gt;mu_sales</title>
<path fill="none" stroke="black" d="M168.3,-291.08C174.17,-276.6 182.95,-259.46 194.98,-247.13 204.82,-237.05 217.26,-228.63 229.72,-221.81"/>
<polygon fill="black" stroke="black" points="231.04,-225.06 238.33,-217.37 227.84,-218.84 231.04,-225.06"/>
</g>
<!-- tv -->
<g id="node4" class="node">
<title>tv</title>
<path fill="lightgrey" stroke="black" d="M245.98,-349.04C245.98,-349.04 215.98,-349.04 215.98,-349.04 209.98,-349.04 203.98,-343.04 203.98,-337.04 203.98,-337.04 203.98,-303.54 203.98,-303.54 203.98,-297.54 209.98,-291.54 215.98,-291.54 215.98,-291.54 245.98,-291.54 245.98,-291.54 251.98,-291.54 257.98,-297.54 257.98,-303.54 257.98,-303.54 257.98,-337.04 257.98,-337.04 257.98,-343.04 251.98,-349.04 245.98,-349.04"/>
<text text-anchor="middle" x="230.98" y="-331.74" font-family="Times,serif" font-size="14.00">tv</text>
<text text-anchor="middle" x="230.98" y="-315.24" font-family="Times,serif" font-size="14.00">~</text>
<text text-anchor="middle" x="230.98" y="-298.74" font-family="Times,serif" font-size="14.00">Data</text>
</g>
<!-- tv&#45;&gt;mu_sales -->
<g id="edge4" class="edge">
<title>tv&#45;&gt;mu_sales</title>
<path fill="none" stroke="black" d="M243.64,-291.2C250.82,-275.28 259.9,-255.13 267.72,-237.77"/>
<polygon fill="black" stroke="black" points="270.86,-239.33 271.78,-228.77 264.48,-236.45 270.86,-239.33"/>
</g>
<!-- digital -->
<g id="node5" class="node">
<title>digital</title>
<path fill="lightgrey" stroke="black" d="M317.98,-349.04C317.98,-349.04 287.98,-349.04 287.98,-349.04 281.98,-349.04 275.98,-343.04 275.98,-337.04 275.98,-337.04 275.98,-303.54 275.98,-303.54 275.98,-297.54 281.98,-291.54 287.98,-291.54 287.98,-291.54 317.98,-291.54 317.98,-291.54 323.98,-291.54 329.98,-297.54 329.98,-303.54 329.98,-303.54 329.98,-337.04 329.98,-337.04 329.98,-343.04 323.98,-349.04 317.98,-349.04"/>
<text text-anchor="middle" x="302.98" y="-331.74" font-family="Times,serif" font-size="14.00">digital</text>
<text text-anchor="middle" x="302.98" y="-315.24" font-family="Times,serif" font-size="14.00">~</text>
<text text-anchor="middle" x="302.98" y="-298.74" font-family="Times,serif" font-size="14.00">Data</text>
</g>
<!-- digital&#45;&gt;mu_sales -->
<g id="edge11" class="edge">
<title>digital&#45;&gt;mu_sales</title>
<path fill="none" stroke="black" d="M298.76,-291.2C296.42,-275.58 293.46,-255.89 290.88,-238.76"/>
<polygon fill="black" stroke="black" points="294.35,-238.26 289.4,-228.89 287.43,-239.3 294.35,-238.26"/>
</g>
<!-- lam_tv -->
<g id="node6" class="node">
<title>lam_tv</title>
<ellipse fill="none" stroke="black" cx="403.98" cy="-320.29" rx="55.86" ry="40.66"/>
<text text-anchor="middle" x="403.98" y="-331.74" font-family="Times,serif" font-size="14.00">lam_tv</text>
<text text-anchor="middle" x="403.98" y="-315.24" font-family="Times,serif" font-size="14.00">~</text>
<text text-anchor="middle" x="403.98" y="-298.74" font-family="Times,serif" font-size="14.00">Halfnormal</text>
</g>
<!-- lam_tv&#45;&gt;mu_sales -->
<g id="edge3" class="edge">
<title>lam_tv&#45;&gt;mu_sales</title>
<path fill="none" stroke="black" d="M376.38,-284.85C366.01,-272.55 353.86,-258.85 341.98,-247.13 337.9,-243.1 333.51,-239.04 329.05,-235.06"/>
<polygon fill="black" stroke="black" points="331.43,-232.49 321.59,-228.57 326.84,-237.78 331.43,-232.49"/>
</g>
<!-- lam_dig -->
<g id="node7" class="node">
<title>lam_dig</title>
<ellipse fill="none" stroke="black" cx="533.98" cy="-320.29" rx="55.86" ry="40.66"/>
<text text-anchor="middle" x="533.98" y="-331.74" font-family="Times,serif" font-size="14.00">lam_dig</text>
<text text-anchor="middle" x="533.98" y="-315.24" font-family="Times,serif" font-size="14.00">~</text>
<text text-anchor="middle" x="533.98" y="-298.74" font-family="Times,serif" font-size="14.00">Halfnormal</text>
</g>
<!-- lam_dig&#45;&gt;mu_sales -->
<g id="edge6" class="edge">
<title>lam_dig&#45;&gt;mu_sales</title>
<path fill="none" stroke="black" d="M508.92,-283.55C498.03,-270.37 484.26,-256.41 468.98,-247.13 430.08,-223.53 379.71,-211.52 341.5,-205.47"/>
<polygon fill="black" stroke="black" points="342.47,-202.08 332.06,-204.07 341.44,-209 342.47,-202.08"/>
</g>
<!-- theta_tv -->
<g id="node8" class="node">
<title>theta_tv</title>
<ellipse fill="none" stroke="black" cx="649.98" cy="-320.29" rx="42.07" ry="40.66"/>
<text text-anchor="middle" x="649.98" y="-331.74" font-family="Times,serif" font-size="14.00">theta_tv</text>
<text text-anchor="middle" x="649.98" y="-315.24" font-family="Times,serif" font-size="14.00">~</text>
<text text-anchor="middle" x="649.98" y="-298.74" font-family="Times,serif" font-size="14.00">Beta</text>
</g>
<!-- theta_tv&#45;&gt;mu_sales -->
<g id="edge7" class="edge">
<title>theta_tv&#45;&gt;mu_sales</title>
<path fill="none" stroke="black" d="M632.46,-283.18C624.15,-269.78 612.95,-255.76 598.98,-247.13 556.95,-221.18 419.92,-208.21 341.47,-202.76"/>
<polygon fill="black" stroke="black" points="342.06,-199.3 331.85,-202.12 341.59,-206.28 342.06,-199.3"/>
</g>
<!-- theta_dig -->
<g id="node9" class="node">
<title>theta_dig</title>
<ellipse fill="none" stroke="black" cx="756.98" cy="-320.29" rx="46.85" ry="40.66"/>
<text text-anchor="middle" x="756.98" y="-331.74" font-family="Times,serif" font-size="14.00">theta_dig</text>
<text text-anchor="middle" x="756.98" y="-315.24" font-family="Times,serif" font-size="14.00">~</text>
<text text-anchor="middle" x="756.98" y="-298.74" font-family="Times,serif" font-size="14.00">Beta</text>
</g>
<!-- theta_dig&#45;&gt;mu_sales -->
<g id="edge9" class="edge">
<title>theta_dig&#45;&gt;mu_sales</title>
<path fill="none" stroke="black" d="M737.44,-283.25C728.21,-269.69 715.91,-255.53 700.98,-247.13 640.8,-213.28 440.84,-203.43 341.71,-200.59"/>
<polygon fill="black" stroke="black" points="342.03,-197.1 331.94,-200.33 341.84,-204.1 342.03,-197.1"/>
</g>
<!-- sigma_sales -->
<g id="node10" class="node">
<title>sigma_sales</title>
<ellipse fill="none" stroke="black" cx="57.98" cy="-198.48" rx="57.98" ry="40.66"/>
<text text-anchor="middle" x="57.98" y="-209.93" font-family="Times,serif" font-size="14.00">sigma_sales</text>
<text text-anchor="middle" x="57.98" y="-193.43" font-family="Times,serif" font-size="14.00">~</text>
<text text-anchor="middle" x="57.98" y="-176.93" font-family="Times,serif" font-size="14.00">Halfnormal</text>
</g>
<!-- sigma_sales&#45;&gt;sales -->
<g id="edge13" class="edge">
<title>sigma_sales&#45;&gt;sales</title>
<path fill="none" stroke="black" d="M99.38,-169.56C125.52,-151.93 159.25,-129.19 185.74,-111.32"/>
<polygon fill="black" stroke="black" points="187.56,-114.32 193.89,-105.82 183.64,-108.51 187.56,-114.32"/>
</g>
<!-- mu_alpha_sales -->
<g id="node11" class="node">
<title>mu_alpha_sales</title>
<ellipse fill="none" stroke="black" cx="789.98" cy="-437.61" rx="72.83" ry="40.66"/>
<text text-anchor="middle" x="789.98" y="-449.06" font-family="Times,serif" font-size="14.00">mu_alpha_sales</text>
<text text-anchor="middle" x="789.98" y="-432.56" font-family="Times,serif" font-size="14.00">~</text>
<text text-anchor="middle" x="789.98" y="-416.06" font-family="Times,serif" font-size="14.00">Normal</text>
</g>
<!-- alpha_sales -->
<g id="node13" class="node">
<title>alpha_sales</title>
<ellipse fill="none" stroke="black" cx="876.98" cy="-320.29" rx="55.33" ry="40.66"/>
<text text-anchor="middle" x="876.98" y="-331.74" font-family="Times,serif" font-size="14.00">alpha_sales</text>
<text text-anchor="middle" x="876.98" y="-315.24" font-family="Times,serif" font-size="14.00">~</text>
<text text-anchor="middle" x="876.98" y="-298.74" font-family="Times,serif" font-size="14.00">Normal</text>
</g>
<!-- mu_alpha_sales&#45;&gt;alpha_sales -->
<g id="edge1" class="edge">
<title>mu_alpha_sales&#45;&gt;alpha_sales</title>
<path fill="none" stroke="black" d="M817.75,-399.81C826.07,-388.78 835.27,-376.58 843.9,-365.14"/>
<polygon fill="black" stroke="black" points="846.52,-367.48 849.75,-357.39 840.94,-363.26 846.52,-367.48"/>
</g>
<!-- sigma_alpha_sales -->
<g id="node12" class="node">
<title>sigma_alpha_sales</title>
<ellipse fill="none" stroke="black" cx="963.98" cy="-437.61" rx="83.44" ry="40.66"/>
<text text-anchor="middle" x="963.98" y="-449.06" font-family="Times,serif" font-size="14.00">sigma_alpha_sales</text>
<text text-anchor="middle" x="963.98" y="-432.56" font-family="Times,serif" font-size="14.00">~</text>
<text text-anchor="middle" x="963.98" y="-416.06" font-family="Times,serif" font-size="14.00">Halfnormal</text>
</g>
<!-- sigma_alpha_sales&#45;&gt;alpha_sales -->
<g id="edge2" class="edge">
<title>sigma_alpha_sales&#45;&gt;alpha_sales</title>
<path fill="none" stroke="black" d="M935.74,-399.17C927.6,-388.38 918.64,-376.51 910.23,-365.36"/>
<polygon fill="black" stroke="black" points="913.05,-363.28 904.23,-357.41 907.46,-367.5 913.05,-363.28"/>
</g>
<!-- alpha_sales&#45;&gt;mu_sales -->
<g id="edge8" class="edge">
<title>alpha_sales&#45;&gt;mu_sales</title>
<path fill="none" stroke="black" d="M853.73,-283C843.04,-269.4 829.13,-255.29 812.98,-247.13 731.68,-206.08 460.52,-200.02 341.65,-199.38"/>
<polygon fill="black" stroke="black" points="341.82,-195.88 331.8,-199.34 341.79,-202.88 341.82,-195.88"/>
</g>
<!-- beta_sales -->
<g id="node14" class="node">
<title>beta_sales</title>
<ellipse fill="none" stroke="black" cx="1006.98" cy="-320.29" rx="50.56" ry="40.66"/>
<text text-anchor="middle" x="1006.98" y="-331.74" font-family="Times,serif" font-size="14.00">beta_sales</text>
<text text-anchor="middle" x="1006.98" y="-315.24" font-family="Times,serif" font-size="14.00">~</text>
<text text-anchor="middle" x="1006.98" y="-298.74" font-family="Times,serif" font-size="14.00">Normal</text>
</g>
<!-- beta_sales&#45;&gt;mu_sales -->
<g id="edge10" class="edge">
<title>beta_sales&#45;&gt;mu_sales</title>
<path fill="none" stroke="black" d="M984.86,-283.62C974.29,-269.77 960.35,-255.3 943.98,-247.13 890.77,-220.6 491.44,-205.78 341.57,-201.11"/>
<polygon fill="black" stroke="black" points="342,-197.62 331.89,-200.81 341.78,-204.62 342,-197.62"/>
</g>
</g>
</svg>
