<?xml version="1.0" encoding="UTF-8" standalone="no"?>
<!DOCTYPE svg PUBLIC "-//W3C//DTD SVG 1.1//EN"
 "http://www.w3.org/Graphics/SVG/1.1/DTD/svg11.dtd">
<!-- Generated by graphviz version 7.1.0 (0)
 -->
<!-- Pages: 1 -->
<svg width="467pt" height="125pt"
 viewBox="0.00 0.00 467.28 125.00" xmlns="http://www.w3.org/2000/svg" xmlns:xlink="http://www.w3.org/1999/xlink">
<g id="graph0" class="graph" transform="scale(1 1) rotate(0) translate(4 121)">
<polygon fill="white" stroke="none" points="-4,4 -4,-121 463.28,-121 463.28,4 -4,4"/>
<!-- Motivation -->
<g id="node1" class="node">
<title>Motivation</title>
<polygon fill="none" stroke="black" points="77,-36 0,-36 0,0 77,0 77,-36"/>
<text text-anchor="middle" x="38.5" y="-14.3" font-family="Times,serif" font-size="14.00">Motivation</text>
</g>
<!-- Training -->
<g id="node2" class="node">
<title>Training</title>
<ellipse fill="none" stroke="black" cx="165.95" cy="-48" rx="40.89" ry="18"/>
<text text-anchor="middle" x="165.95" y="-44.3" font-family="Times,serif" font-size="14.00">Training</text>
</g>
<!-- Motivation&#45;&gt;Training -->
<g id="edge1" class="edge">
<title>Motivation&#45;&gt;Training</title>
<path fill="none" stroke="black" d="M77.48,-27.08C90.32,-30.15 104.82,-33.62 118.26,-36.83"/>
<polygon fill="black" stroke="black" points="117.23,-40.19 127.77,-39.11 118.86,-33.38 117.23,-40.19"/>
<text text-anchor="middle" x="101" y="-36.8" font-family="Times,serif" font-size="14.00">m</text>
</g>
<!-- Performance -->
<g id="node4" class="node">
<title>Performance</title>
<ellipse fill="none" stroke="black" cx="403.38" cy="-48" rx="55.79" ry="18"/>
<text text-anchor="middle" x="403.38" y="-44.3" font-family="Times,serif" font-size="14.00">Performance</text>
</g>
<!-- Motivation&#45;&gt;Performance -->
<g id="edge5" class="edge">
<title>Motivation&#45;&gt;Performance</title>
<path fill="none" stroke="black" d="M77.46,-17.39C111.42,-17.15 162.56,-17.55 206.89,-21 252.59,-24.55 303.92,-31.77 342.51,-37.84"/>
<polygon fill="black" stroke="black" points="341.63,-41.25 352.06,-39.37 342.73,-34.34 341.63,-41.25"/>
<text text-anchor="middle" x="228.39" y="-26.8" font-family="Times,serif" font-size="14.00">f</text>
</g>
<!-- Skill -->
<g id="node3" class="node">
<title>Skill</title>
<ellipse fill="none" stroke="black" cx="277.19" cy="-99" rx="27.1" ry="18"/>
<text text-anchor="middle" x="277.19" y="-95.3" font-family="Times,serif" font-size="14.00">Skill</text>
</g>
<!-- Training&#45;&gt;Skill -->
<g id="edge2" class="edge">
<title>Training&#45;&gt;Skill</title>
<path fill="none" stroke="black" d="M195.08,-61.13C210.08,-68.14 228.59,-76.78 244.14,-84.04"/>
<polygon fill="black" stroke="black" points="242.44,-87.11 252.99,-88.17 245.41,-80.77 242.44,-87.11"/>
<text text-anchor="middle" x="228.39" y="-81.8" font-family="Times,serif" font-size="14.00">a</text>
</g>
<!-- Training&#45;&gt;Performance -->
<g id="edge4" class="edge">
<title>Training&#45;&gt;Performance</title>
<path fill="none" stroke="black" d="M207.15,-48C242.45,-48 294.47,-48 335.95,-48"/>
<polygon fill="black" stroke="black" points="335.83,-51.5 345.83,-48 335.83,-44.5 335.83,-51.5"/>
<text text-anchor="middle" x="277.19" y="-51.8" font-family="Times,serif" font-size="14.00">c</text>
</g>
<!-- Skill&#45;&gt;Performance -->
<g id="edge3" class="edge">
<title>Skill&#45;&gt;Performance</title>
<path fill="none" stroke="black" d="M300.97,-89.65C316.73,-83.17 338.23,-74.34 357.38,-66.48"/>
<polygon fill="black" stroke="black" points="358.7,-69.72 366.63,-62.68 356.05,-63.25 358.7,-69.72"/>
<text text-anchor="middle" x="325.99" y="-82.8" font-family="Times,serif" font-size="14.00">b</text>
</g>
</g>
</svg>
