<?xml version="1.0" encoding="UTF-8" standalone="no"?>
<!DOCTYPE svg PUBLIC "-//W3C//DTD SVG 1.1//EN"
 "http://www.w3.org/Graphics/SVG/1.1/DTD/svg11.dtd">
<!-- Generated by graphviz version 7.1.0 (0)
 -->
<!-- Pages: 1 -->
<svg width="538pt" height="813pt"
 viewBox="0.00 0.00 538.10 812.67" xmlns="http://www.w3.org/2000/svg" xmlns:xlink="http://www.w3.org/1999/xlink">
<g id="graph0" class="graph" transform="scale(1 1) rotate(0) translate(4 808.67)">
<polygon fill="white" stroke="none" points="-4,4 -4,-808.67 534.1,-808.67 534.1,4 -4,4"/>
<g id="clust1" class="cluster">
<title>cluster300</title>
<path fill="none" stroke="black" d="M198.1,-8C198.1,-8 322.1,-8 322.1,-8 328.1,-8 334.1,-14 334.1,-20 334.1,-20 334.1,-773.7 334.1,-773.7 334.1,-779.7 328.1,-785.7 322.1,-785.7 322.1,-785.7 198.1,-785.7 198.1,-785.7 192.1,-785.7 186.1,-779.7 186.1,-773.7 186.1,-773.7 186.1,-20 186.1,-20 186.1,-14 192.1,-8 198.1,-8"/>
<text text-anchor="middle" x="315.6" y="-15.8" font-family="Times,serif" font-size="14.00">300</text>
</g>
<g id="clust2" class="cluster">
<title>clusterPerformance_predictors (4)</title>
<path fill="none" stroke="black" d="M354.1,-232.91C354.1,-232.91 510.1,-232.91 510.1,-232.91 516.1,-232.91 522.1,-238.91 522.1,-244.91 522.1,-244.91 522.1,-334.86 522.1,-334.86 522.1,-340.86 516.1,-346.86 510.1,-346.86 510.1,-346.86 354.1,-346.86 354.1,-346.86 348.1,-346.86 342.1,-340.86 342.1,-334.86 342.1,-334.86 342.1,-244.91 342.1,-244.91 342.1,-238.91 348.1,-232.91 354.1,-232.91"/>
<text text-anchor="middle" x="438.6" y="-240.71" font-family="Times,serif" font-size="14.00">Performance_predictors (4)</text>
</g>
<g id="clust3" class="cluster">
<title>clusterTraining_predictors (2)</title>
<path fill="none" stroke="black" d="M354.1,-682.72C354.1,-682.72 476.1,-682.72 476.1,-682.72 482.1,-682.72 488.1,-688.72 488.1,-694.72 488.1,-694.72 488.1,-784.67 488.1,-784.67 488.1,-790.67 482.1,-796.67 476.1,-796.67 476.1,-796.67 354.1,-796.67 354.1,-796.67 348.1,-796.67 342.1,-790.67 342.1,-784.67 342.1,-784.67 342.1,-694.72 342.1,-694.72 342.1,-688.72 348.1,-682.72 354.1,-682.72"/>
<text text-anchor="middle" x="416.6" y="-690.52" font-family="Times,serif" font-size="14.00">Training_predictors (2)</text>
</g>
<g id="clust4" class="cluster">
<title>clusterSkill_predictors (2)</title>
<path fill="none" stroke="black" d="M354.1,-457.81C354.1,-457.81 452.1,-457.81 452.1,-457.81 458.1,-457.81 464.1,-463.81 464.1,-469.81 464.1,-469.81 464.1,-559.77 464.1,-559.77 464.1,-565.77 458.1,-571.77 452.1,-571.77 452.1,-571.77 354.1,-571.77 354.1,-571.77 348.1,-571.77 342.1,-565.77 342.1,-559.77 342.1,-559.77 342.1,-469.81 342.1,-469.81 342.1,-463.81 348.1,-457.81 354.1,-457.81"/>
<text text-anchor="middle" x="403.1" y="-465.61" font-family="Times,serif" font-size="14.00">Skill_predictors (2)</text>
</g>
<!-- mu_Skill -->
<g id="node1" class="node">
<title>mu_Skill</title>
<polygon fill="none" stroke="black" points="325.6,-438.84 234.6,-438.84 234.6,-385.84 325.6,-385.84 325.6,-438.84"/>
<text text-anchor="middle" x="280.1" y="-423.64" font-family="Times,serif" font-size="14.00">mu_Skill</text>
<text text-anchor="middle" x="280.1" y="-408.64" font-family="Times,serif" font-size="14.00">~</text>
<text text-anchor="middle" x="280.1" y="-393.64" font-family="Times,serif" font-size="14.00">Deterministic</text>
</g>
<!-- Skill -->
<g id="node7" class="node">
<title>Skill</title>
<ellipse fill="lightgrey" stroke="black" cx="280.1" cy="-301.38" rx="41.94" ry="37.45"/>
<text text-anchor="middle" x="280.1" y="-312.68" font-family="Times,serif" font-size="14.00">Skill</text>
<text text-anchor="middle" x="280.1" y="-297.68" font-family="Times,serif" font-size="14.00">~</text>
<text text-anchor="middle" x="280.1" y="-282.68" font-family="Times,serif" font-size="14.00">Normal</text>
</g>
<!-- mu_Skill&#45;&gt;Skill -->
<g id="edge3" class="edge">
<title>mu_Skill&#45;&gt;Skill</title>
<path fill="none" stroke="black" d="M280.1,-385.52C280.1,-375.02 280.1,-362.55 280.1,-350.5"/>
<polygon fill="black" stroke="black" points="283.6,-350.66 280.1,-340.66 276.6,-350.66 283.6,-350.66"/>
</g>
<!-- Motivation -->
<g id="node2" class="node">
<title>Motivation</title>
<path fill="lightgrey" stroke="black" d="M282.6,-777.7C282.6,-777.7 229.6,-777.7 229.6,-777.7 223.6,-777.7 217.6,-771.7 217.6,-765.7 217.6,-765.7 217.6,-736.7 217.6,-736.7 217.6,-730.7 223.6,-724.7 229.6,-724.7 229.6,-724.7 282.6,-724.7 282.6,-724.7 288.6,-724.7 294.6,-730.7 294.6,-736.7 294.6,-736.7 294.6,-765.7 294.6,-765.7 294.6,-771.7 288.6,-777.7 282.6,-777.7"/>
<text text-anchor="middle" x="256.1" y="-762.5" font-family="Times,serif" font-size="14.00">Motivation</text>
<text text-anchor="middle" x="256.1" y="-747.5" font-family="Times,serif" font-size="14.00">~</text>
<text text-anchor="middle" x="256.1" y="-732.5" font-family="Times,serif" font-size="14.00">Data</text>
</g>
<!-- mu_Performance -->
<g id="node4" class="node">
<title>mu_Performance</title>
<polygon fill="none" stroke="black" points="310.6,-213.93 199.6,-213.93 199.6,-160.93 310.6,-160.93 310.6,-213.93"/>
<text text-anchor="middle" x="255.1" y="-198.73" font-family="Times,serif" font-size="14.00">mu_Performance</text>
<text text-anchor="middle" x="255.1" y="-183.73" font-family="Times,serif" font-size="14.00">~</text>
<text text-anchor="middle" x="255.1" y="-168.73" font-family="Times,serif" font-size="14.00">Deterministic</text>
</g>
<!-- Motivation&#45;&gt;mu_Performance -->
<g id="edge5" class="edge">
<title>Motivation&#45;&gt;mu_Performance</title>
<path fill="none" stroke="black" d="M244.19,-724.4C226.44,-683.52 195.1,-600.91 195.1,-527.29 195.1,-527.29 195.1,-527.29 195.1,-411.34 195.1,-331.49 183.64,-305.86 216.1,-232.91 217.51,-229.73 219.24,-226.61 221.16,-223.59"/>
<polygon fill="black" stroke="black" points="223.94,-225.72 226.99,-215.57 218.28,-221.61 223.94,-225.72"/>
</g>
<!-- mu_Training -->
<g id="node6" class="node">
<title>mu_Training</title>
<polygon fill="none" stroke="black" points="324.6,-663.74 233.6,-663.74 233.6,-610.74 324.6,-610.74 324.6,-663.74"/>
<text text-anchor="middle" x="279.1" y="-648.54" font-family="Times,serif" font-size="14.00">mu_Training</text>
<text text-anchor="middle" x="279.1" y="-633.54" font-family="Times,serif" font-size="14.00">~</text>
<text text-anchor="middle" x="279.1" y="-618.54" font-family="Times,serif" font-size="14.00">Deterministic</text>
</g>
<!-- Motivation&#45;&gt;mu_Training -->
<g id="edge11" class="edge">
<title>Motivation&#45;&gt;mu_Training</title>
<path fill="none" stroke="black" d="M261.43,-724.23C264.42,-709.68 268.2,-691.28 271.49,-675.24"/>
<polygon fill="black" stroke="black" points="274.9,-676.05 273.49,-665.55 268.04,-674.64 274.9,-676.05"/>
</g>
<!-- Training -->
<g id="node3" class="node">
<title>Training</title>
<ellipse fill="lightgrey" stroke="black" cx="279.1" cy="-526.29" rx="44.6" ry="37.45"/>
<text text-anchor="middle" x="279.1" y="-537.59" font-family="Times,serif" font-size="14.00">Training</text>
<text text-anchor="middle" x="279.1" y="-522.59" font-family="Times,serif" font-size="14.00">~</text>
<text text-anchor="middle" x="279.1" y="-507.59" font-family="Times,serif" font-size="14.00">Normal</text>
</g>
<!-- Training&#45;&gt;mu_Skill -->
<g id="edge9" class="edge">
<title>Training&#45;&gt;mu_Skill</title>
<path fill="none" stroke="black" d="M279.42,-488.63C279.53,-476.36 279.65,-462.67 279.76,-450.37"/>
<polygon fill="black" stroke="black" points="283.26,-450.63 279.85,-440.6 276.26,-450.57 283.26,-450.63"/>
</g>
<!-- Training&#45;&gt;mu_Performance -->
<g id="edge6" class="edge">
<title>Training&#45;&gt;mu_Performance</title>
<path fill="none" stroke="black" d="M252.22,-496.03C241.93,-482.9 231.4,-466.61 226.1,-449.81 217.99,-424.18 218.45,-270.62 229.1,-232.91 229.88,-230.12 230.89,-227.33 232.04,-224.57"/>
<polygon fill="black" stroke="black" points="235.17,-226.13 236.42,-215.61 228.88,-223.06 235.17,-226.13"/>
</g>
<!-- Performance -->
<g id="node5" class="node">
<title>Performance</title>
<ellipse fill="lightgrey" stroke="black" cx="255.1" cy="-76.48" rx="60.62" ry="37.45"/>
<text text-anchor="middle" x="255.1" y="-87.78" font-family="Times,serif" font-size="14.00">Performance</text>
<text text-anchor="middle" x="255.1" y="-72.78" font-family="Times,serif" font-size="14.00">~</text>
<text text-anchor="middle" x="255.1" y="-57.78" font-family="Times,serif" font-size="14.00">Normal</text>
</g>
<!-- mu_Performance&#45;&gt;Performance -->
<g id="edge13" class="edge">
<title>mu_Performance&#45;&gt;Performance</title>
<path fill="none" stroke="black" d="M255.1,-160.61C255.1,-150.12 255.1,-137.64 255.1,-125.59"/>
<polygon fill="black" stroke="black" points="258.6,-125.76 255.1,-115.76 251.6,-125.76 258.6,-125.76"/>
</g>
<!-- mu_Training&#45;&gt;Training -->
<g id="edge1" class="edge">
<title>mu_Training&#45;&gt;Training</title>
<path fill="none" stroke="black" d="M279.1,-610.42C279.1,-599.93 279.1,-587.46 279.1,-575.41"/>
<polygon fill="black" stroke="black" points="282.6,-575.57 279.1,-565.57 275.6,-575.57 282.6,-575.57"/>
</g>
<!-- Skill&#45;&gt;mu_Performance -->
<g id="edge8" class="edge">
<title>Skill&#45;&gt;mu_Performance</title>
<path fill="none" stroke="black" d="M272.05,-264.34C269.25,-251.82 266.11,-237.75 263.3,-225.17"/>
<polygon fill="black" stroke="black" points="266.76,-224.59 261.16,-215.59 259.92,-226.11 266.76,-224.59"/>
</g>
<!-- beta_Performance -->
<g id="node8" class="node">
<title>beta_Performance</title>
<ellipse fill="none" stroke="black" cx="432.1" cy="-301.38" rx="82.05" ry="37.45"/>
<text text-anchor="middle" x="432.1" y="-312.68" font-family="Times,serif" font-size="14.00">beta_Performance</text>
<text text-anchor="middle" x="432.1" y="-297.68" font-family="Times,serif" font-size="14.00">~</text>
<text text-anchor="middle" x="432.1" y="-282.68" font-family="Times,serif" font-size="14.00">Normal</text>
</g>
<!-- beta_Performance&#45;&gt;mu_Performance -->
<g id="edge7" class="edge">
<title>beta_Performance&#45;&gt;mu_Performance</title>
<path fill="none" stroke="black" d="M390.78,-268.95C374.67,-257.16 355.83,-243.96 338.1,-232.91 330.96,-228.46 323.33,-224 315.71,-219.72"/>
<polygon fill="black" stroke="black" points="317.5,-216.71 307.06,-214.94 314.12,-222.84 317.5,-216.71"/>
</g>
<!-- sigma_Skill -->
<g id="node9" class="node">
<title>sigma_Skill</title>
<ellipse fill="none" stroke="black" cx="401.1" cy="-412.34" rx="57.97" ry="37.45"/>
<text text-anchor="middle" x="401.1" y="-423.64" font-family="Times,serif" font-size="14.00">sigma_Skill</text>
<text text-anchor="middle" x="401.1" y="-408.64" font-family="Times,serif" font-size="14.00">~</text>
<text text-anchor="middle" x="401.1" y="-393.64" font-family="Times,serif" font-size="14.00">Halfnormal</text>
</g>
<!-- sigma_Skill&#45;&gt;Skill -->
<g id="edge4" class="edge">
<title>sigma_Skill&#45;&gt;Skill</title>
<path fill="none" stroke="black" d="M367.71,-381.28C352.1,-367.22 333.46,-350.44 317.39,-335.97"/>
<polygon fill="black" stroke="black" points="320.15,-333.74 310.38,-329.65 315.47,-338.94 320.15,-333.74"/>
</g>
<!-- sigma_Training -->
<g id="node10" class="node">
<title>sigma_Training</title>
<ellipse fill="none" stroke="black" cx="415.1" cy="-637.24" rx="72.66" ry="37.45"/>
<text text-anchor="middle" x="415.1" y="-648.54" font-family="Times,serif" font-size="14.00">sigma_Training</text>
<text text-anchor="middle" x="415.1" y="-633.54" font-family="Times,serif" font-size="14.00">~</text>
<text text-anchor="middle" x="415.1" y="-618.54" font-family="Times,serif" font-size="14.00">Halfnormal</text>
</g>
<!-- sigma_Training&#45;&gt;Training -->
<g id="edge2" class="edge">
<title>sigma_Training&#45;&gt;Training</title>
<path fill="none" stroke="black" d="M376.49,-605.31C358.67,-591.04 337.52,-574.1 319.49,-559.65"/>
<polygon fill="black" stroke="black" points="322.09,-557.25 312.1,-553.73 317.71,-562.71 322.09,-557.25"/>
</g>
<!-- sigma_Performance -->
<g id="node11" class="node">
<title>sigma_Performance</title>
<ellipse fill="none" stroke="black" cx="89.1" cy="-187.43" rx="89.19" ry="37.45"/>
<text text-anchor="middle" x="89.1" y="-198.73" font-family="Times,serif" font-size="14.00">sigma_Performance</text>
<text text-anchor="middle" x="89.1" y="-183.73" font-family="Times,serif" font-size="14.00">~</text>
<text text-anchor="middle" x="89.1" y="-168.73" font-family="Times,serif" font-size="14.00">Halfnormal</text>
</g>
<!-- sigma_Performance&#45;&gt;Performance -->
<g id="edge14" class="edge">
<title>sigma_Performance&#45;&gt;Performance</title>
<path fill="none" stroke="black" d="M136.22,-155.5C157.6,-141.47 182.9,-124.86 204.66,-110.58"/>
<polygon fill="black" stroke="black" points="206.36,-113.65 212.8,-105.24 202.52,-107.8 206.36,-113.65"/>
</g>
<!-- beta_Training -->
<g id="node12" class="node">
<title>beta_Training</title>
<ellipse fill="none" stroke="black" cx="415.1" cy="-751.2" rx="65.11" ry="37.45"/>
<text text-anchor="middle" x="415.1" y="-762.5" font-family="Times,serif" font-size="14.00">beta_Training</text>
<text text-anchor="middle" x="415.1" y="-747.5" font-family="Times,serif" font-size="14.00">~</text>
<text text-anchor="middle" x="415.1" y="-732.5" font-family="Times,serif" font-size="14.00">Normal</text>
</g>
<!-- beta_Training&#45;&gt;mu_Training -->
<g id="edge12" class="edge">
<title>beta_Training&#45;&gt;mu_Training</title>
<path fill="none" stroke="black" d="M380.68,-719.08C367.54,-707.45 352.3,-694.27 338.1,-682.72 333.37,-678.88 328.36,-674.93 323.35,-671.04"/>
<polygon fill="black" stroke="black" points="325.63,-668.39 315.57,-665.08 321.38,-673.94 325.63,-668.39"/>
</g>
<!-- beta_Skill -->
<g id="node13" class="node">
<title>beta_Skill</title>
<ellipse fill="none" stroke="black" cx="400.1" cy="-526.29" rx="50.41" ry="37.45"/>
<text text-anchor="middle" x="400.1" y="-537.59" font-family="Times,serif" font-size="14.00">beta_Skill</text>
<text text-anchor="middle" x="400.1" y="-522.59" font-family="Times,serif" font-size="14.00">~</text>
<text text-anchor="middle" x="400.1" y="-507.59" font-family="Times,serif" font-size="14.00">Normal</text>
</g>
<!-- beta_Skill&#45;&gt;mu_Skill -->
<g id="edge10" class="edge">
<title>beta_Skill&#45;&gt;mu_Skill</title>
<path fill="none" stroke="black" d="M373.39,-493.99C362.82,-482.21 350.3,-468.98 338.1,-457.81 333.87,-453.95 329.34,-450.07 324.73,-446.3"/>
<polygon fill="black" stroke="black" points="327.03,-443.65 317.04,-440.15 322.67,-449.12 327.03,-443.65"/>
</g>
</g>
</svg>
