<?xml version="1.0" encoding="UTF-8" standalone="no"?>
<!DOCTYPE svg PUBLIC "-//W3C//DTD SVG 1.1//EN"
 "http://www.w3.org/Graphics/SVG/1.1/DTD/svg11.dtd">
<!-- Generated by graphviz version 2.42.4 (0)
 -->
<!-- Pages: 1 -->
<svg width="628pt" height="46pt"
 viewBox="0.00 0.00 627.97 46.26" xmlns="http://www.w3.org/2000/svg" xmlns:xlink="http://www.w3.org/1999/xlink">
<g id="graph0" class="graph" transform="scale(1 1) rotate(0) translate(4 42.26)">
<polygon fill="white" stroke="transparent" points="-4,4 -4,-42.26 623.97,-42.26 623.97,4 -4,4"/>
<!-- push_assigned -->
<g id="node1" class="node">
<title>push_assigned</title>
<polygon fill="none" stroke="black" points="121,-38.26 0,-38.26 0,-2.26 121,-2.26 121,-38.26"/>
<text text-anchor="middle" x="60.5" y="-16.56" font-family="Times,serif" font-size="14.00">push_assigned</text>
</g>
<!-- push_delivered -->
<g id="node2" class="node">
<title>push_delivered</title>
<ellipse fill="none" stroke="black" cx="284.24" cy="-20.26" rx="81.49" ry="18"/>
<text text-anchor="middle" x="284.24" y="-16.56" font-family="Times,serif" font-size="14.00">push_delivered</text>
</g>
<!-- push_assigned&#45;&gt;push_delivered -->
<g id="edge1" class="edge">
<title>push_assigned&#45;&gt;push_delivered</title>
<path fill="none" stroke="black" d="M121.21,-20.26C143.21,-20.26 168.65,-20.26 192.76,-20.26"/>
<polygon fill="black" stroke="black" points="193,-23.76 203,-20.26 193,-16.76 193,-23.76"/>
<text text-anchor="middle" x="162" y="-24.06" font-family="Times,serif" font-size="14.00">b_first</text>
</g>
<!-- in_app_purchase -->
<g id="node3" class="node">
<title>in_app_purchase</title>
<ellipse fill="none" stroke="black" cx="532.23" cy="-20.26" rx="87.99" ry="18"/>
<text text-anchor="middle" x="532.23" y="-16.56" font-family="Times,serif" font-size="14.00">in_app_purchase</text>
</g>
<!-- push_delivered&#45;&gt;in_app_purchase -->
<g id="edge2" class="edge">
<title>push_delivered&#45;&gt;in_app_purchase</title>
<path fill="none" stroke="black" d="M365.79,-20.26C387.54,-20.26 411.31,-20.26 433.87,-20.26"/>
<polygon fill="black" stroke="black" points="434.14,-23.76 444.14,-20.26 434.14,-16.76 434.14,-23.76"/>
<text text-anchor="middle" x="404.99" y="-24.06" font-family="Times,serif" font-size="14.00">b_late</text>
</g>
<!-- push_delivered&#45;&gt;in_app_purchase -->
<g id="edge3" class="edge">
<title>push_delivered&#45;&gt;in_app_purchase</title>
<path fill="none" stroke="black" stroke-dasharray="5,2" d="M351.65,-5.64C362.25,-3.82 373.13,-2.25 383.49,-1.26 409.62,1.24 438.26,-1.23 463.31,-5.12"/>
<polygon fill="black" stroke="black" points="350.82,-2.23 341.6,-7.45 352.06,-9.12 350.82,-2.23"/>
<polygon fill="black" stroke="black" points="463,-8.62 473.44,-6.8 464.15,-1.71 463,-8.62"/>
<text text-anchor="middle" x="404.99" y="-5.06" font-family="Times,serif" font-size="14.00">~~</text>
</g>
</g>
</svg>
