<?xml version="1.0" encoding="UTF-8" standalone="no"?>
<!DOCTYPE svg PUBLIC "-//W3C//DTD SVG 1.1//EN"
 "http://www.w3.org/Graphics/SVG/1.1/DTD/svg11.dtd">
<!-- Generated by graphviz version 2.42.4 (0)
 -->
<!-- Pages: 1 -->
<svg width="1356pt" height="382pt"
 viewBox="0.00 0.00 1356.00 381.86" xmlns="http://www.w3.org/2000/svg" xmlns:xlink="http://www.w3.org/1999/xlink">
<g id="graph0" class="graph" transform="scale(1 1) rotate(0) translate(4 377.86)">
<polygon fill="white" stroke="transparent" points="-4,4 -4,-377.86 1352,-377.86 1352,4 -4,4"/>
<g id="clust1" class="cluster">
<title>cluster2000</title>
<path fill="none" stroke="black" d="M20,-18.98C20,-18.98 176,-18.98 176,-18.98 182,-18.98 188,-24.98 188,-30.98 188,-30.98 188,-342.88 188,-342.88 188,-348.88 182,-354.88 176,-354.88 176,-354.88 20,-354.88 20,-354.88 14,-354.88 8,-348.88 8,-342.88 8,-342.88 8,-30.98 8,-30.98 8,-24.98 14,-18.98 20,-18.98"/>
<text text-anchor="middle" x="161.5" y="-26.78" font-family="Times,serif" font-size="14.00">2000</text>
</g>
<g id="clust2" class="cluster">
<title>clusterpush_delivered_predictors (2)</title>
<path fill="none" stroke="black" d="M305,-251.91C305,-251.91 527,-251.91 527,-251.91 533,-251.91 539,-257.91 539,-263.91 539,-263.91 539,-353.86 539,-353.86 539,-359.86 533,-365.86 527,-365.86 527,-365.86 305,-365.86 305,-365.86 299,-365.86 293,-359.86 293,-353.86 293,-353.86 293,-263.91 293,-263.91 293,-257.91 299,-251.91 305,-251.91"/>
<text text-anchor="middle" x="424.5" y="-259.71" font-family="Times,serif" font-size="14.00">push_delivered_predictors (2)</text>
</g>
<g id="clust3" class="cluster">
<title>clusterin_app_purchase_predictors (2)</title>
<path fill="none" stroke="black" d="M208,-129.95C208,-129.95 444,-129.95 444,-129.95 450,-129.95 456,-135.95 456,-141.95 456,-141.95 456,-231.91 456,-231.91 456,-237.91 450,-243.91 444,-243.91 444,-243.91 208,-243.91 208,-243.91 202,-243.91 196,-237.91 196,-231.91 196,-231.91 196,-141.95 196,-141.95 196,-135.95 202,-129.95 208,-129.95"/>
<text text-anchor="middle" x="336.5" y="-137.75" font-family="Times,serif" font-size="14.00">in_app_purchase_predictors (2)</text>
</g>
<g id="clust4" class="cluster">
<title>cluster3</title>
<path fill="none" stroke="black" d="M625,-129.95C625,-129.95 1021,-129.95 1021,-129.95 1027,-129.95 1033,-135.95 1033,-141.95 1033,-141.95 1033,-231.91 1033,-231.91 1033,-237.91 1027,-243.91 1021,-243.91 1021,-243.91 625,-243.91 625,-243.91 619,-243.91 613,-237.91 613,-231.91 613,-231.91 613,-141.95 613,-141.95 613,-135.95 619,-129.95 625,-129.95"/>
<text text-anchor="middle" x="1020" y="-137.75" font-family="Times,serif" font-size="14.00">3</text>
</g>
<g id="clust5" class="cluster">
<title>cluster2 x 2</title>
<path fill="none" stroke="black" d="M666,-18.98C666,-18.98 980,-18.98 980,-18.98 986,-18.98 992,-24.98 992,-30.98 992,-30.98 992,-98.98 992,-98.98 992,-104.98 986,-110.98 980,-110.98 980,-110.98 666,-110.98 666,-110.98 660,-110.98 654,-104.98 654,-98.98 654,-98.98 654,-30.98 654,-30.98 654,-24.98 660,-18.98 666,-18.98"/>
<text text-anchor="middle" x="966" y="-26.78" font-family="Times,serif" font-size="14.00">2 x 2</text>
</g>
<g id="clust6" class="cluster">
<title>cluster2</title>
<path fill="none" stroke="black" d="M1012,-18.98C1012,-18.98 1328,-18.98 1328,-18.98 1334,-18.98 1340,-24.98 1340,-30.98 1340,-30.98 1340,-98.98 1340,-98.98 1340,-104.98 1334,-110.98 1328,-110.98 1328,-110.98 1012,-110.98 1012,-110.98 1006,-110.98 1000,-104.98 1000,-98.98 1000,-98.98 1000,-30.98 1000,-30.98 1000,-24.98 1006,-18.98 1012,-18.98"/>
<text text-anchor="middle" x="1327" y="-26.78" font-family="Times,serif" font-size="14.00">2</text>
</g>
<g id="clust7" class="cluster">
<title>cluster2000 x 2</title>
<path fill="none" stroke="black" d="M244,-8C244,-8 634,-8 634,-8 640,-8 646,-14 646,-20 646,-20 646,-109.95 646,-109.95 646,-115.95 640,-121.95 634,-121.95 634,-121.95 244,-121.95 244,-121.95 238,-121.95 232,-115.95 232,-109.95 232,-109.95 232,-20 232,-20 232,-14 238,-8 244,-8"/>
<text text-anchor="middle" x="606.5" y="-15.8" font-family="Times,serif" font-size="14.00">2000 x 2</text>
</g>
<!-- push_assigned -->
<g id="node1" class="node">
<title>push_assigned</title>
<path fill="lightgrey" stroke="black" d="M159.5,-346.88C159.5,-346.88 62.5,-346.88 62.5,-346.88 56.5,-346.88 50.5,-340.88 50.5,-334.88 50.5,-334.88 50.5,-305.88 50.5,-305.88 50.5,-299.88 56.5,-293.88 62.5,-293.88 62.5,-293.88 159.5,-293.88 159.5,-293.88 165.5,-293.88 171.5,-299.88 171.5,-305.88 171.5,-305.88 171.5,-334.88 171.5,-334.88 171.5,-340.88 165.5,-346.88 159.5,-346.88"/>
<text text-anchor="middle" x="111" y="-331.68" font-family="Times,serif" font-size="14.00">push_assigned</text>
<text text-anchor="middle" x="111" y="-316.68" font-family="Times,serif" font-size="14.00">~</text>
<text text-anchor="middle" x="111" y="-301.68" font-family="Times,serif" font-size="14.00">Data</text>
</g>
<!-- mu_push_delivered -->
<g id="node2" class="node">
<title>mu_push_delivered</title>
<polygon fill="none" stroke="black" points="180,-224.93 26,-224.93 26,-171.93 180,-171.93 180,-224.93"/>
<text text-anchor="middle" x="103" y="-209.73" font-family="Times,serif" font-size="14.00">mu_push_delivered</text>
<text text-anchor="middle" x="103" y="-194.73" font-family="Times,serif" font-size="14.00">~</text>
<text text-anchor="middle" x="103" y="-179.73" font-family="Times,serif" font-size="14.00">Deterministic</text>
</g>
<!-- push_assigned&#45;&gt;mu_push_delivered -->
<g id="edge1" class="edge">
<title>push_assigned&#45;&gt;mu_push_delivered</title>
<path fill="none" stroke="black" d="M109.28,-293.65C108.14,-276.57 106.63,-253.93 105.38,-235.12"/>
<polygon fill="black" stroke="black" points="108.87,-234.87 104.71,-225.12 101.89,-235.33 108.87,-234.87"/>
</g>
<!-- in_app_purchase_push_delivered_obs -->
<g id="node9" class="node">
<title>in_app_purchase_push_delivered_obs</title>
<ellipse fill="lightgrey" stroke="black" cx="439" cy="-76.48" rx="198.89" ry="37.45"/>
<text text-anchor="middle" x="439" y="-87.78" font-family="Times,serif" font-size="14.00">in_app_purchase_push_delivered_obs</text>
<text text-anchor="middle" x="439" y="-72.78" font-family="Times,serif" font-size="14.00">~</text>
<text text-anchor="middle" x="439" y="-57.78" font-family="Times,serif" font-size="14.00">Multivariate_normal</text>
</g>
<!-- push_assigned&#45;&gt;in_app_purchase_push_delivered_obs -->
<g id="edge7" class="edge">
<title>push_assigned&#45;&gt;in_app_purchase_push_delivered_obs</title>
<path fill="none" stroke="black" d="M164.98,-293.8C199.6,-278.7 245.96,-260.83 289,-251.91 307.62,-248.04 446.87,-257.67 460,-243.91 490.21,-212.25 477.72,-160.41 462.25,-123"/>
<polygon fill="black" stroke="black" points="465.46,-121.6 458.28,-113.81 459.04,-124.38 465.46,-121.6"/>
</g>
<!-- mu_in_app_purchase -->
<g id="node3" class="node">
<title>mu_in_app_purchase</title>
<polygon fill="none" stroke="black" points="180,-102.98 16,-102.98 16,-49.98 180,-49.98 180,-102.98"/>
<text text-anchor="middle" x="98" y="-87.78" font-family="Times,serif" font-size="14.00">mu_in_app_purchase</text>
<text text-anchor="middle" x="98" y="-72.78" font-family="Times,serif" font-size="14.00">~</text>
<text text-anchor="middle" x="98" y="-57.78" font-family="Times,serif" font-size="14.00">Deterministic</text>
</g>
<!-- mu_push_delivered&#45;&gt;mu_in_app_purchase -->
<g id="edge3" class="edge">
<title>mu_push_delivered&#45;&gt;mu_in_app_purchase</title>
<path fill="none" stroke="black" d="M101.93,-171.7C101.22,-154.62 100.27,-131.97 99.49,-113.16"/>
<polygon fill="black" stroke="black" points="102.98,-113.01 99.07,-103.17 95.99,-113.3 102.98,-113.01"/>
</g>
<!-- mu_push_delivered&#45;&gt;in_app_purchase_push_delivered_obs -->
<g id="edge9" class="edge">
<title>mu_push_delivered&#45;&gt;in_app_purchase_push_delivered_obs</title>
<path fill="none" stroke="black" d="M130.18,-171.77C146.83,-157.41 169.25,-140.36 192,-129.95 217.41,-118.33 245.48,-109.24 273.3,-102.15"/>
<polygon fill="black" stroke="black" points="274.26,-105.52 283.13,-99.72 272.58,-98.72 274.26,-105.52"/>
</g>
<!-- beta_push_delivered -->
<g id="node4" class="node">
<title>beta_push_delivered</title>
<ellipse fill="none" stroke="black" cx="416" cy="-320.38" rx="115.02" ry="37.45"/>
<text text-anchor="middle" x="416" y="-331.68" font-family="Times,serif" font-size="14.00">beta_push_delivered</text>
<text text-anchor="middle" x="416" y="-316.68" font-family="Times,serif" font-size="14.00">~</text>
<text text-anchor="middle" x="416" y="-301.68" font-family="Times,serif" font-size="14.00">Normal</text>
</g>
<!-- beta_push_delivered&#45;&gt;mu_push_delivered -->
<g id="edge2" class="edge">
<title>beta_push_delivered&#45;&gt;mu_push_delivered</title>
<path fill="none" stroke="black" d="M332.81,-294.38C290.18,-280.81 237.75,-262.94 192,-243.91 181.64,-239.6 170.8,-234.61 160.4,-229.57"/>
<polygon fill="black" stroke="black" points="161.92,-226.41 151.4,-225.14 158.83,-232.69 161.92,-226.41"/>
</g>
<!-- beta_push_delivered&#45;&gt;in_app_purchase_push_delivered_obs -->
<g id="edge8" class="edge">
<title>beta_push_delivered&#45;&gt;in_app_purchase_push_delivered_obs</title>
<path fill="none" stroke="black" d="M460.34,-285.39C472.26,-273.68 483.62,-259.54 490,-243.91 509.15,-197.02 509.05,-176.88 490,-129.95 488.84,-127.1 487.45,-124.32 485.87,-121.62"/>
<polygon fill="black" stroke="black" points="488.76,-119.65 480.28,-113.3 482.95,-123.55 488.76,-119.65"/>
</g>
<!-- beta_in_app_purchase -->
<g id="node5" class="node">
<title>beta_in_app_purchase</title>
<ellipse fill="none" stroke="black" cx="326" cy="-198.43" rx="122.16" ry="37.45"/>
<text text-anchor="middle" x="326" y="-209.73" font-family="Times,serif" font-size="14.00">beta_in_app_purchase</text>
<text text-anchor="middle" x="326" y="-194.73" font-family="Times,serif" font-size="14.00">~</text>
<text text-anchor="middle" x="326" y="-179.73" font-family="Times,serif" font-size="14.00">Normal</text>
</g>
<!-- beta_in_app_purchase&#45;&gt;mu_in_app_purchase -->
<g id="edge4" class="edge">
<title>beta_in_app_purchase&#45;&gt;mu_in_app_purchase</title>
<path fill="none" stroke="black" d="M265.8,-165.76C231.79,-147.86 189.49,-125.61 155.88,-107.93"/>
<polygon fill="black" stroke="black" points="157.12,-104.62 146.64,-103.07 153.86,-110.82 157.12,-104.62"/>
</g>
<!-- beta_in_app_purchase&#45;&gt;in_app_purchase_push_delivered_obs -->
<g id="edge10" class="edge">
<title>beta_in_app_purchase&#45;&gt;in_app_purchase_push_delivered_obs</title>
<path fill="none" stroke="black" d="M359.29,-162.09C371.38,-149.26 385.18,-134.61 397.86,-121.15"/>
<polygon fill="black" stroke="black" points="400.46,-123.49 404.77,-113.81 395.37,-118.69 400.46,-123.49"/>
</g>
<!-- chol_in_app_purchase_push_delivered -->
<g id="node6" class="node">
<title>chol_in_app_purchase_push_delivered</title>
<ellipse fill="none" stroke="black" cx="823" cy="-198.43" rx="202.47" ry="37.45"/>
<text text-anchor="middle" x="823" y="-209.73" font-family="Times,serif" font-size="14.00">chol_in_app_purchase_push_delivered</text>
<text text-anchor="middle" x="823" y="-194.73" font-family="Times,serif" font-size="14.00">~</text>
<text text-anchor="middle" x="823" y="-179.73" font-family="Times,serif" font-size="14.00">_LKJCholeskyCov</text>
</g>
<!-- chol_in_app_purchase_push_delivered_corr -->
<g id="node7" class="node">
<title>chol_in_app_purchase_push_delivered_corr</title>
<polygon fill="none" stroke="black" points="984,-102.98 662,-102.98 662,-49.98 984,-49.98 984,-102.98"/>
<text text-anchor="middle" x="823" y="-87.78" font-family="Times,serif" font-size="14.00">chol_in_app_purchase_push_delivered_corr</text>
<text text-anchor="middle" x="823" y="-72.78" font-family="Times,serif" font-size="14.00">~</text>
<text text-anchor="middle" x="823" y="-57.78" font-family="Times,serif" font-size="14.00">Deterministic</text>
</g>
<!-- chol_in_app_purchase_push_delivered&#45;&gt;chol_in_app_purchase_push_delivered_corr -->
<g id="edge5" class="edge">
<title>chol_in_app_purchase_push_delivered&#45;&gt;chol_in_app_purchase_push_delivered_corr</title>
<path fill="none" stroke="black" d="M823,-160.79C823,-145.82 823,-128.55 823,-113.63"/>
<polygon fill="black" stroke="black" points="826.5,-113.25 823,-103.25 819.5,-113.25 826.5,-113.25"/>
</g>
<!-- chol_in_app_purchase_push_delivered_stds -->
<g id="node8" class="node">
<title>chol_in_app_purchase_push_delivered_stds</title>
<polygon fill="none" stroke="black" points="1331.5,-102.98 1008.5,-102.98 1008.5,-49.98 1331.5,-49.98 1331.5,-102.98"/>
<text text-anchor="middle" x="1170" y="-87.78" font-family="Times,serif" font-size="14.00">chol_in_app_purchase_push_delivered_stds</text>
<text text-anchor="middle" x="1170" y="-72.78" font-family="Times,serif" font-size="14.00">~</text>
<text text-anchor="middle" x="1170" y="-57.78" font-family="Times,serif" font-size="14.00">Deterministic</text>
</g>
<!-- chol_in_app_purchase_push_delivered&#45;&gt;chol_in_app_purchase_push_delivered_stds -->
<g id="edge6" class="edge">
<title>chol_in_app_purchase_push_delivered&#45;&gt;chol_in_app_purchase_push_delivered_stds</title>
<path fill="none" stroke="black" d="M916.45,-165.13C969.44,-146.81 1035.19,-124.08 1086.46,-106.36"/>
<polygon fill="black" stroke="black" points="1087.87,-109.57 1096.18,-103 1085.59,-102.95 1087.87,-109.57"/>
</g>
<!-- chol_in_app_purchase_push_delivered&#45;&gt;in_app_purchase_push_delivered_obs -->
<g id="edge11" class="edge">
<title>chol_in_app_purchase_push_delivered&#45;&gt;in_app_purchase_push_delivered_obs</title>
<path fill="none" stroke="black" d="M722.11,-165.91C668.97,-149.31 603.71,-128.93 549.24,-111.91"/>
<polygon fill="black" stroke="black" points="550.14,-108.53 539.55,-108.89 548.05,-115.21 550.14,-108.53"/>
</g>
</g>
</svg>
