<?xml version="1.0" encoding="UTF-8" standalone="no"?>
<!DOCTYPE svg PUBLIC "-//W3C//DTD SVG 1.1//EN"
 "http://www.w3.org/Graphics/SVG/1.1/DTD/svg11.dtd">
<!-- Generated by graphviz version 12.2.1 (0)
 -->
<!-- Pages: 1 -->
<svg width="296pt" height="216pt"
 viewBox="0.00 0.00 295.71 216.30" xmlns="http://www.w3.org/2000/svg" xmlns:xlink="http://www.w3.org/1999/xlink">
<g id="graph0" class="graph" transform="scale(1 1) rotate(0) translate(4 212.3)">
<polygon fill="white" stroke="none" points="-4,4 -4,-212.3 291.71,-212.3 291.71,4 -4,4"/>
<!-- price -->
<g id="node1" class="node">
<title>price</title>
<polygon fill="none" stroke="black" points="81.5,-208 27.5,-208 27.5,-172 81.5,-172 81.5,-208"/>
<text text-anchor="middle" x="54.5" y="-184.95" font-family="Times,serif" font-size="14.00">price</text>
</g>
<!-- demand -->
<g id="node5" class="node">
<title>demand</title>
<ellipse fill="none" stroke="black" cx="247.1" cy="-119" rx="40.6" ry="18"/>
<text text-anchor="middle" x="247.1" y="-113.95" font-family="Times,serif" font-size="14.00">demand</text>
</g>
<!-- price&#45;&gt;demand -->
<g id="edge1" class="edge">
<title>price&#45;&gt;demand</title>
<path fill="none" stroke="black" d="M81.88,-192.52C109.76,-194.05 154.34,-193.21 188.5,-177 203.62,-169.82 217.04,-156.95 227.11,-145.15"/>
<polygon fill="black" stroke="black" points="229.62,-147.61 233.18,-137.63 224.17,-143.21 229.62,-147.61"/>
<text text-anchor="middle" x="157.75" y="-195" font-family="Times,serif" font-size="14.00">b_price</text>
</g>
<!-- price&#45;&gt;demand -->
<g id="edge2" class="edge">
<title>price&#45;&gt;demand</title>
<path fill="none" stroke="black" stroke-dasharray="5,2" d="M81.96,-176.58C95.28,-170.08 111.8,-162.42 127,-156.5 128.88,-155.77 169,-143.16 202.16,-132.76"/>
<polygon fill="black" stroke="black" points="203.13,-136.13 211.62,-129.8 201.04,-129.45 203.13,-136.13"/>
<text text-anchor="middle" x="157.75" y="-159.7" font-family="Times,serif" font-size="14.00">b_lag (t−1)</text>
</g>
<!-- competitor_price -->
<g id="node2" class="node">
<title>competitor_price</title>
<polygon fill="none" stroke="black" points="109,-144 0,-144 0,-108 109,-108 109,-144"/>
<text text-anchor="middle" x="54.5" y="-120.95" font-family="Times,serif" font-size="14.00">competitor_price</text>
</g>
<!-- competitor_price&#45;&gt;demand -->
<g id="edge3" class="edge">
<title>competitor_price&#45;&gt;demand</title>
<path fill="none" stroke="black" d="M109.35,-121.49C115.31,-121.1 121.28,-120.76 127,-120.5 149.22,-119.51 173.8,-119.08 194.83,-118.93"/>
<polygon fill="black" stroke="black" points="194.62,-122.43 204.6,-118.87 194.58,-115.43 194.62,-122.43"/>
<text text-anchor="middle" x="157.75" y="-123.7" font-family="Times,serif" font-size="14.00">b_comp</text>
</g>
<!-- season -->
<g id="node3" class="node">
<title>season</title>
<polygon fill="none" stroke="black" points="81.5,-90 27.5,-90 27.5,-54 81.5,-54 81.5,-90"/>
<text text-anchor="middle" x="54.5" y="-66.95" font-family="Times,serif" font-size="14.00">season</text>
</g>
<!-- season&#45;&gt;demand -->
<g id="edge4" class="edge">
<title>season&#45;&gt;demand</title>
<path fill="none" stroke="black" d="M81.76,-76.07C108.78,-80.53 151.96,-88.42 188.5,-98.5 193.79,-99.96 199.28,-101.66 204.69,-103.46"/>
<polygon fill="black" stroke="black" points="203.55,-106.76 214.14,-106.71 205.83,-100.15 203.55,-106.76"/>
<text text-anchor="middle" x="157.75" y="-101.7" font-family="Times,serif" font-size="14.00">b_season</text>
</g>
<!-- trend -->
<g id="node4" class="node">
<title>trend</title>
<polygon fill="none" stroke="black" points="81.5,-36 27.5,-36 27.5,0 81.5,0 81.5,-36"/>
<text text-anchor="middle" x="54.5" y="-12.95" font-family="Times,serif" font-size="14.00">trend</text>
</g>
<!-- trend&#45;&gt;demand -->
<g id="edge5" class="edge">
<title>trend&#45;&gt;demand</title>
<path fill="none" stroke="black" d="M81.86,-28.81C109.14,-40.35 152.71,-59.71 188.5,-80 197.58,-85.15 207.1,-91.27 215.73,-97.12"/>
<polygon fill="black" stroke="black" points="213.55,-99.87 223.77,-102.68 217.53,-94.11 213.55,-99.87"/>
</g>
</g>
</svg>
