<?xml version="1.0" encoding="UTF-8" standalone="no"?>
<!DOCTYPE svg PUBLIC "-//W3C//DTD SVG 1.1//EN"
 "http://www.w3.org/Graphics/SVG/1.1/DTD/svg11.dtd">
<!-- Generated by graphviz version 12.2.1 (0)
 -->
<!-- Pages: 1 -->
<svg width="1109pt" height="486pt"
 viewBox="0.00 0.00 1108.64 486.27" xmlns="http://www.w3.org/2000/svg" xmlns:xlink="http://www.w3.org/1999/xlink">
<g id="graph0" class="graph" transform="scale(1 1) rotate(0) translate(4 482.27)">
<polygon fill="white" stroke="none" points="-4,4 -4,-482.27 1104.64,-482.27 1104.64,4 -4,4"/>
<g id="clust1" class="cluster">
<title>cluster40 x 5</title>
<path fill="none" stroke="black" d="M612.64,-8C612.64,-8 930.64,-8 930.64,-8 936.64,-8 942.64,-14 942.64,-20 942.64,-20 942.64,-345.04 942.64,-345.04 942.64,-351.04 936.64,-357.04 930.64,-357.04 930.64,-357.04 612.64,-357.04 612.64,-357.04 606.64,-357.04 600.64,-351.04 600.64,-345.04 600.64,-345.04 600.64,-20 600.64,-20 600.64,-14 606.64,-8 612.64,-8"/>
<text text-anchor="middle" x="917.39" y="-15.2" font-family="Times,serif" font-size="14.00">40 x 5</text>
</g>
<g id="clust2" class="cluster">
<title>clusterunit (5)</title>
<path fill="none" stroke="black" d="M253.64,-247.13C253.64,-247.13 580.64,-247.13 580.64,-247.13 586.64,-247.13 592.64,-253.13 592.64,-259.13 592.64,-259.13 592.64,-356.95 592.64,-356.95 592.64,-362.95 586.64,-368.95 580.64,-368.95 580.64,-368.95 253.64,-368.95 253.64,-368.95 247.64,-368.95 241.64,-362.95 241.64,-356.95 241.64,-356.95 241.64,-259.13 241.64,-259.13 241.64,-253.13 247.64,-247.13 253.64,-247.13"/>
<text text-anchor="middle" x="564.39" y="-254.33" font-family="Times,serif" font-size="14.00">unit (5)</text>
</g>
<g id="clust3" class="cluster">
<title>clusterdemand_predictors (6)</title>
<path fill="none" stroke="black" d="M962.64,-247.13C962.64,-247.13 1080.64,-247.13 1080.64,-247.13 1086.64,-247.13 1092.64,-253.13 1092.64,-259.13 1092.64,-259.13 1092.64,-356.95 1092.64,-356.95 1092.64,-362.95 1086.64,-368.95 1080.64,-368.95 1080.64,-368.95 962.64,-368.95 962.64,-368.95 956.64,-368.95 950.64,-362.95 950.64,-356.95 950.64,-356.95 950.64,-259.13 950.64,-259.13 950.64,-253.13 956.64,-247.13 962.64,-247.13"/>
<text text-anchor="middle" x="1022.76" y="-254.33" font-family="Times,serif" font-size="14.00">demand_predictors (6)</text>
</g>
<!-- sigma_alpha_demand -->
<g id="node1" class="node">
<title>sigma_alpha_demand</title>
<ellipse fill="none" stroke="black" cx="95.64" cy="-437.61" rx="95.64" ry="40.66"/>
<text text-anchor="middle" x="95.64" y="-449.06" font-family="Times,serif" font-size="14.00">sigma_alpha_demand</text>
<text text-anchor="middle" x="95.64" y="-432.56" font-family="Times,serif" font-size="14.00">~</text>
<text text-anchor="middle" x="95.64" y="-416.06" font-family="Times,serif" font-size="14.00">Halfnormal</text>
</g>
<!-- alpha_demand -->
<g id="node14" class="node">
<title>alpha_demand</title>
<ellipse fill="none" stroke="black" cx="317.64" cy="-320.29" rx="67.53" ry="40.66"/>
<text text-anchor="middle" x="317.64" y="-331.74" font-family="Times,serif" font-size="14.00">alpha_demand</text>
<text text-anchor="middle" x="317.64" y="-315.24" font-family="Times,serif" font-size="14.00">~</text>
<text text-anchor="middle" x="317.64" y="-298.74" font-family="Times,serif" font-size="14.00">Normal</text>
</g>
<!-- sigma_alpha_demand&#45;&gt;alpha_demand -->
<g id="edge4" class="edge">
<title>sigma_alpha_demand&#45;&gt;alpha_demand</title>
<path fill="none" stroke="black" d="M155.42,-405.56C186.94,-389.18 225.52,-369.14 257.14,-352.72"/>
<polygon fill="black" stroke="black" points="258.54,-355.93 265.81,-348.22 255.32,-349.72 258.54,-355.93"/>
</g>
<!-- sigma_slope_demand_price -->
<g id="node2" class="node">
<title>sigma_slope_demand_price</title>
<ellipse fill="none" stroke="black" cx="516.64" cy="-437.61" rx="118.97" ry="40.66"/>
<text text-anchor="middle" x="516.64" y="-449.06" font-family="Times,serif" font-size="14.00">sigma_slope_demand_price</text>
<text text-anchor="middle" x="516.64" y="-432.56" font-family="Times,serif" font-size="14.00">~</text>
<text text-anchor="middle" x="516.64" y="-416.06" font-family="Times,serif" font-size="14.00">Halfnormal</text>
</g>
<!-- slope_demand_price -->
<g id="node13" class="node">
<title>slope_demand_price</title>
<ellipse fill="none" stroke="black" cx="493.64" cy="-320.29" rx="90.86" ry="40.66"/>
<text text-anchor="middle" x="493.64" y="-331.74" font-family="Times,serif" font-size="14.00">slope_demand_price</text>
<text text-anchor="middle" x="493.64" y="-315.24" font-family="Times,serif" font-size="14.00">~</text>
<text text-anchor="middle" x="493.64" y="-298.74" font-family="Times,serif" font-size="14.00">Normal</text>
</g>
<!-- sigma_slope_demand_price&#45;&gt;slope_demand_price -->
<g id="edge1" class="edge">
<title>sigma_slope_demand_price&#45;&gt;slope_demand_price</title>
<path fill="none" stroke="black" d="M508.66,-396.6C507.1,-388.82 505.46,-380.56 503.85,-372.48"/>
<polygon fill="black" stroke="black" points="507.29,-371.84 501.9,-362.72 500.42,-373.21 507.29,-371.84"/>
</g>
<!-- mu_alpha_demand -->
<g id="node3" class="node">
<title>mu_alpha_demand</title>
<ellipse fill="none" stroke="black" cx="294.64" cy="-437.61" rx="85.03" ry="40.66"/>
<text text-anchor="middle" x="294.64" y="-449.06" font-family="Times,serif" font-size="14.00">mu_alpha_demand</text>
<text text-anchor="middle" x="294.64" y="-432.56" font-family="Times,serif" font-size="14.00">~</text>
<text text-anchor="middle" x="294.64" y="-416.06" font-family="Times,serif" font-size="14.00">Normal</text>
</g>
<!-- mu_alpha_demand&#45;&gt;alpha_demand -->
<g id="edge3" class="edge">
<title>mu_alpha_demand&#45;&gt;alpha_demand</title>
<path fill="none" stroke="black" d="M302.55,-396.92C304.14,-388.95 305.83,-380.47 307.49,-372.18"/>
<polygon fill="black" stroke="black" points="310.89,-373.03 309.41,-362.54 304.02,-371.66 310.89,-373.03"/>
</g>
<!-- sigma_demand -->
<g id="node4" class="node">
<title>sigma_demand</title>
<ellipse fill="none" stroke="black" cx="1020.64" cy="-198.48" rx="70.18" ry="40.66"/>
<text text-anchor="middle" x="1020.64" y="-209.93" font-family="Times,serif" font-size="14.00">sigma_demand</text>
<text text-anchor="middle" x="1020.64" y="-193.43" font-family="Times,serif" font-size="14.00">~</text>
<text text-anchor="middle" x="1020.64" y="-176.93" font-family="Times,serif" font-size="14.00">Halfnormal</text>
</g>
<!-- demand -->
<g id="node7" class="node">
<title>demand</title>
<ellipse fill="lightgrey" stroke="black" cx="845.64" cy="-81.16" rx="42.07" ry="40.66"/>
<text text-anchor="middle" x="845.64" y="-92.61" font-family="Times,serif" font-size="14.00">demand</text>
<text text-anchor="middle" x="845.64" y="-76.11" font-family="Times,serif" font-size="14.00">~</text>
<text text-anchor="middle" x="845.64" y="-59.61" font-family="Times,serif" font-size="14.00">Normal</text>
</g>
<!-- sigma_demand&#45;&gt;demand -->
<g id="edge12" class="edge">
<title>sigma_demand&#45;&gt;demand</title>
<path fill="none" stroke="black" d="M975.11,-167.48C948.69,-150.06 915.56,-128.24 889.44,-111.02"/>
<polygon fill="black" stroke="black" points="891.69,-108.32 881.41,-105.74 887.84,-114.16 891.69,-108.32"/>
</g>
<!-- mu_slope_demand_price -->
<g id="node5" class="node">
<title>mu_slope_demand_price</title>
<ellipse fill="none" stroke="black" cx="761.64" cy="-437.61" rx="108.36" ry="40.66"/>
<text text-anchor="middle" x="761.64" y="-449.06" font-family="Times,serif" font-size="14.00">mu_slope_demand_price</text>
<text text-anchor="middle" x="761.64" y="-432.56" font-family="Times,serif" font-size="14.00">~</text>
<text text-anchor="middle" x="761.64" y="-416.06" font-family="Times,serif" font-size="14.00">Normal</text>
</g>
<!-- mu_slope_demand_price&#45;&gt;slope_demand_price -->
<g id="edge2" class="edge">
<title>mu_slope_demand_price&#45;&gt;slope_demand_price</title>
<path fill="none" stroke="black" d="M688.24,-407.33C659.55,-395.66 626.43,-381.95 596.64,-368.95 586.61,-364.58 576.09,-359.86 565.77,-355.16"/>
<polygon fill="black" stroke="black" points="567.45,-352.08 556.9,-351.1 564.54,-358.45 567.45,-352.08"/>
</g>
<!-- _use_observed_carry -->
<g id="node6" class="node">
<title>_use_observed_carry</title>
<path fill="lightgrey" stroke="black" d="M1007.01,-466.36C1007.01,-466.36 900.26,-466.36 900.26,-466.36 894.26,-466.36 888.26,-460.36 888.26,-454.36 888.26,-454.36 888.26,-420.86 888.26,-420.86 888.26,-414.86 894.26,-408.86 900.26,-408.86 900.26,-408.86 1007.01,-408.86 1007.01,-408.86 1013.01,-408.86 1019.01,-414.86 1019.01,-420.86 1019.01,-420.86 1019.01,-454.36 1019.01,-454.36 1019.01,-460.36 1013.01,-466.36 1007.01,-466.36"/>
<text text-anchor="middle" x="953.64" y="-449.06" font-family="Times,serif" font-size="14.00">_use_observed_carry</text>
<text text-anchor="middle" x="953.64" y="-432.56" font-family="Times,serif" font-size="14.00">~</text>
<text text-anchor="middle" x="953.64" y="-416.06" font-family="Times,serif" font-size="14.00">Data</text>
</g>
<!-- trend -->
<g id="node8" class="node">
<title>trend</title>
<path fill="lightgrey" stroke="black" d="M650.64,-349.04C650.64,-349.04 620.64,-349.04 620.64,-349.04 614.64,-349.04 608.64,-343.04 608.64,-337.04 608.64,-337.04 608.64,-303.54 608.64,-303.54 608.64,-297.54 614.64,-291.54 620.64,-291.54 620.64,-291.54 650.64,-291.54 650.64,-291.54 656.64,-291.54 662.64,-297.54 662.64,-303.54 662.64,-303.54 662.64,-337.04 662.64,-337.04 662.64,-343.04 656.64,-349.04 650.64,-349.04"/>
<text text-anchor="middle" x="635.64" y="-331.74" font-family="Times,serif" font-size="14.00">trend</text>
<text text-anchor="middle" x="635.64" y="-315.24" font-family="Times,serif" font-size="14.00">~</text>
<text text-anchor="middle" x="635.64" y="-298.74" font-family="Times,serif" font-size="14.00">Data</text>
</g>
<!-- mu_demand -->
<g id="node11" class="node">
<title>mu_demand</title>
<polygon fill="none" stroke="black" points="798.76,-227.23 708.51,-227.23 708.51,-169.73 798.76,-169.73 798.76,-227.23"/>
<text text-anchor="middle" x="753.64" y="-209.93" font-family="Times,serif" font-size="14.00">mu_demand</text>
<text text-anchor="middle" x="753.64" y="-193.43" font-family="Times,serif" font-size="14.00">~</text>
<text text-anchor="middle" x="753.64" y="-176.93" font-family="Times,serif" font-size="14.00">Deterministic</text>
</g>
<!-- trend&#45;&gt;mu_demand -->
<g id="edge5" class="edge">
<title>trend&#45;&gt;mu_demand</title>
<path fill="none" stroke="black" d="M645.15,-291.27C651.08,-276.84 659.85,-259.69 671.64,-247.13 679.33,-238.94 688.74,-231.73 698.42,-225.55"/>
<polygon fill="black" stroke="black" points="700.06,-228.65 706.83,-220.51 696.46,-222.65 700.06,-228.65"/>
</g>
<!-- season -->
<g id="node9" class="node">
<title>season</title>
<path fill="lightgrey" stroke="black" d="M722.64,-349.04C722.64,-349.04 692.64,-349.04 692.64,-349.04 686.64,-349.04 680.64,-343.04 680.64,-337.04 680.64,-337.04 680.64,-303.54 680.64,-303.54 680.64,-297.54 686.64,-291.54 692.64,-291.54 692.64,-291.54 722.64,-291.54 722.64,-291.54 728.64,-291.54 734.64,-297.54 734.64,-303.54 734.64,-303.54 734.64,-337.04 734.64,-337.04 734.64,-343.04 728.64,-349.04 722.64,-349.04"/>
<text text-anchor="middle" x="707.64" y="-331.74" font-family="Times,serif" font-size="14.00">season</text>
<text text-anchor="middle" x="707.64" y="-315.24" font-family="Times,serif" font-size="14.00">~</text>
<text text-anchor="middle" x="707.64" y="-298.74" font-family="Times,serif" font-size="14.00">Data</text>
</g>
<!-- season&#45;&gt;mu_demand -->
<g id="edge7" class="edge">
<title>season&#45;&gt;mu_demand</title>
<path fill="none" stroke="black" d="M718.42,-291.2C724.53,-275.28 732.27,-255.13 738.93,-237.77"/>
<polygon fill="black" stroke="black" points="742.06,-239.39 742.38,-228.8 735.52,-236.89 742.06,-239.39"/>
</g>
<!-- competitor_price -->
<g id="node10" class="node">
<title>competitor_price</title>
<path fill="lightgrey" stroke="black" d="M850.14,-349.04C850.14,-349.04 765.14,-349.04 765.14,-349.04 759.14,-349.04 753.14,-343.04 753.14,-337.04 753.14,-337.04 753.14,-303.54 753.14,-303.54 753.14,-297.54 759.14,-291.54 765.14,-291.54 765.14,-291.54 850.14,-291.54 850.14,-291.54 856.14,-291.54 862.14,-297.54 862.14,-303.54 862.14,-303.54 862.14,-337.04 862.14,-337.04 862.14,-343.04 856.14,-349.04 850.14,-349.04"/>
<text text-anchor="middle" x="807.64" y="-331.74" font-family="Times,serif" font-size="14.00">competitor_price</text>
<text text-anchor="middle" x="807.64" y="-315.24" font-family="Times,serif" font-size="14.00">~</text>
<text text-anchor="middle" x="807.64" y="-298.74" font-family="Times,serif" font-size="14.00">Data</text>
</g>
<!-- competitor_price&#45;&gt;mu_demand -->
<g id="edge11" class="edge">
<title>competitor_price&#45;&gt;mu_demand</title>
<path fill="none" stroke="black" d="M794.98,-291.2C787.8,-275.28 778.72,-255.13 770.9,-237.77"/>
<polygon fill="black" stroke="black" points="774.14,-236.45 766.84,-228.77 767.76,-239.33 774.14,-236.45"/>
</g>
<!-- mu_demand&#45;&gt;demand -->
<g id="edge13" class="edge">
<title>mu_demand&#45;&gt;demand</title>
<path fill="none" stroke="black" d="M776.14,-169.27C787.35,-155.22 801.1,-137.99 813.4,-122.57"/>
<polygon fill="black" stroke="black" points="816,-124.92 819.5,-114.92 810.53,-120.55 816,-124.92"/>
</g>
<!-- price -->
<g id="node12" class="node">
<title>price</title>
<path fill="lightgrey" stroke="black" d="M922.64,-349.04C922.64,-349.04 892.64,-349.04 892.64,-349.04 886.64,-349.04 880.64,-343.04 880.64,-337.04 880.64,-337.04 880.64,-303.54 880.64,-303.54 880.64,-297.54 886.64,-291.54 892.64,-291.54 892.64,-291.54 922.64,-291.54 922.64,-291.54 928.64,-291.54 934.64,-297.54 934.64,-303.54 934.64,-303.54 934.64,-337.04 934.64,-337.04 934.64,-343.04 928.64,-349.04 922.64,-349.04"/>
<text text-anchor="middle" x="907.64" y="-331.74" font-family="Times,serif" font-size="14.00">price</text>
<text text-anchor="middle" x="907.64" y="-315.24" font-family="Times,serif" font-size="14.00">~</text>
<text text-anchor="middle" x="907.64" y="-298.74" font-family="Times,serif" font-size="14.00">Data</text>
</g>
<!-- price&#45;&gt;mu_demand -->
<g id="edge9" class="edge">
<title>price&#45;&gt;mu_demand</title>
<path fill="none" stroke="black" d="M899.1,-291.28C893.37,-276.49 884.49,-259.01 871.64,-247.13 854.43,-231.24 831.24,-220.33 809.97,-213.01"/>
<polygon fill="black" stroke="black" points="811.1,-209.7 800.5,-209.97 808.95,-216.36 811.1,-209.7"/>
</g>
<!-- slope_demand_price&#45;&gt;mu_demand -->
<g id="edge10" class="edge">
<title>slope_demand_price&#45;&gt;mu_demand</title>
<path fill="none" stroke="black" d="M537.1,-284.25C554.79,-271.24 575.92,-257.21 596.64,-247.13 628.57,-231.59 666.64,-219.88 697.3,-211.96"/>
<polygon fill="black" stroke="black" points="697.92,-215.42 706.76,-209.58 696.21,-208.63 697.92,-215.42"/>
</g>
<!-- alpha_demand&#45;&gt;mu_demand -->
<g id="edge8" class="edge">
<title>alpha_demand&#45;&gt;mu_demand</title>
<path fill="none" stroke="black" d="M346.69,-283.32C359.61,-269.77 375.9,-255.6 393.64,-247.13 446.04,-222.11 609.46,-208.42 696.97,-202.71"/>
<polygon fill="black" stroke="black" points="697.01,-206.22 706.77,-202.09 696.57,-199.23 697.01,-206.22"/>
</g>
<!-- beta_demand -->
<g id="node15" class="node">
<title>beta_demand</title>
<ellipse fill="none" stroke="black" cx="1021.64" cy="-320.29" rx="62.76" ry="40.66"/>
<text text-anchor="middle" x="1021.64" y="-331.74" font-family="Times,serif" font-size="14.00">beta_demand</text>
<text text-anchor="middle" x="1021.64" y="-315.24" font-family="Times,serif" font-size="14.00">~</text>
<text text-anchor="middle" x="1021.64" y="-298.74" font-family="Times,serif" font-size="14.00">Normal</text>
</g>
<!-- beta_demand&#45;&gt;mu_demand -->
<g id="edge6" class="edge">
<title>beta_demand&#45;&gt;mu_demand</title>
<path fill="none" stroke="black" d="M992.19,-283.91C979.44,-270.61 963.56,-256.47 946.64,-247.13 904.19,-223.72 850.22,-211.65 810.15,-205.53"/>
<polygon fill="black" stroke="black" points="810.87,-202.1 800.47,-204.13 809.87,-209.02 810.87,-202.1"/>
</g>
</g>
</svg>
