<?xml version="1.0" encoding="UTF-8" standalone="no"?>
<!DOCTYPE svg PUBLIC "-//W3C//DTD SVG 1.1//EN"
 "http://www.w3.org/Graphics/SVG/1.1/DTD/svg11.dtd">
<!-- Generated by graphviz version 7.1.0 (0)
 -->
<!-- Pages: 1 -->
<svg width="1106pt" height="458pt"
 viewBox="0.00 0.00 1105.56 457.81" xmlns="http://www.w3.org/2000/svg" xmlns:xlink="http://www.w3.org/1999/xlink">
<g id="graph0" class="graph" transform="scale(1 1) rotate(0) translate(4 453.81)">
<polygon fill="white" stroke="none" points="-4,4 -4,-453.81 1101.56,-453.81 1101.56,4 -4,4"/>
<g id="clust1" class="cluster">
<title>cluster40 x 5</title>
<path fill="none" stroke="black" d="M609.56,-8C609.56,-8 927.56,-8 927.56,-8 933.56,-8 939.56,-14 939.56,-20 939.56,-20 939.56,-323.88 939.56,-323.88 939.56,-329.88 933.56,-335.88 927.56,-335.88 927.56,-335.88 609.56,-335.88 609.56,-335.88 603.56,-335.88 597.56,-329.88 597.56,-323.88 597.56,-323.88 597.56,-20 597.56,-20 597.56,-14 603.56,-8 609.56,-8"/>
<text text-anchor="middle" x="914.06" y="-15.8" font-family="Times,serif" font-size="14.00">40 x 5</text>
</g>
<g id="clust2" class="cluster">
<title>clusterunit (5)</title>
<path fill="none" stroke="black" d="M249.56,-232.91C249.56,-232.91 577.56,-232.91 577.56,-232.91 583.56,-232.91 589.56,-238.91 589.56,-244.91 589.56,-244.91 589.56,-334.86 589.56,-334.86 589.56,-340.86 583.56,-346.86 577.56,-346.86 577.56,-346.86 249.56,-346.86 249.56,-346.86 243.56,-346.86 237.56,-340.86 237.56,-334.86 237.56,-334.86 237.56,-244.91 237.56,-244.91 237.56,-238.91 243.56,-232.91 249.56,-232.91"/>
<text text-anchor="middle" x="561.06" y="-240.71" font-family="Times,serif" font-size="14.00">unit (5)</text>
</g>
<g id="clust3" class="cluster">
<title>clusterdemand_predictors (6)</title>
<path fill="none" stroke="black" d="M959.56,-232.91C959.56,-232.91 1077.56,-232.91 1077.56,-232.91 1083.56,-232.91 1089.56,-238.91 1089.56,-244.91 1089.56,-244.91 1089.56,-334.86 1089.56,-334.86 1089.56,-340.86 1083.56,-346.86 1077.56,-346.86 1077.56,-346.86 959.56,-346.86 959.56,-346.86 953.56,-346.86 947.56,-340.86 947.56,-334.86 947.56,-334.86 947.56,-244.91 947.56,-244.91 947.56,-238.91 953.56,-232.91 959.56,-232.91"/>
<text text-anchor="middle" x="1019.56" y="-240.71" font-family="Times,serif" font-size="14.00">demand_predictors (6)</text>
</g>
<!-- mu_alpha_demand -->
<g id="node1" class="node">
<title>mu_alpha_demand</title>
<ellipse fill="none" stroke="black" cx="85.56" cy="-412.34" rx="85.62" ry="37.45"/>
<text text-anchor="middle" x="85.56" y="-423.64" font-family="Times,serif" font-size="14.00">mu_alpha_demand</text>
<text text-anchor="middle" x="85.56" y="-408.64" font-family="Times,serif" font-size="14.00">~</text>
<text text-anchor="middle" x="85.56" y="-393.64" font-family="Times,serif" font-size="14.00">Normal</text>
</g>
<!-- alpha_demand -->
<g id="node14" class="node">
<title>alpha_demand</title>
<ellipse fill="none" stroke="black" cx="313.56" cy="-301.38" rx="67.76" ry="37.45"/>
<text text-anchor="middle" x="313.56" y="-312.68" font-family="Times,serif" font-size="14.00">alpha_demand</text>
<text text-anchor="middle" x="313.56" y="-297.68" font-family="Times,serif" font-size="14.00">~</text>
<text text-anchor="middle" x="313.56" y="-282.68" font-family="Times,serif" font-size="14.00">Normal</text>
</g>
<!-- mu_alpha_demand&#45;&gt;alpha_demand -->
<g id="edge4" class="edge">
<title>mu_alpha_demand&#45;&gt;alpha_demand</title>
<path fill="none" stroke="black" d="M142.8,-383.98C176.27,-367.99 218.51,-347.8 252.6,-331.51"/>
<polygon fill="black" stroke="black" points="254.02,-334.71 261.54,-327.24 251,-328.4 254.02,-334.71"/>
</g>
<!-- sigma_demand -->
<g id="node2" class="node">
<title>sigma_demand</title>
<ellipse fill="none" stroke="black" cx="1018.56" cy="-187.43" rx="70.92" ry="37.45"/>
<text text-anchor="middle" x="1018.56" y="-198.73" font-family="Times,serif" font-size="14.00">sigma_demand</text>
<text text-anchor="middle" x="1018.56" y="-183.73" font-family="Times,serif" font-size="14.00">~</text>
<text text-anchor="middle" x="1018.56" y="-168.73" font-family="Times,serif" font-size="14.00">Halfnormal</text>
</g>
<!-- demand -->
<g id="node8" class="node">
<title>demand</title>
<ellipse fill="lightgrey" stroke="black" cx="832.56" cy="-76.48" rx="42.35" ry="37.45"/>
<text text-anchor="middle" x="832.56" y="-87.78" font-family="Times,serif" font-size="14.00">demand</text>
<text text-anchor="middle" x="832.56" y="-72.78" font-family="Times,serif" font-size="14.00">~</text>
<text text-anchor="middle" x="832.56" y="-57.78" font-family="Times,serif" font-size="14.00">Normal</text>
</g>
<!-- sigma_demand&#45;&gt;demand -->
<g id="edge13" class="edge">
<title>sigma_demand&#45;&gt;demand</title>
<path fill="none" stroke="black" d="M971.62,-158.94C942.74,-142.02 905.93,-120.46 877.44,-103.77"/>
<polygon fill="black" stroke="black" points="879.44,-100.88 869.04,-98.85 875.9,-106.92 879.44,-100.88"/>
</g>
<!-- sigma_slope_demand_price -->
<g id="node3" class="node">
<title>sigma_slope_demand_price</title>
<ellipse fill="none" stroke="black" cx="519.56" cy="-412.34" rx="119.5" ry="37.45"/>
<text text-anchor="middle" x="519.56" y="-423.64" font-family="Times,serif" font-size="14.00">sigma_slope_demand_price</text>
<text text-anchor="middle" x="519.56" y="-408.64" font-family="Times,serif" font-size="14.00">~</text>
<text text-anchor="middle" x="519.56" y="-393.64" font-family="Times,serif" font-size="14.00">Halfnormal</text>
</g>
<!-- slope_demand_price -->
<g id="node13" class="node">
<title>slope_demand_price</title>
<ellipse fill="none" stroke="black" cx="490.56" cy="-301.38" rx="91.43" ry="37.45"/>
<text text-anchor="middle" x="490.56" y="-312.68" font-family="Times,serif" font-size="14.00">slope_demand_price</text>
<text text-anchor="middle" x="490.56" y="-297.68" font-family="Times,serif" font-size="14.00">~</text>
<text text-anchor="middle" x="490.56" y="-282.68" font-family="Times,serif" font-size="14.00">Normal</text>
</g>
<!-- sigma_slope_demand_price&#45;&gt;slope_demand_price -->
<g id="edge2" class="edge">
<title>sigma_slope_demand_price&#45;&gt;slope_demand_price</title>
<path fill="none" stroke="black" d="M509.82,-374.75C507.72,-366.85 505.46,-358.38 503.27,-350.12"/>
<polygon fill="black" stroke="black" points="506.66,-349.28 500.71,-340.52 499.9,-351.08 506.66,-349.28"/>
</g>
<!-- sigma_alpha_demand -->
<g id="node4" class="node">
<title>sigma_alpha_demand</title>
<ellipse fill="none" stroke="black" cx="285.56" cy="-412.34" rx="96.33" ry="37.45"/>
<text text-anchor="middle" x="285.56" y="-423.64" font-family="Times,serif" font-size="14.00">sigma_alpha_demand</text>
<text text-anchor="middle" x="285.56" y="-408.64" font-family="Times,serif" font-size="14.00">~</text>
<text text-anchor="middle" x="285.56" y="-393.64" font-family="Times,serif" font-size="14.00">Halfnormal</text>
</g>
<!-- sigma_alpha_demand&#45;&gt;alpha_demand -->
<g id="edge3" class="edge">
<title>sigma_alpha_demand&#45;&gt;alpha_demand</title>
<path fill="none" stroke="black" d="M294.96,-374.75C297.04,-366.67 299.27,-358 301.43,-349.57"/>
<polygon fill="black" stroke="black" points="304.75,-350.71 303.85,-340.15 297.98,-348.96 304.75,-350.71"/>
</g>
<!-- mu_slope_demand_price -->
<g id="node5" class="node">
<title>mu_slope_demand_price</title>
<ellipse fill="none" stroke="black" cx="765.56" cy="-412.34" rx="108.79" ry="37.45"/>
<text text-anchor="middle" x="765.56" y="-423.64" font-family="Times,serif" font-size="14.00">mu_slope_demand_price</text>
<text text-anchor="middle" x="765.56" y="-408.64" font-family="Times,serif" font-size="14.00">~</text>
<text text-anchor="middle" x="765.56" y="-393.64" font-family="Times,serif" font-size="14.00">Normal</text>
</g>
<!-- mu_slope_demand_price&#45;&gt;slope_demand_price -->
<g id="edge1" class="edge">
<title>mu_slope_demand_price&#45;&gt;slope_demand_price</title>
<path fill="none" stroke="black" d="M691.6,-384.51C661.11,-373.22 625.5,-359.74 593.56,-346.86 583.4,-342.76 572.73,-338.32 562.27,-333.88"/>
<polygon fill="black" stroke="black" points="563.86,-330.76 553.29,-330.05 561.11,-337.19 563.86,-330.76"/>
</g>
<!-- _use_observed_carry -->
<g id="node6" class="node">
<title>_use_observed_carry</title>
<path fill="lightgrey" stroke="black" d="M1011.06,-438.84C1011.06,-438.84 904.06,-438.84 904.06,-438.84 898.06,-438.84 892.06,-432.84 892.06,-426.84 892.06,-426.84 892.06,-397.84 892.06,-397.84 892.06,-391.84 898.06,-385.84 904.06,-385.84 904.06,-385.84 1011.06,-385.84 1011.06,-385.84 1017.06,-385.84 1023.06,-391.84 1023.06,-397.84 1023.06,-397.84 1023.06,-426.84 1023.06,-426.84 1023.06,-432.84 1017.06,-438.84 1011.06,-438.84"/>
<text text-anchor="middle" x="957.56" y="-423.64" font-family="Times,serif" font-size="14.00">_use_observed_carry</text>
<text text-anchor="middle" x="957.56" y="-408.64" font-family="Times,serif" font-size="14.00">~</text>
<text text-anchor="middle" x="957.56" y="-393.64" font-family="Times,serif" font-size="14.00">Data</text>
</g>
<!-- competitor_price -->
<g id="node7" class="node">
<title>competitor_price</title>
<path fill="lightgrey" stroke="black" d="M919.56,-327.88C919.56,-327.88 833.56,-327.88 833.56,-327.88 827.56,-327.88 821.56,-321.88 821.56,-315.88 821.56,-315.88 821.56,-286.88 821.56,-286.88 821.56,-280.88 827.56,-274.88 833.56,-274.88 833.56,-274.88 919.56,-274.88 919.56,-274.88 925.56,-274.88 931.56,-280.88 931.56,-286.88 931.56,-286.88 931.56,-315.88 931.56,-315.88 931.56,-321.88 925.56,-327.88 919.56,-327.88"/>
<text text-anchor="middle" x="876.56" y="-312.68" font-family="Times,serif" font-size="14.00">competitor_price</text>
<text text-anchor="middle" x="876.56" y="-297.68" font-family="Times,serif" font-size="14.00">~</text>
<text text-anchor="middle" x="876.56" y="-282.68" font-family="Times,serif" font-size="14.00">Data</text>
</g>
<!-- mu_demand -->
<g id="node12" class="node">
<title>mu_demand</title>
<polygon fill="none" stroke="black" points="786.06,-213.93 695.06,-213.93 695.06,-160.93 786.06,-160.93 786.06,-213.93"/>
<text text-anchor="middle" x="740.56" y="-198.73" font-family="Times,serif" font-size="14.00">mu_demand</text>
<text text-anchor="middle" x="740.56" y="-183.73" font-family="Times,serif" font-size="14.00">~</text>
<text text-anchor="middle" x="740.56" y="-168.73" font-family="Times,serif" font-size="14.00">Deterministic</text>
</g>
<!-- competitor_price&#45;&gt;mu_demand -->
<g id="edge7" class="edge">
<title>competitor_price&#45;&gt;mu_demand</title>
<path fill="none" stroke="black" d="M854.87,-274.49C843.1,-261.24 827.84,-245.33 812.56,-232.91 807.25,-228.59 801.48,-224.37 795.61,-220.35"/>
<polygon fill="black" stroke="black" points="797.87,-217.65 787.6,-215.07 794.02,-223.5 797.87,-217.65"/>
</g>
<!-- price -->
<g id="node9" class="node">
<title>price</title>
<path fill="lightgrey" stroke="black" d="M791.56,-327.88C791.56,-327.88 761.56,-327.88 761.56,-327.88 755.56,-327.88 749.56,-321.88 749.56,-315.88 749.56,-315.88 749.56,-286.88 749.56,-286.88 749.56,-280.88 755.56,-274.88 761.56,-274.88 761.56,-274.88 791.56,-274.88 791.56,-274.88 797.56,-274.88 803.56,-280.88 803.56,-286.88 803.56,-286.88 803.56,-315.88 803.56,-315.88 803.56,-321.88 797.56,-327.88 791.56,-327.88"/>
<text text-anchor="middle" x="776.56" y="-312.68" font-family="Times,serif" font-size="14.00">price</text>
<text text-anchor="middle" x="776.56" y="-297.68" font-family="Times,serif" font-size="14.00">~</text>
<text text-anchor="middle" x="776.56" y="-282.68" font-family="Times,serif" font-size="14.00">Data</text>
</g>
<!-- price&#45;&gt;mu_demand -->
<g id="edge9" class="edge">
<title>price&#45;&gt;mu_demand</title>
<path fill="none" stroke="black" d="M768.21,-274.42C763.48,-259.72 757.5,-241.11 752.31,-224.96"/>
<polygon fill="black" stroke="black" points="755.72,-224.14 749.33,-215.7 749.06,-226.29 755.72,-224.14"/>
</g>
<!-- season -->
<g id="node10" class="node">
<title>season</title>
<path fill="lightgrey" stroke="black" d="M719.56,-327.88C719.56,-327.88 689.56,-327.88 689.56,-327.88 683.56,-327.88 677.56,-321.88 677.56,-315.88 677.56,-315.88 677.56,-286.88 677.56,-286.88 677.56,-280.88 683.56,-274.88 689.56,-274.88 689.56,-274.88 719.56,-274.88 719.56,-274.88 725.56,-274.88 731.56,-280.88 731.56,-286.88 731.56,-286.88 731.56,-315.88 731.56,-315.88 731.56,-321.88 725.56,-327.88 719.56,-327.88"/>
<text text-anchor="middle" x="704.56" y="-312.68" font-family="Times,serif" font-size="14.00">season</text>
<text text-anchor="middle" x="704.56" y="-297.68" font-family="Times,serif" font-size="14.00">~</text>
<text text-anchor="middle" x="704.56" y="-282.68" font-family="Times,serif" font-size="14.00">Data</text>
</g>
<!-- season&#45;&gt;mu_demand -->
<g id="edge10" class="edge">
<title>season&#45;&gt;mu_demand</title>
<path fill="none" stroke="black" d="M712.91,-274.42C717.63,-259.72 723.62,-241.11 728.81,-224.96"/>
<polygon fill="black" stroke="black" points="732.06,-226.29 731.79,-215.7 725.4,-224.14 732.06,-226.29"/>
</g>
<!-- trend -->
<g id="node11" class="node">
<title>trend</title>
<path fill="lightgrey" stroke="black" d="M647.56,-327.88C647.56,-327.88 617.56,-327.88 617.56,-327.88 611.56,-327.88 605.56,-321.88 605.56,-315.88 605.56,-315.88 605.56,-286.88 605.56,-286.88 605.56,-280.88 611.56,-274.88 617.56,-274.88 617.56,-274.88 647.56,-274.88 647.56,-274.88 653.56,-274.88 659.56,-280.88 659.56,-286.88 659.56,-286.88 659.56,-315.88 659.56,-315.88 659.56,-321.88 653.56,-327.88 647.56,-327.88"/>
<text text-anchor="middle" x="632.56" y="-312.68" font-family="Times,serif" font-size="14.00">trend</text>
<text text-anchor="middle" x="632.56" y="-297.68" font-family="Times,serif" font-size="14.00">~</text>
<text text-anchor="middle" x="632.56" y="-282.68" font-family="Times,serif" font-size="14.00">Data</text>
</g>
<!-- trend&#45;&gt;mu_demand -->
<g id="edge6" class="edge">
<title>trend&#45;&gt;mu_demand</title>
<path fill="none" stroke="black" d="M642.42,-274.64C648.49,-261.12 657.29,-244.91 668.56,-232.91 673.63,-227.51 679.49,-222.51 685.64,-217.97"/>
<polygon fill="black" stroke="black" points="687.31,-221.07 693.54,-212.5 683.33,-215.31 687.31,-221.07"/>
</g>
<!-- mu_demand&#45;&gt;demand -->
<g id="edge12" class="edge">
<title>mu_demand&#45;&gt;demand</title>
<path fill="none" stroke="black" d="M762.36,-160.61C773.73,-147.14 787.86,-130.41 800.46,-115.49"/>
<polygon fill="black" stroke="black" points="802.91,-118.02 806.69,-108.12 797.56,-113.5 802.91,-118.02"/>
</g>
<!-- slope_demand_price&#45;&gt;mu_demand -->
<g id="edge11" class="edge">
<title>slope_demand_price&#45;&gt;mu_demand</title>
<path fill="none" stroke="black" d="M533.81,-268.08C551.64,-255.84 572.93,-242.54 593.56,-232.91 622.25,-219.51 655.95,-208.97 683.84,-201.52"/>
<polygon fill="black" stroke="black" points="684.35,-205.01 693.15,-199.1 682.59,-198.23 684.35,-205.01"/>
</g>
<!-- alpha_demand&#45;&gt;mu_demand -->
<g id="edge8" class="edge">
<title>alpha_demand&#45;&gt;mu_demand</title>
<path fill="none" stroke="black" d="M342.73,-267.41C356.01,-254.52 372.73,-240.93 390.56,-232.91 441.56,-209.95 597.88,-197.11 683.33,-191.64"/>
<polygon fill="black" stroke="black" points="683.37,-195.14 693.13,-191.03 682.93,-188.16 683.37,-195.14"/>
</g>
<!-- beta_demand -->
<g id="node15" class="node">
<title>beta_demand</title>
<ellipse fill="none" stroke="black" cx="1018.56" cy="-301.38" rx="62.87" ry="37.45"/>
<text text-anchor="middle" x="1018.56" y="-312.68" font-family="Times,serif" font-size="14.00">beta_demand</text>
<text text-anchor="middle" x="1018.56" y="-297.68" font-family="Times,serif" font-size="14.00">~</text>
<text text-anchor="middle" x="1018.56" y="-282.68" font-family="Times,serif" font-size="14.00">Normal</text>
</g>
<!-- beta_demand&#45;&gt;mu_demand -->
<g id="edge5" class="edge">
<title>beta_demand&#45;&gt;mu_demand</title>
<path fill="none" stroke="black" d="M989.57,-267.81C976.66,-255.15 960.55,-241.62 943.56,-232.91 897.69,-209.37 839.78,-198.25 797.56,-193.02"/>
<polygon fill="black" stroke="black" points="798.2,-189.57 787.87,-191.9 797.4,-196.52 798.2,-189.57"/>
</g>
</g>
</svg>
