<?xml version="1.0" encoding="UTF-8" standalone="no"?>
<!DOCTYPE svg PUBLIC "-//W3C//DTD SVG 1.1//EN"
 "http://www.w3.org/Graphics/SVG/1.1/DTD/svg11.dtd">
<!-- Generated by graphviz version 7.1.0 (0)
 -->
<!-- Pages: 1 -->
<svg width="332pt" height="105pt"
 viewBox="0.00 0.00 332.00 105.00" xmlns="http://www.w3.org/2000/svg" xmlns:xlink="http://www.w3.org/1999/xlink">
<g id="graph0" class="graph" transform="scale(1 1) rotate(0) translate(4 101)">
<polygon fill="white" stroke="none" points="-4,4 -4,-101 328,-101 328,4 -4,4"/>
<!-- Z -->
<g id="node1" class="node">
<title>Z</title>
<polygon fill="none" stroke="black" points="54,-36 0,-36 0,0 54,0 54,-36"/>
<text text-anchor="middle" x="27" y="-14.3" font-family="Times,serif" font-size="14.00">Z</text>
</g>
<!-- X -->
<g id="node2" class="node">
<title>X</title>
<ellipse fill="none" stroke="black" cx="117" cy="-41" rx="27" ry="18"/>
<text text-anchor="middle" x="117" y="-37.3" font-family="Times,serif" font-size="14.00">X</text>
</g>
<!-- Z&#45;&gt;X -->
<g id="edge1" class="edge">
<title>Z&#45;&gt;X</title>
<path fill="none" stroke="black" d="M54.4,-24.9C62.57,-27.04 71.7,-29.42 80.39,-31.69"/>
<polygon fill="black" stroke="black" points="79.4,-35.05 89.96,-34.19 81.17,-28.28 79.4,-35.05"/>
</g>
<!-- Y -->
<g id="node4" class="node">
<title>Y</title>
<ellipse fill="none" stroke="black" cx="297" cy="-33" rx="27" ry="18"/>
<text text-anchor="middle" x="297" y="-29.3" font-family="Times,serif" font-size="14.00">Y</text>
</g>
<!-- Z&#45;&gt;Y -->
<g id="edge5" class="edge">
<title>Z&#45;&gt;Y</title>
<path fill="none" stroke="black" d="M54.23,-15.93C65.26,-15.16 78.25,-14.38 90,-14 113.99,-13.23 120.05,-12.51 144,-14 183.54,-16.46 228.53,-22.49 259.24,-27.1"/>
<polygon fill="black" stroke="black" points="258.36,-30.51 268.78,-28.56 259.42,-23.59 258.36,-30.51"/>
</g>
<!-- M -->
<g id="node3" class="node">
<title>M</title>
<ellipse fill="none" stroke="black" cx="207" cy="-79" rx="27" ry="18"/>
<text text-anchor="middle" x="207" y="-75.3" font-family="Times,serif" font-size="14.00">M</text>
</g>
<!-- X&#45;&gt;M -->
<g id="edge2" class="edge">
<title>X&#45;&gt;M</title>
<path fill="none" stroke="black" d="M140.21,-50.59C150.21,-54.91 162.23,-60.1 173.24,-64.85"/>
<polygon fill="black" stroke="black" points="171.84,-68.06 182.41,-68.81 174.62,-61.64 171.84,-68.06"/>
</g>
<!-- X&#45;&gt;Y -->
<g id="edge4" class="edge">
<title>X&#45;&gt;Y</title>
<path fill="none" stroke="black" d="M144.26,-39.82C174.37,-38.47 223.96,-36.24 258.21,-34.7"/>
<polygon fill="black" stroke="black" points="258.28,-38.2 268.12,-34.25 257.97,-31.21 258.28,-38.2"/>
</g>
<!-- M&#45;&gt;Y -->
<g id="edge3" class="edge">
<title>M&#45;&gt;Y</title>
<path fill="none" stroke="black" d="M228.85,-68.1C239.63,-62.47 252.98,-55.49 264.94,-49.23"/>
<polygon fill="black" stroke="black" points="266.41,-52.42 273.65,-44.68 263.16,-46.21 266.41,-52.42"/>
</g>
</g>
</svg>
