<?xml version="1.0" encoding="UTF-8" standalone="no"?>
<!DOCTYPE svg PUBLIC "-//W3C//DTD SVG 1.1//EN"
 "http://www.w3.org/Graphics/SVG/1.1/DTD/svg11.dtd">
<!-- Generated by graphviz version 12.2.1 (0)
 -->
<!-- Pages: 1 -->
<svg width="371pt" height="84pt"
 viewBox="0.00 0.00 371.15 83.98" xmlns="http://www.w3.org/2000/svg" xmlns:xlink="http://www.w3.org/1999/xlink">
<g id="graph0" class="graph" transform="scale(1 1) rotate(0) translate(4 79.98)">
<polygon fill="white" stroke="none" points="-4,4 -4,-79.98 367.15,-79.98 367.15,4 -4,4"/>
<!-- foot_traffic -->
<g id="node1" class="node">
<title>foot_traffic</title>
<polygon fill="none" stroke="black" points="77.5,-36 0,-36 0,0 77.5,0 77.5,-36"/>
<text text-anchor="middle" x="38.75" y="-12.95" font-family="Times,serif" font-size="14.00">foot_traffic</text>
</g>
<!-- promo -->
<g id="node2" class="node">
<title>promo</title>
<ellipse fill="none" stroke="black" cx="149.99" cy="-52" rx="35.49" ry="18"/>
<text text-anchor="middle" x="149.99" y="-46.95" font-family="Times,serif" font-size="14.00">promo</text>
</g>
<!-- foot_traffic&#45;&gt;promo -->
<g id="edge1" class="edge">
<title>foot_traffic&#45;&gt;promo</title>
<path fill="none" stroke="black" d="M77.96,-29.89C87.79,-32.95 98.41,-36.26 108.36,-39.35"/>
<polygon fill="black" stroke="black" points="107.2,-42.66 117.79,-42.29 109.28,-35.98 107.2,-42.66"/>
</g>
<!-- revenue -->
<g id="node3" class="node">
<title>revenue</title>
<ellipse fill="none" stroke="black" cx="323.06" cy="-39" rx="40.09" ry="18"/>
<text text-anchor="middle" x="323.06" y="-33.95" font-family="Times,serif" font-size="14.00">revenue</text>
</g>
<!-- foot_traffic&#45;&gt;revenue -->
<g id="edge4" class="edge">
<title>foot_traffic&#45;&gt;revenue</title>
<path fill="none" stroke="black" d="M77.71,-18.72C122.57,-19.87 199.39,-22.78 264.97,-30 267.81,-30.31 270.72,-30.67 273.65,-31.05"/>
<polygon fill="black" stroke="black" points="273.08,-34.5 283.47,-32.43 274.05,-27.57 273.08,-34.5"/>
</g>
<!-- promo&#45;&gt;revenue -->
<g id="edge2" class="edge">
<title>promo&#45;&gt;revenue</title>
<path fill="none" stroke="black" d="M184.59,-56.91C207.39,-59.41 238.15,-61.13 264.97,-57 270.22,-56.19 275.64,-54.99 280.96,-53.59"/>
<polygon fill="black" stroke="black" points="281.58,-57.05 290.2,-50.9 279.62,-50.33 281.58,-57.05"/>
<text text-anchor="middle" x="234.22" y="-62.68" font-family="Times,serif" font-size="14.00">b_contemp</text>
</g>
<!-- promo&#45;&gt;revenue -->
<g id="edge3" class="edge">
<title>promo&#45;&gt;revenue</title>
<path fill="none" stroke="black" stroke-dasharray="5,2" d="M179.8,-41.88C187.4,-39.65 195.67,-37.63 203.47,-36.5 225.91,-33.26 250.99,-33.26 272.28,-34.33"/>
<polygon fill="black" stroke="black" points="271.98,-37.82 282.17,-34.92 272.4,-30.83 271.98,-37.82"/>
<text text-anchor="middle" x="234.22" y="-39.7" font-family="Times,serif" font-size="14.00">b_lag (t−1)</text>
</g>
</g>
</svg>
