<?xml version="1.0" encoding="UTF-8" standalone="no"?>
<!DOCTYPE svg PUBLIC "-//W3C//DTD SVG 1.1//EN"
 "http://www.w3.org/Graphics/SVG/1.1/DTD/svg11.dtd">
<!-- Generated by graphviz version 12.2.1 (0)
 -->
<!-- Pages: 1 -->
<svg width="359pt" height="78pt"
 viewBox="0.00 0.00 359.15 78.00" xmlns="http://www.w3.org/2000/svg" xmlns:xlink="http://www.w3.org/1999/xlink">
<g id="graph0" class="graph" transform="scale(1 1) rotate(0) translate(4 74)">
<polygon fill="white" stroke="none" points="-4,4 -4,-74 355.15,-74 355.15,4 -4,4"/>
<!-- foot_traffic -->
<g id="node1" class="node">
<title>foot_traffic</title>
<polygon fill="none" stroke="black" points="77.5,-36 0,-36 0,0 77.5,0 77.5,-36"/>
<text text-anchor="middle" x="38.75" y="-12.95" font-family="Times,serif" font-size="14.00">foot_traffic</text>
</g>
<!-- promo -->
<g id="node2" class="node">
<title>promo</title>
<ellipse fill="none" stroke="black" cx="149.99" cy="-52" rx="35.49" ry="18"/>
<text text-anchor="middle" x="149.99" y="-46.95" font-family="Times,serif" font-size="14.00">promo</text>
</g>
<!-- foot_traffic&#45;&gt;promo -->
<g id="edge1" class="edge">
<title>foot_traffic&#45;&gt;promo</title>
<path fill="none" stroke="black" d="M77.96,-29.89C87.79,-32.95 98.41,-36.26 108.36,-39.35"/>
<polygon fill="black" stroke="black" points="107.2,-42.66 117.79,-42.29 109.28,-35.98 107.2,-42.66"/>
</g>
<!-- revenue -->
<g id="node3" class="node">
<title>revenue</title>
<ellipse fill="none" stroke="black" cx="311.06" cy="-22" rx="40.09" ry="18"/>
<text text-anchor="middle" x="311.06" y="-16.95" font-family="Times,serif" font-size="14.00">revenue</text>
</g>
<!-- foot_traffic&#45;&gt;revenue -->
<g id="edge3" class="edge">
<title>foot_traffic&#45;&gt;revenue</title>
<path fill="none" stroke="black" d="M77.91,-18.56C125.4,-19.27 206.65,-20.47 259.35,-21.25"/>
<polygon fill="black" stroke="black" points="259.22,-24.75 269.27,-21.4 259.32,-17.75 259.22,-24.75"/>
</g>
<!-- promo&#45;&gt;revenue -->
<g id="edge2" class="edge">
<title>promo&#45;&gt;revenue</title>
<path fill="none" stroke="black" d="M183.56,-45.86C206.26,-41.58 236.92,-35.79 262.36,-31"/>
<polygon fill="black" stroke="black" points="262.98,-34.44 272.15,-29.15 261.68,-27.56 262.98,-34.44"/>
<text text-anchor="middle" x="228.22" y="-44.64" font-family="Times,serif" font-size="14.00">b_promo</text>
</g>
</g>
</svg>
